<svg xmlns="http://www.w3.org/2000/svg" width="900" height="680" viewBox="0 0 900 680" role="img">
<rect width="900" height="680" fill="white"/>
<g stroke-linecap="round" stroke-linejoin="round">
<line x1="380" y1="365" x2="250" y2="535" stroke="#8f8f8f" stroke-width="2.2" opacity="0.6" />
<line x1="380" y1="365" x2="685" y2="350" stroke="#8f8f8f" stroke-width="2.2" opacity="0.6" />
<line x1="380" y1="365" x2="365" y2="115" stroke="#8f8f8f" stroke-width="2.2" opacity="0.6" />
<line x1="250" y1="535" x2="555" y2="520" stroke="#8f8f8f" stroke-width="2.2" opacity="0.6" />
<line x1="250" y1="535" x2="235" y2="285" stroke="#8f8f8f" stroke-width="2.2" opacity="0.6" />
<line x1="685" y1="350" x2="555" y2="520" stroke="#8f8f8f" stroke-width="2.2" opacity="0.6" />
<line x1="685" y1="350" x2="670" y2="100" stroke="#8f8f8f" stroke-width="2.2" opacity="0.6" />
<line x1="365" y1="115" x2="235" y2="285" stroke="#8f8f8f" stroke-width="2.2" opacity="0.6" />
<line x1="365" y1="115" x2="670" y2="100" stroke="#8f8f8f" stroke-width="2.2" opacity="0.6" />
<line x1="555" y1="520" x2="540" y2="270" stroke="#8f8f8f" stroke-width="2.2" opacity="0.6" />
<line x1="235" y1="285" x2="540" y2="270" stroke="#8f8f8f" stroke-width="2.2" opacity="0.6" />
<line x1="670" y1="100" x2="540" y2="270" stroke="#8f8f8f" stroke-width="2.2" opacity="0.6" />
<polygon points="380,365 110,450 350,640 620,555" fill="#ffb6ad" fill-opacity="0.72" stroke="#111111" stroke-width="2.4"/>
<polygon points="380,365 555,160 795,350 620,555" fill="#b7baff" fill-opacity="0.72" stroke="#111111" stroke-width="2.4"/>
<polygon points="380,365 110,450 285,245 555,160" fill="#bfddb7" fill-opacity="0.72" stroke="#111111" stroke-width="2.4"/>
<line x1="380" y1="365" x2="110" y2="450" stroke="#111111" stroke-width="2.4" opacity="1.0" />
<line x1="380" y1="365" x2="620" y2="555" stroke="#111111" stroke-width="2.4" opacity="1.0" />
<line x1="380" y1="365" x2="555" y2="160" stroke="#111111" stroke-width="2.4" opacity="1.0" />
<line x1="110" y1="450" x2="350" y2="640" stroke="#111111" stroke-width="2.4" opacity="1.0" />
<line x1="110" y1="450" x2="285" y2="245" stroke="#111111" stroke-width="2.4" opacity="1.0" />
<line x1="620" y1="555" x2="350" y2="640" stroke="#111111" stroke-width="2.4" opacity="1.0" />
<line x1="620" y1="555" x2="795" y2="350" stroke="#111111" stroke-width="2.4" opacity="1.0" />
<line x1="555" y1="160" x2="285" y2="245" stroke="#111111" stroke-width="2.4" opacity="1.0" />
<line x1="555" y1="160" x2="795" y2="350" stroke="#111111" stroke-width="2.4" opacity="1.0" />
<line x1="350" y1="640" x2="525" y2="435" stroke="#111111" stroke-width="2.4" opacity="1.0" />
<line x1="285" y1="245" x2="525" y2="435" stroke="#111111" stroke-width="2.4" opacity="1.0" />
<line x1="795" y1="350" x2="525" y2="435" stroke="#111111" stroke-width="2.4" opacity="1.0" />
</g>
<g font-family="DejaVu Serif, Georgia, serif" font-size="48" font-weight="600">
<text x="222" y="583" fill="#111111">e1</text>
<text x="693" y="340" fill="#111111">e2</text>
<text x="313" y="97" fill="#111111">e3</text>
<text x="30" y="476" fill="#111111">f(e1)</text>
<text x="630" y="611" fill="#111111">f(e2)</text>
<text x="545" y="122" fill="#111111">f(e3)</text>
<text x="344" y="387" fill="#5a1414">0</text>
</g>
</svg>
