<svg xmlns="http://www.w3.org/2000/svg" width="1220" height="810" viewBox="0 0 1220 810">
<defs>
</defs>
<rect x="0" y="0" width="1220" height="810" fill="white"/>
<line x1="78.000" y1="527.000" x2="78.000" y2="287.000" stroke="#8a8a8a" stroke-width="2.0" opacity="1.0" stroke-linecap="round"/>
<line x1="138.000" y1="527.000" x2="138.000" y2="287.000" stroke="#8a8a8a" stroke-width="2.0" opacity="1.0" stroke-linecap="round"/>
<line x1="198.000" y1="527.000" x2="198.000" y2="287.000" stroke="#8a8a8a" stroke-width="2.0" opacity="1.0" stroke-linecap="round"/>
<line x1="258.000" y1="527.000" x2="258.000" y2="287.000" stroke="#8a8a8a" stroke-width="2.0" opacity="1.0" stroke-linecap="round"/>
<line x1="318.000" y1="527.000" x2="318.000" y2="287.000" stroke="#8a8a8a" stroke-width="2.0" opacity="1.0" stroke-linecap="round"/>
<line x1="78.000" y1="527.000" x2="318.000" y2="527.000" stroke="#8a8a8a" stroke-width="2.0" opacity="1.0" stroke-linecap="round"/>
<line x1="78.000" y1="467.000" x2="318.000" y2="467.000" stroke="#8a8a8a" stroke-width="2.0" opacity="1.0" stroke-linecap="round"/>
<line x1="78.000" y1="407.000" x2="318.000" y2="407.000" stroke="#8a8a8a" stroke-width="2.0" opacity="1.0" stroke-linecap="round"/>
<line x1="78.000" y1="347.000" x2="318.000" y2="347.000" stroke="#8a8a8a" stroke-width="2.0" opacity="1.0" stroke-linecap="round"/>
<line x1="78.000" y1="287.000" x2="318.000" y2="287.000" stroke="#8a8a8a" stroke-width="2.0" opacity="1.0" stroke-linecap="round"/>
<line x1="78.000" y1="527.000" x2="318.000" y2="287.000" stroke="#ff331f" stroke-width="4.8" opacity="1" stroke-linecap="round"/>
<circle cx="78.000" cy="527.000" r="13" fill="#ff331f" stroke="none" stroke-width="0"/>
<circle cx="138.000" cy="467.000" r="13" fill="#ff331f" stroke="none" stroke-width="0"/>
<circle cx="198.000" cy="407.000" r="13" fill="#ff331f" stroke="none" stroke-width="0"/>
<circle cx="258.000" cy="347.000" r="13" fill="#ff331f" stroke="none" stroke-width="0"/>
<circle cx="318.000" cy="287.000" r="13" fill="#ff331f" stroke="none" stroke-width="0"/>
<line x1="78.000" y1="287.000" x2="318.000" y2="527.000" stroke="#1f45f0" stroke-width="4.8" opacity="1" stroke-linecap="round"/>
<circle cx="78.000" cy="287.000" r="13" fill="#1f45f0" stroke="none" stroke-width="0"/>
<circle cx="138.000" cy="347.000" r="13" fill="#1f45f0" stroke="none" stroke-width="0"/>
<circle cx="198.000" cy="407.000" r="13" fill="#1f45f0" stroke="none" stroke-width="0"/>
<circle cx="258.000" cy="467.000" r="13" fill="#1f45f0" stroke="none" stroke-width="0"/>
<circle cx="318.000" cy="527.000" r="13" fill="#1f45f0" stroke="none" stroke-width="0"/>
<text x="236.000" y="324.000" font-family="Times New Roman, Times, STIXGeneral, serif" font-size="64" font-weight="bold" font-style="normal" fill="#000000" text-anchor="start">u</text>
<text x="244.000" y="444.000" font-family="Times New Roman, Times, STIXGeneral, serif" font-size="64" font-weight="bold" font-style="normal" fill="#000000" text-anchor="start">v</text>
<line x1="680.000" y1="527.000" x2="680.000" y2="287.000" stroke="#c9c9c9" stroke-width="2.0" opacity="1.0" stroke-linecap="round"/>
<line x1="740.000" y1="527.000" x2="740.000" y2="287.000" stroke="#c9c9c9" stroke-width="2.0" opacity="1.0" stroke-linecap="round"/>
<line x1="800.000" y1="527.000" x2="800.000" y2="287.000" stroke="#c9c9c9" stroke-width="2.0" opacity="1.0" stroke-linecap="round"/>
<line x1="860.000" y1="527.000" x2="860.000" y2="287.000" stroke="#c9c9c9" stroke-width="2.0" opacity="1.0" stroke-linecap="round"/>
<line x1="920.000" y1="527.000" x2="920.000" y2="287.000" stroke="#c9c9c9" stroke-width="2.0" opacity="1.0" stroke-linecap="round"/>
<line x1="680.000" y1="527.000" x2="920.000" y2="527.000" stroke="#c9c9c9" stroke-width="2.0" opacity="1.0" stroke-linecap="round"/>
<line x1="680.000" y1="467.000" x2="920.000" y2="467.000" stroke="#c9c9c9" stroke-width="2.0" opacity="1.0" stroke-linecap="round"/>
<line x1="680.000" y1="407.000" x2="920.000" y2="407.000" stroke="#c9c9c9" stroke-width="2.0" opacity="1.0" stroke-linecap="round"/>
<line x1="680.000" y1="347.000" x2="920.000" y2="347.000" stroke="#c9c9c9" stroke-width="2.0" opacity="1.0" stroke-linecap="round"/>
<line x1="680.000" y1="287.000" x2="920.000" y2="287.000" stroke="#c9c9c9" stroke-width="2.0" opacity="1.0" stroke-linecap="round"/>
<line x1="680.000" y1="527.000" x2="440.000" y2="47.000" stroke="#8a8a8a" stroke-width="1.8" opacity="1.0" stroke-linecap="round"/>
<line x1="800.000" y1="587.000" x2="560.000" y2="107.000" stroke="#8a8a8a" stroke-width="1.8" opacity="1.0" stroke-linecap="round"/>
<line x1="920.000" y1="647.000" x2="680.000" y2="167.000" stroke="#8a8a8a" stroke-width="1.8" opacity="1.0" stroke-linecap="round"/>
<line x1="1040.000" y1="707.000" x2="800.000" y2="227.000" stroke="#8a8a8a" stroke-width="1.8" opacity="1.0" stroke-linecap="round"/>
<line x1="1160.000" y1="767.000" x2="920.000" y2="287.000" stroke="#8a8a8a" stroke-width="1.8" opacity="1.0" stroke-linecap="round"/>
<line x1="680.000" y1="527.000" x2="1160.000" y2="767.000" stroke="#8a8a8a" stroke-width="1.8" opacity="1.0" stroke-linecap="round"/>
<line x1="620.000" y1="407.000" x2="1100.000" y2="647.000" stroke="#8a8a8a" stroke-width="1.8" opacity="1.0" stroke-linecap="round"/>
<line x1="560.000" y1="287.000" x2="1040.000" y2="527.000" stroke="#8a8a8a" stroke-width="1.8" opacity="1.0" stroke-linecap="round"/>
<line x1="500.000" y1="167.000" x2="980.000" y2="407.000" stroke="#8a8a8a" stroke-width="1.8" opacity="1.0" stroke-linecap="round"/>
<line x1="440.000" y1="47.000" x2="920.000" y2="287.000" stroke="#8a8a8a" stroke-width="1.8" opacity="1.0" stroke-linecap="round"/>
<line x1="680.000" y1="527.000" x2="920.000" y2="287.000" stroke="#ff331f" stroke-width="4.8" opacity="1" stroke-linecap="round"/>
<circle cx="680.000" cy="527.000" r="13" fill="#ff331f" stroke="none" stroke-width="0"/>
<circle cx="740.000" cy="467.000" r="13" fill="#ff331f" stroke="none" stroke-width="0"/>
<circle cx="800.000" cy="407.000" r="13" fill="#ff331f" stroke="none" stroke-width="0"/>
<circle cx="860.000" cy="347.000" r="13" fill="#ff331f" stroke="none" stroke-width="0"/>
<circle cx="920.000" cy="287.000" r="13" fill="#ff331f" stroke="none" stroke-width="0"/>
<line x1="440.000" y1="47.000" x2="1160.000" y2="767.000" stroke="#1f45f0" stroke-width="4.8" opacity="1" stroke-linecap="round"/>
<circle cx="440.000" cy="47.000" r="13" fill="#1f45f0" stroke="none" stroke-width="0"/>
<circle cx="620.000" cy="227.000" r="13" fill="#1f45f0" stroke="none" stroke-width="0"/>
<circle cx="800.000" cy="407.000" r="13" fill="#1f45f0" stroke="none" stroke-width="0"/>
<circle cx="980.000" cy="587.000" r="13" fill="#1f45f0" stroke="none" stroke-width="0"/>
<circle cx="1160.000" cy="767.000" r="13" fill="#1f45f0" stroke="none" stroke-width="0"/>
<text x="838.000" y="324.000" font-family="Times New Roman, Times, STIXGeneral, serif" font-size="64" font-weight="bold" font-style="normal" fill="#000000" text-anchor="start">u</text>
<text x="948.000" y="566.000" font-family="Times New Roman, Times, STIXGeneral, serif" font-size="64" font-weight="bold" font-style="normal" fill="#000000" text-anchor="start">3v</text>
</svg>