<?xml version="1.0" encoding="utf-8" standalone="no"?>
<!DOCTYPE svg PUBLIC "-//W3C//DTD SVG 1.1//EN"
  "http://www.w3.org/Graphics/SVG/1.1/DTD/svg11.dtd">
<svg xmlns:xlink="http://www.w3.org/1999/xlink" width="371.853583pt" height="382.79952pt" viewBox="0 0 371.853583 382.79952" xmlns="http://www.w3.org/2000/svg" version="1.1">
 <metadata>
  <rdf:RDF xmlns:dc="http://purl.org/dc/elements/1.1/" xmlns:cc="http://creativecommons.org/ns#" xmlns:rdf="http://www.w3.org/1999/02/22-rdf-syntax-ns#">
   <cc:Work>
    <dc:type rdf:resource="http://purl.org/dc/dcmitype/StillImage"/>
    <dc:format>image/svg+xml</dc:format>
    <dc:creator>
     <cc:Agent>
      <dc:title>Matplotlib v3.10.9, https://matplotlib.org/</dc:title>
     </cc:Agent>
    </dc:creator>
   </cc:Work>
  </rdf:RDF>
 </metadata>
 <defs>
  <style type="text/css">*{stroke-linejoin: round; stroke-linecap: butt}</style>
 </defs>
 <g id="figure_1">
  <g id="patch_1">
   <path d="M 0 382.79952
L 371.853583 382.79952
L 371.853583 0
L 0 0
z
" style="fill: #ffffff"/>
  </g>
  <g id="axes_1">
   <g id="patch_2">
    <path d="M 42.620312 345.24327
L 364.653583 345.24327
L 364.653583 23.21
L 42.620312 23.21
z
" style="fill: #ffffff"/>
   </g>
   <g id="matplotlib.axis_1">
    <g id="xtick_1">
     <g id="line2d_1">
      <path d="M 69.456418 345.24327
L 69.456418 23.21
" clip-path="url(#peec3556a46)" style="fill: none; stroke: #d7dce2; stroke-opacity: 0.8; stroke-width: 0.6; stroke-linecap: square"/>
     </g>
     <g id="line2d_2">
      <defs>
       <path id="m49b78a1264" d="M 0 0
L 0 3.5
" style="stroke: #000000; stroke-width: 0.8"/>
      </defs>
      <g>
       <use xlink:href="#m49b78a1264" x="69.456418" y="345.24327" style="stroke: #000000; stroke-width: 0.8"/>
      </g>
     </g>
     <g id="text_1">
      <text style="font-size: 10px; font-family: 'DejaVu Sans'; text-anchor: middle" x="69.456418" y="359.841707" transform="rotate(-0 69.456418 359.841707)">0</text>
     </g>
    </g>
    <g id="xtick_2">
     <g id="line2d_3">
      <path d="M 136.546683 345.24327
L 136.546683 23.21
" clip-path="url(#peec3556a46)" style="fill: none; stroke: #d7dce2; stroke-opacity: 0.8; stroke-width: 0.6; stroke-linecap: square"/>
     </g>
     <g id="line2d_4">
      <g>
       <use xlink:href="#m49b78a1264" x="136.546683" y="345.24327" style="stroke: #000000; stroke-width: 0.8"/>
      </g>
     </g>
     <g id="text_2">
      <text style="font-size: 10px; font-family: 'DejaVu Sans'; text-anchor: middle" x="136.546683" y="359.841707" transform="rotate(-0 136.546683 359.841707)">1</text>
     </g>
    </g>
    <g id="xtick_3">
     <g id="line2d_5">
      <path d="M 203.636948 345.24327
L 203.636948 23.21
" clip-path="url(#peec3556a46)" style="fill: none; stroke: #d7dce2; stroke-opacity: 0.8; stroke-width: 0.6; stroke-linecap: square"/>
     </g>
     <g id="line2d_6">
      <g>
       <use xlink:href="#m49b78a1264" x="203.636948" y="345.24327" style="stroke: #000000; stroke-width: 0.8"/>
      </g>
     </g>
     <g id="text_3">
      <text style="font-size: 10px; font-family: 'DejaVu Sans'; text-anchor: middle" x="203.636948" y="359.841707" transform="rotate(-0 203.636948 359.841707)">2</text>
     </g>
    </g>
    <g id="xtick_4">
     <g id="line2d_7">
      <path d="M 270.727212 345.24327
L 270.727212 23.21
" clip-path="url(#peec3556a46)" style="fill: none; stroke: #d7dce2; stroke-opacity: 0.8; stroke-width: 0.6; stroke-linecap: square"/>
     </g>
     <g id="line2d_8">
      <g>
       <use xlink:href="#m49b78a1264" x="270.727212" y="345.24327" style="stroke: #000000; stroke-width: 0.8"/>
      </g>
     </g>
     <g id="text_4">
      <text style="font-size: 10px; font-family: 'DejaVu Sans'; text-anchor: middle" x="270.727212" y="359.841707" transform="rotate(-0 270.727212 359.841707)">3</text>
     </g>
    </g>
    <g id="xtick_5">
     <g id="line2d_9">
      <path d="M 337.817477 345.24327
L 337.817477 23.21
" clip-path="url(#peec3556a46)" style="fill: none; stroke: #d7dce2; stroke-opacity: 0.8; stroke-width: 0.6; stroke-linecap: square"/>
     </g>
     <g id="line2d_10">
      <g>
       <use xlink:href="#m49b78a1264" x="337.817477" y="345.24327" style="stroke: #000000; stroke-width: 0.8"/>
      </g>
     </g>
     <g id="text_5">
      <text style="font-size: 10px; font-family: 'DejaVu Sans'; text-anchor: middle" x="337.817477" y="359.841707" transform="rotate(-0 337.817477 359.841707)">4</text>
     </g>
    </g>
    <g id="text_6">
     <!-- $x$ -->
     <g transform="translate(200.636948 373.519832)">
      <text>
       <tspan x="0" y="-0.53125" style="font-style: oblique; font-size: 10px; font-family: 'DejaVu Sans'">x</tspan>
      </text>
     </g>
    </g>
   </g>
   <g id="matplotlib.axis_2">
    <g id="ytick_1">
     <g id="line2d_11">
      <path d="M 42.620312 318.407164
L 364.653583 318.407164
" clip-path="url(#peec3556a46)" style="fill: none; stroke: #d7dce2; stroke-opacity: 0.8; stroke-width: 0.6; stroke-linecap: square"/>
     </g>
     <g id="line2d_12">
      <defs>
       <path id="ma24d17f8cd" d="M 0 0
L -3.5 0
" style="stroke: #000000; stroke-width: 0.8"/>
      </defs>
      <g>
       <use xlink:href="#ma24d17f8cd" x="42.620312" y="318.407164" style="stroke: #000000; stroke-width: 0.8"/>
      </g>
     </g>
     <g id="text_7">
      <text style="font-size: 10px; font-family: 'DejaVu Sans'; text-anchor: end" x="35.620312" y="322.206383" transform="rotate(-0 35.620312 322.206383)">−2</text>
     </g>
    </g>
    <g id="ytick_2">
     <g id="line2d_13">
      <path d="M 42.620312 251.3169
L 364.653583 251.3169
" clip-path="url(#peec3556a46)" style="fill: none; stroke: #d7dce2; stroke-opacity: 0.8; stroke-width: 0.6; stroke-linecap: square"/>
     </g>
     <g id="line2d_14">
      <g>
       <use xlink:href="#ma24d17f8cd" x="42.620312" y="251.3169" style="stroke: #000000; stroke-width: 0.8"/>
      </g>
     </g>
     <g id="text_8">
      <text style="font-size: 10px; font-family: 'DejaVu Sans'; text-anchor: end" x="35.620312" y="255.116118" transform="rotate(-0 35.620312 255.116118)">−1</text>
     </g>
    </g>
    <g id="ytick_3">
     <g id="line2d_15">
      <path d="M 42.620312 184.226635
L 364.653583 184.226635
" clip-path="url(#peec3556a46)" style="fill: none; stroke: #d7dce2; stroke-opacity: 0.8; stroke-width: 0.6; stroke-linecap: square"/>
     </g>
     <g id="line2d_16">
      <g>
       <use xlink:href="#ma24d17f8cd" x="42.620312" y="184.226635" style="stroke: #000000; stroke-width: 0.8"/>
      </g>
     </g>
     <g id="text_9">
      <text style="font-size: 10px; font-family: 'DejaVu Sans'; text-anchor: end" x="35.620312" y="188.025854" transform="rotate(-0 35.620312 188.025854)">0</text>
     </g>
    </g>
    <g id="ytick_4">
     <g id="line2d_17">
      <path d="M 42.620312 117.13637
L 364.653583 117.13637
" clip-path="url(#peec3556a46)" style="fill: none; stroke: #d7dce2; stroke-opacity: 0.8; stroke-width: 0.6; stroke-linecap: square"/>
     </g>
     <g id="line2d_18">
      <g>
       <use xlink:href="#ma24d17f8cd" x="42.620312" y="117.13637" style="stroke: #000000; stroke-width: 0.8"/>
      </g>
     </g>
     <g id="text_10">
      <text style="font-size: 10px; font-family: 'DejaVu Sans'; text-anchor: end" x="35.620312" y="120.935589" transform="rotate(-0 35.620312 120.935589)">1</text>
     </g>
    </g>
    <g id="ytick_5">
     <g id="line2d_19">
      <path d="M 42.620312 50.046106
L 364.653583 50.046106
" clip-path="url(#peec3556a46)" style="fill: none; stroke: #d7dce2; stroke-opacity: 0.8; stroke-width: 0.6; stroke-linecap: square"/>
     </g>
     <g id="line2d_20">
      <g>
       <use xlink:href="#ma24d17f8cd" x="42.620312" y="50.046106" style="stroke: #000000; stroke-width: 0.8"/>
      </g>
     </g>
     <g id="text_11">
      <text style="font-size: 10px; font-family: 'DejaVu Sans'; text-anchor: end" x="35.620312" y="53.845325" transform="rotate(-0 35.620312 53.845325)">2</text>
     </g>
    </g>
    <g id="text_12">
     <!-- $y$ -->
     <g transform="translate(14.778125 187.226635) rotate(-90)">
      <text>
       <tspan x="0" y="-0.53125" style="font-style: oblique; font-size: 10px; font-family: 'DejaVu Sans'">y</tspan>
      </text>
     </g>
    </g>
   </g>
   <g id="QuadContourSet_1">
    <path d="M 69.456418 31.982442
L 69.456418 345.24327
L 69.456418 345.24327
" clip-path="url(#peec3556a46)" style="fill: none; stroke: #2f6f9f; stroke-width: 1.15"/>
    <path d="M 79.381014 23.21
L 80.696391 34.675784
L 82.121878 45.152147
L 83.671304 54.832505
L 85.231232 63.22215
L 86.882735 70.966437
L 88.603849 78.065367
L 90.552599 85.164296
L 92.548028 91.617869
L 94.782212 98.071442
L 97.017556 103.879657
L 99.482898 109.687872
L 102.191432 115.496087
L 105.219966 121.436283
L 108.446752 127.27208
L 112.318896 133.787256
L 116.914403 141.076428
M 123.89393 151.883287
L 127.80747 158.264235
L 130.235311 162.607167
L 132.324971 166.844083
L 133.615685 169.889978
L 134.697919 172.932883
L 135.590531 176.159669
L 136.101145 178.741098
L 136.421209 181.322527
L 136.545131 183.903956
L 136.470723 186.485385
L 136.197114 189.081162
L 135.73562 191.648243
L 134.898126 194.87503
L 133.794809 198.101816
L 132.324971 201.609187
L 130.573439 205.200746
L 128.082817 209.718247
L 124.959327 214.881105
L 119.417826 223.508557
L 112.183861 234.887179
L 108.355727 241.340752
L 105.150116 247.148967
L 102.191432 252.957183
L 99.482898 258.765398
L 97.279846 263.928256
L 94.89425 270.075901
L 92.760289 276.190044
L 90.74211 282.643616
L 88.771149 289.742546
L 87.030568 296.841476
L 85.360642 304.585763
L 83.783657 312.975407
L 82.31459 322.010409
L 80.961841 331.690768
L 79.657482 342.661841
L 79.381014 345.24327
L 79.381014 345.24327
" clip-path="url(#peec3556a46)" style="fill: none; stroke: #2f6f9f; stroke-width: 1.15"/>
    <path d="M 89.305609 23.21
L 91.184662 31.599644
L 93.148481 39.343931
L 95.172762 46.442861
L 97.226343 52.896434
L 99.511266 59.350006
L 101.99318 65.646611
L 104.309052 70.966437
L 106.769855 76.129295
L 109.462778 81.292153
L 112.411151 86.455011
L 115.639638 91.617869
L 118.772469 96.217645
L 122.040208 100.652871
L 125.871398 105.458184
L 129.743542 109.951046
L 133.679651 114.205373
L 138.151939 118.722874
L 143.296044 123.578907
L 149.104259 128.713772
L 155.704172 134.211448
L 163.302119 140.243942
L 183.953551 156.411307
L 188.471052 160.27938
L 191.697838 163.259746
L 194.924625 166.548686
L 197.113717 169.06074
L 199.076343 171.642169
L 200.73284 174.248751
L 201.724643 176.159669
L 202.668912 178.515749
L 203.114427 180.031813
L 203.485027 181.967885
L 203.633844 183.903956
L 203.559394 185.840028
L 203.262421 187.7761
L 202.668912 189.937521
L 202.014822 191.648243
L 201.076363 193.584315
L 199.93942 195.520387
L 198.1332 198.101816
L 196.021827 200.683245
L 193.63391 203.268201
L 190.325237 206.49146
L 185.889623 210.419147
L 180.462236 214.881105
L 173.680002 220.194419
M 164.027206 227.645396
L 155.557832 234.360041
L 148.743834 240.050038
L 143.633642 244.567538
L 138.778543 249.120789
L 134.261043 253.64266
L 129.743542 258.502224
L 125.63358 263.282899
L 121.999255 267.853753
L 118.71438 272.3179
L 115.545682 276.978836
L 112.318896 282.152512
L 109.462778 287.161117
L 106.769855 292.323975
L 104.309052 297.486833
L 101.791135 303.295048
L 99.411751 309.369875
L 97.226343 315.556836
L 95.172762 322.010409
L 93.148481 329.109339
L 91.184662 336.853626
L 89.305609 345.24327
L 89.305609 345.24327
" clip-path="url(#peec3556a46)" style="fill: none; stroke: #2f6f9f; stroke-width: 1.15"/>
    <path d="M 99.230204 23.21
L 101.591361 30.30893
L 103.972687 36.762502
L 106.510681 42.98985
L 109.09211 48.744224
L 111.767612 54.187148
L 114.53869 59.350006
L 117.561617 64.512864
L 120.863098 69.675722
L 124.003375 74.193223
L 127.40061 78.710724
L 131.077565 83.228225
L 135.058328 87.745725
L 138.778543 91.666209
L 143.34336 96.13537
L 147.813545 100.199867
L 152.976403 104.565698
L 158.139261 108.633565
L 163.958118 112.914658
L 169.755692 116.912397
L 176.537512 121.304303
L 183.308194 125.438965
L 191.799032 130.339304
L 200.73284 135.23876
L 213.639985 142.011607
L 240.099632 155.805362
L 246.553205 159.440082
L 252.36142 162.96962
L 256.233564 165.54038
L 259.46035 167.891302
L 262.471591 170.351454
L 264.623208 172.363563
L 266.55928 174.475682
L 267.858756 176.159669
L 269.140709 178.252961
L 269.943432 180.031813
L 270.499332 181.967885
L 270.722556 183.903956
L 270.685318 185.194671
L 270.350791 187.130743
L 269.685062 189.066814
L 268.694702 191.002886
L 267.389361 192.938958
L 265.781542 194.87503
L 263.886306 196.811101
L 261.396422 199.015524
L 258.446803 201.328602
L 254.297492 204.226122
L 250.425348 206.695788
L 245.26249 209.759743
L 237.518203 214.048309
L 229.128559 218.469142
L 225.3305 220.431745
M 214.85702 225.814229
L 198.796768 234.258644
L 189.761767 239.26453
L 181.372122 244.173662
L 174.273192 248.58433
L 167.661459 252.957183
L 162.011405 256.938209
L 156.160695 261.346827
L 151.040331 265.486704
L 146.146333 269.736471
L 141.988296 273.608615
L 137.479094 278.126116
L 133.313493 282.643616
L 129.465958 287.161117
L 125.871398 291.731881
L 122.627354 296.196119
L 119.417826 300.9811
L 116.396867 305.876477
L 113.471375 311.039336
L 110.788372 316.202194
L 108.030934 322.010409
L 105.521277 327.818624
L 102.991427 334.272197
L 100.702465 340.72796
L 99.230204 345.24327
L 99.230204 345.24327
" clip-path="url(#peec3556a46)" style="fill: none; stroke: #2f6f9f; stroke-width: 1.15"/>
    <path d="M 109.1548 23.21
L 111.70507 29.018215
L 114.491924 34.826431
L 117.542896 40.634646
L 120.70854 46.143306
L 123.935327 51.294096
L 127.21965 56.12322
L 130.540943 60.640721
L 134.261043 65.322294
L 138.133186 69.826828
L 142.185694 74.193223
L 146.52283 78.526221
L 151.040331 82.714566
L 155.557832 86.615841
L 160.72069 90.769553
L 166.165588 94.844655
L 171.709637 98.716799
L 177.636678 102.588942
L 183.96666 106.461086
L 190.717318 110.333229
L 197.506054 113.998223
L 205.895698 118.257032
L 214.285342 122.265989
L 223.965701 126.636667
L 234.936774 131.327911
L 248.489277 136.836836
L 263.977851 142.892638
L 267.548439 144.269305
M 278.476258 148.479725
L 296.259827 155.508237
L 306.57143 159.87377
L 312.571989 162.607167
L 319.058092 165.833953
L 323.996075 168.59576
L 327.222862 170.628822
L 329.804291 172.459864
L 331.981473 174.223598
L 333.992869 176.159669
L 335.612506 178.121434
L 336.427944 179.386456
L 337.068424 180.67717
L 337.548578 182.119559
L 337.761618 183.258599
L 337.811269 184.549314
L 337.66237 185.840028
L 337.315582 187.130743
L 336.772436 188.421457
L 336.035324 189.712172
L 334.967149 191.172134
L 333.367008 192.938958
L 331.095005 194.978111
L 328.513576 196.938393
L 325.28679 199.071229
L 322.060004 200.980037
L 317.818375 203.264674
L 311.734288 206.237567
L 305.450381 209.072889
L 295.600356 213.21243
L 283.983926 217.833264
L 264.623208 225.312059
L 246.553205 232.388159
L 234.117268 237.468608
L 223.965701 241.816603
L 213.607894 246.50361
L 205.250341 250.514465
L 197.506054 254.455047
L 189.761767 258.653079
L 182.662837 262.769002
L 176.209264 266.773062
L 169.820095 271.027186
L 164.592834 274.75591
L 159.332624 278.771473
L 154.267118 282.9249
L 149.469138 287.161117
L 145.232116 291.182539
L 140.955717 295.550761
L 137.426798 299.422905
L 133.596683 303.940406
L 129.743542 308.865851
L 126.315959 313.620765
L 122.888438 318.783623
L 119.738817 323.946481
L 116.836397 329.117021
L 113.850821 334.917554
L 111.028181 340.927274
L 109.1548 345.24327
L 109.1548 345.24327
" clip-path="url(#peec3556a46)" style="fill: none; stroke: #2f6f9f; stroke-width: 1.15"/>
    <path d="M 364.653583 209.00052
L 356.263938 211.854837
L 342.711436 216.234009
L 324.351362 221.942657
M 313.315779 225.342645
L 292.37357 231.89396
L 275.594281 237.363769
L 260.751065 242.466506
L 247.843919 247.179333
L 237.518203 251.182003
L 227.837845 255.164052
L 218.802843 259.118906
L 209.899322 263.282899
L 202.668912 266.890574
L 195.569982 270.663581
L 188.471052 274.700347
L 181.801676 278.771473
L 175.884877 282.643616
L 170.357524 286.51576
L 165.193573 290.387903
L 160.075333 294.503087
L 155.134218 298.777548
L 150.962009 302.649691
L 146.431381 307.167192
L 142.234454 311.684693
L 138.343008 316.202194
L 134.73121 320.719694
L 131.034256 325.715223
L 127.80747 330.428683
L 124.554715 335.562911
L 121.353898 341.047275
L 119.079395 345.24327
M 119.079395 23.21
L 122.267232 29.018215
L 125.3481 34.181073
L 128.686575 39.343931
L 132.324971 44.528108
L 135.736033 49.02429
L 139.425228 53.541791
L 143.401216 58.059292
L 147.813545 62.70169
L 152.331046 67.102806
L 156.848547 71.195161
L 161.940429 75.483938
L 166.876079 79.356081
L 172.158329 83.228225
L 177.499979 86.89352
L 183.8651 90.972512
L 189.761767 94.508374
L 196.860696 98.494134
L 203.959626 102.223237
L 211.703913 106.038346
L 220.093557 109.914902
L 229.128559 113.834492
L 238.808918 117.784757
L 249.779991 122
L 260.751065 125.986764
L 273.65821 130.439985
L 287.856069 135.111721
L 304.068147 140.243094
M 315.099774 143.661516
L 346.583579 153.449407
L 358.20001 157.244818
L 364.653583 159.45275
L 364.653583 159.45275
" clip-path="url(#peec3556a46)" style="fill: none; stroke: #2f6f9f; stroke-width: 1.15"/>
    <path d="M 364.653583 224.682801
L 343.404632 230.19153
M 332.279641 233.142194
L 314.141646 238.113966
L 299.4725 242.32988
L 284.629283 246.831565
L 271.616534 251.021111
L 260.751065 254.728377
L 249.615296 258.765398
L 240.099632 262.436344
L 230.203851 266.509685
L 222.029629 270.100277
L 213.639985 274.033612
L 205.895698 277.920657
L 198.796768 281.732675
L 191.697838 285.819065
L 185.244266 289.806678
L 179.43605 293.650463
L 173.627835 297.769852
L 168.074606 302.004334
L 163.302119 305.906149
L 158.784618 309.854098
L 154.078806 314.266122
L 149.604448 318.783623
L 145.449175 323.301123
L 141.586135 327.818624
L 137.990875 332.336125
L 134.181456 337.498983
L 130.6628 342.661841
L 129.00399 345.24327
M 129.00399 23.21
L 132.387533 28.372858
L 136.048022 33.535716
L 139.500387 38.053217
L 143.296044 42.674867
L 147.192714 47.088218
L 151.685689 51.813222
L 156.203189 56.219362
L 161.083205 60.640721
L 165.883548 64.690133
L 171.046406 68.753564
L 176.705366 72.902509
L 182.017479 76.543414
L 187.825695 80.275594
L 194.279267 84.154577
L 201.378197 88.136521
L 208.477127 91.857943
L 216.221414 95.658717
L 224.611058 99.511058
L 233.266562 103.2343
L 242.035704 106.782288
L 252.36142 110.708415
L 263.332494 114.625153
L 275.594281 118.739658
L 287.856069 122.622635
L 300.763214 126.502169
L 315.606431 130.750632
L 332.279641 135.311076
M 343.404632 138.26174
L 364.653583 143.770469
L 364.653583 143.770469
" clip-path="url(#peec3556a46)" style="fill: none; stroke: #2f6f9f; stroke-width: 1.15"/>
    <path d="M 357.417414 237.515153
L 340.130007 241.745614
L 322.705361 246.240884
L 307.216787 250.480412
L 294.237732 254.247897
L 282.047854 257.997483
L 269.786066 262.013518
L 259.46035 265.615547
L 249.134634 269.452811
L 239.454275 273.296435
L 230.419274 277.131953
L 222.029629 280.94032
L 214.285342 284.697579
L 207.041831 288.451832
L 200.087483 292.304411
L 193.521934 296.196119
L 187.414904 300.068262
L 181.701882 303.940406
L 176.209264 307.920987
L 171.046406 311.923833
L 165.883548 316.214303
L 160.841127 320.719694
L 156.793463 324.591838
L 152.331046 329.159747
L 148.268553 333.626839
L 144.43795 338.14434
L 140.372978 343.307198
L 138.928586 345.24327
M 138.928586 23.21
L 142.876052 28.372858
L 146.594033 32.890359
L 150.581386 37.40786
L 154.912475 41.976478
L 159.463621 46.442861
L 164.414476 50.960362
L 169.110334 54.956145
L 174.273192 59.062739
L 179.880111 63.22215
L 185.468234 67.094293
L 191.440638 70.966437
L 197.506054 74.650393
L 203.959626 78.326378
L 211.058556 82.114003
L 218.802843 85.977468
L 226.739779 89.681797
L 234.936774 93.271218
L 243.971776 96.982374
L 253.652135 100.709964
L 263.332494 104.214441
L 274.303567 107.950676
L 285.919997 111.671098
L 298.181785 115.373511
L 313.025002 119.592944
L 327.868219 123.571892
L 345.292865 127.992658
L 349.297495 128.975827
M 360.550552 131.684758
L 364.653583 132.654916
L 364.653583 132.654916
" clip-path="url(#peec3556a46)" style="fill: none; stroke: #2f6f9f; stroke-width: 1.15"/>
    <path d="M 357.704283 246.516407
L 342.066079 250.262569
L 325.28679 254.525523
L 311.08893 258.367029
L 298.181785 262.079332
L 286.565355 265.627651
L 274.948924 269.403759
L 263.977851 273.21096
L 253.652135 277.040592
L 243.971776 280.880462
L 234.936774 284.714406
L 226.54713 288.521881
L 218.710167 292.323975
L 211.703913 295.95026
L 204.604983 299.873779
L 197.736948 303.940406
L 191.625467 307.812549
L 185.889623 311.692817
L 180.081408 315.896347
L 174.695713 320.074337
L 169.755692 324.173539
L 164.592834 328.768128
L 160.075333 333.08293
L 155.557832 337.709215
L 151.631432 342.016484
L 148.853181 345.24327
M 148.853181 23.21
L 152.976403 27.94446
L 157.493904 32.767428
L 162.170667 37.40786
L 167.063207 41.92536
L 171.691763 45.918881
L 177.145792 50.315005
L 182.286268 54.187148
L 187.825695 58.098771
L 193.63391 61.941565
L 200.087483 65.936937
L 206.541055 69.675811
L 213.678089 73.547866
L 220.738915 77.138489
L 228.483202 80.833087
L 236.872846 84.582289
L 245.26249 88.10011
L 254.942849 91.905714
L 265.268565 95.703459
L 275.884226 99.362156
L 286.565355 102.825619
L 298.827143 106.565081
L 311.734288 110.265661
L 326.577504 114.265236
L 340.775364 117.872492
L 349.376667 119.966712
M 360.639127 122.618714
L 364.653583 123.542062
L 364.653583 123.542062
" clip-path="url(#peec3556a46)" style="fill: none; stroke: #2f6f9f; stroke-width: 1.15"/>
    <path d="M 364.653583 252.824238
L 361.331386 253.584279
M 350.06763 256.228308
L 335.612506 259.792368
L 320.769289 263.682877
L 307.216787 267.471588
L 294.309642 271.323633
L 282.693211 275.025257
L 271.722138 278.755868
L 261.027643 282.643616
L 251.716063 286.259039
L 242.681061 290.001762
L 234.291417 293.711705
L 226.293272 297.486833
L 218.802843 301.260599
L 211.429737 305.23112
L 204.703234 309.103264
L 198.796768 312.724673
L 192.343196 316.949331
L 186.53498 321.020107
L 180.726765 325.37981
L 175.292589 329.754696
L 170.401049 333.968687
L 165.861245 338.14434
L 161.265991 342.661841
L 158.777777 345.24327
M 158.777777 23.21
L 162.656762 27.191889
L 167.233513 31.599644
L 172.337121 36.185843
L 177.650994 40.634646
L 182.662837 44.560847
L 188.471052 48.820434
L 194.421079 52.896434
L 200.73284 56.940095
L 207.186412 60.809506
L 214.285342 64.792405
L 221.384272 68.521292
L 229.128559 72.333294
L 237.366885 76.129295
L 245.26249 79.546098
L 254.319858 83.228225
L 263.332494 86.67075
L 273.65821 90.373769
L 283.983926 93.851486
L 295.600356 97.526295
L 307.862144 101.167525
L 321.414646 104.944871
L 336.257863 108.824463
L 352.391795 112.779923
L 352.829079 112.883338
M 364.096967 115.501895
L 364.653583 115.629032
L 364.653583 115.629032
" clip-path="url(#peec3556a46)" style="fill: none; stroke: #2f6f9f; stroke-width: 1.15"/>
    <path d="M 364.653583 259.914189
L 347.690691 263.928256
L 347.359205 264.009183
M 331.621483 267.997302
L 318.04298 271.672543
L 305.926072 275.161528
L 293.664285 278.923958
L 282.313335 282.643616
L 272.367495 286.114765
L 262.041779 289.958065
L 252.36142 293.812358
L 243.326419 297.659332
L 234.936774 301.476539
L 227.192487 305.237154
L 219.730658 309.103264
L 212.728809 312.975407
L 206.16456 316.847551
L 200.006002 320.719694
L 194.223625 324.591838
L 188.471052 328.698673
L 182.662837 333.136027
L 177.331481 337.498983
L 172.175185 342.016484
L 168.702372 345.24327
M 168.702372 23.21
L 173.627835 27.741275
L 178.871447 32.245002
L 183.953551 36.330442
L 189.761767 40.699612
L 195.569982 44.785258
L 202.023554 49.029327
L 208.477127 52.998585
L 215.576057 57.083272
L 222.674987 60.906279
L 230.419274 64.812828
L 238.808918 68.769907
L 247.198562 72.474244
L 256.233564 76.213708
L 265.268565 79.724339
L 275.594281 83.488227
L 286.565355 87.231862
L 297.536428 90.74454
L 309.798216 94.430107
L 322.714357 98.071442
L 335.612506 101.493383
L 337.421227 101.957031
M 353.175095 105.852319
L 364.653583 108.539081
L 364.653583 108.539081
" clip-path="url(#peec3556a46)" style="fill: none; stroke: #2f6f9f; stroke-width: 1.15"/>
   </g>
   <g id="line2d_21">
    <path d="M 42.620312 184.226635
L 364.653583 184.226635
" clip-path="url(#peec3556a46)" style="fill: none; stroke: #b5bcc5; stroke-width: 0.8; stroke-linecap: square"/>
   </g>
   <g id="line2d_22">
    <path d="M 69.456418 345.24327
L 69.456418 23.21
" clip-path="url(#peec3556a46)" style="fill: none; stroke: #b5bcc5; stroke-width: 0.8; stroke-linecap: square"/>
   </g>
   <g id="patch_3">
    <path d="M 42.620312 345.24327
L 42.620312 23.21
" style="fill: none; stroke: #000000; stroke-width: 0.8; stroke-linejoin: miter; stroke-linecap: square"/>
   </g>
   <g id="patch_4">
    <path d="M 42.620313 345.24327
L 364.653583 345.24327
" style="fill: none; stroke: #000000; stroke-width: 0.8; stroke-linejoin: miter; stroke-linecap: square"/>
   </g>
   <g id="text_13">
    <text style="font-weight: 700; font-size: 10px; font-family: 'DejaVu Sans'; text-anchor: start; fill: #2d333b" x="77.50725" y="200.328298" transform="rotate(-0 77.50725 200.328298)">P</text>
   </g>
   <g id="text_14">
    <text style="font-weight: 700; font-size: 10px; font-family: 'DejaVu Sans'; text-anchor: start; fill: #2d333b" x="175.459036" y="176.175803" transform="rotate(-0 175.459036 176.175803)">Q</text>
   </g>
   <g id="text_15">
    <text style="font-weight: 700; font-size: 10px; font-family: 'DejaVu Sans'; text-anchor: start; fill: #2d333b" x="309.639566" y="176.175803" transform="rotate(-0 309.639566 176.175803)">R</text>
   </g>
   <g id="text_16">
    <text style="font-weight: 700; font-size: 10px; font-family: 'DejaVu Sans'; text-anchor: start; fill: #2d333b" x="209.004169" y="109.085539" transform="rotate(-0 209.004169 109.085539)">S</text>
   </g>
   <g id="text_17">
    <text style="font-weight: 700; font-size: 10px; font-family: 'DejaVu Sans'; text-anchor: start; fill: #2d333b" x="209.004169" y="267.418563" transform="rotate(-0 209.004169 267.418563)">T</text>
   </g>
   <g id="text_18">
    <!-- Contours of $f(x,y)=x(y^2+1)$ -->
    <g transform="translate(123.776948 17.21)">
     <text>
      <tspan x="0" y="-0.06875" style="font-size: 11px; font-family: 'DejaVu Sans'">C</tspan>
      <tspan x="7.680664" y="-0.06875" style="font-size: 11px; font-family: 'DejaVu Sans'">o</tspan>
      <tspan x="14.410645" y="-0.06875" style="font-size: 11px; font-family: 'DejaVu Sans'">n</tspan>
      <tspan x="21.382324" y="-0.06875" style="font-size: 11px; font-family: 'DejaVu Sans'">t</tspan>
      <tspan x="25.695312" y="-0.06875" style="font-size: 11px; font-family: 'DejaVu Sans'">o</tspan>
      <tspan x="32.425293" y="-0.06875" style="font-size: 11px; font-family: 'DejaVu Sans'">u</tspan>
      <tspan x="39.396973" y="-0.06875" style="font-size: 11px; font-family: 'DejaVu Sans'">r</tspan>
      <tspan x="43.919434" y="-0.06875" style="font-size: 11px; font-family: 'DejaVu Sans'">s</tspan>
      <tspan x="49.650391" y="-0.06875" style="font-size: 11px; font-family: 'DejaVu Sans'"> </tspan>
      <tspan x="53.146973" y="-0.06875" style="font-size: 11px; font-family: 'DejaVu Sans'">o</tspan>
      <tspan x="59.876953" y="-0.06875" style="font-size: 11px; font-family: 'DejaVu Sans'">f</tspan>
      <tspan x="63.749512" y="-0.06875" style="font-size: 11px; font-family: 'DejaVu Sans'"> </tspan>
      <tspan x="71.118652" y="-0.06875" style="font-size: 11px; font-family: 'DejaVu Sans'">(</tspan>
      <tspan x="81.919922" y="-0.06875" style="font-size: 11px; font-family: 'DejaVu Sans'">,</tspan>
      <tspan x="94.069336" y="-0.06875" style="font-size: 11px; font-family: 'DejaVu Sans'">)</tspan>
      <tspan x="100.503906" y="-0.06875" style="font-size: 11px; font-family: 'DejaVu Sans'">=</tspan>
      <tspan x="118.373535" y="-0.06875" style="font-size: 11px; font-family: 'DejaVu Sans'">(</tspan>
      <tspan x="137.008903" y="-0.06875" style="font-size: 11px; font-family: 'DejaVu Sans'">+</tspan>
      <tspan x="148.368766" y="-0.06875" style="font-size: 11px; font-family: 'DejaVu Sans'">1</tspan>
      <tspan x="155.367301" y="-0.06875" style="font-size: 11px; font-family: 'DejaVu Sans'">)</tspan>
      <tspan x="67.246094" y="-0.06875" style="font-style: oblique; font-size: 11px; font-family: 'DejaVu Sans'">f</tspan>
      <tspan x="75.410156" y="-0.06875" style="font-style: oblique; font-size: 11px; font-family: 'DejaVu Sans'">x</tspan>
      <tspan x="87.55957" y="-0.06875" style="font-style: oblique; font-size: 11px; font-family: 'DejaVu Sans'">y</tspan>
      <tspan x="111.86377" y="-0.06875" style="font-style: oblique; font-size: 11px; font-family: 'DejaVu Sans'">x</tspan>
      <tspan x="122.665039" y="-0.06875" style="font-style: oblique; font-size: 11px; font-family: 'DejaVu Sans'">y</tspan>
      <tspan x="129.666081" y="-4.279688" style="font-size: 7.7px; font-family: 'DejaVu Sans'">2</tspan>
     </text>
    </g>
   </g>
   <g id="text_19">
    <g clip-path="url(#peec3556a46)">
     <text style="font-size: 8px; font-family: 'DejaVu Sans'; fill: #2f6f9f" transform="translate(67.248918 22.601072) rotate(-270)">0</text>
    </g>
   </g>
   <g id="text_20">
    <g clip-path="url(#peec3556a46)">
     <text style="font-size: 8px; font-family: 'DejaVu Sans'; fill: #2f6f9f" transform="translate(117.106118 145.820715) rotate(-307.894169)">1</text>
    </g>
   </g>
   <g id="text_21">
    <g clip-path="url(#peec3556a46)">
     <text style="font-size: 8px; font-family: 'DejaVu Sans'; fill: #2f6f9f" transform="translate(167.902754 227.148727) rotate(-32.704498)">2</text>
    </g>
   </g>
   <g id="text_22">
    <g clip-path="url(#peec3556a46)">
     <text style="font-size: 8px; font-family: 'DejaVu Sans'; fill: #2f6f9f" transform="translate(218.621419 226.152747) rotate(-23.151492)">3</text>
    </g>
   </g>
   <g id="text_23">
    <g clip-path="url(#peec3556a46)">
     <text style="font-size: 8px; font-family: 'DejaVu Sans'; fill: #2f6f9f" transform="translate(269.915147 147.697135) rotate(-342.212387)">4</text>
    </g>
   </g>
   <g id="text_24">
    <g clip-path="url(#peec3556a46)">
     <text style="font-size: 8px; font-family: 'DejaVu Sans'; fill: #2f6f9f" transform="translate(316.917013 226.411967) rotate(-14.397047)">5</text>
    </g>
   </g>
   <g id="text_25">
    <g clip-path="url(#peec3556a46)">
     <text style="font-size: 8px; font-family: 'DejaVu Sans'; fill: #2f6f9f" transform="translate(306.56728 143.457127) rotate(-345.527033)">5</text>
    </g>
   </g>
   <g id="text_26">
    <g clip-path="url(#peec3556a46)">
     <text style="font-size: 8px; font-family: 'DejaVu Sans'; fill: #2f6f9f" transform="translate(335.832185 234.365012) rotate(-12.460246)">6</text>
    </g>
   </g>
   <g id="text_27">
    <g clip-path="url(#peec3556a46)">
     <text style="font-size: 8px; font-family: 'DejaVu Sans'; fill: #2f6f9f" transform="translate(334.879595 138.399266) rotate(-347.539754)">6</text>
    </g>
   </g>
   <g id="text_28">
    <g clip-path="url(#peec3556a46)">
     <text style="font-size: 8px; font-family: 'DejaVu Sans'; fill: #2f6f9f" transform="translate(360.976378 238.835603) rotate(-11.142502)">7</text>
    </g>
   </g>
   <g id="text_29">
    <g clip-path="url(#peec3556a46)">
     <text style="font-size: 8px; font-family: 'DejaVu Sans'; fill: #2f6f9f" transform="translate(351.993097 132.00321) rotate(-348.65856)">7</text>
    </g>
   </g>
   <g id="text_30">
    <g clip-path="url(#peec3556a46)">
     <text style="font-size: 8px; font-family: 'DejaVu Sans'; fill: #2f6f9f" transform="translate(361.254802 247.859687) rotate(-10.841392)">8</text>
    </g>
   </g>
   <g id="text_31">
    <g clip-path="url(#peec3556a46)">
     <text style="font-size: 8px; font-family: 'DejaVu Sans'; fill: #2f6f9f" transform="translate(352.083608 122.980517) rotate(-348.899597)">8</text>
    </g>
   </g>
   <g id="text_32">
    <g clip-path="url(#peec3556a46)">
     <text style="font-size: 8px; font-family: 'DejaVu Sans'; fill: #2f6f9f" transform="translate(353.623442 257.548222) rotate(-11.066727)">9</text>
    </g>
   </g>
   <g id="text_33">
    <g clip-path="url(#peec3556a46)">
     <text style="font-size: 8px; font-family: 'DejaVu Sans'; fill: #2f6f9f" transform="translate(355.542716 115.888795) rotate(-349.040999)">9</text>
    </g>
   </g>
   <g id="text_34">
    <g clip-path="url(#peec3556a46)">
     <text style="font-size: 8px; font-family: 'DejaVu Sans'; fill: #2f6f9f" transform="translate(334.960578 269.182418) rotate(-11.923974)">10</text>
    </g>
   </g>
   <g id="text_35">
    <g clip-path="url(#peec3556a46)">
     <text style="font-size: 8px; font-family: 'DejaVu Sans'; fill: #2f6f9f" transform="translate(339.862184 105.070799) rotate(-348.36156)">10</text>
    </g>
   </g>
   <g id="PathCollection_1">
    <defs>
     <path id="m12b5f8ecb8" d="M 0 2.915476
C 0.773193 2.915476 1.514823 2.608283 2.061553 2.061553
C 2.608283 1.514823 2.915476 0.773193 2.915476 0
C 2.915476 -0.773193 2.608283 -1.514823 2.061553 -2.061553
C 1.514823 -2.608283 0.773193 -2.915476 0 -2.915476
C -0.773193 -2.915476 -1.514823 -2.608283 -2.061553 -2.061553
C -2.608283 -1.514823 -2.915476 -0.773193 -2.915476 0
C -2.915476 0.773193 -2.608283 1.514823 -2.061553 2.061553
C -1.514823 2.608283 -0.773193 2.915476 0 2.915476
z
" style="stroke: #b94a48"/>
    </defs>
    <g clip-path="url(#peec3556a46)">
     <use xlink:href="#m12b5f8ecb8" x="69.456418" y="184.226635" style="fill: #b94a48; stroke: #b94a48"/>
    </g>
   </g>
   <g id="PathCollection_2">
    <g clip-path="url(#peec3556a46)">
     <use xlink:href="#m12b5f8ecb8" x="170.091815" y="184.226635" style="fill: #b94a48; stroke: #b94a48"/>
    </g>
   </g>
   <g id="PathCollection_3">
    <g clip-path="url(#peec3556a46)">
     <use xlink:href="#m12b5f8ecb8" x="304.272344" y="184.226635" style="fill: #b94a48; stroke: #b94a48"/>
    </g>
   </g>
   <g id="PathCollection_4">
    <g clip-path="url(#peec3556a46)">
     <use xlink:href="#m12b5f8ecb8" x="203.636948" y="117.13637" style="fill: #b94a48; stroke: #b94a48"/>
    </g>
   </g>
   <g id="PathCollection_5">
    <g clip-path="url(#peec3556a46)">
     <use xlink:href="#m12b5f8ecb8" x="203.636948" y="251.3169" style="fill: #b94a48; stroke: #b94a48"/>
    </g>
   </g>
  </g>
 </g>
 <defs>
  <clipPath id="peec3556a46">
   <rect x="42.620312" y="23.21" width="322.03327" height="322.03327"/>
  </clipPath>
 </defs>
</svg>
