<?xml version="1.0" encoding="utf-8" standalone="no"?>
<!DOCTYPE svg PUBLIC "-//W3C//DTD SVG 1.1//EN"
  "http://www.w3.org/Graphics/SVG/1.1/DTD/svg11.dtd">
<svg xmlns:xlink="http://www.w3.org/1999/xlink" width="336.364329pt" height="397.19952pt" viewBox="0 0 336.364329 397.19952" xmlns="http://www.w3.org/2000/svg" version="1.1">
 <metadata>
  <rdf:RDF xmlns:dc="http://purl.org/dc/elements/1.1/" xmlns:cc="http://creativecommons.org/ns#" xmlns:rdf="http://www.w3.org/1999/02/22-rdf-syntax-ns#">
   <cc:Work>
    <dc:type rdf:resource="http://purl.org/dc/dcmitype/StillImage"/>
    <dc:format>image/svg+xml</dc:format>
    <dc:creator>
     <cc:Agent>
      <dc:title>Matplotlib v3.10.9, https://matplotlib.org/</dc:title>
     </cc:Agent>
    </dc:creator>
   </cc:Work>
  </rdf:RDF>
 </metadata>
 <defs>
  <style type="text/css">*{stroke-linejoin: round; stroke-linecap: butt}</style>
 </defs>
 <g id="figure_1">
  <g id="patch_1">
   <path d="M 0 397.19952
L 336.364329 397.19952
L 336.364329 0
L 0 0
z
" style="fill: #ffffff"/>
  </g>
  <g id="axes_1">
   <g id="patch_2">
    <path d="M 34.240625 359.64327
L 329.164329 359.64327
L 329.164329 21.56
L 34.240625 21.56
z
" style="fill: #ffffff"/>
   </g>
   <g id="matplotlib.axis_1">
    <g id="xtick_1">
     <g id="line2d_1">
      <path d="M 34.240625 359.64327
L 34.240625 21.56
" clip-path="url(#p85c1d2a364)" style="fill: none; stroke: #d7dce2; stroke-opacity: 0.8; stroke-width: 0.6; stroke-linecap: square"/>
     </g>
     <g id="line2d_2">
      <defs>
       <path id="m49b78a1264" d="M 0 0
L 0 3.5
" style="stroke: #000000; stroke-width: 0.8"/>
      </defs>
      <g>
       <use xlink:href="#m49b78a1264" x="34.240625" y="359.64327" style="stroke: #000000; stroke-width: 0.8"/>
      </g>
     </g>
     <g id="text_1">
      <text style="font-size: 10px; font-family: 'DejaVu Sans'; text-anchor: middle" x="34.240625" y="374.241707" transform="rotate(-0 34.240625 374.241707)">0</text>
     </g>
    </g>
    <g id="xtick_2">
     <g id="line2d_3">
      <path d="M 70.20693 359.64327
L 70.20693 21.56
" clip-path="url(#p85c1d2a364)" style="fill: none; stroke: #d7dce2; stroke-opacity: 0.8; stroke-width: 0.6; stroke-linecap: square"/>
     </g>
     <g id="line2d_4">
      <g>
       <use xlink:href="#m49b78a1264" x="70.20693" y="359.64327" style="stroke: #000000; stroke-width: 0.8"/>
      </g>
     </g>
     <g id="text_2">
      <text style="font-size: 10px; font-family: 'DejaVu Sans'; text-anchor: middle" x="70.20693" y="374.241707" transform="rotate(-0 70.20693 374.241707)">1</text>
     </g>
    </g>
    <g id="xtick_3">
     <g id="line2d_5">
      <path d="M 106.173236 359.64327
L 106.173236 21.56
" clip-path="url(#p85c1d2a364)" style="fill: none; stroke: #d7dce2; stroke-opacity: 0.8; stroke-width: 0.6; stroke-linecap: square"/>
     </g>
     <g id="line2d_6">
      <g>
       <use xlink:href="#m49b78a1264" x="106.173236" y="359.64327" style="stroke: #000000; stroke-width: 0.8"/>
      </g>
     </g>
     <g id="text_3">
      <text style="font-size: 10px; font-family: 'DejaVu Sans'; text-anchor: middle" x="106.173236" y="374.241707" transform="rotate(-0 106.173236 374.241707)">2</text>
     </g>
    </g>
    <g id="xtick_4">
     <g id="line2d_7">
      <path d="M 142.139541 359.64327
L 142.139541 21.56
" clip-path="url(#p85c1d2a364)" style="fill: none; stroke: #d7dce2; stroke-opacity: 0.8; stroke-width: 0.6; stroke-linecap: square"/>
     </g>
     <g id="line2d_8">
      <g>
       <use xlink:href="#m49b78a1264" x="142.139541" y="359.64327" style="stroke: #000000; stroke-width: 0.8"/>
      </g>
     </g>
     <g id="text_4">
      <text style="font-size: 10px; font-family: 'DejaVu Sans'; text-anchor: middle" x="142.139541" y="374.241707" transform="rotate(-0 142.139541 374.241707)">3</text>
     </g>
    </g>
    <g id="xtick_5">
     <g id="line2d_9">
      <path d="M 178.105846 359.64327
L 178.105846 21.56
" clip-path="url(#p85c1d2a364)" style="fill: none; stroke: #d7dce2; stroke-opacity: 0.8; stroke-width: 0.6; stroke-linecap: square"/>
     </g>
     <g id="line2d_10">
      <g>
       <use xlink:href="#m49b78a1264" x="178.105846" y="359.64327" style="stroke: #000000; stroke-width: 0.8"/>
      </g>
     </g>
     <g id="text_5">
      <text style="font-size: 10px; font-family: 'DejaVu Sans'; text-anchor: middle" x="178.105846" y="374.241707" transform="rotate(-0 178.105846 374.241707)">4</text>
     </g>
    </g>
    <g id="xtick_6">
     <g id="line2d_11">
      <path d="M 214.072152 359.64327
L 214.072152 21.56
" clip-path="url(#p85c1d2a364)" style="fill: none; stroke: #d7dce2; stroke-opacity: 0.8; stroke-width: 0.6; stroke-linecap: square"/>
     </g>
     <g id="line2d_12">
      <g>
       <use xlink:href="#m49b78a1264" x="214.072152" y="359.64327" style="stroke: #000000; stroke-width: 0.8"/>
      </g>
     </g>
     <g id="text_6">
      <text style="font-size: 10px; font-family: 'DejaVu Sans'; text-anchor: middle" x="214.072152" y="374.241707" transform="rotate(-0 214.072152 374.241707)">5</text>
     </g>
    </g>
    <g id="xtick_7">
     <g id="line2d_13">
      <path d="M 250.038457 359.64327
L 250.038457 21.56
" clip-path="url(#p85c1d2a364)" style="fill: none; stroke: #d7dce2; stroke-opacity: 0.8; stroke-width: 0.6; stroke-linecap: square"/>
     </g>
     <g id="line2d_14">
      <g>
       <use xlink:href="#m49b78a1264" x="250.038457" y="359.64327" style="stroke: #000000; stroke-width: 0.8"/>
      </g>
     </g>
     <g id="text_7">
      <text style="font-size: 10px; font-family: 'DejaVu Sans'; text-anchor: middle" x="250.038457" y="374.241707" transform="rotate(-0 250.038457 374.241707)">6</text>
     </g>
    </g>
    <g id="xtick_8">
     <g id="line2d_15">
      <path d="M 286.004762 359.64327
L 286.004762 21.56
" clip-path="url(#p85c1d2a364)" style="fill: none; stroke: #d7dce2; stroke-opacity: 0.8; stroke-width: 0.6; stroke-linecap: square"/>
     </g>
     <g id="line2d_16">
      <g>
       <use xlink:href="#m49b78a1264" x="286.004762" y="359.64327" style="stroke: #000000; stroke-width: 0.8"/>
      </g>
     </g>
     <g id="text_8">
      <text style="font-size: 10px; font-family: 'DejaVu Sans'; text-anchor: middle" x="286.004762" y="374.241707" transform="rotate(-0 286.004762 374.241707)">7</text>
     </g>
    </g>
    <g id="xtick_9">
     <g id="line2d_17">
      <path d="M 321.971068 359.64327
L 321.971068 21.56
" clip-path="url(#p85c1d2a364)" style="fill: none; stroke: #d7dce2; stroke-opacity: 0.8; stroke-width: 0.6; stroke-linecap: square"/>
     </g>
     <g id="line2d_18">
      <g>
       <use xlink:href="#m49b78a1264" x="321.971068" y="359.64327" style="stroke: #000000; stroke-width: 0.8"/>
      </g>
     </g>
     <g id="text_9">
      <text style="font-size: 10px; font-family: 'DejaVu Sans'; text-anchor: middle" x="321.971068" y="374.241707" transform="rotate(-0 321.971068 374.241707)">8</text>
     </g>
    </g>
    <g id="text_10">
     <!-- $x$ -->
     <g transform="translate(178.702477 387.919832)">
      <text>
       <tspan x="0" y="-0.53125" style="font-style: oblique; font-size: 10px; font-family: 'DejaVu Sans'">x</tspan>
      </text>
     </g>
    </g>
   </g>
   <g id="matplotlib.axis_2">
    <g id="ytick_1">
     <g id="line2d_19">
      <path d="M 34.240625 330.870226
L 329.164329 330.870226
" clip-path="url(#p85c1d2a364)" style="fill: none; stroke: #d7dce2; stroke-opacity: 0.8; stroke-width: 0.6; stroke-linecap: square"/>
     </g>
     <g id="line2d_20">
      <defs>
       <path id="ma24d17f8cd" d="M 0 0
L -3.5 0
" style="stroke: #000000; stroke-width: 0.8"/>
      </defs>
      <g>
       <use xlink:href="#ma24d17f8cd" x="34.240625" y="330.870226" style="stroke: #000000; stroke-width: 0.8"/>
      </g>
     </g>
     <g id="text_11">
      <text style="font-size: 10px; font-family: 'DejaVu Sans'; text-anchor: end" x="27.240625" y="334.669444" transform="rotate(-0 27.240625 334.669444)">0</text>
     </g>
    </g>
    <g id="ytick_2">
     <g id="line2d_21">
      <path d="M 34.240625 258.937615
L 329.164329 258.937615
" clip-path="url(#p85c1d2a364)" style="fill: none; stroke: #d7dce2; stroke-opacity: 0.8; stroke-width: 0.6; stroke-linecap: square"/>
     </g>
     <g id="line2d_22">
      <g>
       <use xlink:href="#ma24d17f8cd" x="34.240625" y="258.937615" style="stroke: #000000; stroke-width: 0.8"/>
      </g>
     </g>
     <g id="text_12">
      <text style="font-size: 10px; font-family: 'DejaVu Sans'; text-anchor: end" x="27.240625" y="262.736834" transform="rotate(-0 27.240625 262.736834)">2</text>
     </g>
    </g>
    <g id="ytick_3">
     <g id="line2d_23">
      <path d="M 34.240625 187.005004
L 329.164329 187.005004
" clip-path="url(#p85c1d2a364)" style="fill: none; stroke: #d7dce2; stroke-opacity: 0.8; stroke-width: 0.6; stroke-linecap: square"/>
     </g>
     <g id="line2d_24">
      <g>
       <use xlink:href="#ma24d17f8cd" x="34.240625" y="187.005004" style="stroke: #000000; stroke-width: 0.8"/>
      </g>
     </g>
     <g id="text_13">
      <text style="font-size: 10px; font-family: 'DejaVu Sans'; text-anchor: end" x="27.240625" y="190.804223" transform="rotate(-0 27.240625 190.804223)">4</text>
     </g>
    </g>
    <g id="ytick_4">
     <g id="line2d_25">
      <path d="M 34.240625 115.072394
L 329.164329 115.072394
" clip-path="url(#p85c1d2a364)" style="fill: none; stroke: #d7dce2; stroke-opacity: 0.8; stroke-width: 0.6; stroke-linecap: square"/>
     </g>
     <g id="line2d_26">
      <g>
       <use xlink:href="#ma24d17f8cd" x="34.240625" y="115.072394" style="stroke: #000000; stroke-width: 0.8"/>
      </g>
     </g>
     <g id="text_14">
      <text style="font-size: 10px; font-family: 'DejaVu Sans'; text-anchor: end" x="27.240625" y="118.871613" transform="rotate(-0 27.240625 118.871613)">6</text>
     </g>
    </g>
    <g id="ytick_5">
     <g id="line2d_27">
      <path d="M 34.240625 43.139783
L 329.164329 43.139783
" clip-path="url(#p85c1d2a364)" style="fill: none; stroke: #d7dce2; stroke-opacity: 0.8; stroke-width: 0.6; stroke-linecap: square"/>
     </g>
     <g id="line2d_28">
      <g>
       <use xlink:href="#ma24d17f8cd" x="34.240625" y="43.139783" style="stroke: #000000; stroke-width: 0.8"/>
      </g>
     </g>
     <g id="text_15">
      <text style="font-size: 10px; font-family: 'DejaVu Sans'; text-anchor: end" x="27.240625" y="46.939002" transform="rotate(-0 27.240625 46.939002)">8</text>
     </g>
    </g>
    <g id="text_16">
     <!-- $y$ -->
     <g transform="translate(14.778125 193.601635) rotate(-90)">
      <text>
       <tspan x="0" y="-0.53125" style="font-style: oblique; font-size: 10px; font-family: 'DejaVu Sans'">y</tspan>
      </text>
     </g>
    </g>
   </g>
   <g id="QuadContourSet_1">
    <path d="M 94.184467 359.64327
L 97.360031 356.386206
L 100.890872 353.129141
L 104.135838 350.425968
L 107.545361 347.843547
L 111.523137 345.118714
L 115.500913 342.660647
L 120.103148 340.100884
L 124.592974 337.854939
L 129.73779 335.540994
L 134.821541 333.487038
L 140.504079 331.42377
L 146.75487 329.394889
L 153.573915 327.423977
L 160.961214 325.528189
L 168.916767 323.71916
L 177.440574 322.003968
L 187.100888 320.291325
L 197.897709 318.616462
L 209.262784 317.076686
L 222.332621 315.53598
L 236.990579 314.04437
L 253.018324 312.642133
L 271.202445 311.280927
L 291.65958 309.979443
L 309.253006 309.015016
M 320.663215 308.452872
L 329.164329 308.062325
L 329.164329 308.062325
" clip-path="url(#p85c1d2a364)" style="fill: none; stroke-dasharray: 4.255,1.84; stroke-dashoffset: 0; stroke: #1b8a8f; stroke-width: 1.15"/>
    <path d="M 54.221906 359.64327
L 55.834268 354.809288
L 57.539029 350.425968
L 59.256053 346.615013
L 60.948552 343.338047
L 62.861466 340.100884
L 64.926328 337.059549
L 67.127363 334.238169
L 68.904105 332.222018
L 71.439733 329.678279
L 74.018388 327.423977
L 76.859657 325.255973
L 79.700926 323.35897
L 82.542195 321.685143
L 85.977079 319.907086
L 89.929494 318.132532
L 93.90727 316.583958
L 98.4533 315.049088
L 103.567584 313.562969
L 109.50882 312.090132
L 115.682651 310.787306
L 122.959791 309.48448
L 130.843765 308.294532
L 139.935825 307.142651
L 150.732647 306.00833
L 163.331306 304.92459
L 177.440574 303.937269
L 194.488187 302.976275
L 214.377068 302.085005
L 238.243726 301.244879
L 267.224668 300.456125
L 299.021632 299.789374
M 310.437235 299.587451
L 329.164329 299.290055
L 329.164329 299.290055
" clip-path="url(#p85c1d2a364)" style="fill: none; stroke-dasharray: 4.255,1.84; stroke-dashoffset: 0; stroke: #1b8a8f; stroke-width: 1.15"/>
    <path d="M 34.240625 30.425513
L 34.240625 294.501985
L 34.808879 294.90392
L 329.164329 294.90392
L 329.164329 294.90392
" clip-path="url(#p85c1d2a364)" style="fill: none; stroke: #1b8a8f; stroke-width: 1.15"/>
    <path d="M 43.705442 21.56
L 44.786081 49.570753
L 45.934969 73.673028
L 47.109644 93.866827
L 48.34346 111.454974
L 49.657302 127.088882
L 51.025548 140.768552
L 52.424745 152.628673
L 53.939351 163.568002
L 55.522705 173.339194
L 57.116253 181.807562
L 58.814759 189.624516
L 60.60948 196.790057
L 62.484705 203.304186
L 64.416041 209.166901
L 66.368874 214.378204
L 68.335851 219.023788
L 70.47221 223.497984
L 72.570219 227.406461
L 74.926136 231.314938
L 77.427911 234.998553
L 79.700926 237.993821
L 82.313024 241.086131
L 84.81521 243.748775
L 87.656479 246.469794
L 90.497748 248.915962
L 93.90727 251.543845
L 97.667443 254.114388
L 101.294569 256.320802
L 105.272346 258.481457
L 109.721872 260.628517
L 114.364406 262.614503
L 119.47869 264.551868
L 125.161227 266.448871
L 130.843765 268.122697
L 137.66281 269.888492
L 145.050109 271.556188
L 153.005662 273.12015
L 162.097722 274.669219
L 171.758036 276.090665
L 182.554857 277.460212
L 195.05644 278.81626
L 209.262784 280.122077
L 225.17389 281.353897
L 243.35801 282.53216
L 264.383399 283.662419
L 288.552784 284.730792
L 300.075862 285.171757
M 309.383062 285.500966
L 329.164329 286.131651
L 329.164329 286.131651
" clip-path="url(#p85c1d2a364)" style="fill: none; stroke: #1b8a8f; stroke-width: 1.15"/>
    <path d="M 57.902668 21.56
L 59.594467 39.79956
L 61.323372 56.084881
L 63.136155 71.067377
L 65.017042 84.747047
L 66.942994 97.123891
L 68.904105 108.313432
L 70.930837 118.620515
L 73.083876 128.391708
L 75.16519 136.860075
L 77.427911 145.140502
L 79.700926 152.628673
L 82.064238 159.659525
L 84.484252 166.173653
L 87.088225 172.516611
L 89.519328 177.899084
L 92.202509 183.315491
L 95.043778 188.529904
L 97.885047 193.278744
L 100.726315 197.6217
L 103.860618 202.00136
L 106.977107 205.981891
L 110.386629 209.963474
L 113.916707 213.726791
L 117.247173 216.983855
L 121.183451 220.511634
L 125.161227 223.766297
L 129.148661 226.755048
L 133.685034 229.863807
L 138.231064 232.707091
L 143.345348 235.622567
L 148.459632 238.276956
L 154.142169 240.960699
L 159.824707 243.401568
L 166.075498 245.84349
L 172.894543 248.256298
L 180.281842 250.615906
L 188.237395 252.903847
L 196.761202 255.106648
L 205.853262 257.215113
L 215.513576 259.223608
L 225.742144 261.129381
L 237.107219 263.021512
L 249.608802 264.872206
L 263.246892 266.660695
L 278.02149 268.372406
L 294.500849 270.052349
L 312.684969 271.675309
L 317.162621 272.042925
M 326.391843 272.765118
L 329.164329 272.973246
L 329.164329 272.973246
" clip-path="url(#p85c1d2a364)" style="fill: none; stroke: #1b8a8f; stroke-width: 1.15"/>
    <path d="M 81.564711 21.56
L 83.933183 34.588257
L 86.413783 46.965101
L 88.853008 58.03912
L 91.366688 68.461725
L 93.942897 78.232918
L 96.566209 87.352698
L 99.217346 95.821065
L 102.104046 104.289432
L 105.006083 112.106386
L 107.893215 119.271928
L 111.02595 126.437469
L 114.114448 132.951598
L 117.205675 138.985841
L 120.615197 145.140502
L 124.02472 150.827721
L 127.434242 156.098801
L 130.843765 160.997805
L 134.72788 166.173653
L 138.418058 170.733543
L 142.389596 175.293433
L 146.675949 179.853323
L 150.732647 183.859825
L 155.278677 188.030495
L 159.824707 191.899216
L 164.370737 195.497634
L 169.485021 199.256695
L 174.599305 202.741817
L 180.281842 206.327891
L 185.96438 209.645345
L 191.646918 212.723272
L 197.897709 215.862116
L 204.716754 219.023788
L 211.535799 221.942255
L 218.923098 224.860722
L 226.878651 227.753361
L 235.402458 230.598724
L 244.118211 233.269177
L 253.586578 235.929725
L 263.50263 238.48048
L 274.043713 240.960699
L 285.408789 243.401568
L 297.342118 245.737528
L 310.178907 248.024726
M 323.150057 250.129462
L 329.164329 251.042572
L 329.164329 251.042572
" clip-path="url(#p85c1d2a364)" style="fill: none; stroke: #1b8a8f; stroke-width: 1.15"/>
    <path d="M 105.226754 21.56
L 108.113614 32.241925
L 111.087064 42.405211
L 114.18058 52.176404
L 117.301345 61.296184
L 120.425582 69.764551
L 123.525602 77.581505
L 126.865989 85.418894
L 130.275511 92.856232
L 133.685034 99.783581
L 137.094556 106.251659
L 140.768432 112.757799
L 144.481855 118.893305
L 148.459632 125.023028
L 152.437408 130.740173
L 156.510357 136.208662
L 160.961214 141.782578
L 165.105126 146.631268
L 169.485021 151.433083
L 174.031051 156.098801
L 178.577081 160.470616
L 183.691365 165.070995
L 188.884217 169.430717
L 193.919933 173.387695
L 199.60247 177.56351
L 205.285008 181.461863
L 210.967546 185.109517
L 217.413258 188.973103
L 224.037382 192.67021
L 230.856427 196.215888
L 238.243726 199.789549
L 245.631025 203.113438
L 253.586578 206.442627
L 261.542131 209.538772
L 270.065937 212.624259
L 279.165124 215.68103
L 288.818311 218.685038
L 299.046879 221.629115
L 300.012987 221.895406
M 312.864422 225.262905
L 324.050045 227.950863
L 329.164329 229.111899
L 329.164329 229.111899
" clip-path="url(#p85c1d2a364)" style="fill: none; stroke: #1b8a8f; stroke-width: 1.15"/>
    <path d="M 128.888797 21.56
L 132.397603 31.331193
L 135.915621 40.450973
L 139.415926 48.91934
L 143.16583 57.387707
L 146.872692 65.204661
L 150.732647 72.815729
L 154.367483 79.535744
L 158.501792 86.701285
L 162.665976 93.452243
L 166.796458 99.729542
L 171.189782 105.990729
L 175.268975 111.454974
L 179.924793 117.317689
L 184.329171 122.528992
L 189.008161 127.740295
L 193.988271 132.951598
L 199.299538 138.1629
L 204.245292 142.72279
L 209.831038 147.563858
L 215.513576 152.182669
L 221.196113 156.520701
L 227.446905 160.997805
L 233.697696 165.194293
L 240.43208 169.430717
L 247.061426 173.339194
L 254.154832 177.260305
L 261.686859 181.156149
L 269.497683 184.932715
L 277.453236 188.529904
L 285.977043 192.131733
L 294.500849 195.497634
L 303.592909 198.85312
L 313.253223 202.178708
L 316.424033 203.220543
L 316.424033 203.220543
" clip-path="url(#p85c1d2a364)" style="fill: none; stroke: #1b8a8f; stroke-width: 1.15"/>
    <path d="M 152.55084 21.56
L 156.415184 30.205786
L 160.392961 38.552123
L 164.370737 46.388204
L 168.555273 54.130643
L 172.894543 61.66581
L 177.055783 68.461725
L 181.41835 75.173809
L 185.96438 81.757482
L 190.545157 88.004111
L 195.103366 93.866827
L 200.170724 100.006321
L 205.285008 105.833824
L 210.526063 111.454974
L 215.680287 116.666276
L 221.196113 121.924896
L 226.949087 127.088882
L 232.561189 131.837734
L 238.81198 136.820312
L 244.942635 141.419965
L 251.394097 145.979855
L 258.253111 150.539745
L 264.951653 154.731263
L 272.338952 159.080295
L 279.726251 163.16758
L 287.681804 167.302802
L 295.637357 171.186314
L 304.161163 175.093186
L 312.684969 178.760861
L 313.175905 178.96522
M 325.850732 184.004488
L 329.164329 185.250551
L 329.164329 185.250551
" clip-path="url(#p85c1d2a364)" style="fill: none; stroke: #1b8a8f; stroke-width: 1.15"/>
    <path d="M 176.212883 21.56
L 180.392461 29.376954
L 184.827873 37.197812
L 189.373903 44.749639
L 193.919933 51.871469
L 198.529592 58.690533
L 203.188725 65.204661
L 208.126277 71.727062
L 213.347442 78.232918
L 218.354845 84.125776
L 223.594576 89.958349
L 229.170789 95.821065
L 234.834204 101.441828
L 240.652484 106.895084
L 246.767533 112.304672
L 253.018324 117.521794
L 259.373444 122.528992
L 266.088161 127.521276
L 272.907206 132.303638
L 279.788013 136.860075
L 287.11355 141.438485
L 294.824792 145.979855
L 302.456402 150.217228
L 310.535954 154.448222
L 315.56516 156.959119
M 328.013084 162.804208
L 329.164329 163.319877
L 329.164329 163.319877
" clip-path="url(#p85c1d2a364)" style="fill: none; stroke: #1b8a8f; stroke-width: 1.15"/>
   </g>
   <g id="line2d_29">
    <path d="M 34.240625 330.870226
L 329.164329 330.870226
" clip-path="url(#p85c1d2a364)" style="fill: none; stroke: #b5bcc5; stroke-width: 0.8; stroke-linecap: square"/>
   </g>
   <g id="line2d_30">
    <path d="M 34.240625 359.64327
L 34.240625 21.56
" clip-path="url(#p85c1d2a364)" style="fill: none; stroke: #b5bcc5; stroke-width: 0.8; stroke-linecap: square"/>
   </g>
   <g id="patch_3">
    <path d="M 34.240625 359.64327
L 34.240625 21.56
" style="fill: none; stroke: #000000; stroke-width: 0.8; stroke-linejoin: miter; stroke-linecap: square"/>
   </g>
   <g id="patch_4">
    <path d="M 34.240625 359.64327
L 329.164329 359.64327
" style="fill: none; stroke: #000000; stroke-width: 0.8; stroke-linejoin: miter; stroke-linecap: square"/>
   </g>
   <g id="text_17">
    <!-- $\mathbf{a}$ -->
    <g style="fill: #1f2933" transform="translate(75.961539 216.497375)">
     <text>
      <tspan x="0" y="-0.40625" style="font-weight: 700; font-size: 10px; font-family: 'DejaVu Sans'; fill: #1f2933">a</tspan>
     </text>
    </g>
   </g>
   <g id="text_18">
    <!-- $\mathbf{b}$ -->
    <g style="fill: #1f2933" transform="translate(111.927844 252.46368)">
     <text>
      <tspan x="0" y="-0.40625" style="font-weight: 700; font-size: 10px; font-family: 'DejaVu Sans'; fill: #1f2933">b</tspan>
     </text>
    </g>
   </g>
   <g id="text_19">
    <!-- $\mathbf{c}$ -->
    <g style="fill: #1f2933" transform="translate(183.860455 270.446833)">
     <text>
      <tspan x="0" y="-0.40625" style="font-weight: 700; font-size: 10px; font-family: 'DejaVu Sans'; fill: #1f2933">c</tspan>
     </text>
    </g>
   </g>
   <g id="text_20">
    <!-- Gradients on contours of $f(x,y)=xy-x$ -->
    <g transform="translate(72.912477 15.56)">
     <text>
      <tspan x="0" y="-0.640625" style="font-size: 11px; font-family: 'DejaVu Sans'">G</tspan>
      <tspan x="8.523926" y="-0.640625" style="font-size: 11px; font-family: 'DejaVu Sans'">r</tspan>
      <tspan x="13.046387" y="-0.640625" style="font-size: 11px; font-family: 'DejaVu Sans'">a</tspan>
      <tspan x="19.787109" y="-0.640625" style="font-size: 11px; font-family: 'DejaVu Sans'">d</tspan>
      <tspan x="26.769531" y="-0.640625" style="font-size: 11px; font-family: 'DejaVu Sans'">i</tspan>
      <tspan x="29.825684" y="-0.640625" style="font-size: 11px; font-family: 'DejaVu Sans'">e</tspan>
      <tspan x="36.593262" y="-0.640625" style="font-size: 11px; font-family: 'DejaVu Sans'">n</tspan>
      <tspan x="43.564941" y="-0.640625" style="font-size: 11px; font-family: 'DejaVu Sans'">t</tspan>
      <tspan x="47.87793" y="-0.640625" style="font-size: 11px; font-family: 'DejaVu Sans'">s</tspan>
      <tspan x="53.608887" y="-0.640625" style="font-size: 11px; font-family: 'DejaVu Sans'"> </tspan>
      <tspan x="57.105469" y="-0.640625" style="font-size: 11px; font-family: 'DejaVu Sans'">o</tspan>
      <tspan x="63.835449" y="-0.640625" style="font-size: 11px; font-family: 'DejaVu Sans'">n</tspan>
      <tspan x="70.807129" y="-0.640625" style="font-size: 11px; font-family: 'DejaVu Sans'"> </tspan>
      <tspan x="74.303711" y="-0.640625" style="font-size: 11px; font-family: 'DejaVu Sans'">c</tspan>
      <tspan x="80.351562" y="-0.640625" style="font-size: 11px; font-family: 'DejaVu Sans'">o</tspan>
      <tspan x="87.081543" y="-0.640625" style="font-size: 11px; font-family: 'DejaVu Sans'">n</tspan>
      <tspan x="94.053223" y="-0.640625" style="font-size: 11px; font-family: 'DejaVu Sans'">t</tspan>
      <tspan x="98.366211" y="-0.640625" style="font-size: 11px; font-family: 'DejaVu Sans'">o</tspan>
      <tspan x="105.096191" y="-0.640625" style="font-size: 11px; font-family: 'DejaVu Sans'">u</tspan>
      <tspan x="112.067871" y="-0.640625" style="font-size: 11px; font-family: 'DejaVu Sans'">r</tspan>
      <tspan x="116.590332" y="-0.640625" style="font-size: 11px; font-family: 'DejaVu Sans'">s</tspan>
      <tspan x="122.321289" y="-0.640625" style="font-size: 11px; font-family: 'DejaVu Sans'"> </tspan>
      <tspan x="125.817871" y="-0.640625" style="font-size: 11px; font-family: 'DejaVu Sans'">o</tspan>
      <tspan x="132.547852" y="-0.640625" style="font-size: 11px; font-family: 'DejaVu Sans'">f</tspan>
      <tspan x="136.42041" y="-0.640625" style="font-size: 11px; font-family: 'DejaVu Sans'"> </tspan>
      <tspan x="143.789551" y="-0.640625" style="font-size: 11px; font-family: 'DejaVu Sans'">(</tspan>
      <tspan x="154.59082" y="-0.640625" style="font-size: 11px; font-family: 'DejaVu Sans'">,</tspan>
      <tspan x="166.740234" y="-0.640625" style="font-size: 11px; font-family: 'DejaVu Sans'">)</tspan>
      <tspan x="173.174805" y="-0.640625" style="font-size: 11px; font-family: 'DejaVu Sans'">=</tspan>
      <tspan x="199.697266" y="-0.640625" style="font-size: 11px; font-family: 'DejaVu Sans'">−</tspan>
      <tspan x="139.916992" y="-0.640625" style="font-style: oblique; font-size: 11px; font-family: 'DejaVu Sans'">f</tspan>
      <tspan x="148.081055" y="-0.640625" style="font-style: oblique; font-size: 11px; font-family: 'DejaVu Sans'">x</tspan>
      <tspan x="160.230469" y="-0.640625" style="font-style: oblique; font-size: 11px; font-family: 'DejaVu Sans'">y</tspan>
      <tspan x="184.534668" y="-0.640625" style="font-style: oblique; font-size: 11px; font-family: 'DejaVu Sans'">x</tspan>
      <tspan x="191.044434" y="-0.640625" style="font-style: oblique; font-size: 11px; font-family: 'DejaVu Sans'">y</tspan>
      <tspan x="211.057129" y="-0.640625" style="font-style: oblique; font-size: 11px; font-family: 'DejaVu Sans'">x</tspan>
     </text>
    </g>
   </g>
   <g id="text_21">
    <g clip-path="url(#p85c1d2a364)">
     <text style="font-size: 8px; font-family: 'DejaVu Sans'; fill: #1b8a8f" transform="translate(311.044674 311.065799) rotate(-1.886084)">-3</text>
    </g>
   </g>
   <g id="text_22">
    <g clip-path="url(#p85c1d2a364)">
     <text style="font-size: 8px; font-family: 'DejaVu Sans'; fill: #1b8a8f" transform="translate(300.767667 301.940775) rotate(-0.677361)">-1</text>
    </g>
   </g>
   <g id="text_23">
    <g clip-path="url(#p85c1d2a364)">
     <text style="font-size: 8px; font-family: 'DejaVu Sans'; fill: #1b8a8f" transform="translate(32.033125 20.969239) rotate(-270)">0</text>
    </g>
   </g>
   <g id="text_24">
    <g clip-path="url(#p85c1d2a364)">
     <text style="font-size: 8px; font-family: 'DejaVu Sans'; fill: #1b8a8f" transform="translate(302.132949 287.485924) rotate(-358.645562)">2</text>
    </g>
   </g>
   <g id="text_25">
    <g clip-path="url(#p85c1d2a364)">
     <text style="font-size: 8px; font-family: 'DejaVu Sans'; fill: #1b8a8f" transform="translate(319.120192 274.481355) rotate(-357.005711)">5</text>
    </g>
   </g>
   <g id="text_26">
    <g clip-path="url(#p85c1d2a364)">
     <text style="font-size: 8px; font-family: 'DejaVu Sans'; fill: #1b8a8f" transform="translate(311.364404 250.746846) rotate(-353.810283)">10</text>
    </g>
   </g>
   <g id="text_27">
    <g clip-path="url(#p85c1d2a364)">
     <text style="font-size: 8px; font-family: 'DejaVu Sans'; fill: #1b8a8f" transform="translate(301.039672 224.914108) rotate(-350.066162)">15</text>
    </g>
   </g>
   <g id="text_28">
    <g clip-path="url(#p85c1d2a364)">
     <text style="font-size: 8px; font-family: 'DejaVu Sans'; fill: #1b8a8f" transform="translate(317.405955 206.384609) rotate(-348.26559)">20</text>
    </g>
   </g>
   <g id="text_29">
    <g clip-path="url(#p85c1d2a364)">
     <text style="font-size: 8px; font-family: 'DejaVu Sans'; fill: #1b8a8f" transform="translate(314.017793 182.36334) rotate(-345.117559)">25</text>
    </g>
   </g>
   <g id="text_30">
    <g clip-path="url(#p85c1d2a364)">
     <text style="font-size: 8px; font-family: 'DejaVu Sans'; fill: #1b8a8f" transform="translate(316.259547 160.521098) rotate(-342.573742)">30</text>
    </g>
   </g>
   <g id="Quiver_1">
    <path d="M 69.679355 221.916159
L 106.939192 203.28624
L 103.668223 200.437332
L 116.963127 199.593211
L 108.310888 209.722662
L 107.994343 205.396542
L 70.734506 224.026461
L 69.679355 221.916159
" clip-path="url(#p85c1d2a364)" style="fill: #b94a48"/>
    <path d="M 105.118085 258.41004
L 123.748003 221.150203
L 119.421883 220.833657
L 129.551334 212.181418
L 128.707213 225.476322
L 125.858305 222.205354
L 107.228387 259.465191
L 105.118085 258.41004
" clip-path="url(#p85c1d2a364)" style="fill: #b94a48"/>
    <path d="M 176.935261 276.774445
L 187.307402 193.797316
L 183.122561 194.938637
L 189.794896 183.408374
L 193.423709 196.22628
L 189.648572 194.089963
L 179.276431 277.067091
L 176.935261 276.774445
" clip-path="url(#p85c1d2a364)" style="fill: #b94a48"/>
   </g>
   <g id="PathCollection_1">
    <defs>
     <path id="m3595749103" d="M 0 2.915476
C 0.773193 2.915476 1.514823 2.608283 2.061553 2.061553
C 2.608283 1.514823 2.915476 0.773193 2.915476 0
C 2.915476 -0.773193 2.608283 -1.514823 2.061553 -2.061553
C 1.514823 -2.608283 0.773193 -2.915476 0 -2.915476
C -0.773193 -2.915476 -1.514823 -2.608283 -2.061553 -2.061553
C -2.608283 -1.514823 -2.915476 -0.773193 -2.915476 0
C -2.915476 0.773193 -2.608283 1.514823 -2.061553 2.061553
C -1.514823 2.608283 -0.773193 2.915476 0 2.915476
z
" style="stroke: #1f2933"/>
    </defs>
    <g clip-path="url(#p85c1d2a364)">
     <use xlink:href="#m3595749103" x="70.20693" y="222.97131" style="fill: #1f2933; stroke: #1f2933"/>
    </g>
   </g>
   <g id="PathCollection_2">
    <g clip-path="url(#p85c1d2a364)">
     <use xlink:href="#m3595749103" x="106.173236" y="258.937615" style="fill: #1f2933; stroke: #1f2933"/>
    </g>
   </g>
   <g id="PathCollection_3">
    <g clip-path="url(#p85c1d2a364)">
     <use xlink:href="#m3595749103" x="178.105846" y="276.920768" style="fill: #1f2933; stroke: #1f2933"/>
    </g>
   </g>
  </g>
 </g>
 <defs>
  <clipPath id="p85c1d2a364">
   <rect x="34.240625" y="21.56" width="294.923704" height="338.08327"/>
  </clipPath>
 </defs>
</svg>
