<svg xmlns="http://www.w3.org/2000/svg" width="1200" height="760" viewBox="0 0 1200 760" role="img" aria-labelledby="title desc">
  <title id="title">Tangent plane and sampled best-fit plane</title>
  <desc id="desc">A curved surface is shown with a small tangent plane near one point and a wider sampled best-fit plane balancing residuals across grid points.</desc>
  <rect width="1200" height="760" fill="#ffffff"/>
  <g transform="translate(0,20)">
    <path d="M 165 500 C 300 315 470 255 610 318 C 760 386 890 355 1045 190 L 1085 288 C 925 460 760 505 610 442 C 455 378 310 430 165 610 Z" fill="#e0f2fe" stroke="#0369a1" stroke-width="4"/>
    <path d="M 220 522 C 360 380 490 344 610 396 C 750 456 880 426 1000 300" fill="none" stroke="#0284c7" stroke-width="3" opacity="0.65"/>
    <path d="M 260 466 C 400 338 515 315 640 364 C 760 412 870 393 972 286" fill="none" stroke="#0284c7" stroke-width="3" opacity="0.65"/>
    <path d="M 315 416 C 438 318 550 304 665 340 C 770 374 850 360 930 276" fill="none" stroke="#0284c7" stroke-width="3" opacity="0.65"/>
    <path d="M 320 594 C 390 470 405 370 385 300" fill="none" stroke="#0284c7" stroke-width="3" opacity="0.55"/>
    <path d="M 510 510 C 565 415 580 330 560 265" fill="none" stroke="#0284c7" stroke-width="3" opacity="0.55"/>
    <path d="M 700 466 C 745 385 770 310 755 242" fill="none" stroke="#0284c7" stroke-width="3" opacity="0.55"/>
    <path d="M 895 405 C 940 335 975 270 972 205" fill="none" stroke="#0284c7" stroke-width="3" opacity="0.55"/>
    <polygon points="235,575 965,382 1018,465 290,650" fill="#dcfce7" stroke="#16a34a" stroke-width="5" opacity="0.78"/>
    <polygon points="470,398 650,330 728,388 548,458" fill="#dbeafe" stroke="#2563eb" stroke-width="5" opacity="0.88"/>
    <g fill="#111827">
      <circle cx="315" cy="545" r="8"/>
      <circle cx="420" cy="470" r="8"/>
      <circle cx="528" cy="408" r="8"/>
      <circle cx="640" cy="382" r="8"/>
      <circle cx="758" cy="420" r="8"/>
      <circle cx="880" cy="390" r="8"/>
      <circle cx="982" cy="302" r="8"/>
      <circle cx="592" cy="392" r="12" fill="#7c3aed"/>
    </g>
    <line x1="592" y1="392" x2="592" y2="472" stroke="#7c3aed" stroke-width="4" stroke-dasharray="10 8"/>
    <g font-family="Latin Modern Roman, Georgia, serif" fill="#111827">
      <text x="150" y="72" font-size="31" font-weight="700">local tangent plane versus sampled best-fit plane</text>
      <text x="744" y="358" font-size="27" fill="#2563eb">tangent plane</text>
      <text x="650" y="594" font-size="27" fill="#15803d">sampled best-fit plane</text>
      <text x="615" y="385" font-size="24" fill="#6d28d9">local point</text>
    </g>
  </g>
</svg>
