<?xml version="1.0" encoding="utf-8" standalone="no"?>
<!DOCTYPE svg PUBLIC "-//W3C//DTD SVG 1.1//EN"
  "http://www.w3.org/Graphics/SVG/1.1/DTD/svg11.dtd">
<svg xmlns:xlink="http://www.w3.org/1999/xlink" width="564.516pt" height="472.235875pt" viewBox="0 0 564.516 472.235875" xmlns="http://www.w3.org/2000/svg" version="1.1">
 <metadata>
  <rdf:RDF xmlns:dc="http://purl.org/dc/elements/1.1/" xmlns:cc="http://creativecommons.org/ns#" xmlns:rdf="http://www.w3.org/1999/02/22-rdf-syntax-ns#">
   <cc:Work>
    <dc:type rdf:resource="http://purl.org/dc/dcmitype/StillImage"/>
    <dc:date>2026-06-16T21:07:18.465552</dc:date>
    <dc:format>image/svg+xml</dc:format>
    <dc:creator>
     <cc:Agent>
      <dc:title>Matplotlib v3.10.8, https://matplotlib.org/</dc:title>
     </cc:Agent>
    </dc:creator>
   </cc:Work>
  </rdf:RDF>
 </metadata>
 <defs>
  <style type="text/css">*{stroke-linejoin: round; stroke-linecap: butt}</style>
 </defs>
 <g id="figure_1">
  <g id="patch_1">
   <path d="M 0 472.235875
L 564.516 472.235875
L 564.516 0
L 0 0
z
" style="fill: #ffffff"/>
  </g>
  <g id="axes_1">
   <g id="patch_2">
    <path d="M 2.88 183.534545
L 240.648511 183.534545
L 240.648511 2.88
L 2.88 2.88
z
" style="fill: #ffffff"/>
   </g>
   <g id="matplotlib.axis_1">
    <g id="text_1">
     <!-- $x=-1$ -->
     <g transform="translate(88.984255 208.251108) scale(0.22 -0.22)">
      <defs>
       <path id="Cmmi10-78" d="M 500 184
Q 613 97 819 97
Q 1019 97 1172 289
Q 1325 481 1381 709
L 1672 1844
Q 1741 2153 1741 2266
Q 1741 2425 1652 2544
Q 1563 2663 1403 2663
Q 1200 2663 1022 2536
Q 844 2409 722 2214
Q 600 2019 550 1819
Q 538 1778 500 1778
L 422 1778
Q 372 1778 372 1838
L 372 1856
Q 434 2094 584 2320
Q 734 2547 951 2687
Q 1169 2828 1416 2828
Q 1650 2828 1839 2703
Q 2028 2578 2106 2363
Q 2216 2559 2386 2693
Q 2556 2828 2759 2828
Q 2897 2828 3040 2779
Q 3184 2731 3275 2631
Q 3366 2531 3366 2381
Q 3366 2219 3261 2101
Q 3156 1984 2994 1984
Q 2891 1984 2822 2050
Q 2753 2116 2753 2216
Q 2753 2350 2845 2451
Q 2938 2553 3066 2572
Q 2950 2663 2747 2663
Q 2541 2663 2389 2472
Q 2238 2281 2175 2047
L 1894 916
Q 1825 659 1825 494
Q 1825 331 1917 214
Q 2009 97 2163 97
Q 2463 97 2698 361
Q 2934 625 3009 941
Q 3022 978 3059 978
L 3138 978
Q 3163 978 3178 961
Q 3194 944 3194 922
Q 3194 916 3188 903
Q 3097 522 2806 225
Q 2516 -72 2150 -72
Q 1916 -72 1727 54
Q 1538 181 1459 397
Q 1359 209 1182 68
Q 1006 -72 806 -72
Q 669 -72 523 -23
Q 378 25 287 125
Q 197 225 197 378
Q 197 528 301 651
Q 406 775 563 775
Q 669 775 741 711
Q 813 647 813 544
Q 813 409 723 309
Q 634 209 500 184
z
" transform="scale(0.015625)"/>
       <path id="Cmr10-3d" d="M 481 850
Q 428 850 393 890
Q 359 931 359 978
Q 359 1031 393 1068
Q 428 1106 481 1106
L 4500 1106
Q 4547 1106 4581 1068
Q 4616 1031 4616 978
Q 4616 931 4581 890
Q 4547 850 4500 850
L 481 850
z
M 481 2094
Q 428 2094 393 2131
Q 359 2169 359 2222
Q 359 2269 393 2309
Q 428 2350 481 2350
L 4500 2350
Q 4547 2350 4581 2309
Q 4616 2269 4616 2222
Q 4616 2169 4581 2131
Q 4547 2094 4500 2094
L 481 2094
z
" transform="scale(0.015625)"/>
       <path id="Cmsy10-a1" d="M 653 1472
Q 600 1472 565 1512
Q 531 1553 531 1600
Q 531 1647 565 1687
Q 600 1728 653 1728
L 4325 1728
Q 4375 1728 4408 1687
Q 4441 1647 4441 1600
Q 4441 1553 4408 1512
Q 4375 1472 4325 1472
L 653 1472
z
" transform="scale(0.015625)"/>
       <path id="Cmr10-31" d="M 594 0
L 594 225
Q 1394 225 1394 428
L 1394 3788
Q 1063 3628 556 3628
L 556 3853
Q 1341 3853 1741 4263
L 1831 4263
Q 1853 4263 1873 4245
Q 1894 4228 1894 4206
L 1894 428
Q 1894 225 2694 225
L 2694 0
L 594 0
z
" transform="scale(0.015625)"/>
      </defs>
      <use xlink:href="#Cmmi10-78" transform="translate(0 0.390625)"/>
      <use xlink:href="#Cmr10-3d" transform="translate(74.638672 0.390625)"/>
      <use xlink:href="#Cmsy10-a1" transform="translate(169.882812 0.390625)"/>
      <use xlink:href="#Cmr10-31" transform="translate(247.568359 0.390625)"/>
     </g>
    </g>
   </g>
   <g id="matplotlib.axis_2"/>
   <g id="line2d_1">
    <path d="M 2.88 148.189091
L 11.383881 149.708056
L 21.588538 151.767506
L 38.5963 155.471874
L 53.56313 158.644327
L 63.087477 160.443801
L 71.251203 161.76431
L 78.394463 162.702152
L 85.197567 163.36821
L 91.320362 163.749203
L 97.103001 163.895478
L 100.164398 163.80959
L 102.545484 163.513883
L 104.926571 163.016934
L 107.647813 162.21112
L 110.369055 161.161103
L 113.090297 159.876828
L 116.151694 158.164387
L 119.213091 156.182203
L 122.274488 153.944436
L 125.676041 151.175488
L 129.077593 148.127904
L 132.819301 144.476913
L 136.901163 140.166669
L 141.323181 135.149647
L 146.085355 129.390142
L 151.187683 122.868054
L 156.970322 115.118161
L 164.113582 105.156222
L 174.99855 89.534618
L 187.584294 71.551244
L 194.727554 61.737018
L 200.510193 54.15719
L 205.612521 47.822673
L 210.374695 42.269965
L 214.796713 37.472402
L 218.878575 33.388182
L 222.620283 29.964152
L 226.021835 27.139309
L 229.423388 24.608733
L 232.484785 22.598865
L 235.546182 20.857242
L 238.267424 19.545772
L 240.648511 18.589091
L 240.648511 18.589091
" clip-path="url(#p317171b1ec)" style="fill: none; stroke: #000000; stroke-width: 1.65; stroke-linecap: square"/>
   </g>
   <g id="patch_3">
    <path d="M 2.88 183.534545
L 2.88 2.88
" style="fill: none; stroke: #bfbfbf; stroke-width: 1.1; stroke-linejoin: miter; stroke-linecap: square"/>
   </g>
   <g id="patch_4">
    <path d="M 240.648511 183.534545
L 240.648511 2.88
" style="fill: none; stroke: #bfbfbf; stroke-width: 1.1; stroke-linejoin: miter; stroke-linecap: square"/>
   </g>
   <g id="patch_5">
    <path d="M 2.88 183.534545
L 240.648511 183.534545
" style="fill: none; stroke: #bfbfbf; stroke-width: 1.1; stroke-linejoin: miter; stroke-linecap: square"/>
   </g>
   <g id="patch_6">
    <path d="M 2.88 2.88
L 240.648511 2.88
" style="fill: none; stroke: #bfbfbf; stroke-width: 1.1; stroke-linejoin: miter; stroke-linecap: square"/>
   </g>
   <g id="PathCollection_1">
    <defs>
     <path id="mb86024fddd" d="M 0 4.472136
C 1.186024 4.472136 2.323632 4.000923 3.162278 3.162278
C 4.000923 2.323632 4.472136 1.186024 4.472136 0
C 4.472136 -1.186024 4.000923 -2.323632 3.162278 -3.162278
C 2.323632 -4.000923 1.186024 -4.472136 0 -4.472136
C -1.186024 -4.472136 -2.323632 -4.000923 -3.162278 -3.162278
C -4.000923 -2.323632 -4.472136 -1.186024 -4.472136 0
C -4.472136 1.186024 -4.000923 2.323632 -3.162278 3.162278
C -2.323632 4.000923 -1.186024 4.472136 0 4.472136
z
" style="stroke: #32cd32"/>
    </defs>
    <g clip-path="url(#p317171b1ec)">
     <use xlink:href="#mb86024fddd" x="2.88" y="148.189091" style="fill: #32cd32; stroke: #32cd32"/>
     <use xlink:href="#mb86024fddd" x="240.648511" y="18.589091" style="fill: #32cd32; stroke: #32cd32"/>
    </g>
   </g>
   <g id="PathCollection_2">
    <defs>
     <path id="ma290f92d40" d="M 0 4.472136
C 1.186024 4.472136 2.323632 4.000923 3.162278 3.162278
C 4.000923 2.323632 4.472136 1.186024 4.472136 0
C 4.472136 -1.186024 4.000923 -2.323632 3.162278 -3.162278
C 2.323632 -4.000923 1.186024 -4.472136 0 -4.472136
C -1.186024 -4.472136 -2.323632 -4.000923 -3.162278 -3.162278
C -4.000923 -2.323632 -4.472136 -1.186024 -4.472136 0
C -4.472136 1.186024 -4.000923 2.323632 -3.162278 3.162278
C -2.323632 4.000923 -1.186024 4.472136 0 4.472136
z
" style="stroke: #0000ff"/>
    </defs>
    <g clip-path="url(#p317171b1ec)">
     <use xlink:href="#ma290f92d40" x="97.987404" y="163.898182" style="fill: #0000ff; stroke: #0000ff"/>
    </g>
   </g>
  </g>
  <g id="axes_2">
   <g id="patch_7">
    <path d="M 323.867489 183.534545
L 561.636 183.534545
L 561.636 2.88
L 323.867489 2.88
z
" style="fill: #ffffff"/>
   </g>
   <g id="matplotlib.axis_3">
    <g id="text_2">
     <!-- $x=6$ -->
     <g transform="translate(418.551745 208.251108) scale(0.22 -0.22)">
      <defs>
       <path id="Cmr10-36" d="M 1600 -141
Q 1203 -141 937 70
Q 672 281 526 617
Q 381 953 325 1322
Q 269 1691 269 2069
Q 269 2575 466 3084
Q 663 3594 1045 3928
Q 1428 4263 1953 4263
Q 2172 4263 2361 4180
Q 2550 4097 2658 3936
Q 2766 3775 2766 3547
Q 2766 3416 2677 3327
Q 2588 3238 2456 3238
Q 2331 3238 2240 3328
Q 2150 3419 2150 3547
Q 2150 3672 2240 3762
Q 2331 3853 2456 3853
L 2491 3853
Q 2409 3969 2261 4023
Q 2113 4078 1953 4078
Q 1759 4078 1595 3993
Q 1431 3909 1300 3765
Q 1169 3622 1081 3448
Q 994 3275 945 3053
Q 897 2831 884 2637
Q 872 2444 872 2150
Q 984 2413 1190 2580
Q 1397 2747 1656 2747
Q 1941 2747 2175 2631
Q 2409 2516 2578 2311
Q 2747 2106 2836 1843
Q 2925 1581 2925 1313
Q 2925 938 2758 598
Q 2591 259 2287 59
Q 1984 -141 1600 -141
z
M 1600 63
Q 1847 63 1997 175
Q 2147 288 2217 473
Q 2288 659 2305 848
Q 2322 1038 2322 1313
Q 2322 1675 2287 1931
Q 2253 2188 2100 2383
Q 1947 2578 1631 2578
Q 1372 2578 1205 2403
Q 1038 2228 961 1961
Q 884 1694 884 1447
Q 884 1363 891 1319
Q 891 1309 889 1303
Q 888 1297 884 1288
Q 884 1013 940 731
Q 997 450 1156 256
Q 1316 63 1600 63
z
" transform="scale(0.015625)"/>
      </defs>
      <use xlink:href="#Cmmi10-78" transform="translate(0 0.390625)"/>
      <use xlink:href="#Cmr10-3d" transform="translate(74.638672 0.390625)"/>
      <use xlink:href="#Cmr10-36" transform="translate(169.882812 0.390625)"/>
     </g>
    </g>
   </g>
   <g id="matplotlib.axis_4"/>
   <g id="line2d_2">
    <path d="M 323.867489 120.698182
L 326.928886 119.975029
L 329.990284 119.026546
L 333.391836 117.721893
L 336.793388 116.167971
L 340.194941 114.38
L 343.936648 112.161068
L 348.018511 109.462233
L 352.100374 106.498689
L 356.522392 103.019969
L 361.284565 98.999095
L 366.727049 94.107519
L 372.849843 88.301238
L 380.673414 80.55117
L 408.566143 52.585255
L 414.688938 46.937909
L 420.131421 42.22666
L 424.893595 38.393723
L 429.315613 35.114712
L 433.397476 32.357052
L 437.139183 30.079255
L 440.880891 28.061517
L 444.282443 26.469926
L 447.683996 25.12522
L 450.745393 24.13865
L 453.80679 23.375479
L 456.868187 22.846804
L 459.929584 22.563717
L 462.990981 22.522529
L 468.433465 22.695917
L 473.875949 23.093167
L 479.658588 23.738686
L 485.781382 24.647568
L 492.244332 25.828284
L 499.387592 27.359045
L 507.551317 29.343823
L 517.415819 31.986629
L 532.722805 36.358004
L 548.710101 40.859094
L 558.234448 43.308982
L 561.636 44.116364
L 561.636 44.116364
" clip-path="url(#p9c78c5dbf3)" style="fill: none; stroke: #000000; stroke-width: 1.65; stroke-linecap: square"/>
   </g>
   <g id="patch_8">
    <path d="M 323.867489 183.534545
L 323.867489 2.88
" style="fill: none; stroke: #bfbfbf; stroke-width: 1.1; stroke-linejoin: miter; stroke-linecap: square"/>
   </g>
   <g id="patch_9">
    <path d="M 561.636 183.534545
L 561.636 2.88
" style="fill: none; stroke: #bfbfbf; stroke-width: 1.1; stroke-linejoin: miter; stroke-linecap: square"/>
   </g>
   <g id="patch_10">
    <path d="M 323.867489 183.534545
L 561.636 183.534545
" style="fill: none; stroke: #bfbfbf; stroke-width: 1.1; stroke-linejoin: miter; stroke-linecap: square"/>
   </g>
   <g id="patch_11">
    <path d="M 323.867489 2.88
L 561.636 2.88
" style="fill: none; stroke: #bfbfbf; stroke-width: 1.1; stroke-linejoin: miter; stroke-linecap: square"/>
   </g>
   <g id="PathCollection_3">
    <g clip-path="url(#p9c78c5dbf3)">
     <use xlink:href="#mb86024fddd" x="323.867489" y="120.698182" style="fill: #32cd32; stroke: #32cd32"/>
     <use xlink:href="#mb86024fddd" x="561.636" y="44.116364" style="fill: #32cd32; stroke: #32cd32"/>
    </g>
   </g>
   <g id="PathCollection_4">
    <g clip-path="url(#p9c78c5dbf3)">
     <use xlink:href="#ma290f92d40" x="461.773226" y="22.516364" style="fill: #0000ff; stroke: #0000ff"/>
    </g>
   </g>
  </g>
  <g id="axes_3">
   <g id="patch_12">
    <path d="M 2.88 440.064
L 240.648511 440.064
L 240.648511 259.409455
L 2.88 259.409455
z
" style="fill: #ffffff"/>
   </g>
   <g id="matplotlib.axis_5">
    <g id="text_3">
     <!-- $y=3$ -->
     <g transform="translate(98.444255 464.735875) scale(0.22 -0.22)">
      <defs>
       <path id="Cmmi10-79" d="M 538 -916
Q 672 -1147 1006 -1147
Q 1309 -1147 1531 -934
Q 1753 -722 1889 -420
Q 2025 -119 2100 197
Q 1816 -72 1484 -72
Q 1231 -72 1053 15
Q 875 103 776 276
Q 678 450 678 697
Q 678 906 734 1126
Q 791 1347 892 1617
Q 994 1888 1069 2088
Q 1153 2322 1153 2472
Q 1153 2663 1013 2663
Q 759 2663 595 2402
Q 431 2141 353 1819
Q 341 1778 300 1778
L 225 1778
Q 172 1778 172 1838
L 172 1856
Q 275 2238 487 2533
Q 700 2828 1025 2828
Q 1253 2828 1411 2678
Q 1569 2528 1569 2297
Q 1569 2178 1516 2047
Q 1488 1969 1388 1706
Q 1288 1444 1234 1272
Q 1181 1100 1147 934
Q 1113 769 1113 603
Q 1113 391 1203 244
Q 1294 97 1491 97
Q 1888 97 2203 581
L 2688 2553
Q 2709 2638 2787 2698
Q 2866 2759 2956 2759
Q 3034 2759 3092 2709
Q 3150 2659 3150 2578
Q 3150 2541 3144 2528
L 2509 -19
Q 2425 -347 2200 -647
Q 1975 -947 1658 -1130
Q 1341 -1313 997 -1313
Q 831 -1313 668 -1248
Q 506 -1184 406 -1056
Q 306 -928 306 -756
Q 306 -581 409 -453
Q 513 -325 684 -325
Q 788 -325 858 -389
Q 928 -453 928 -556
Q 928 -703 818 -812
Q 709 -922 563 -922
Q 556 -919 550 -917
Q 544 -916 538 -916
z
" transform="scale(0.015625)"/>
       <path id="Cmr10-33" d="M 609 494
Q 759 275 1012 169
Q 1266 63 1556 63
Q 1928 63 2084 380
Q 2241 697 2241 1100
Q 2241 1281 2208 1462
Q 2175 1644 2097 1800
Q 2019 1956 1883 2050
Q 1747 2144 1550 2144
L 1125 2144
Q 1069 2144 1069 2203
L 1069 2259
Q 1069 2309 1125 2309
L 1478 2338
Q 1703 2338 1851 2506
Q 2000 2675 2069 2917
Q 2138 3159 2138 3378
Q 2138 3684 1994 3881
Q 1850 4078 1556 4078
Q 1313 4078 1091 3986
Q 869 3894 738 3706
Q 750 3709 759 3711
Q 769 3713 781 3713
Q 925 3713 1022 3613
Q 1119 3513 1119 3372
Q 1119 3234 1022 3134
Q 925 3034 781 3034
Q 641 3034 541 3134
Q 441 3234 441 3372
Q 441 3647 606 3850
Q 772 4053 1033 4158
Q 1294 4263 1556 4263
Q 1750 4263 1965 4205
Q 2181 4147 2356 4039
Q 2531 3931 2642 3762
Q 2753 3594 2753 3378
Q 2753 3109 2633 2881
Q 2513 2653 2303 2487
Q 2094 2322 1844 2241
Q 2122 2188 2372 2031
Q 2622 1875 2773 1631
Q 2925 1388 2925 1106
Q 2925 753 2731 467
Q 2538 181 2222 20
Q 1906 -141 1556 -141
Q 1256 -141 954 -26
Q 653 88 461 316
Q 269 544 269 863
Q 269 1022 375 1128
Q 481 1234 641 1234
Q 744 1234 830 1186
Q 916 1138 964 1050
Q 1013 963 1013 863
Q 1013 706 903 600
Q 794 494 641 494
L 609 494
z
" transform="scale(0.015625)"/>
      </defs>
      <use xlink:href="#Cmmi10-79" transform="translate(0 0.390625)"/>
      <use xlink:href="#Cmr10-3d" transform="translate(66.582031 0.390625)"/>
      <use xlink:href="#Cmr10-33" transform="translate(161.826172 0.390625)"/>
     </g>
    </g>
   </g>
   <g id="matplotlib.axis_6"/>
   <g id="line2d_3">
    <path d="M 2.88 404.718545
L 5.601242 405.60088
L 8.662639 406.853389
L 11.724036 408.344211
L 15.465744 410.434131
L 19.887762 413.193735
L 25.670401 417.093017
L 36.555368 424.475497
L 40.977387 427.173155
L 44.719094 429.19037
L 47.780491 430.607871
L 50.841888 431.77461
L 53.56313 432.570251
L 55.944217 433.057965
L 58.325304 433.332238
L 60.70639 433.373579
L 62.747322 433.200017
L 65.128408 432.756242
L 67.509495 432.065154
L 69.890582 431.139913
L 72.271668 429.993679
L 74.99291 428.429975
L 77.714152 426.614459
L 80.775549 424.29547
L 84.177102 421.408209
L 87.578654 418.231085
L 91.660517 414.089936
L 96.082535 409.271903
L 101.525019 402.989974
L 109.688744 393.164071
L 119.893402 380.926755
L 125.335885 374.750106
L 129.757903 370.053051
L 133.499611 366.371261
L 136.901163 363.30262
L 140.302716 360.538806
L 143.364113 358.343712
L 146.085355 356.6485
L 148.806597 355.214677
L 151.187683 354.189944
L 153.56877 353.393536
L 155.949857 352.838613
L 158.330943 352.538336
L 160.71203 352.493228
L 164.453738 352.6759
L 168.195445 353.087955
L 172.277308 353.774757
L 176.359171 354.683033
L 180.781189 355.885756
L 185.883517 357.512668
L 191.666157 359.602807
L 198.809416 362.436423
L 222.620283 372.107536
L 228.402922 374.0946
L 233.165095 375.511263
L 237.587114 376.608985
L 240.648511 377.227636
L 240.648511 377.227636
" clip-path="url(#p1455906dfd)" style="fill: none; stroke: #000000; stroke-width: 1.65; stroke-linecap: square"/>
   </g>
   <g id="patch_13">
    <path d="M 2.88 440.064
L 2.88 259.409455
" style="fill: none; stroke: #bfbfbf; stroke-width: 1.1; stroke-linejoin: miter; stroke-linecap: square"/>
   </g>
   <g id="patch_14">
    <path d="M 240.648511 440.064
L 240.648511 259.409455
" style="fill: none; stroke: #bfbfbf; stroke-width: 1.1; stroke-linejoin: miter; stroke-linecap: square"/>
   </g>
   <g id="patch_15">
    <path d="M 2.88 440.064
L 240.648511 440.064
" style="fill: none; stroke: #bfbfbf; stroke-width: 1.1; stroke-linejoin: miter; stroke-linecap: square"/>
   </g>
   <g id="patch_16">
    <path d="M 2.88 259.409455
L 240.648511 259.409455
" style="fill: none; stroke: #bfbfbf; stroke-width: 1.1; stroke-linejoin: miter; stroke-linecap: square"/>
   </g>
   <g id="PathCollection_5">
    <g clip-path="url(#p1455906dfd)">
     <use xlink:href="#mb86024fddd" x="2.88" y="404.718545" style="fill: #32cd32; stroke: #32cd32"/>
     <use xlink:href="#mb86024fddd" x="240.648511" y="377.227636" style="fill: #32cd32; stroke: #32cd32"/>
    </g>
   </g>
   <g id="PathCollection_6">
    <g clip-path="url(#p1455906dfd)">
     <use xlink:href="#ma290f92d40" x="59.944443" y="433.387636" style="fill: #0000ff; stroke: #0000ff"/>
     <use xlink:href="#ma290f92d40" x="159.807217" y="352.485818" style="fill: #0000ff; stroke: #0000ff"/>
    </g>
   </g>
  </g>
  <g id="axes_4">
   <g id="patch_17">
    <path d="M 323.867489 440.064
L 561.636 440.064
L 561.636 259.409455
L 323.867489 259.409455
z
" style="fill: #ffffff"/>
   </g>
   <g id="matplotlib.axis_7">
    <g id="text_4">
     <!-- $y=7$ -->
     <g transform="translate(419.431745 464.735875) scale(0.22 -0.22)">
      <defs>
       <path id="Cmr10-37" d="M 1113 166
Q 1113 522 1175 862
Q 1238 1203 1358 1536
Q 1478 1869 1648 2189
Q 1819 2509 2022 2791
L 2606 3603
L 1875 3603
Q 738 3603 703 3572
Q 619 3469 544 2981
L 359 2981
L 569 4325
L 756 4325
L 756 4306
Q 756 4191 1147 4156
Q 1538 4122 1913 4122
L 3103 4122
L 3103 3956
Q 3103 3950 3101 3947
Q 3100 3944 3097 3938
L 2216 2700
Q 1891 2219 1809 1631
Q 1728 1044 1728 166
Q 1728 41 1637 -50
Q 1547 -141 1422 -141
Q 1294 -141 1203 -50
Q 1113 41 1113 166
z
" transform="scale(0.015625)"/>
      </defs>
      <use xlink:href="#Cmmi10-79" transform="translate(0 0.421875)"/>
      <use xlink:href="#Cmr10-3d" transform="translate(66.582031 0.421875)"/>
      <use xlink:href="#Cmr10-37" transform="translate(161.826172 0.421875)"/>
     </g>
    </g>
   </g>
   <g id="matplotlib.axis_8"/>
   <g id="line2d_4">
    <path d="M 323.867489 275.118545
L 326.928886 275.993339
L 329.990284 277.087649
L 333.391836 278.537107
L 337.133544 280.384335
L 341.215406 282.660655
L 345.637425 285.381635
L 351.079908 289.009085
L 358.223168 294.062041
L 372.509688 304.223039
L 377.952172 307.783875
L 382.37419 310.430863
L 386.456053 312.623072
L 390.197761 314.379866
L 393.599313 315.736043
L 396.66071 316.737388
L 399.722107 317.51068
L 402.783504 318.036269
L 405.504746 318.279627
L 408.225988 318.307595
L 411.967696 318.122131
L 415.709403 317.719686
L 419.791266 317.051898
L 423.873129 316.165503
L 428.295147 314.982522
L 433.05732 313.478893
L 438.159649 311.640004
L 443.942288 309.320866
L 450.745393 306.349426
L 460.269739 301.922153
L 476.597191 294.305305
L 483.740451 291.242323
L 489.52309 288.993623
L 494.625418 287.231727
L 499.387592 285.812511
L 503.80961 284.718767
L 507.891473 283.924021
L 511.973335 283.356788
L 515.715043 283.054341
L 519.456751 282.982474
L 521.497682 283.141238
L 523.878769 283.555721
L 526.259855 284.189969
L 528.981097 285.147381
L 532.042494 286.470156
L 535.784202 288.354892
L 540.886531 291.211162
L 549.390411 295.999487
L 553.132119 297.837848
L 556.193516 299.1078
L 558.914758 300.007017
L 561.295845 300.581663
L 561.636 300.645818
L 561.636 300.645818
" clip-path="url(#p57f91ae779)" style="fill: none; stroke: #000000; stroke-width: 1.65; stroke-linecap: square"/>
   </g>
   <g id="patch_18">
    <path d="M 323.867489 440.064
L 323.867489 259.409455
" style="fill: none; stroke: #bfbfbf; stroke-width: 1.1; stroke-linejoin: miter; stroke-linecap: square"/>
   </g>
   <g id="patch_19">
    <path d="M 561.636 440.064
L 561.636 259.409455
" style="fill: none; stroke: #bfbfbf; stroke-width: 1.1; stroke-linejoin: miter; stroke-linecap: square"/>
   </g>
   <g id="patch_20">
    <path d="M 323.867489 440.064
L 561.636 440.064
" style="fill: none; stroke: #bfbfbf; stroke-width: 1.1; stroke-linejoin: miter; stroke-linecap: square"/>
   </g>
   <g id="patch_21">
    <path d="M 323.867489 259.409455
L 561.636 259.409455
" style="fill: none; stroke: #bfbfbf; stroke-width: 1.1; stroke-linejoin: miter; stroke-linecap: square"/>
   </g>
   <g id="PathCollection_7">
    <g clip-path="url(#p57f91ae779)">
     <use xlink:href="#mb86024fddd" x="323.867489" y="275.118545" style="fill: #32cd32; stroke: #32cd32"/>
     <use xlink:href="#mb86024fddd" x="561.636" y="300.645818" style="fill: #32cd32; stroke: #32cd32"/>
    </g>
   </g>
   <g id="PathCollection_8">
    <g clip-path="url(#p57f91ae779)">
     <use xlink:href="#ma290f92d40" x="407.086468" y="318.318545" style="fill: #0000ff; stroke: #0000ff"/>
     <use xlink:href="#ma290f92d40" x="518.837668" y="282.973091" style="fill: #0000ff; stroke: #0000ff"/>
    </g>
   </g>
  </g>
 </g>
 <defs>
  <clipPath id="p317171b1ec">
   <rect x="2.88" y="2.88" width="237.768511" height="180.654545"/>
  </clipPath>
  <clipPath id="p9c78c5dbf3">
   <rect x="323.867489" y="2.88" width="237.768511" height="180.654545"/>
  </clipPath>
  <clipPath id="p1455906dfd">
   <rect x="2.88" y="259.409455" width="237.768511" height="180.654545"/>
  </clipPath>
  <clipPath id="p57f91ae779">
   <rect x="323.867489" y="259.409455" width="237.768511" height="180.654545"/>
  </clipPath>
 </defs>
</svg>
