<svg xmlns="http://www.w3.org/2000/svg" xmlns:xlink="http://www.w3.org/1999/xlink" xmlns:inkscape="http://www.inkscape.org/namespaces/inkscape" version="1.1" width="145" height="63" viewBox="0 0 145 63">
<defs>
<path id="font_1_2" d="M.33699037 .24717713 .45298768 .38031007C.46398927 .3933258 .47299195 .4013214 .55599978 .4013214V.44433595C.5 .44232179 .49798585 .44232179 .46398927 .44232179 .43499757 .44232179 .3919983 .44232179 .3639984 .44433595V.4013214C.3829956 .4013214 .4039917 .3963318 .4039917 .38931275 .4039917 .38731385 .39898683 .38031007 .39698792 .37831117L.30999757 .2802124 .21099854 .4013214H.25299073V.44433595C.22999573 .44232179 .1619873 .44232179 .1349945 .44232179 .10499573 .44232179 .050994874 .44232179 .022994996 .44433595V.4013214H.09399414L.25 .21115113 .11999512 .06401062C.10798645 .05000305 .100997928 .042999269 .017990113 .042999269V0C.07798767 .0019989014 .07998657 .0019989014 .11099243 .0019989014 .13999939 .0019989014 .18199158 .0019989014 .20999146 0V.042999269C.19099427 .042999269 .16999817 .04800415 .16999817 .055007936 .16999817 .055999757 .16999817 .057006837 .1769867 .0650177L.2769928 .17811585 .3880005 .042999269H.34599305V0C.36999513 .0019989014 .43699647 .0019989014 .46499635 .0019989014 .49499513 .0019989014 .5479889 .0019989014 .57598879 0V.042999269H.5059967L.33699037 .24717713Z"/>
<path id="font_2_1" d="M.4889984 .31877137C.4889984 .42585755 .47799684 .49090577 .44499208 .55496218 .40098573 .6430359 .31999208 .66503909 .2649994 .66503909 .13899231 .66503909 .09298706 .5709839 .07899475 .5429535 .042999269 .4698944 .040985109 .3708191 .040985109 .31877137 .040985109 .25271607 .04399109 .15162659 .09199524 .07156372 .13798523-.0024871827 .21199036-.021484375 .2649994-.021484375 .31298829-.021484375 .39898683-.0064849855 .44898988 .09257507 .48599244 .16464234 .4889984 .2537079 .4889984 .31877137M.2649994 .006515503C.23098755 .006515503 .1619873 .022521973 .14099121 .12760926 .12998963 .18466187 .12998963 .2787323 .12998963 .33078004 .12998963 .3998413 .12998963 .4698944 .14099121 .5249481 .1619873 .6270294 .23999024 .6370239 .2649994 .6370239 .29899598 .6370239 .36799623 .62002566 .3880005 .5289459 .3999939 .4738922 .3999939 .39883424 .3999939 .33078004 .3999939 .27172853 .3999939 .18165589 .3880005 .12561035 .36698915 .020523072 .2979889 .006515503 .2649994 .006515503Z"/>
<path id="font_3_1" d="M.39898683 .23057556H.6749878C.68899539 .23057556 .70700076 .23057556 .70700076 .24856568 .70700076 .26757813 .6899872 .26757813 .6749878 .26757813H.39898683V.5441437C.39898683 .5581665 .39898683 .5761719 .3809967 .5761719 .3619995 .5761719 .3619995 .5591583 .3619995 .5441437V.26757813H.085998538C.07199097 .26757813 .053985597 .26757813 .053985597 .24957276 .053985597 .23057556 .070999149 .23057556 .085998538 .23057556H.3619995V-.045166017C.3619995-.059158327 .3619995-.07714844 .37998963-.07714844 .39898683-.07714844 .39898683-.060150148 .39898683-.045166017V.23057556Z"/>
<path id="font_4_2" d="M.20098877 .4016571H.29299928C.31199647 .4016571 .32199098 .4016571 .32199098 .41966249 .32199098 .43066407 .31599427 .43066407 .29599 .43066407H.20799256L.24499512 .57650759C.24899292 .5904999 .24899292 .5924988 .24899292 .5994873 .24899292 .6154785 .23599243 .6244812 .22299195 .6244812 .21499634 .6244812 .19198609 .6214905 .18399048 .5894928L.14498902 .43066407H.050994874C.0309906 .43066407 .021987915 .43066407 .021987915 .4116516 .021987915 .4016571 .0289917 .4016571 .04798889 .4016571H.13699341L.070999149 .13804627C.06298828 .10308838 .05999756 .09310913 .05999756 .0801239 .05999756 .033187868 .09298706-.009765625 .14898682-.009765625 .25-.009765625 .3039856 .13604737 .3039856 .14303589 .3039856 .14901734 .2999878 .15202332 .2939911 .15202332 .2919922 .15202332 .28799439 .15202332 .28599549 .14802552 .2849884 .14703369 .28399659 .14602661 .2769928 .13005066 .2559967 .0801239 .20999146 .010223389 .1519928 .010223389 .12199402 .010223389 .11999512 .035186769 .11999512 .057159425 .11999512 .058151246 .11999512 .07713318 .12298584 .08911133L.20098877 .4016571Z"/>
<path id="font_1_1" d="M.34700013 .6863251V.6433258C.40899659 .6433258 .41600038 .6433258 .41600038 .6042938V.40219117C.3939972 .42118836 .34999085 .4501953 .2809906 .4501953 .13899231 .4501953 .037994386 .36218263 .037994386 .22215271 .037994386 .07914734 .13699341-.005859375 .269989-.005859375 .32499696-.005859375 .37199403 .013137817 .41099549 .046142579V-.005859375L.58898928 .0001373291V.043136598C.5269928 .043136598 .519989 .043136598 .519989 .08213806V.69433596L.34700013 .6863251M.41099549 .10115051C.36898805 .040130617 .31799317 .027130127 .28199769 .027130127 .1579895 .027130127 .1579895 .15414429 .1579895 .22015381 .1579895 .26716615 .1579895 .3171692 .17999268 .35517884 .21099854 .4111786 .269989 .41719056 .29299928 .41719056 .33399964 .41719056 .37799073 .39918519 .41099549 .35517884V.10115051Z"/>
<path id="font_4_1" d="M.29599 .3177948H.46398927C.60198977 .3177948 .73999026 .41973878 .73999026 .53367617 .73999026 .6116333 .673996 .6826172 .5479889 .6826172H.23899842C.21998596 .6826172 .21099854 .6826172 .21099854 .66360476 .21099854 .6536102 .21998596 .6536102 .23498535 .6536102 .29599 .6536102 .29599 .6456146 .29599 .63461306 .29599 .63261416 .29599 .62661746 .2919922 .6116333L.15699768 .07395935C.147995 .038986207 .1459961 .0289917 .07598877 .0289917 .056991579 .0289917 .04699707 .0289917 .04699707 .010986328 .04699707 0 .055999757 0 .06199646 0 .08099365 0 .100997928 .0019989014 .11999512 .0019989014H.23699951C.2559967 .0019989014 .2769928 0 .29599 0 .3039856 0 .31498719 0 .31498719 .018997193 .31498719 .0289917 .30599977 .0289917 .29100038 .0289917 .23098755 .0289917 .22999573 .035980226 .22999573 .04597473 .22999573 .050979616 .23098755 .05796814 .23199463 .06297302L.29599 .3177948M.36799623 .614624C.3769989 .6516113 .3809967 .6536102 .41999818 .6536102H.5189972C.59399417 .6536102 .6559906 .6296234 .6559906 .55467227 .6559906 .5286865 .6429901 .4437256 .5970001 .39775086 .5799866 .37976075 .5319977 .34179688 .44099427 .34179688H.2999878L.36799623 .614624Z"/>
</defs>
<path transform="matrix(1.00009,0,0,-1,67.19464,31.762001)" stroke-width=".79701" stroke-linecap="round" stroke-linejoin="round" fill="none" stroke="#000000" d="M-65.19774-29.76422 65.19774 29.76422"/>
<use data-text="x" xlink:href="#font_1_2" transform="matrix(11.956276,0,0,-11.9552,105.39808,29.223999)"/>
<use data-text="0" xlink:href="#font_2_1" transform="matrix(7.970817,0,0,-7.9701,112.49672,31.018)"/>
<use data-text="+" xlink:href="#font_3_1" transform="matrix(11.956276,0,0,-11.9552,119.88639,29.223999)"/>
<use data-text="t" xlink:href="#font_4_2" transform="matrix(11.956276,0,0,-11.9552,131.64844,29.223999)"/>
<use data-text="d" xlink:href="#font_1_1" transform="matrix(11.956276,0,0,-11.9552,135.87683,29.223999)"/>
<path transform="matrix(1.00009,0,0,-1,67.19464,31.762001)" d="M2.39534 0C2.39534 1.32292 1.32292 2.39534 0 2.39534-1.32292 2.39534-2.39534 1.32292-2.39534 0-2.39534-1.32292-1.32292-2.39534 0-2.39534 1.32292-2.39534 2.39534-1.32292 2.39534 0ZM0 0" fill="#ff0000"/>
<use data-text="P" xlink:href="#font_4_1" transform="matrix(11.956276,0,0,-11.9552,48.896997,23.95)"/>
<use data-text="0" xlink:href="#font_2_1" transform="matrix(7.970817,0,0,-7.9701,56.442674,25.744)"/>
<path transform="matrix(1.00009,0,0,-1,67.19464,31.762001)" stroke-width="1.19553" stroke-linecap="round" stroke-linejoin="round" fill="none" stroke="#b30000" d="M0 0 30.74176 14.0184"/>
<path transform="matrix(.9099019,-.41489,-.41492734,-.90982,95.01662,19.076182)" d="M6.66628 0 1.93044 1.79556 3.5108 0 1.93044-1.79556Z" fill="#b30000"/>
<path transform="matrix(.9099019,-.41489,-.41492734,-.90982,95.01662,19.076182)" stroke-width="1.19553" stroke-linecap="round" stroke-miterlimit="10" stroke-linejoin="miter" fill="none" stroke="#b30000" d="M6.66628 0 1.93044 1.79556 3.5108 0 1.93044-1.79556Z"/>
<use data-text="d" xlink:href="#font_1_1" transform="matrix(11.956276,0,0,-11.9552,81.176898,19.101)" fill="#b30000"/>
</svg>
