<svg xmlns="http://www.w3.org/2000/svg" xmlns:xlink="http://www.w3.org/1999/xlink" xmlns:inkscape="http://www.inkscape.org/namespaces/inkscape" version="1.1" width="287" height="79" viewBox="0 0 287 79">
<defs>
<path id="font_1_1" d="M.32598878-1.7597656H.394989V-.029937745H.6589966V.0390625H.32598878V-1.7597656Z"/>
<path id="font_1_5" d="M.32598878-.60058596H.394989V.0014343262H.32598878V-.60058596Z"/>
<path id="font_1_3" d="M.32598878-1.7587891H.6589966V-1.6898041H.394989V.040039064H.32598878V-1.7587891Z"/>
<path id="font_1_2" d="M.2709961-1.7597656H.33999635V.0390625H.0069885256V-.029937745H.2709961V-1.7597656Z"/>
<path id="font_1_6" d="M.2709961-.60058596H.33999635V.0014343262H.2709961V-.60058596Z"/>
<path id="font_1_4" d="M.2709961-1.6898041H.0069885256V-1.7587891H.33999635V.040039064H.2709961V-1.6898041Z"/>
<path id="font_2_96" d="M.43399049 .37539674C.43399049 .41540528 .3959961 .44140626 .35198976 .44140626 .2919922 .44140626 .24099732 .4053955 .20999146 .33839417H.20899964V.44140626L.057998659 .43058778V.39160157C.12799073 .39160157 .13699341 .38458253 .13699341 .335495V.08206177C.13699341 .038986207 .1269989 .038986207 .057998659 .038986207V0C.08299255 .0019989014 .15699768 .0039978029 .1789856 .0039978029 .23098755 .0039978029 .2999878 .0009918213 .31399537 0V.038986207H.2919922C.21699524 .039398195 .21598816 .0493927 .21598816 .08340454V.22439575C.21598816 .31739808 .2639923 .4073944 .35299684 .4093933 .34399415 .40040589 .33999635 .38839723 .33999635 .37539674 .33999635 .34840394 .3600006 .32839967 .3869934 .32839967 .4139862 .32839967 .43399049 .34840394 .43399049 .37539674Z"/>
<path id="font_2_81" d="M.56199648 .21325684C.56199648 .3382721 .44999696 .44628907 .30499269 .44628907 .15899658 .44628907 .04798889 .3382721 .04798889 .21325684 .04798889 .0912323 .16099549-.009765625 .30499269-.009765625 .44898988-.009765625 .56199648 .0912323 .56199648 .21325684M.46699525 .22225952C.46699525 .17424011 .46699525 .025222779 .30499269 .025222779 .14299011 .025222779 .14299011 .17424011 .14299011 .22225952 .14299011 .25326539 .14299011 .32226563 .17999268 .363266 .21398926 .39927674 .25698854 .41427613 .30499269 .41427613 .35299684 .41427613 .397995 .39927674 .43099977 .36227418 .46699525 .3212738 .46699525 .2542572 .46699525 .22225952Z"/>
<path id="font_2_114" d="M.83099368 .3916626V.43066407C.83099368 .43066407 .7879944 .426651 .7529907 .426651 .7259979 .426651 .6649933 .42965699 .6519928 .43066407V.3916626C.69299319 .39067079 .70599368 .36709596 .70599368 .34909059 .70599368 .34109498 .7049866 .33909608 .69999697 .32710267L.59799197 .079193118 .48399354 .35409547C.48298646 .35710145 .48098756 .36408998 .48098756 .36808778 .48098756 .3916626 .5179901 .3916626 .5359955 .3916626V.43066407C.5139923 .4286499 .44299317 .426651 .4249878 .426651 .3909912 .426651 .34799195 .42965699 .33099366 .43066407V.3916626C.3849945 .3916626 .397995 .3916626 .4139862 .34509278L.31098939 .094192508 .20498657 .34909059C.19999695 .36009217 .19898987 .36408998 .19898987 .36808778 .19898987 .3916626 .23699951 .3916626 .25498963 .3916626V.43066407C.23399353 .4286499 .1639862 .426651 .13798523 .426651 .12998963 .426651 .06498718 .42765809 .037994386 .43066407V.3916626C.09700012 .3916626 .102996829 .38674928 .114990238 .35809327L.2579956 .015213013C.2649994-.00077819827 .2679901-.009765625 .28799439-.009765625 .30099488-.009765625 .30999757-.0057678224 .31799317 .013214111L.43399049 .29611207 .5509949 .013214111C.5589905-.0067749025 .56900027-.009765625 .58099368-.009765625 .6009979-.009765625 .60398867-.00077819827 .61099246 .015213013L.7409973 .32910157C.7669983 .39067079 .81399539 .3916626 .83099368 .3916626Z"/>
<path id="font_3_2" d="M.34799195 .6244507C.34799195 .64852908 .32998658 .66452029 .30699159 .66452029 .27999879 .66452029 .25099183 .638504 .25099183 .60939028 .25099183 .5843353 .2689972 .56933596 .29100038 .56933596 .32299806 .56933596 .34799195 .59936526 .34799195 .6244507M.28799439 .27534486C.2919922 .28533937 .30099488 .3093567 .30499269 .31835938 .30799867 .32736207 .31199647 .33737184 .31199647 .35437013 .31199647 .4104004 .2619934 .44140626 .21199036 .44140626 .10998535 .44140626 .06098938 .3093567 .06098938 .28733827 .06098938 .28234864 .06498718 .27334596 .07899475 .27334596 .09298706 .27334596 .09599304 .27934266 .09899902 .28834535 .1269989 .38539125 .17999268 .4084015 .20799256 .4084015 .22799683 .4084015 .23498535 .395401 .23498535 .37239076 .23498535 .35237123 .22898865 .33737184 .22698975 .33036805L.1749878 .20230103C.16299439 .17329407 .16299439 .17129517 .1499939 .13728333 .13699341 .10726929 .13198853 .09425354 .13198853 .07725525 .13198853 .026229859 .17799378-.009765625 .23298645-.009765625 .33399964-.009765625 .38398744 .12226868 .38398744 .14428711 .38398744 .14628601 .3829956 .15829468 .36499024 .15829468 .35099793 .15829468 .34999085 .1532898 .34399415 .13427735 .32798768 .08325195 .2869873 .023223877 .23599243 .023223877 .21798706 .023223877 .20899964 .035232545 .20899964 .059249879 .20899964 .07925415 .21499634 .09425354 .22799683 .12527466L.28799439 .27534486Z"/>
<path id="font_2_43" d="M.49899293 .12023926C.49899293 .13424683 .48399354 .13424683 .47999574 .13424683 .46699525 .13424683 .46499635 .12924195 .46099855 .11923218 .45498658 .10423279 .44400025 .07524109 .4099884 .052230836 .3880005 .037231447 .35499574 .025222779 .31599427 .025222779 .23899842 .025222779 .14898682 .08023071 .14898682 .21725464 .14898682 .2602539 .15699768 .31626893 .19299317 .3592682 .23799134 .4112854 .29100038 .4112854 .32099916 .4112854 .34899903 .4112854 .3829956 .41027833 .4099884 .40327455 .3999939 .39727784 .3889923 .38327027 .3889923 .36227418 .3889923 .3362732 .4079895 .31427003 .43699647 .31427003 .46798707 .31427003 .48599244 .3362732 .48599244 .363266 .48599244 .44328309 .37998963 .44628907 .31698609 .44628907 .13198853 .44628907 .053985597 .31427003 .053985597 .21624756 .053985597 .0912323 .16499329-.009765625 .30499269-.009765625 .46398927-.009765625 .49899293 .10923767 .49899293 .12023926Z"/>
<path id="font_2_72" d="M.30099488 0V.038986207C.23199463 .038986207 .22200012 .038986207 .22200012 .08201599V.69433596L.06399536 .6826172V.6436157C.13398743 .6436157 .14299011 .63661196 .14299011 .5876465V.081970218C.14299011 .038986207 .1329956 .038986207 .06399536 .038986207V0L.18199158 .0039978029C.22200012 .0039978029 .26098634 .0029907227 .30099488 0Z"/>
<path id="font_2_109" d="M.6259918 .00039672853V.039398195C.55599978 .039398195 .5469971 .046401979 .5469971 .09539795V.44140626L.3849945 .43040467V.3914032C.45498658 .3914032 .46398927 .3843994 .46398927 .33537293V.16828919C.46398927 .07725525 .40098573 .022232056 .32398988 .022232056 .22898865 .022232056 .22499085 .0642395 .22499085 .11326599V.44140626L.06298828 .43040467V.3914032C.14199829 .3914032 .14199829 .3824005 .14199829 .32336427V.16729737C.14199829 .09925842 .14199829 .055236818 .18699646 .022232056 .22499085-.0057678224 .2749939-.009765625 .31698609-.009765625 .37998963-.009735107 .43299867 .015258789 .46798707 .072265628V-.009765625L.6259918 .00039672853Z"/>
<path id="font_2_75" d="M.94999697 0V.038986207C.8809967 .038986207 .87098696 .038986207 .87098696 .08204651V.3022766C.87098696 .40438844 .8109894 .44140626 .71299746 .44140626 .6199951 .44140626 .5649872 .38838197 .54299929 .3503418 .519989 .44140626 .41799928 .44140626 .3899994 .44140626 .29899598 .44140626 .24299622 .39138795 .21899414 .34933473H.21798706V.44140626L.06298828 .43058778V.39160157C.1329956 .39160157 .14199829 .38458253 .14199829 .335495V.08206177C.14199829 .038986207 .13198853 .038986207 .06298828 .038986207V0C.069992069 .0009918213 .13798523 .0039978029 .18299866 .0039978029 .22799683 .0039978029 .2939911 .0009918213 .3039856 0V.038986207C.23498535 .038986207 .22499085 .038986207 .22499085 .08206177V.25836183C.22499085 .36836244 .31999208 .4093933 .3809967 .4093933 .44999696 .4093933 .46499635 .36634828 .46499635 .30429078V.08204651C.46499635 .038986207 .45498658 .038986207 .38598634 .038986207V0C.3929901 .0009918213 .46099855 .0039978029 .5059967 .0039978029 .5509949 .0039978029 .61698916 .0009918213 .6269989 0V.038986207C.55799868 .038986207 .5479889 .038986207 .5479889 .08204651V.25823976C.5479889 .36836244 .6429901 .4093933 .70399478 .4093933 .772995 .4093933 .7879944 .36634828 .7879944 .30429078V.08204651C.7879944 .038986207 .7779999 .038986207 .70899966 .038986207V0C.71598818 .0009918213 .7839966 .0039978029 .82899478 .0039978029 .8739929 .0039978029 .9399872 .0009918213 .94999697 0Z"/>
<path id="font_2_77" d="M.6259918 0V.038986207C.5569916 .038986207 .5469971 .038986207 .5469971 .08204651V.3022766C.5469971 .40039063 .4909973 .44140626 .3899994 .44140626 .3019867 .44140626 .24699402 .39538575 .21798706 .34733583V.44140626L.06298828 .43058778V.39160157C.1329956 .39160157 .14199829 .38458253 .14199829 .335495V.08206177C.14199829 .038986207 .13198853 .038986207 .06298828 .038986207V0C.069992069 .0009918213 .13798523 .0039978029 .18299866 .0039978029 .22799683 .0039978029 .2939911 .0009918213 .3039856 0V.038986207C.23498535 .038986207 .22499085 .038986207 .22499085 .08206177V.25836183C.22499085 .36836244 .31900025 .4093933 .3809967 .4093933 .44799806 .4093933 .46398927 .36735536 .46398927 .3052826V.08204651C.46398927 .038986207 .45399476 .038986207 .3849945 .038986207V0C.3919983 .0009918213 .45999146 .0039978029 .5049896 .0039978029 .5499878 .0039978029 .6159973 .0009918213 .6259918 0Z"/>
<path id="font_3_3" d="M.46398927 .6244507C.46398927 .65452578 .43998719 .66452029 .42399598 .66452029 .3919983 .66452029 .36698915 .6334839 .36698915 .60939028 .36698915 .58833315 .3829956 .56933596 .4079895 .56933596 .43399049 .56933596 .46398927 .5943451 .46398927 .6244507M.25099183-.04499817C.23199463-.12005615 .17298889-.17111206 .114990238-.17111206 .11199951-.17111206 .083999637-.17010498 .083999637-.16610718 .083999637-.1651001 .08699036-.1631012 .08699036-.16209412 .101989749-.15008545 .10899353-.13407898 .10899353-.11906433 .10899353-.08703613 .08299255-.08003235 .068984989-.08003235 .041992189-.08003235 .011993408-.10205078 .011993408-.13908386 .011993408-.19210816 .07499695-.20410156 .115997318-.20410156 .18299866-.20410156 .30299378-.16610718 .33299256-.04600525L.4229889 .3123169C.4249878 .32232667 .42799378 .33132936 .42799378 .34535218 .42799378 .4013977 .37799073 .44140626 .31399537 .44140626 .20098877 .44140626 .1309967 .30630494 .1309967 .28729249 .1309967 .28129579 .1349945 .2732849 .14898682 .2732849 .16299439 .2732849 .1639862 .2772827 .17098999 .29130555 .19999695 .35635377 .2559967 .4084015 .31098939 .4084015 .34098817 .4084015 .34799195 .38337709 .34799195 .35835267 .34799195 .34535218 .34599305 .33132936 .34498597 .32833863L.25099183-.04499817Z"/>
<path id="font_4_1" d="M.6749878 .32421876C.68899539 .32421876 .70700076 .32421876 .70700076 .34220887 .70700076 .36120606 .6899872 .36120606 .6749878 .36120606H.085998538C.07199097 .36120606 .053985597 .36120606 .053985597 .34321595 .053985597 .32421876 .070999149 .32421876 .085998538 .32421876H.6749878M.6749878 .13780213C.68899539 .13780213 .70700076 .13780213 .70700076 .15579224 .70700076 .17480469 .6899872 .17480469 .6749878 .17480469H.085998538C.07199097 .17480469 .053985597 .17480469 .053985597 .15679932 .053985597 .13780213 .070999149 .13780213 .085998538 .13780213H.6749878Z"/>
<path id="font_5_1" d="M.16999817 .1111145C.1349945 .05203247 .100997928 .03199768 .052993776 .0289917 .041992189 .027999878 .033996583 .027999878 .033996583 .009994507 .033996583 .0039978029 .038986207 0 .04598999 0 .06399536 0 .10899353 .0019989014 .1269989 .0019989014 .1559906 .0019989014 .18798828 0 .21598816 0 .22200012 0 .23399353 0 .23399353 .018997193 .23399353 .027999878 .22599793 .0289917 .21998596 .0289917 .19699097 .0309906 .17799378 .039001466 .17799378 .06304932 .17799378 .07707214 .18399048 .08808899 .19699097 .11012268L.272995 .23632813H.5279999C.5289917 .22731018 .5289917 .21929932 .5299988 .21028137 .5329895 .18423462 .54499819 .080078128 .54499819 .061050416 .54499819 .0309906 .49398805 .0289917 .47799684 .0289917 .46699525 .0289917 .45599366 .0289917 .45599366 .010986328 .45599366 0 .46499635 0 .47099305 0 .48799134 0 .5079956 .0019989014 .5249939 .0019989014H.58200076C.6429901 .0019989014 .68699648 0 .6879883 0 .69499209 0 .70599368 0 .70599368 .018997193 .70599368 .0289917 .69699099 .0289917 .6819916 .0289917 .6269989 .0289917 .6259918 .038009645 .6230011 .0680542L.56199648 .691864C.55999758 .711853 .55599978 .7138672 .54499819 .7138672 .5349884 .7138672 .5289917 .711853 .519989 .69685366L.16999817 .1111145M.2899933 .26531983 .4909973 .6009674 .5249939 .26531983H.2899933Z"/>
<path id="font_5_2" d="M.3659973 .614624C.375 .6516113 .3789978 .6536102 .41799928 .6536102H.5479889C.6609955 .6536102 .6609955 .5576477 .6609955 .548645 .6609955 .46768189 .5799866 .36471559 .44799806 .36471559H.3039856L.3659973 .614624M.5349884 .35671998C.6439972 .37670899 .7429962 .4526825 .7429962 .5446472 .7429962 .6226196 .673996 .6826172 .5609894 .6826172H.23999024C.22099304 .6826172 .21199036 .6826172 .21199036 .66360476 .21199036 .6536102 .22099304 .6536102 .23599243 .6536102 .29699708 .6536102 .29699708 .6456146 .29699708 .63461306 .29699708 .63261416 .29699708 .62661746 .29299928 .61161807L.1579895 .07395935C.14898682 .038986207 .14698792 .0289917 .07699585 .0289917 .057998659 .0289917 .04798889 .0289917 .04798889 .010986328 .04798889 0 .053985597 0 .07398987 0H.4169922C.56999209 0 .6879883 .11592102 .6879883 .2168274 .6879883 .2987671 .6159973 .34872438 .5349884 .35671998M.3929901 .0289917H.2579956C.24398804 .0289917 .24198914 .0289917 .23599243 .02999878 .22499085 .0309906 .22399903 .032989503 .22399903 .040985109 .22399903 .047973634 .22599793 .053970338 .22799683 .06295776L.2979889 .34472657H.48599244C.60398867 .34472657 .60398867 .2348175 .60398867 .2268219 .60398867 .13090515 .5169983 .0289917 .3929901 .0289917Z"/>
<path id="font_2_50" d="M.49899293 .120162967C.49899293 .1251831 .49699403 .13621521 .47999574 .13621521 .46699525 .13621521 .46499635 .13020325 .46099855 .11816406 .43099977 .044204713 .35598756 .025222779 .30999757 .025222779 .25498963 .025222779 .20799256 .050201417 .17999268 .08615112 .14299011 .13320923 .14299011 .19944763 .14299011 .2265625H.46899415C.4909973 .2265625 .49899293 .2265625 .49899293 .25054933 .49899293 .32743836 .45599366 .44628907 .2899933 .44628907 .1499939 .44628907 .04798889 .3394165 .04798889 .2195282 .04798889 .09315491 .16299439-.009765625 .3039856-.009765625 .44799806-.009765625 .49899293 .09815979 .49899293 .120162967M.42599488 .25656129H.14498902C.1559906 .39031983 .24798584 .41427613 .2889862 .41427613 .41799928 .41427613 .4249878 .2855072 .42599488 .25656129Z"/>
<path id="font_2_105" d="M.40098573 .12599182V.18110657H.3639984V.12799073C.3639984 .057159425 .32699586 .025222779 .2899933 .025222779 .21798706 .025222779 .21798706 .106033328 .21798706 .125V.39257813H.38198854V.43156434H.21798706V.6152344H.18099976C.17999268 .52638247 .13699341 .42855836 .035995485 .4245758V.39257813H.1349945V.125C.1349945 .020233155 .21398926-.009765625 .28199769-.009765625 .35099793-.009765625 .40098573 .045181276 .40098573 .12599182Z"/>
<path id="font_2_118" d="M.6029968 .3916626V.43066407C.59599307 .42965699 .55400088 .426651 .522995 .426651 .49699403 .426651 .43998719 .42965699 .42799378 .43066407V.3916626C.46398927 .3896637 .46998597 .36766053 .46998597 .3546753 .46998597 .34268189 .46598817 .33468629 .46199037 .32669068L.34498597 .089782718 .21598816 .3516693C.21299744 .3566742 .20999146 .3626709 .20999146 .36965943 .20999146 .3916626 .24499512 .3916626 .2619934 .3916626V.43066407C.23999024 .4286499 .16899109 .426651 .14399719 .426651 .12799073 .426651 .06498718 .4286499 .039993287 .43066407V.3916626C.100997928 .3916626 .10998535 .3876648 .12599182 .3556671L.30099488-.00018310547 .2749939-.05215454C.24899292-.104141239 .21499634-.17210388 .14399719-.17210388 .13999939-.17210388 .11898804-.17210388 .100997928-.16111756 .11199951-.15611267 .1269989-.144104 .1269989-.12010193 .1269989-.09309387 .10798645-.07510376 .08198547-.07510376 .057998659-.07510376 .036987306-.09109497 .036987306-.12109375 .036987306-.16911316 .085998538-.20410156 .14299011-.20410156 .23199463-.20410156 .2829895-.11909485 .2979889-.08909607L.5039978 .3296814C.5329895 .3896637 .58200076 .39065553 .6029968 .3916626Z"/>
<path id="font_6_1" d="M.397995-.22601319C.28799439-.14201355 .19799805 .015991211 .19799805 .25 .19799805 .48098756 .28599549 .6409912 .397995 .7259979 .397995 .72698977 .40098573 .73098757 .40098573 .73599246 .40098573 .74198916 .39698792 .75 .3849945 .75 .36698915 .75 .12599182 .59298709 .12599182 .25 .12599182-.0920105 .3659973-.25 .3849945-.25 .39698792-.25 .40098573-.2420044 .40098573-.23600769 .40098573-.23100281 .397995-.227005 .397995-.22601319Z"/>
<path id="font_3_1" d="M.22999573 .01399231C.22999573-.0811615 .17999268-.13627625 .15499878-.15830994 .14498902-.16833496 .14199829-.17033386 .14199829-.17634583 .14199829-.18534851 .15098572-.19433594 .15899658-.19433594 .17298889-.19433594 .2630005-.114227298 .2630005 .008987427 .2630005 .07199097 .23699951 .12098694 .18899536 .12098694 .1499939 .12098694 .1289978 .08999634 .1289978 .06098938 .1289978 .0309906 .1499939 0 .18998719 0 .20498657 0 .21899414 .0039978029 .22999573 .01399231Z"/>
<path id="font_6_2" d="M.35398866 .25C.35398866 .59199526 .11399841 .75 .09498596 .75 .08299255 .75 .07998657 .7409973 .07998657 .73599246 .07998657 .7299957 .08099365 .72898867 .09899902 .71299746 .18899536 .6360016 .28199769 .48799134 .28199769 .25 .28199769 .037994386 .20799256-.1210022 .09498596-.21600342 .08099365-.2290039 .07998657-.23001099 .07998657-.23600769 .07998657-.24101258 .08299255-.25 .09498596-.25 .11299133-.25 .35398866-.09300232 .35398866 .25Z"/>
</defs>
<use data-text="&#xf8ee;" xlink:href="#font_1_1" transform="matrix(11.9552,0,0,-11.956276,-2.4080048,19.976719)"/>
<use data-text="&#xf8ef;" xlink:href="#font_1_5" transform="matrix(11.9552,0,0,-11.956276,-2.4080048,41.01961)"/>
<use data-text="&#xf8ef;" xlink:href="#font_1_5" transform="matrix(11.9552,0,0,-11.956276,-2.4080048,48.193258)"/>
<use data-text="&#xf8f0;" xlink:href="#font_1_3" transform="matrix(11.9552,0,0,-11.956276,-2.4080048,55.845949)"/>
<use data-text="&#xf8f9;" xlink:href="#font_1_2" transform="matrix(11.9552,0,0,-11.956276,46.606,19.976719)"/>
<use data-text="&#xf8fa;" xlink:href="#font_1_6" transform="matrix(11.9552,0,0,-11.956276,46.606,41.01961)"/>
<use data-text="&#xf8fa;" xlink:href="#font_1_6" transform="matrix(11.9552,0,0,-11.956276,46.606,48.193258)"/>
<use data-text="&#xf8fb;" xlink:href="#font_1_4" transform="matrix(11.9552,0,0,-11.956276,46.606,55.845949)"/>
<path transform="matrix(1,0,0,-1.00009,26.084,48.193258)" stroke-width=".79701" stroke-linecap="butt" stroke-miterlimit="10" stroke-linejoin="miter" fill="none" stroke="#ff0000" d="M-15.34178-6.97351H14.54477"/>
<path transform="matrix(1,0,0,-1.00009,41.02728,55.167394)" stroke-width=".79701" stroke-linecap="round" stroke-linejoin="round" fill="none" stroke="#ff0000" d="M-2.55046 3.11095C-2.0845 1.24435-1.04614 .36295 0 0-1.04614-.36295-2.0845-1.24435-2.55046-3.11095"/>
<use data-text="r" xlink:href="#font_2_96" transform="matrix(5.9776,0,0,-5.978138,17.737,63.511636)" fill="#ff0000"/>
<use data-text="o" xlink:href="#font_2_81" transform="matrix(5.9776,0,0,-5.978138,20.612229,63.511636)" fill="#ff0000"/>
<use data-text="w" xlink:href="#font_2_114" transform="matrix(5.9776,0,0,-5.978138,24.079239,63.511636)" fill="#ff0000"/>
<use data-text="i" xlink:href="#font_3_2" transform="matrix(5.9776,0,0,-5.978138,31.766999,63.511636)" fill="#ff0000"/>
<use data-text="&#xf8ee;" xlink:href="#font_1_1" transform="matrix(11.9552,0,0,-11.956276,60.315999,27.150364)"/>
<use data-text="&#xf8f0;" xlink:href="#font_1_3" transform="matrix(11.9552,0,0,-11.956276,60.315999,48.672304)"/>
<use data-text="&#xf8f9;" xlink:href="#font_1_2" transform="matrix(11.9552,0,0,-11.956276,153.963,27.150364)"/>
<use data-text="&#xf8fb;" xlink:href="#font_1_4" transform="matrix(11.9552,0,0,-11.956276,153.963,48.672304)"/>
<path transform="matrix(1,0,0,-1.00009,26.084,48.193258)" stroke-width=".79701" stroke-linecap="butt" stroke-miterlimit="10" stroke-linejoin="miter" fill="none" stroke="#ff0000" d="M73.88257 18.13095V-17.33394"/>
<path transform="matrix(0,1.00009,1,0,99.96657,65.92731)" stroke-width=".79701" stroke-linecap="round" stroke-linejoin="round" fill="none" stroke="#ff0000" d="M-2.55046 3.11095C-2.0845 1.24435-1.04614 .36295 0 0-1.04614-.36295-2.0845-1.24435-2.55046-3.11095"/>
<use data-text="c" xlink:href="#font_2_43" transform="matrix(5.9776,0,0,-5.978138,104.35,49.68639)" fill="#ff0000"/>
<use data-text="o" xlink:href="#font_2_81" transform="matrix(5.9776,0,0,-5.978138,107.61377,49.68639)" fill="#ff0000"/>
<use data-text="l" xlink:href="#font_2_72" transform="matrix(5.9776,0,0,-5.978138,111.26608,49.68639)" fill="#ff0000"/>
<use data-text="u" xlink:href="#font_2_109" transform="matrix(5.9776,0,0,-5.978138,113.3702,49.68639)" fill="#ff0000"/>
<use data-text="m" xlink:href="#font_2_75" transform="matrix(5.9776,0,0,-5.978138,117.41106,49.68639)" fill="#ff0000"/>
<use data-text="n" xlink:href="#font_2_77" transform="matrix(5.9776,0,0,-5.978138,123.38866,49.68639)" fill="#ff0000"/>
<use data-text="j" xlink:href="#font_3_3" transform="matrix(5.9776,0,0,-5.978138,129.922,49.68639)" fill="#ff0000"/>
<use data-text="=" xlink:href="#font_4_1" transform="matrix(11.9552,0,0,-11.956276,170.352,50.35045)"/>
<use data-text="&#xf8ee;" xlink:href="#font_1_1" transform="matrix(11.9552,0,0,-11.956276,187.877,19.976719)"/>
<use data-text="&#xf8ef;" xlink:href="#font_1_5" transform="matrix(11.9552,0,0,-11.956276,187.877,41.01961)"/>
<use data-text="&#xf8ef;" xlink:href="#font_1_5" transform="matrix(11.9552,0,0,-11.956276,187.877,48.193258)"/>
<use data-text="&#xf8f0;" xlink:href="#font_1_3" transform="matrix(11.9552,0,0,-11.956276,187.877,55.845949)"/>
<use data-text="&#xf8f9;" xlink:href="#font_1_2" transform="matrix(11.9552,0,0,-11.956276,281.523,19.976719)"/>
<use data-text="&#xf8fa;" xlink:href="#font_1_6" transform="matrix(11.9552,0,0,-11.956276,281.523,41.01961)"/>
<use data-text="&#xf8fa;" xlink:href="#font_1_6" transform="matrix(11.9552,0,0,-11.956276,281.523,48.193258)"/>
<use data-text="&#xf8fb;" xlink:href="#font_1_4" transform="matrix(11.9552,0,0,-11.956276,281.523,55.845949)"/>
<use data-text="A" xlink:href="#font_5_1" transform="matrix(11.9552,0,0,-11.956276,21.696,9.754795)"/>
<use data-text="B" xlink:href="#font_5_2" transform="matrix(11.9552,0,0,-11.956276,106.376,9.754795)"/>
<use data-text="A" xlink:href="#font_5_1" transform="matrix(11.9552,0,0,-11.956276,229.549,9.754795)"/>
<use data-text="B" xlink:href="#font_5_2" transform="matrix(11.9552,0,0,-11.956276,238.32411,9.754795)"/>
<use data-text="e" xlink:href="#font_2_50" transform="matrix(5.9776,0,0,-5.978138,230.083,63.681653)" fill="#ff0000"/>
<use data-text="n" xlink:href="#font_2_77" transform="matrix(5.9776,0,0,-5.978138,233.34677,63.681653)" fill="#ff0000"/>
<use data-text="t" xlink:href="#font_2_105" transform="matrix(5.9776,0,0,-5.978138,237.20232,63.681653)" fill="#ff0000"/>
<use data-text="r" xlink:href="#font_2_96" transform="matrix(5.9776,0,0,-5.978138,240.07755,63.681653)" fill="#ff0000"/>
<use data-text="y" xlink:href="#font_2_118" transform="matrix(5.9776,0,0,-5.978138,242.95278,63.681653)" fill="#ff0000"/>
<use data-text="(" xlink:href="#font_6_1" transform="matrix(5.9776,0,0,-5.978138,249.289,63.681653)" fill="#ff0000"/>
<use data-text="i" xlink:href="#font_3_2" transform="matrix(5.9776,0,0,-5.978138,252.16699,63.681653)" fill="#ff0000"/>
<use data-text="," xlink:href="#font_3_1" transform="matrix(5.9776,0,0,-5.978138,254.82703,63.681653)" fill="#ff0000"/>
<use data-text="j" xlink:href="#font_3_3" transform="matrix(5.9776,0,0,-5.978138,258.3598,63.681653)" fill="#ff0000"/>
<use data-text=")" xlink:href="#font_6_2" transform="matrix(5.9776,0,0,-5.978138,261.77799,63.681653)" fill="#ff0000"/>
<path transform="matrix(1,0,0,-1.00009,26.084,48.193258)" stroke-width=".79701" stroke-linecap="butt" stroke-miterlimit="10" stroke-linejoin="miter" fill="none" stroke="#ff0000" d="M201.4432 25.10446V-25.10446"/>
<path transform="matrix(1,0,0,-1.00009,26.084,48.193258)" stroke-width=".79701" stroke-linecap="butt" stroke-miterlimit="10" stroke-linejoin="miter" fill="none" stroke="#ff0000" d="M174.94356-6.97351H250.25856"/>
<path transform="matrix(1,0,0,-1.00009,26.084,48.193258)" stroke-width=".79701" stroke-linecap="butt" stroke-miterlimit="10" stroke-linejoin="miter" fill="none" stroke="#ff0000" d="M205.42832-6.97351C205.42832-4.77257 203.64415-2.9884 201.4432-2.9884 199.24227-2.9884 197.4581-4.77257 197.4581-6.97351 197.4581-9.17445 199.24227-10.95862 201.4432-10.95862 203.64415-10.95862 205.42832-9.17445 205.42832-6.97351ZM201.4432-6.97351"/>
<path transform="matrix(1,0,0,-1.00009,26.084,48.193258)" d="M204.93018-6.97351C204.93018-5.04768 203.36902-3.48654 201.4432-3.48654 199.51738-3.48654 197.95624-5.04768 197.95624-6.97351 197.95624-8.89932 199.51738-10.46048 201.4432-10.46048 203.36902-10.46048 204.93018-8.89932 204.93018-6.97351ZM201.4432-6.97351" fill="#ffffff"/>
<path transform="matrix(1,0,0,-1.00009,26.084,48.193258)" stroke-width=".3985" stroke-linecap="butt" stroke-miterlimit="10" stroke-linejoin="miter" fill="none" stroke="#ffffff" d="M204.93018-6.97351C204.93018-5.04768 203.36902-3.48654 201.4432-3.48654 199.51738-3.48654 197.95624-5.04768 197.95624-6.97351 197.95624-8.89932 199.51738-10.46048 201.4432-10.46048 203.36902-10.46048 204.93018-8.89932 204.93018-6.97351ZM201.4432-6.97351"/>
</svg>
