<svg xmlns="http://www.w3.org/2000/svg" xmlns:xlink="http://www.w3.org/1999/xlink" xmlns:inkscape="http://www.inkscape.org/namespaces/inkscape" version="1.1" width="166" height="104" viewBox="0 0 166 104">
<defs>
<path id="font_1_1" d="M.49499513 .37831117C.5019989 .3933258 .5059967 .4013214 .56900027 .4013214V.44433595C.5329895 .44232179 .5309906 .44232179 .48999024 .44232179 .46299745 .44232179 .46099855 .44232179 .4039917 .44433595V.4013214C.43099977 .4013214 .45298768 .3963318 .45298768 .389328 .45298768 .38832093 .45298768 .38731385 .44799806 .37731935L.33099366 .120162967 .20199585 .4013214H.25698854V.44433595C.23399353 .44232179 .1639862 .44232179 .13699341 .44232179 .10798645 .44232179 .049987794 .44232179 .023986817 .44433595V.4013214H.08699036L.2630005 .019104004C.27198792 .00010681152 .27398683-.0048828127 .29699708-.0048828127 .31298829-.0048828127 .32099916-.0028839112 .32998658 .017105103L.49499513 .37831117Z"/>
<path id="font_2_2" d="M.29599 .3177948H.46398927C.60198977 .3177948 .73999026 .41973878 .73999026 .53367617 .73999026 .6116333 .673996 .6826172 .5479889 .6826172H.23899842C.21998596 .6826172 .21099854 .6826172 .21099854 .66360476 .21099854 .6536102 .21998596 .6536102 .23498535 .6536102 .29599 .6536102 .29599 .6456146 .29599 .63461306 .29599 .63261416 .29599 .62661746 .2919922 .6116333L.15699768 .07395935C.147995 .038986207 .1459961 .0289917 .07598877 .0289917 .056991579 .0289917 .04699707 .0289917 .04699707 .010986328 .04699707 0 .055999757 0 .06199646 0 .08099365 0 .100997928 .0019989014 .11999512 .0019989014H.23699951C.2559967 .0019989014 .2769928 0 .29599 0 .3039856 0 .31498719 0 .31498719 .018997193 .31498719 .0289917 .30599977 .0289917 .29100038 .0289917 .23098755 .0289917 .22999573 .035980226 .22999573 .04597473 .22999573 .050979616 .23098755 .05796814 .23199463 .06297302L.29599 .3177948M.36799623 .614624C.3769989 .6516113 .3809967 .6536102 .41999818 .6536102H.5189972C.59399417 .6536102 .6559906 .6296234 .6559906 .55467227 .6559906 .5286865 .6429901 .4437256 .5970001 .39775086 .5799866 .37976075 .5319977 .34179688 .44099427 .34179688H.2999878L.36799623 .614624Z"/>
<path id="font_3_1" d="M.32499696-.24298096C.32499696-.23999024 .32499696-.23799134 .30799867-.22097779 .20799256-.11997986 .1519928 .045013429 .1519928 .24900818 .1519928 .44299317 .19898987 .60998538 .31498719 .7279968 .32499696 .7369995 .32499696 .7389984 .32499696 .74198916 .32499696 .74798586 .31999208 .75 .31599427 .75 .30299378 .75 .22099304 .6779938 .17199707 .5799866 .12098694 .47898866 .09799194 .37199403 .09799194 .24900818 .09799194 .16000366 .11199951 .041015626 .1639862-.06599426 .22299195-.18598938 .30499269-.25097657 .31599427-.25097657 .31999208-.25097657 .32499696-.24897766 .32499696-.24298096Z"/>
<path id="font_3_3" d="M.44799806 .31976319C.44799806 .40283204 .44299317 .48390199 .40699769 .55996707 .3659973 .64302065 .2939911 .66503909 .24499512 .66503909 .18699646 .66503909 .115997318 .63601687 .07899475 .552948 .050994874 .48989869 .040985109 .42785646 .040985109 .31976319 .040985109 .22268677 .04798889 .14962769 .083999637 .078567508 .12298584 .0025177003 .19198609-.021484375 .24398804-.021484375 .33099366-.021484375 .3809967 .030532837 .4099884 .08857727 .44599916 .16363526 .44799806 .26171876 .44799806 .31976319M.24398804-.0014953613C.21199036-.0014953613 .14698792 .016525269 .12799073 .12561035 .116989139 .18565369 .116989139 .26171876 .116989139 .33177186 .116989139 .41384889 .116989139 .48789979 .1329956 .5469513 .1499939 .6139984 .20098877 .6450348 .24398804 .6450348 .28199769 .6450348 .33999635 .6220093 .35899354 .53593447 .37199403 .4788971 .37199403 .39982606 .37199403 .33177186 .37199403 .26472474 .37199403 .18865967 .36099244 .12760926 .34199525 .01751709 .2789917-.0014953613 .24398804-.0014953613Z"/>
<path id="font_2_1" d="M.19499207-.0040130617C.19499207 .053985597 .17599488 .09700012 .1349945 .09700012 .102996829 .09700012 .08699036 .070999149 .08699036 .04899597 .08699036 .026992798 .101989749 0 .13598633 0 .14898682 0 .1599884 .0039978029 .16899109 .0129852299 .17098999 .01499939 .17199707 .01499939 .17298889 .01499939 .1749878 .01499939 .1749878 .0009918213 .1749878-.0040130617 .1749878-.037078859 .16899109-.10221863 .11099243-.1673584 .099990848-.17936707 .099990848-.18136597 .099990848-.18336487 .099990848-.18836975 .10499573-.19335938 .10998535-.19335938 .117996219-.19335938 .19499207-.119262699 .19499207-.0040130617Z"/>
<path id="font_3_2" d="M.28199769 .24900818C.28199769 .32499696 .27198792 .44898988 .21598816 .5649872 .15699768 .68499758 .07499695 .75 .06399536 .75 .05999756 .75 .054992677 .74798586 .054992677 .74198916 .054992677 .7389984 .054992677 .7369995 .07199097 .71998599 .17199707 .61898806 .22799683 .45399476 .22799683 .25 .22799683 .056015016 .18099976-.11099243 .06498718-.22898865 .054992677-.23799134 .054992677-.23999024 .054992677-.24298096 .054992677-.24897766 .05999756-.25097657 .06399536-.25097657 .07699585-.25097657 .15899658-.1789856 .20799256-.08099365 .25898744 .021011353 .28199769 .12901306 .28199769 .24900818Z"/>
<path id="font_2_4" d="M.36799623 .61460879C.3769989 .6516113 .3809967 .6536102 .41999818 .6536102H.49198915C.5779877 .6536102 .6419983 .62760928 .6419983 .54959109 .6419983 .49858094 .6159973 .3515625 .4149933 .3515625H.3019867L.36799623 .61460879M.5069885 .33955384C.6309967 .3665619 .7279968 .44657899 .7279968 .5325928 .7279968 .6105957 .6489868 .6826172 .5099945 .6826172H.23899842C.21899414 .6826172 .20999146 .6826172 .20999146 .66360476 .20999146 .6536102 .21699524 .6536102 .23599243 .6536102 .29599 .6536102 .29599 .6456146 .29599 .63461306 .29599 .6325989 .29599 .6266022 .2919922 .6116028L.15699768 .073516849C.147995 .038513185 .1459961 .028518677 .07699585 .028518677 .053985597 .028518677 .04699707 .028518677 .04699707 .009506226 .04699707-.00048828127 .057998659-.00048828127 .06098938-.00048828127 .07899475-.00048828127 .099990848 .0015106201 .11898804 .0015106201H.23699951C.25498963 .0015106201 .27598573-.00048828127 .2939911-.00048828127 .3019867-.00048828127 .31298829-.00048828127 .31298829 .018508912 .31298829 .028518677 .3039856 .028518677 .2889862 .028518677 .22799683 .028518677 .22799683 .036514284 .22799683 .04650879 .22799683 .04751587 .22799683 .054519655 .22999573 .06251526L.29699708 .33155824H.4169922C.5119934 .33155824 .5299988 .2715454 .5299988 .23854065 .5299988 .22354126 .519989 .1845398 .5130005 .15852356 .5019989 .11251831 .49899293 .10151672 .49899293 .08251953 .49899293 .011505127 .5569916-.021484375 .6239929-.021484375 .7049866-.021484375 .73999026 .07751465 .73999026 .09152222 .73999026 .098526 .7350006 .10151672 .72898867 .10151672 .72099307 .10151672 .71899417 .09552002 .71699526 .087524417 .69299319 .01651001 .6519928-.0014953613 .6269989-.0014953613 .60198977-.0014953613 .58599856 .009506226 .58599856 .054519655 .58599856 .07852173 .59799197 .16952515 .598999 .17453003 .60398867 .2115326 .60398867 .2155304 .60398867 .22354126 .60398867 .29655458 .54499819 .32754518 .5069885 .33955384Z"/>
<path id="font_2_5" d="M.47399903 .40820313C.44198609 .40219117 .42999269 .3781891 .42999269 .3591919 .42999269 .33518983 .44898988 .3271942 .46299745 .3271942 .49299623 .3271942 .5139923 .3531952 .5139923 .380188 .5139923 .4223938 .46598817 .44140626 .42399598 .44140626 .36299134 .44140626 .32899476 .38119508 .31999208 .36219789 .29699708 .4373932 .23498535 .44140626 .21699524 .44140626 .114990238 .44140626 .06098938 .31021119 .06098938 .28822328 .06098938 .28422547 .06498718 .27923585 .07199097 .27923585 .07998657 .27923585 .08198547 .28523255 .083999637 .2892151 .117996219 .40019227 .18499756 .42140199 .21398926 .42140199 .25898744 .42140199 .2679901 .37919618 .2679901 .3551941 .2679901 .33319093 .2619934 .31021119 .25 .26223756L.21598816 .12535095C.20098877 .06535339 .17199707 .010223389 .11898804 .010223389 .11399841 .010223389 .08898926 .010223389 .067993167 .023330689 .10398865 .03036499 .11199951 .06036377 .11199951 .07235718 .11199951 .09236145 .09700012 .10435486 .07798767 .10435486 .053985597 .10435486 .027999878 .083358768 .027999878 .051361085 .027999878 .009231567 .07499695-.009765625 .117996219-.009765625 .1659851-.009765625 .19999695 .028366089 .22099304 .069366458 .23699951 .010223389 .2869873-.009765625 .32398988-.009765625 .42599488-.009765625 .47999574 .12135315 .47999574 .1433258 .47999574 .14833069 .47599793 .15232849 .46998597 .15232849 .46099855 .15232849 .45999146 .14732361 .45700074 .139328 .42999269 .051361085 .37199403 .010223389 .32699586 .010223389 .2919922 .010223389 .272995 .036361696 .272995 .07736206 .272995 .099365238 .2769928 .115356449 .29299928 .18130493L.32798768 .3171997C.34298707 .37719728 .3769989 .42140199 .4229889 .42140199 .4249878 .42140199 .45298768 .42140199 .47399903 .40820313Z"/>
<path id="font_2_6" d="M.2630005-.11172485C.23599243-.14982605 .19699097-.18411255 .147995-.18411255 .13598633-.18411255 .08799744-.18209839 .07299805-.13572693 .07598877-.13671875 .08099365-.13671875 .08299255-.13671875 .11299133-.13671875 .1329956-.11073303 .1329956-.08772278 .1329956-.06472778 .11399841-.056732179 .09899902-.056732179 .08299255-.056732179 .04798889-.068725589 .04798889-.11772156 .04798889-.16899109 .09098816-.20410156 .147995-.20410156 .24798584-.20410156 .34899903-.11172485 .3769989-.00077819827L.47499085 .38868714C.47599793 .39367677 .47799684 .39967347 .47799684 .4056549 .47799684 .4206543 .46598817 .43066407 .45098878 .43066407 .44198609 .43066407 .42099 .426651 .41299439 .39666749L.33898927 .10308838C.33399964 .085113529 .33399964 .08312988 .32598878 .072143558 .30599977 .04423523 .272995 .010223389 .22499085 .010223389 .16899109 .010223389 .1639862 .06524658 .1639862 .09225464 .1639862 .14929199 .19099427 .22631836 .21798706 .2983551 .22898865 .32736207 .23498535 .34136964 .23498535 .3613739 .23498535 .4033966 .20498657 .44140626 .1559906 .44140626 .06399536 .44140626 .026992798 .29634095 .026992798 .28834535 .026992798 .28434754 .0309906 .27934266 .037994386 .27934266 .04699707 .27934266 .04798889 .28334046 .051986696 .29734803 .07598877 .38137818 .11399841 .42140199 .15299988 .42140199 .1619873 .42140199 .1789856 .42140199 .1789856 .38838197 .1789856 .36238099 .16799927 .33335877 .15299988 .29534913 .10398865 .16429138 .10398865 .13127136 .10398865 .10726929 .10398865 .01222229 .17199707-.009765625 .22200012-.009765625 .25099183-.009765625 .2869873-.00077819827 .32199098 .036239625L.32299806 .035232545C.30799867-.023757935 .2979889-.06272888 .2630005-.11172485Z"/>
<path id="font_2_3" d="M.42599488 .005508423C.59799197 .07449341 .7259979 .25660707 .7259979 .43780519 .7259979 .6029968 .6179962 .70410159 .47799684 .70410159 .2639923 .70410159 .04798889 .47384645 .04798889 .24258423 .04798889 .085494998 .1519928-.021484375 .29699708-.021484375 .33099366-.021484375 .3639984-.016494751 .3959961-.0064849855 .3899994-.06640625 .3899994-.07141113 .3899994-.09037781 .3899994-.11933899 .3899994-.19433594 .46998597-.19433594 .58898928-.19433594 .6329956-.0074920656 .6329956-.0014953613 .6329956 .004501343 .6289978 .008514404 .6239929 .008514404 .6179962 .008514404 .6159973 .0035095216 .61299136-.0074920656 .59098818-.07040405 .5389862-.1063385 .49499513-.1063385 .44400025-.1063385 .43099977-.07141113 .42599488 .005508423M.24598694 .010513306C.16699219 .037506105 .1289978 .1204834 .1289978 .21255493 .1289978 .28263856 .15499878 .41578675 .22099304 .51690676 .29499818 .6310272 .3939972 .6820984 .47200013 .6820984 .57598879 .6820984 .6459961 .59799197 .6459961 .46784974 .6459961 .39375306 .61099246 .1454773 .4229889 .035507204 .41799928 .08648682 .4039917 .14648438 .33799745 .14648438 .28399659 .14648438 .23799134 .09248352 .23799134 .043502809 .23799134 .03250122 .24198914 .017501831 .24598694 .010513306M.397995 .022506714C.3619995 .006500244 .33099366 .00050354006 .30299378 .00050354006 .29299928 .00050354006 .2579956 .00050354006 .2579956 .04449463 .2579956 .08049011 .29299928 .1264801 .33799745 .1264801 .3880005 .1264801 .39898683 .09248352 .39898683 .042495729 .39898683 .036499025 .39898683 .028503418 .397995 .022506714Z"/>
</defs>
<path transform="matrix(1.00006,0,0,-1.00006,39.989755,86.84425)" stroke-width=".3985" stroke-linecap="butt" stroke-miterlimit="10" stroke-linejoin="miter" fill="none" stroke="#000000" d="M-14.17339 0H112.98872"/>
<path transform="matrix(1.00006,0,0,-1.00006,153.18451,86.84425)" stroke-width=".3985" stroke-linecap="round" stroke-linejoin="round" fill="none" stroke="#000000" d="M-2.07224 2.39104C-1.69365 .95639-.84999 .27895 0 0-.84999-.27895-1.69365-.95639-2.07224-2.39104"/>
<path transform="matrix(1.00006,0,0,-1.00006,39.989755,86.84425)" stroke-width=".3985" stroke-linecap="butt" stroke-miterlimit="10" stroke-linejoin="miter" fill="none" stroke="#000000" d="M0-14.17339V84.64192"/>
<path transform="matrix(0,-1.00006,-1.00006,-0,39.989755,1.9979935)" stroke-width=".3985" stroke-linecap="round" stroke-linejoin="round" fill="none" stroke="#000000" d="M-2.07224 2.39104C-1.69365 .95639-.84999 .27895 0 0-.84999-.27895-1.69365-.95639-2.07224-2.39104"/>
<path transform="matrix(1.00006,0,0,-1.00006,39.989755,86.84425)" stroke-width=".79701" stroke-linecap="butt" stroke-miterlimit="10" stroke-linejoin="miter" fill="none" stroke="#000000" d="M0 0 84.3773 56.25154"/>
<path transform="matrix(.8320699,-.55470326,-.55470326,-.8320699,124.7037,30.368287)" stroke-width=".79701" stroke-linecap="round" stroke-linejoin="round" fill="none" stroke="#000000" d="M-2.55046 3.11095C-2.0845 1.24435-1.04614 .36295 0 0-1.04614-.36295-2.0845-1.24435-2.55046-3.11095"/>
<use data-text="v" xlink:href="#font_1_1" transform="matrix(11.955917,0,0,-11.955917,70.843608,54.112295)"/>
<path transform="matrix(1.00006,0,0,-1.00006,39.989755,86.84425)" stroke-width=".3985" stroke-linecap="butt" stroke-miterlimit="10" stroke-linejoin="miter" fill="none" stroke="#000000" d="M0 0H85.04042"/>
<path transform="matrix(1.00006,0,0,-1.00006,39.989755,86.84425)" stroke-width=".3985" stroke-linecap="butt" stroke-miterlimit="10" stroke-linejoin="miter" fill="none" stroke="#000000" d="M85.04042 0V56.69362"/>
<path transform="matrix(1.00006,0,0,-1.00006,39.989755,86.84425)" d="M.99628 0C.99628 .55023 .55023 .99628 0 .99628-.55023 .99628-.99628 .55023-.99628 0-.99628-.55023-.55023-.99628 0-.99628 .55023-.99628 .99628-.55023 .99628 0ZM0 0"/>
<path transform="matrix(1.00006,0,0,-1.00006,39.989755,86.84425)" stroke-width=".3985" stroke-linecap="butt" stroke-miterlimit="10" stroke-linejoin="miter" fill="none" stroke="#000000" d="M.99628 0C.99628 .55023 .55023 .99628 0 .99628-.55023 .99628-.99628 .55023-.99628 0-.99628-.55023-.55023-.99628 0-.99628 .55023-.99628 .99628-.55023 .99628 0ZM0 0"/>
<use data-text="P" xlink:href="#font_2_2" transform="matrix(11.955917,0,0,-11.955917,.5773926,99.99504)"/>
<use data-text="(" xlink:href="#font_3_1" transform="matrix(11.955917,0,0,-11.955917,9.7489399,99.99504)"/>
<use data-text="0" xlink:href="#font_3_3" transform="matrix(11.955917,0,0,-11.955917,14.292191,99.99504)"/>
<use data-text="," xlink:href="#font_2_1" transform="matrix(11.955917,0,0,-11.955917,20.154564,99.99504)"/>
<use data-text="0" xlink:href="#font_3_3" transform="matrix(11.955917,0,0,-11.955917,25.39888,99.99504)"/>
<use data-text=")" xlink:href="#font_3_2" transform="matrix(11.955917,0,0,-11.955917,31.245324,99.99504)"/>
<path transform="matrix(1.00006,0,0,-1.00006,39.989755,86.84425)" d="M86.0367 56.69362C86.0367 57.24385 85.59065 57.6899 85.04042 57.6899 84.49019 57.6899 84.04414 57.24385 84.04414 56.69362 84.04414 56.14337 84.49019 55.69734 85.04042 55.69734 85.59065 55.69734 86.0367 56.14337 86.0367 56.69362ZM85.04042 56.69362"/>
<path transform="matrix(1.00006,0,0,-1.00006,39.989755,86.84425)" stroke-width=".3985" stroke-linecap="butt" stroke-miterlimit="10" stroke-linejoin="miter" fill="none" stroke="#000000" d="M86.0367 56.69362C86.0367 57.24385 85.59065 57.6899 85.04042 57.6899 84.49019 57.6899 84.04414 57.24385 84.04414 56.69362 84.04414 56.14337 84.49019 55.69734 85.04042 55.69734 85.59065 55.69734 86.0367 56.14337 86.0367 56.69362ZM85.04042 56.69362"/>
<use data-text="R" xlink:href="#font_2_4" transform="matrix(11.955917,0,0,-11.955917,129.2191,22.974423)"/>
<use data-text="(" xlink:href="#font_3_1" transform="matrix(11.955917,0,0,-11.955917,138.22765,22.974423)"/>
<use data-text="x" xlink:href="#font_2_5" transform="matrix(11.955917,0,0,-11.955917,142.78092,22.974423)"/>
<use data-text="," xlink:href="#font_2_1" transform="matrix(11.955917,0,0,-11.955917,149.4284,22.974423)"/>
<use data-text="y" xlink:href="#font_2_6" transform="matrix(11.955917,0,0,-11.955917,154.65316,22.974423)"/>
<use data-text=")" xlink:href="#font_3_2" transform="matrix(11.955917,0,0,-11.955917,160.814,22.974423)"/>
<path transform="matrix(1.00006,0,0,-1.00006,39.989755,86.84425)" d="M86.0367 0C86.0367 .55023 85.59065 .99628 85.04042 .99628 84.49019 .99628 84.04414 .55023 84.04414 0 84.04414-.55023 84.49019-.99628 85.04042-.99628 85.59065-.99628 86.0367-.55023 86.0367 0ZM85.04042 0"/>
<path transform="matrix(1.00006,0,0,-1.00006,39.989755,86.84425)" stroke-width=".3985" stroke-linecap="butt" stroke-miterlimit="10" stroke-linejoin="miter" fill="none" stroke="#000000" d="M86.0367 0C86.0367 .55023 85.59065 .99628 85.04042 .99628 84.49019 .99628 84.04414 .55023 84.04414 0 84.04414-.55023 84.49019-.99628 85.04042-.99628 85.59065-.99628 86.0367-.55023 86.0367 0ZM85.04042 0"/>
<use data-text="Q" xlink:href="#font_2_3" transform="matrix(11.955917,0,0,-11.955917,106.97176,99.99504)"/>
<use data-text="(" xlink:href="#font_3_1" transform="matrix(11.955917,0,0,-11.955917,116.24332,99.99504)"/>
<use data-text="x" xlink:href="#font_2_5" transform="matrix(11.955917,0,0,-11.955917,120.79559,99.99504)"/>
<use data-text="," xlink:href="#font_2_1" transform="matrix(11.955917,0,0,-11.955917,127.443088,99.99504)"/>
<use data-text="0" xlink:href="#font_3_3" transform="matrix(11.955917,0,0,-11.955917,132.6923,99.99504)"/>
<use data-text=")" xlink:href="#font_3_2" transform="matrix(11.955917,0,0,-11.955917,138.53874,99.99504)"/>
</svg>
