<svg xmlns="http://www.w3.org/2000/svg" xmlns:xlink="http://www.w3.org/1999/xlink" xmlns:inkscape="http://www.inkscape.org/namespaces/inkscape" version="1.1" width="120" height="103" viewBox="0 0 120 103">
<defs>
<clipPath id="clip_1">
<path transform="matrix(1,0,0,-1.00002,59.977998,51.309526)" d="M-43.93764-21.2601 43.93764 21.2601 113.38724 90.7097H-113.38724Z"/>
</clipPath>
<clipPath id="clip_2">
<path transform="matrix(1,0,0,-1.00002,59.977998,51.309526)" d="M-113.38724-90.7097H113.38724L43.93764 21.2601-43.93764-21.2601Z"/>
</clipPath>
<path id="font_3_1" d="M.09199524 .17022705C.0289917 .10824585 .0129852299 .09324646 .0129852299 .08924866 .0129852299 .085250858 .016998291 .07826233 .023986817 .07826233 .0289917 .07826233 .085998538 .13323975 .09399414 .14224243 .099990848 .07525635 .125-.01171875 .20298767-.01171875 .24299622-.01171875 .2789917 .0132751469 .29499818 .025268555 .30799867 .03526306 .35598756 .07624817 .35598756 .085250858 .35598756 .09025574 .35099793 .09625244 .34599305 .09625244 .34199525 .09625244 .32699586 .08125305 .32299806 .07725525 .28799439 .043258668 .24398804 .008270264 .20399475 .008270264 .1499939 .008270264 .14299011 .086257938 .14299011 .14024353 .14299011 .15023804 .14299011 .19223023 .1499939 .20022583 .20899964 .26119996 .3939972 .45214845 .3939972 .6291046 .3939972 .6690979 .3789978 .70410159 .33599855 .70410159 .24299622 .70410159 .1619873 .49813844 .147995 .4601593 .14399719 .45014955 .085998538 .2962036 .09199524 .17022705M.1519928 .23220825C.15299988 .23820496 .19799805 .5001373 .28199769 .6401062 .29899598 .667099 .31599427 .6840973 .33599855 .6840973 .36999513 .6840973 .37199403 .6520996 .37199403 .6301117 .37199403 .5951233 .3619995 .5051422 .2749939 .3791809 .24899292 .34217835 .20899964 .29219056 .1519928 .23220825Z"/>
<path id="font_4_2" d="M.33699037 .24717713 .45298768 .38031007C.46398927 .3933258 .47299195 .4013214 .55599978 .4013214V.44433595C.5 .44232179 .49798585 .44232179 .46398927 .44232179 .43499757 .44232179 .3919983 .44232179 .3639984 .44433595V.4013214C.3829956 .4013214 .4039917 .3963318 .4039917 .38931275 .4039917 .38731385 .39898683 .38031007 .39698792 .37831117L.30999757 .2802124 .21099854 .4013214H.25299073V.44433595C.22999573 .44232179 .1619873 .44232179 .1349945 .44232179 .10499573 .44232179 .050994874 .44232179 .022994996 .44433595V.4013214H.09399414L.25 .21115113 .11999512 .06401062C.10798645 .05000305 .100997928 .042999269 .017990113 .042999269V0C.07798767 .0019989014 .07998657 .0019989014 .11099243 .0019989014 .13999939 .0019989014 .18199158 .0019989014 .20999146 0V.042999269C.19099427 .042999269 .16999817 .04800415 .16999817 .055007936 .16999817 .055999757 .16999817 .057006837 .1769867 .0650177L.2769928 .17811585 .3880005 .042999269H.34599305V0C.36999513 .0019989014 .43699647 .0019989014 .46499635 .0019989014 .49499513 .0019989014 .5479889 .0019989014 .57598879 0V.042999269H.5059967L.33699037 .24717713Z"/>
<path id="font_5_1" d="M.4889984 .31877137C.4889984 .42585755 .47799684 .49090577 .44499208 .55496218 .40098573 .6430359 .31999208 .66503909 .2649994 .66503909 .13899231 .66503909 .09298706 .5709839 .07899475 .5429535 .042999269 .4698944 .040985109 .3708191 .040985109 .31877137 .040985109 .25271607 .04399109 .15162659 .09199524 .07156372 .13798523-.0024871827 .21199036-.021484375 .2649994-.021484375 .31298829-.021484375 .39898683-.0064849855 .44898988 .09257507 .48599244 .16464234 .4889984 .2537079 .4889984 .31877137M.2649994 .006515503C.23098755 .006515503 .1619873 .022521973 .14099121 .12760926 .12998963 .18466187 .12998963 .2787323 .12998963 .33078004 .12998963 .3998413 .12998963 .4698944 .14099121 .5249481 .1619873 .6270294 .23999024 .6370239 .2649994 .6370239 .29899598 .6370239 .36799623 .62002566 .3880005 .5289459 .3999939 .4738922 .3999939 .39883424 .3999939 .33078004 .3999939 .27172853 .3999939 .18165589 .3880005 .12561035 .36698915 .020523072 .2979889 .006515503 .2649994 .006515503Z"/>
<path id="font_4_1" d="M.5309906 .30613709C.5309906 .40118409 .48999024 .4501953 .37998963 .4501953 .30799867 .4501953 .24598694 .41519166 .21199036 .34014894H.21099854V.4501953L.041992189 .44218446V.39918519C.10398865 .39918519 .11099243 .39918519 .11099243 .3601532V.042999269H.041992189V0C.06498718 .0019989014 .13699341 .0019989014 .16499329 .0019989014 .19299317 .0019989014 .2659912 .0019989014 .2889862 0V.042999269H.21998596V.25610353C.21998596 .36416627 .2999878 .41719056 .3639984 .41719056 .40098573 .41719056 .42199708 .39317323 .42199708 .31713868V.042999269H.35299684V0C.37599183 .0019989014 .44799806 .0019989014 .47599793 .0019989014 .5039978 .0019989014 .57699587 .0019989014 .59999087 0V.042999269H.5309906V.30613709Z"/>
<path id="font_5_2" d="M.31399537 .63708499C.31399537 .664032 .31199647 .66503909 .2849884 .66503909 .24398804 .6251831 .19099427 .6013489 .09599304 .6013489V.5683594C.12298584 .5683594 .1769867 .5683594 .23498535 .5953522V.08203125C.23498535 .04499817 .23199463 .032989503 .13699341 .032989503H.101989749V0C.14299011 .0029907227 .22898865 .0029907227 .27398683 .0029907227 .31900025 .0029907227 .4059906 .0029907227 .44699098 0V.032989503H.4119873C.31698609 .032989503 .31399537 .04499817 .31399537 .08203125V.63708499Z"/>
<path id="font_5_3" d="M.28199769 .20405579C.2979889 .21907044 .33999635 .2520752 .35598756 .26608277 .41799928 .32312013 .47698976 .3781433 .47698976 .46917726 .47698976 .588089 .3769989 .66503909 .2519989 .66503909 .13198853 .66503909 .052993776 .57411196 .052993776 .48516847 .052993776 .4361725 .09199524 .4291687 .10598755 .4291687 .1269989 .4291687 .1579895 .4441681 .1579895 .48217774 .1579895 .5341797 .10798645 .5341797 .09599304 .5341797 .125 .6070709 .19198609 .6320343 .24099732 .6320343 .33399964 .6320343 .38198854 .55314639 .38198854 .46917726 .38198854 .36514283 .30899049 .28910829 .19099427 .16804505L.06498718 .037994386C.052993776 .026992798 .052993776 .024993897 .052993776 0H.44799806L.47698976 .17904663H.44599916C.44299317 .1590271 .43499757 .10900879 .4229889 .08999634 .4169922 .08198547 .34098817 .08198547 .32499696 .08198547H.14698792L.28199769 .20405579Z"/>
</defs>
<g clip-path="url(#clip_1)">
<path transform="matrix(1,0,0,-1.00002,59.977998,51.309526)" d="M-29.76422 7.08669 58.11102 49.6069 29.76422-7.08669-58.11102-49.6069Z" fill="#ffd9d9"/>
<path transform="matrix(1,0,0,-1.00002,59.977998,51.309526)" stroke-width=".79701" stroke-linecap="round" stroke-linejoin="round" fill="none" stroke="#a60000" d="M-29.76422 7.08669 58.11102 49.6069 29.76422-7.08669-58.11102-49.6069Z"/>
<path transform="matrix(1,0,0,-1.00002,59.977998,51.309526)" d="M-55.27618-1.4174 32.59865 41.10277 55.27618 1.4174-32.59865-41.10277Z" fill="#d1d1ff"/>
<path transform="matrix(1,0,0,-1.00002,59.977998,51.309526)" stroke-width=".79701" stroke-linecap="round" stroke-linejoin="round" fill="none" stroke="#0000a6" d="M-55.27618-1.4174 32.59865 41.10277 55.27618 1.4174-32.59865-41.10277Z"/>
</g>
<g clip-path="url(#clip_2)">
<path transform="matrix(1,0,0,-1.00002,59.977998,51.309526)" d="M-55.27618-1.4174 32.59865 41.10277 55.27618 1.4174-32.59865-41.10277Z" fill="#d1d1ff"/>
<path transform="matrix(1,0,0,-1.00002,59.977998,51.309526)" stroke-width=".79701" stroke-linecap="round" stroke-linejoin="round" fill="none" stroke="#0000a6" d="M-55.27618-1.4174 32.59865 41.10277 55.27618 1.4174-32.59865-41.10277Z"/>
<path transform="matrix(1,0,0,-1.00002,59.977998,51.309526)" d="M-29.76422 7.08669 58.11102 49.6069 29.76422-7.08669-58.11102-49.6069Z" fill="#ffd9d9"/>
<path transform="matrix(1,0,0,-1.00002,59.977998,51.309526)" stroke-width=".79701" stroke-linecap="round" stroke-linejoin="round" fill="none" stroke="#a60000" d="M-29.76422 7.08669 58.11102 49.6069 29.76422-7.08669-58.11102-49.6069Z"/>
</g>
<path transform="matrix(1,0,0,-1.00002,59.977998,51.309526)" stroke-width="1.19553" stroke-linecap="round" stroke-linejoin="round" fill="none" stroke="#000000" d="M-43.93764-21.2601 43.93764 21.2601"/>
<use data-text="&#x2113;" xlink:href="#font_3_1" transform="matrix(11.9552,0,0,-11.95544,108.498,25.466008)"/>
<path transform="matrix(1,0,0,-1.00002,59.977998,51.309526)" d="M2.39534 0C2.39534 1.32292 1.32292 2.39534 0 2.39534-1.32292 2.39534-2.39534 1.32292-2.39534 0-2.39534-1.32292-1.32292-2.39534 0-2.39534 1.32292-2.39534 2.39534-1.32292 2.39534 0ZM0 0" fill="#ff0000"/>
<use data-text="x" xlink:href="#font_4_2" transform="matrix(11.9552,0,0,-11.95544,42.128999,43.497369)"/>
<use data-text="0" xlink:href="#font_5_1" transform="matrix(7.9701,0,0,-7.9702599,49.227006,45.291406)"/>
<path transform="matrix(1,0,0,-1.00002,59.977998,51.309526)" stroke-width="1.19553" stroke-linecap="round" stroke-linejoin="round" fill="none" stroke="#000000" d="M0 0-21.02997 28.45189"/>
<path transform="matrix(-.59436,-.80415609,-.80414,.5943719,40.857057,25.439946)" d="M6.66628 0 1.93044 1.79556 3.5108 0 1.93044-1.79556Z"/>
<path transform="matrix(-.59436,-.80415609,-.80414,.5943719,40.857057,25.439946)" stroke-width="1.19553" stroke-linecap="round" stroke-miterlimit="10" stroke-linejoin="miter" fill="none" stroke="#000000" d="M6.66628 0 1.93044 1.79556 3.5108 0 1.93044-1.79556Z"/>
<use data-text="n" xlink:href="#font_4_1" transform="matrix(11.9552,0,0,-11.95544,29.78099,12.3347439)"/>
<use data-text="1" xlink:href="#font_5_2" transform="matrix(7.9701,0,0,-7.9702599,37.25299,14.12878)"/>
<path transform="matrix(1,0,0,-1.00002,59.977998,51.309526)" stroke-width="1.19553" stroke-linecap="round" stroke-linejoin="round" fill="none" stroke="#000000" d="M0 0 28.53781-22.3339"/>
<path transform="matrix(.78748,.6163023,.61629,-.7874958,85.986499,71.66435)" d="M6.66628 0 1.93044 1.79556 3.5108 0 1.93044-1.79556Z"/>
<path transform="matrix(.78748,.6163023,.61629,-.7874958,85.986499,71.66435)" stroke-width="1.19553" stroke-linecap="round" stroke-miterlimit="10" stroke-linejoin="miter" fill="none" stroke="#000000" d="M6.66628 0 1.93044 1.79556 3.5108 0 1.93044-1.79556Z"/>
<use data-text="n" xlink:href="#font_4_1" transform="matrix(11.9552,0,0,-11.95544,97.159,86.71823)"/>
<use data-text="2" xlink:href="#font_5_3" transform="matrix(7.9701,0,0,-7.9702599,104.631,88.51227)"/>
</svg>
