<svg xmlns="http://www.w3.org/2000/svg" xmlns:xlink="http://www.w3.org/1999/xlink" xmlns:inkscape="http://www.inkscape.org/namespaces/inkscape" version="1.1" width="134" height="70" viewBox="0 0 134 70">
<defs>
<path id="font_1_1" d="M.32598878-1.7597656H.394989V-.029937745H.6589966V.0390625H.32598878V-1.7597656Z"/>
<path id="font_1_5" d="M.32598878-.60058596H.394989V.0014343262H.32598878V-.60058596Z"/>
<path id="font_1_3" d="M.32598878-1.7587891H.6589966V-1.6898041H.394989V.040039064H.32598878V-1.7587891Z"/>
<path id="font_1_2" d="M.2709961-1.7597656H.33999635V.0390625H.0069885256V-.029937745H.2709961V-1.7597656Z"/>
<path id="font_1_6" d="M.2709961-.60058596H.33999635V.0014343262H.2709961V-.60058596Z"/>
<path id="font_1_4" d="M.2709961-1.6898041H.0069885256V-1.7587891H.33999635V.040039064H.2709961V-1.6898041Z"/>
<path id="font_2_96" d="M.43399049 .37539674C.43399049 .41540528 .3959961 .44140626 .35198976 .44140626 .2919922 .44140626 .24099732 .4053955 .20999146 .33839417H.20899964V.44140626L.057998659 .43058778V.39160157C.12799073 .39160157 .13699341 .38458253 .13699341 .335495V.08206177C.13699341 .038986207 .1269989 .038986207 .057998659 .038986207V0C.08299255 .0019989014 .15699768 .0039978029 .1789856 .0039978029 .23098755 .0039978029 .2999878 .0009918213 .31399537 0V.038986207H.2919922C.21699524 .039398195 .21598816 .0493927 .21598816 .08340454V.22439575C.21598816 .31739808 .2639923 .4073944 .35299684 .4093933 .34399415 .40040589 .33999635 .38839723 .33999635 .37539674 .33999635 .34840394 .3600006 .32839967 .3869934 .32839967 .4139862 .32839967 .43399049 .34840394 .43399049 .37539674Z"/>
<path id="font_2_81" d="M.56199648 .21325684C.56199648 .3382721 .44999696 .44628907 .30499269 .44628907 .15899658 .44628907 .04798889 .3382721 .04798889 .21325684 .04798889 .0912323 .16099549-.009765625 .30499269-.009765625 .44898988-.009765625 .56199648 .0912323 .56199648 .21325684M.46699525 .22225952C.46699525 .17424011 .46699525 .025222779 .30499269 .025222779 .14299011 .025222779 .14299011 .17424011 .14299011 .22225952 .14299011 .25326539 .14299011 .32226563 .17999268 .363266 .21398926 .39927674 .25698854 .41427613 .30499269 .41427613 .35299684 .41427613 .397995 .39927674 .43099977 .36227418 .46699525 .3212738 .46699525 .2542572 .46699525 .22225952Z"/>
<path id="font_2_114" d="M.83099368 .3916626V.43066407C.83099368 .43066407 .7879944 .426651 .7529907 .426651 .7259979 .426651 .6649933 .42965699 .6519928 .43066407V.3916626C.69299319 .39067079 .70599368 .36709596 .70599368 .34909059 .70599368 .34109498 .7049866 .33909608 .69999697 .32710267L.59799197 .079193118 .48399354 .35409547C.48298646 .35710145 .48098756 .36408998 .48098756 .36808778 .48098756 .3916626 .5179901 .3916626 .5359955 .3916626V.43066407C.5139923 .4286499 .44299317 .426651 .4249878 .426651 .3909912 .426651 .34799195 .42965699 .33099366 .43066407V.3916626C.3849945 .3916626 .397995 .3916626 .4139862 .34509278L.31098939 .094192508 .20498657 .34909059C.19999695 .36009217 .19898987 .36408998 .19898987 .36808778 .19898987 .3916626 .23699951 .3916626 .25498963 .3916626V.43066407C.23399353 .4286499 .1639862 .426651 .13798523 .426651 .12998963 .426651 .06498718 .42765809 .037994386 .43066407V.3916626C.09700012 .3916626 .102996829 .38674928 .114990238 .35809327L.2579956 .015213013C.2649994-.00077819827 .2679901-.009765625 .28799439-.009765625 .30099488-.009765625 .30999757-.0057678224 .31799317 .013214111L.43399049 .29611207 .5509949 .013214111C.5589905-.0067749025 .56900027-.009765625 .58099368-.009765625 .6009979-.009765625 .60398867-.00077819827 .61099246 .015213013L.7409973 .32910157C.7669983 .39067079 .81399539 .3916626 .83099368 .3916626Z"/>
<path id="font_3_1" d="M.34799195 .6244507C.34799195 .64852908 .32998658 .66452029 .30699159 .66452029 .27999879 .66452029 .25099183 .638504 .25099183 .60939028 .25099183 .5843353 .2689972 .56933596 .29100038 .56933596 .32299806 .56933596 .34799195 .59936526 .34799195 .6244507M.28799439 .27534486C.2919922 .28533937 .30099488 .3093567 .30499269 .31835938 .30799867 .32736207 .31199647 .33737184 .31199647 .35437013 .31199647 .4104004 .2619934 .44140626 .21199036 .44140626 .10998535 .44140626 .06098938 .3093567 .06098938 .28733827 .06098938 .28234864 .06498718 .27334596 .07899475 .27334596 .09298706 .27334596 .09599304 .27934266 .09899902 .28834535 .1269989 .38539125 .17999268 .4084015 .20799256 .4084015 .22799683 .4084015 .23498535 .395401 .23498535 .37239076 .23498535 .35237123 .22898865 .33737184 .22698975 .33036805L.1749878 .20230103C.16299439 .17329407 .16299439 .17129517 .1499939 .13728333 .13699341 .10726929 .13198853 .09425354 .13198853 .07725525 .13198853 .026229859 .17799378-.009765625 .23298645-.009765625 .33399964-.009765625 .38398744 .12226868 .38398744 .14428711 .38398744 .14628601 .3829956 .15829468 .36499024 .15829468 .35099793 .15829468 .34999085 .1532898 .34399415 .13427735 .32798768 .08325195 .2869873 .023223877 .23599243 .023223877 .21798706 .023223877 .20899964 .035232545 .20899964 .059249879 .20899964 .07925415 .21499634 .09425354 .22799683 .12527466L.28799439 .27534486Z"/>
<path id="font_4_1" d="M.6749878 .32421876C.68899539 .32421876 .70700076 .32421876 .70700076 .34220887 .70700076 .36120606 .6899872 .36120606 .6749878 .36120606H.085998538C.07199097 .36120606 .053985597 .36120606 .053985597 .34321595 .053985597 .32421876 .070999149 .32421876 .085998538 .32421876H.6749878M.6749878 .13780213C.68899539 .13780213 .70700076 .13780213 .70700076 .15579224 .70700076 .17480469 .6899872 .17480469 .6749878 .17480469H.085998538C.07199097 .17480469 .053985597 .17480469 .053985597 .15679932 .053985597 .13780213 .070999149 .13780213 .085998538 .13780213H.6749878Z"/>
<path id="font_5_1" d="M.16999817 .1111145C.1349945 .05203247 .100997928 .03199768 .052993776 .0289917 .041992189 .027999878 .033996583 .027999878 .033996583 .009994507 .033996583 .0039978029 .038986207 0 .04598999 0 .06399536 0 .10899353 .0019989014 .1269989 .0019989014 .1559906 .0019989014 .18798828 0 .21598816 0 .22200012 0 .23399353 0 .23399353 .018997193 .23399353 .027999878 .22599793 .0289917 .21998596 .0289917 .19699097 .0309906 .17799378 .039001466 .17799378 .06304932 .17799378 .07707214 .18399048 .08808899 .19699097 .11012268L.272995 .23632813H.5279999C.5289917 .22731018 .5289917 .21929932 .5299988 .21028137 .5329895 .18423462 .54499819 .080078128 .54499819 .061050416 .54499819 .0309906 .49398805 .0289917 .47799684 .0289917 .46699525 .0289917 .45599366 .0289917 .45599366 .010986328 .45599366 0 .46499635 0 .47099305 0 .48799134 0 .5079956 .0019989014 .5249939 .0019989014H.58200076C.6429901 .0019989014 .68699648 0 .6879883 0 .69499209 0 .70599368 0 .70599368 .018997193 .70599368 .0289917 .69699099 .0289917 .6819916 .0289917 .6269989 .0289917 .6259918 .038009645 .6230011 .0680542L.56199648 .691864C.55999758 .711853 .55599978 .7138672 .54499819 .7138672 .5349884 .7138672 .5289917 .711853 .519989 .69685366L.16999817 .1111145M.2899933 .26531983 .4909973 .6009674 .5249939 .26531983H.2899933Z"/>
<path id="font_6_1" d="M.33699037 .24717713 .45298768 .38031007C.46398927 .3933258 .47299195 .4013214 .55599978 .4013214V.44433595C.5 .44232179 .49798585 .44232179 .46398927 .44232179 .43499757 .44232179 .3919983 .44232179 .3639984 .44433595V.4013214C.3829956 .4013214 .4039917 .3963318 .4039917 .38931275 .4039917 .38731385 .39898683 .38031007 .39698792 .37831117L.30999757 .2802124 .21099854 .4013214H.25299073V.44433595C.22999573 .44232179 .1619873 .44232179 .1349945 .44232179 .10499573 .44232179 .050994874 .44232179 .022994996 .44433595V.4013214H.09399414L.25 .21115113 .11999512 .06401062C.10798645 .05000305 .100997928 .042999269 .017990113 .042999269V0C.07798767 .0019989014 .07998657 .0019989014 .11099243 .0019989014 .13999939 .0019989014 .18199158 .0019989014 .20999146 0V.042999269C.19099427 .042999269 .16999817 .04800415 .16999817 .055007936 .16999817 .055999757 .16999817 .057006837 .1769867 .0650177L.2769928 .17811585 .3880005 .042999269H.34599305V0C.36999513 .0019989014 .43699647 .0019989014 .46499635 .0019989014 .49499513 .0019989014 .5479889 .0019989014 .57598879 0V.042999269H.5059967L.33699037 .24717713Z"/>
<path id="font_2_50" d="M.49899293 .120162967C.49899293 .1251831 .49699403 .13621521 .47999574 .13621521 .46699525 .13621521 .46499635 .13020325 .46099855 .11816406 .43099977 .044204713 .35598756 .025222779 .30999757 .025222779 .25498963 .025222779 .20799256 .050201417 .17999268 .08615112 .14299011 .13320923 .14299011 .19944763 .14299011 .2265625H.46899415C.4909973 .2265625 .49899293 .2265625 .49899293 .25054933 .49899293 .32743836 .45599366 .44628907 .2899933 .44628907 .1499939 .44628907 .04798889 .3394165 .04798889 .2195282 .04798889 .09315491 .16299439-.009765625 .3039856-.009765625 .44799806-.009765625 .49899293 .09815979 .49899293 .120162967M.42599488 .25656129H.14498902C.1559906 .39031983 .24798584 .41427613 .2889862 .41427613 .41799928 .41427613 .4249878 .2855072 .42599488 .25656129Z"/>
<path id="font_2_77" d="M.6259918 0V.038986207C.5569916 .038986207 .5469971 .038986207 .5469971 .08204651V.3022766C.5469971 .40039063 .4909973 .44140626 .3899994 .44140626 .3019867 .44140626 .24699402 .39538575 .21798706 .34733583V.44140626L.06298828 .43058778V.39160157C.1329956 .39160157 .14199829 .38458253 .14199829 .335495V.08206177C.14199829 .038986207 .13198853 .038986207 .06298828 .038986207V0C.069992069 .0009918213 .13798523 .0039978029 .18299866 .0039978029 .22799683 .0039978029 .2939911 .0009918213 .3039856 0V.038986207C.23498535 .038986207 .22499085 .038986207 .22499085 .08206177V.25836183C.22499085 .36836244 .31900025 .4093933 .3809967 .4093933 .44799806 .4093933 .46398927 .36735536 .46398927 .3052826V.08204651C.46398927 .038986207 .45399476 .038986207 .3849945 .038986207V0C.3919983 .0009918213 .45999146 .0039978029 .5049896 .0039978029 .5499878 .0039978029 .6159973 .0009918213 .6259918 0Z"/>
<path id="font_2_105" d="M.40098573 .12599182V.18110657H.3639984V.12799073C.3639984 .057159425 .32699586 .025222779 .2899933 .025222779 .21798706 .025222779 .21798706 .106033328 .21798706 .125V.39257813H.38198854V.43156434H.21798706V.6152344H.18099976C.17999268 .52638247 .13699341 .42855836 .035995485 .4245758V.39257813H.1349945V.125C.1349945 .020233155 .21398926-.009765625 .28199769-.009765625 .35099793-.009765625 .40098573 .045181276 .40098573 .12599182Z"/>
<path id="font_2_118" d="M.6029968 .3916626V.43066407C.59599307 .42965699 .55400088 .426651 .522995 .426651 .49699403 .426651 .43998719 .42965699 .42799378 .43066407V.3916626C.46398927 .3896637 .46998597 .36766053 .46998597 .3546753 .46998597 .34268189 .46598817 .33468629 .46199037 .32669068L.34498597 .089782718 .21598816 .3516693C.21299744 .3566742 .20999146 .3626709 .20999146 .36965943 .20999146 .3916626 .24499512 .3916626 .2619934 .3916626V.43066407C.23999024 .4286499 .16899109 .426651 .14399719 .426651 .12799073 .426651 .06498718 .4286499 .039993287 .43066407V.3916626C.100997928 .3916626 .10998535 .3876648 .12599182 .3556671L.30099488-.00018310547 .2749939-.05215454C.24899292-.104141239 .21499634-.17210388 .14399719-.17210388 .13999939-.17210388 .11898804-.17210388 .100997928-.16111756 .11199951-.15611267 .1269989-.144104 .1269989-.12010193 .1269989-.09309387 .10798645-.07510376 .08198547-.07510376 .057998659-.07510376 .036987306-.09109497 .036987306-.12109375 .036987306-.16911316 .085998538-.20410156 .14299011-.20410156 .23199463-.20410156 .2829895-.11909485 .2979889-.08909607L.5039978 .3296814C.5329895 .3896637 .58200076 .39065553 .6029968 .3916626Z"/>
</defs>
<use data-text="&#xf8ee;" xlink:href="#font_1_1" transform="matrix(11.956276,0,0,-11.95556,-2.4072648,11.470985)"/>
<use data-text="&#xf8ef;" xlink:href="#font_1_5" transform="matrix(11.956276,0,0,-11.95556,-2.4072648,32.51262)"/>
<use data-text="&#xf8ef;" xlink:href="#font_1_5" transform="matrix(11.956276,0,0,-11.95556,-2.4072648,39.685834)"/>
<use data-text="&#xf8f0;" xlink:href="#font_1_3" transform="matrix(11.956276,0,0,-11.95556,-2.4072648,47.338064)"/>
<use data-text="&#xf8f9;" xlink:href="#font_1_2" transform="matrix(11.956276,0,0,-11.95556,46.611146,11.470985)"/>
<use data-text="&#xf8fa;" xlink:href="#font_1_6" transform="matrix(11.956276,0,0,-11.95556,46.611146,32.51262)"/>
<use data-text="&#xf8fa;" xlink:href="#font_1_6" transform="matrix(11.956276,0,0,-11.95556,46.611146,39.685834)"/>
<use data-text="&#xf8fb;" xlink:href="#font_1_4" transform="matrix(11.956276,0,0,-11.95556,46.611146,47.338064)"/>
<path transform="matrix(1.00009,0,0,-1.00003,26.0873,39.685834)" stroke-width=".79701" stroke-linecap="butt" stroke-miterlimit="10" stroke-linejoin="miter" fill="none" stroke="#ff0000" d="M-15.34178-6.97351H14.54477"/>
<path transform="matrix(1.00009,0,0,-1.00003,41.031927,46.659555)" stroke-width=".79701" stroke-linecap="round" stroke-linejoin="round" fill="none" stroke="#ff0000" d="M-2.55046 3.11095C-2.0845 1.24435-1.04614 .36295 0 0-1.04614-.36295-2.0845-1.24435-2.55046-3.11095"/>
<use data-text="r" xlink:href="#font_2_96" transform="matrix(5.978138,0,0,-5.97778,17.739548,55.003293)" fill="#ff0000"/>
<use data-text="o" xlink:href="#font_2_81" transform="matrix(5.978138,0,0,-5.97778,20.615029,55.003293)" fill="#ff0000"/>
<use data-text="w" xlink:href="#font_2_114" transform="matrix(5.978138,0,0,-5.97778,24.082352,55.003293)" fill="#ff0000"/>
<use data-text="i" xlink:href="#font_3_1" transform="matrix(5.978138,0,0,-5.97778,31.770806,55.003293)" fill="#ff0000"/>
<use data-text="&#xf8ee;" xlink:href="#font_1_1" transform="matrix(11.956276,0,0,-11.95556,48.44031,18.644202)"/>
<use data-text="&#xf8f0;" xlink:href="#font_1_3" transform="matrix(11.956276,0,0,-11.95556,48.44031,40.16385)"/>
<use data-text="&#xf8f9;" xlink:href="#font_1_2" transform="matrix(11.956276,0,0,-11.95556,75.14171,18.644202)"/>
<use data-text="&#xf8fb;" xlink:href="#font_1_4" transform="matrix(11.956276,0,0,-11.95556,75.14171,40.16385)"/>
<path transform="matrix(1.00009,0,0,-1.00003,26.0873,39.685834)" stroke-width=".79701" stroke-linecap="butt" stroke-miterlimit="10" stroke-linejoin="miter" fill="none" stroke="#ff0000" d="M39.68535 18.13095V-17.33394"/>
<path transform="matrix(0,1.00003,1.00009,0,65.776218,57.418817)" stroke-width=".79701" stroke-linecap="round" stroke-linejoin="round" fill="none" stroke="#ff0000" d="M-2.55046 3.11095C-2.0845 1.24435-1.04614 .36295 0 0-1.04614-.36295-2.0845-1.24435-2.55046-3.11095"/>
<use data-text="=" xlink:href="#font_4_1" transform="matrix(11.956276,0,0,-11.95556,86.73776,41.842897)"/>
<use data-text="&#xf8ee;" xlink:href="#font_1_1" transform="matrix(11.956276,0,0,-11.95556,97.52074,11.470985)"/>
<use data-text="&#xf8ef;" xlink:href="#font_1_5" transform="matrix(11.956276,0,0,-11.95556,97.52074,32.51262)"/>
<use data-text="&#xf8ef;" xlink:href="#font_1_5" transform="matrix(11.956276,0,0,-11.95556,97.52074,39.685834)"/>
<use data-text="&#xf8f0;" xlink:href="#font_1_3" transform="matrix(11.956276,0,0,-11.95556,97.52074,47.338064)"/>
<use data-text="&#xf8f9;" xlink:href="#font_1_2" transform="matrix(11.956276,0,0,-11.95556,128.11948,11.470985)"/>
<use data-text="&#xf8fa;" xlink:href="#font_1_6" transform="matrix(11.956276,0,0,-11.95556,128.11948,32.51262)"/>
<use data-text="&#xf8fa;" xlink:href="#font_1_6" transform="matrix(11.956276,0,0,-11.95556,128.11948,39.685834)"/>
<use data-text="&#xf8fb;" xlink:href="#font_1_4" transform="matrix(11.956276,0,0,-11.95556,128.11948,47.338064)"/>
<use data-text="A" xlink:href="#font_5_1" transform="matrix(11.956276,0,0,-11.95556,21.698906,9.753935)"/>
<use data-text="x" xlink:href="#font_6_1" transform="matrix(11.956276,0,0,-11.95556,62.226556,8.3258919)"/>
<use data-text="A" xlink:href="#font_5_1" transform="matrix(11.956276,0,0,-11.95556,108.86775,9.753935)"/>
<use data-text="x" xlink:href="#font_6_1" transform="matrix(11.956276,0,0,-11.95556,117.64453,9.753935)"/>
<path transform="matrix(1.00009,0,0,-1.00003,26.0873,39.685834)" stroke-width=".79701" stroke-linecap="butt" stroke-miterlimit="10" stroke-linejoin="miter" fill="none" stroke="#ff0000" d="M94.69481-6.97351C94.69481-4.77257 92.91064-2.9884 90.7097-2.9884 88.50876-2.9884 86.7246-4.77257 86.7246-6.97351 86.7246-9.17445 88.50876-10.95862 90.7097-10.95862 92.91064-10.95862 94.69481-9.17445 94.69481-6.97351ZM90.7097-6.97351"/>
<use data-text="e" xlink:href="#font_2_50" transform="matrix(5.978138,0,0,-5.97778,105.86948,57.88338)" fill="#ff0000"/>
<use data-text="n" xlink:href="#font_2_77" transform="matrix(5.978138,0,0,-5.97778,109.133548,57.88338)" fill="#ff0000"/>
<use data-text="t" xlink:href="#font_2_105" transform="matrix(5.978138,0,0,-5.97778,112.98944,57.88338)" fill="#ff0000"/>
<use data-text="r" xlink:href="#font_2_96" transform="matrix(5.978138,0,0,-5.97778,115.86493,57.88338)" fill="#ff0000"/>
<use data-text="y" xlink:href="#font_2_118" transform="matrix(5.978138,0,0,-5.97778,118.74042,57.88338)" fill="#ff0000"/>
<use data-text="i" xlink:href="#font_3_1" transform="matrix(5.978138,0,0,-5.97778,125.07721,57.88338)" fill="#ff0000"/>
</svg>
