<svg xmlns="http://www.w3.org/2000/svg" xmlns:xlink="http://www.w3.org/1999/xlink" xmlns:inkscape="http://www.inkscape.org/namespaces/inkscape" version="1.1" width="118" height="111" viewBox="0 0 118 111">
<defs>
<path id="font_1_3" d="M.47399903 .40820313C.44198609 .40219117 .42999269 .3781891 .42999269 .3591919 .42999269 .33518983 .44898988 .3271942 .46299745 .3271942 .49299623 .3271942 .5139923 .3531952 .5139923 .380188 .5139923 .4223938 .46598817 .44140626 .42399598 .44140626 .36299134 .44140626 .32899476 .38119508 .31999208 .36219789 .29699708 .4373932 .23498535 .44140626 .21699524 .44140626 .114990238 .44140626 .06098938 .31021119 .06098938 .28822328 .06098938 .28422547 .06498718 .27923585 .07199097 .27923585 .07998657 .27923585 .08198547 .28523255 .083999637 .2892151 .117996219 .40019227 .18499756 .42140199 .21398926 .42140199 .25898744 .42140199 .2679901 .37919618 .2679901 .3551941 .2679901 .33319093 .2619934 .31021119 .25 .26223756L.21598816 .12535095C.20098877 .06535339 .17199707 .010223389 .11898804 .010223389 .11399841 .010223389 .08898926 .010223389 .067993167 .023330689 .10398865 .03036499 .11199951 .06036377 .11199951 .07235718 .11199951 .09236145 .09700012 .10435486 .07798767 .10435486 .053985597 .10435486 .027999878 .083358768 .027999878 .051361085 .027999878 .009231567 .07499695-.009765625 .117996219-.009765625 .1659851-.009765625 .19999695 .028366089 .22099304 .069366458 .23699951 .010223389 .2869873-.009765625 .32398988-.009765625 .42599488-.009765625 .47999574 .12135315 .47999574 .1433258 .47999574 .14833069 .47599793 .15232849 .46998597 .15232849 .46099855 .15232849 .45999146 .14732361 .45700074 .139328 .42999269 .051361085 .37199403 .010223389 .32699586 .010223389 .2919922 .010223389 .272995 .036361696 .272995 .07736206 .272995 .099365238 .2769928 .115356449 .29299928 .18130493L.32798768 .3171997C.34298707 .37719728 .3769989 .42140199 .4229889 .42140199 .4249878 .42140199 .45298768 .42140199 .47399903 .40820313Z"/>
<path id="font_1_4" d="M.2630005-.11172485C.23599243-.14982605 .19699097-.18411255 .147995-.18411255 .13598633-.18411255 .08799744-.18209839 .07299805-.13572693 .07598877-.13671875 .08099365-.13671875 .08299255-.13671875 .11299133-.13671875 .1329956-.11073303 .1329956-.08772278 .1329956-.06472778 .11399841-.056732179 .09899902-.056732179 .08299255-.056732179 .04798889-.068725589 .04798889-.11772156 .04798889-.16899109 .09098816-.20410156 .147995-.20410156 .24798584-.20410156 .34899903-.11172485 .3769989-.00077819827L.47499085 .38868714C.47599793 .39367677 .47799684 .39967347 .47799684 .4056549 .47799684 .4206543 .46598817 .43066407 .45098878 .43066407 .44198609 .43066407 .42099 .426651 .41299439 .39666749L.33898927 .10308838C.33399964 .085113529 .33399964 .08312988 .32598878 .072143558 .30599977 .04423523 .272995 .010223389 .22499085 .010223389 .16899109 .010223389 .1639862 .06524658 .1639862 .09225464 .1639862 .14929199 .19099427 .22631836 .21798706 .2983551 .22898865 .32736207 .23498535 .34136964 .23498535 .3613739 .23498535 .4033966 .20498657 .44140626 .1559906 .44140626 .06399536 .44140626 .026992798 .29634095 .026992798 .28834535 .026992798 .28434754 .0309906 .27934266 .037994386 .27934266 .04699707 .27934266 .04798889 .28334046 .051986696 .29734803 .07598877 .38137818 .11399841 .42140199 .15299988 .42140199 .1619873 .42140199 .1789856 .42140199 .1789856 .38838197 .1789856 .36238099 .16799927 .33335877 .15299988 .29534913 .10398865 .16429138 .10398865 .13127136 .10398865 .10726929 .10398865 .01222229 .17199707-.009765625 .22200012-.009765625 .25099183-.009765625 .2869873-.00077819827 .32199098 .036239625L.32299806 .035232545C.30799867-.023757935 .2979889-.06272888 .2630005-.11172485Z"/>
<path id="font_1_5" d="M.1269989 .0814209C.16999817 .13038635 .20498657 .1613617 .25498963 .20631409 .31498719 .25828553 .34098817 .28326417 .35499574 .2982483 .4249878 .36721803 .45999146 .42539979 .45999146 .4333954 .45999146 .44140626 .45199586 .44140626 .44999696 .44140626 .44299317 .44140626 .44099427 .4373932 .43598939 .43040467 .41099549 .3874054 .3869934 .36621095 .36099244 .36621095 .33999635 .36621095 .32899476 .3753357 .30999757 .3993988 .2889862 .4243927 .27198792 .44140626 .24299622 .44140626 .16999817 .44140626 .12599182 .35020448 .12599182 .32922364 .12599182 .32621766 .1269989 .32022096 .13598633 .32022096 .14399719 .32022096 .14498902 .32421876 .147995 .33122254 .16499329 .37127687 .21299744 .37838746 .23199463 .37838746 .25299073 .37838746 .272995 .37127687 .2939911 .36219789 .33198548 .34620667 .34799195 .34620667 .35798646 .34620667 .36499024 .34620667 .36898805 .34620667 .37399293 .3471985 .34098817 .3082428 .2869873 .26026917 .24198914 .21931458L.14099121 .12638855C.07998657 .06440735 .042999269 .0052337648 .042999269-.0017700195 .042999269-.0077667238 .04798889-.009765625 .053985597-.009765625 .05999756-.009765625 .06098938-.008773804 .067993167 .0032196046 .083999637 .02822876 .115997318 .06542969 .15299988 .06542969 .17399597 .06542969 .18399048 .05831909 .20399475 .033233644 .22299195 .011230469 .23999024-.009765625 .27198792-.009765625 .36999513-.009765625 .42599488 .11740112 .42599488 .14038086 .42599488 .14437866 .4249878 .15037537 .4149933 .15037537 .40699769 .15037537 .4059906 .14637757 .40299989 .13638306 .3809967 .077423099 .32199098 .053237916 .2829895 .053237916 .2619934 .053237916 .24198914 .06034851 .22099304 .06942749 .18099976 .0854187 .16999817 .0854187 .15699768 .0854187 .14698792 .0854187 .13598633 .0854187 .1269989 .0814209Z"/>
<path id="font_1_1" d="M.29599 .3177948H.46398927C.60198977 .3177948 .73999026 .41973878 .73999026 .53367617 .73999026 .6116333 .673996 .6826172 .5479889 .6826172H.23899842C.21998596 .6826172 .21099854 .6826172 .21099854 .66360476 .21099854 .6536102 .21998596 .6536102 .23498535 .6536102 .29599 .6536102 .29599 .6456146 .29599 .63461306 .29599 .63261416 .29599 .62661746 .2919922 .6116333L.15699768 .07395935C.147995 .038986207 .1459961 .0289917 .07598877 .0289917 .056991579 .0289917 .04699707 .0289917 .04699707 .010986328 .04699707 0 .055999757 0 .06199646 0 .08099365 0 .100997928 .0019989014 .11999512 .0019989014H.23699951C.2559967 .0019989014 .2769928 0 .29599 0 .3039856 0 .31498719 0 .31498719 .018997193 .31498719 .0289917 .30599977 .0289917 .29100038 .0289917 .23098755 .0289917 .22999573 .035980226 .22999573 .04597473 .22999573 .050979616 .23098755 .05796814 .23199463 .06297302L.29599 .3177948M.36799623 .614624C.3769989 .6516113 .3809967 .6536102 .41999818 .6536102H.5189972C.59399417 .6536102 .6559906 .6296234 .6559906 .55467227 .6559906 .5286865 .6429901 .4437256 .5970001 .39775086 .5799866 .37976075 .5319977 .34179688 .44099427 .34179688H.2999878L.36799623 .614624Z"/>
<path id="font_1_2" d="M.42599488 .005508423C.59799197 .07449341 .7259979 .25660707 .7259979 .43780519 .7259979 .6029968 .6179962 .70410159 .47799684 .70410159 .2639923 .70410159 .04798889 .47384645 .04798889 .24258423 .04798889 .085494998 .1519928-.021484375 .29699708-.021484375 .33099366-.021484375 .3639984-.016494751 .3959961-.0064849855 .3899994-.06640625 .3899994-.07141113 .3899994-.09037781 .3899994-.11933899 .3899994-.19433594 .46998597-.19433594 .58898928-.19433594 .6329956-.0074920656 .6329956-.0014953613 .6329956 .004501343 .6289978 .008514404 .6239929 .008514404 .6179962 .008514404 .6159973 .0035095216 .61299136-.0074920656 .59098818-.07040405 .5389862-.1063385 .49499513-.1063385 .44400025-.1063385 .43099977-.07141113 .42599488 .005508423M.24598694 .010513306C.16699219 .037506105 .1289978 .1204834 .1289978 .21255493 .1289978 .28263856 .15499878 .41578675 .22099304 .51690676 .29499818 .6310272 .3939972 .6820984 .47200013 .6820984 .57598879 .6820984 .6459961 .59799197 .6459961 .46784974 .6459961 .39375306 .61099246 .1454773 .4229889 .035507204 .41799928 .08648682 .4039917 .14648438 .33799745 .14648438 .28399659 .14648438 .23799134 .09248352 .23799134 .043502809 .23799134 .03250122 .24198914 .017501831 .24598694 .010513306M.397995 .022506714C.3619995 .006500244 .33099366 .00050354006 .30299378 .00050354006 .29299928 .00050354006 .2579956 .00050354006 .2579956 .04449463 .2579956 .08049011 .29299928 .1264801 .33799745 .1264801 .3880005 .1264801 .39898683 .09248352 .39898683 .042495729 .39898683 .036499025 .39898683 .028503418 .397995 .022506714Z"/>
<path id="font_2_1" d="M.49499513 .37831117C.5019989 .3933258 .5059967 .4013214 .56900027 .4013214V.44433595C.5329895 .44232179 .5309906 .44232179 .48999024 .44232179 .46299745 .44232179 .46099855 .44232179 .4039917 .44433595V.4013214C.43099977 .4013214 .45298768 .3963318 .45298768 .389328 .45298768 .38832093 .45298768 .38731385 .44799806 .37731935L.33099366 .120162967 .20199585 .4013214H.25698854V.44433595C.23399353 .44232179 .1639862 .44232179 .13699341 .44232179 .10798645 .44232179 .049987794 .44232179 .023986817 .44433595V.4013214H.08699036L.2630005 .019104004C.27198792 .00010681152 .27398683-.0048828127 .29699708-.0048828127 .31298829-.0048828127 .32099916-.0028839112 .32998658 .017105103L.49499513 .37831117Z"/>
</defs>
<path transform="matrix(1.00005,0,0,-1,3.5629769,99.808)" stroke-width=".79701" stroke-linecap="round" stroke-linejoin="round" fill="none" stroke="#000000" d="M0 0H89.44609"/>
<path transform="matrix(1.00005,0,0,-1,90.54834,99.808)" d="M5.44046 0 1.28699 1.5706 2.66432 0 1.28699-1.5706Z"/>
<path transform="matrix(1.00005,0,0,-1,90.54834,99.808)" stroke-width=".79701" stroke-linecap="round" stroke-miterlimit="10" stroke-linejoin="miter" fill="none" stroke="#000000" d="M5.44046 0 1.28699 1.5706 2.66432 0 1.28699-1.5706Z"/>
<use data-text="x" xlink:href="#font_1_3" transform="matrix(11.955797,0,0,-11.9552,101.50787,109.339)"/>
<path transform="matrix(1.00005,0,0,-1,3.5629769,99.808)" stroke-width=".79701" stroke-linecap="round" stroke-linejoin="round" fill="none" stroke="#000000" d="M0 0 55.53767 26.30724"/>
<path transform="matrix(.9037451,-.42805,-.42807139,-.9037,56.87561,74.555957)" d="M5.44046 0 1.28699 1.5706 2.66432 0 1.28699-1.5706Z"/>
<path transform="matrix(.9037451,-.42805,-.42807139,-.9037,56.87561,74.555957)" stroke-width=".79701" stroke-linecap="round" stroke-miterlimit="10" stroke-linejoin="miter" fill="none" stroke="#000000" d="M5.44046 0 1.28699 1.5706 2.66432 0 1.28699-1.5706Z"/>
<use data-text="y" xlink:href="#font_1_4" transform="matrix(11.955797,0,0,-11.9552,59.749784,81.272)"/>
<path transform="matrix(1.00005,0,0,-1,3.5629769,99.808)" stroke-width=".79701" stroke-linecap="round" stroke-linejoin="round" fill="none" stroke="#000000" d="M0 0V73.85332"/>
<path transform="matrix(0,-1,-1.00005,-0,3.5629769,28.419762)" d="M5.44046 0 1.28699 1.5706 2.66432 0 1.28699-1.5706Z"/>
<path transform="matrix(0,-1,-1.00005,-0,3.5629769,28.419762)" stroke-width=".79701" stroke-linecap="round" stroke-miterlimit="10" stroke-linejoin="miter" fill="none" stroke="#000000" d="M5.44046 0 1.28699 1.5706 2.66432 0 1.28699-1.5706Z"/>
<use data-text="z" xlink:href="#font_1_5" transform="matrix(11.955797,0,0,-11.9552,.57782748,17.460999)"/>
<path transform="matrix(1.00005,0,0,-1,3.5629769,99.808)" stroke-width="1.19553" stroke-linecap="round" stroke-linejoin="round" fill="none" stroke="#000000" d="M40.54071 28.06668 105.06894 77.9295"/>
<path transform="matrix(.7912795,-.61142,-.6114505,-.79124,106.09561,23.842347)" d="M6.66628 0 1.93044 1.79556 3.5108 0 1.93044-1.79556Z"/>
<path transform="matrix(.7912795,-.61142,-.6114505,-.79124,106.09561,23.842347)" stroke-width="1.19553" stroke-linecap="round" stroke-miterlimit="10" stroke-linejoin="miter" fill="none" stroke="#000000" d="M6.66628 0 1.93044 1.79556 3.5108 0 1.93044-1.79556Z"/>
<path transform="matrix(1.00005,0,0,-1,3.5629769,99.808)" d="M42.79521 28.06668C42.79521 29.31183 41.78586 30.32118 40.54071 30.32118 39.29556 30.32118 38.2862 29.31183 38.2862 28.06668 38.2862 26.82153 39.29556 25.81216 40.54071 25.81216 41.78586 25.81216 42.79521 26.82153 42.79521 28.06668ZM40.54071 28.06668" fill="#ff0000"/>
<use data-text="P" xlink:href="#font_1_1" transform="matrix(11.955797,0,0,-11.9552,39.524774,65.1)"/>
<path transform="matrix(1.00005,0,0,-1,3.5629769,99.808)" d="M111.4037 81.08243C111.4037 82.32758 110.39435 83.33694 109.1492 83.33694 107.90405 83.33694 106.89468 82.32758 106.89468 81.08243 106.89468 79.83728 107.90405 78.82793 109.1492 78.82793 110.39435 78.82793 111.4037 79.83728 111.4037 81.08243ZM109.1492 81.08243" fill="#ff0000"/>
<use data-text="Q" xlink:href="#font_1_2" transform="matrix(11.955797,0,0,-11.9552,108.09619,9.751999)"/>
<use data-text="v" xlink:href="#font_2_1" transform="matrix(14.346916,0,0,-14.3462,68.91524,38.399)"/>
</svg>
