<svg xmlns="http://www.w3.org/2000/svg" xmlns:xlink="http://www.w3.org/1999/xlink" xmlns:inkscape="http://www.inkscape.org/namespaces/inkscape" version="1.1" width="366" height="140" viewBox="0 0 366 140">
<defs>
<path id="font_1_1" d="M.32499696-.24298096C.32499696-.23999024 .32499696-.23799134 .30799867-.22097779 .20799256-.11997986 .1519928 .045013429 .1519928 .24900818 .1519928 .44299317 .19898987 .60998538 .31498719 .7279968 .32499696 .7369995 .32499696 .7389984 .32499696 .74198916 .32499696 .74798586 .31999208 .75 .31599427 .75 .30299378 .75 .22099304 .6779938 .17199707 .5799866 .12098694 .47898866 .09799194 .37199403 .09799194 .24900818 .09799194 .16000366 .11199951 .041015626 .1639862-.06599426 .22299195-.18598938 .30499269-.25097657 .31599427-.25097657 .31999208-.25097657 .32499696-.24897766 .32499696-.24298096Z"/>
<path id="font_1_3" d="M.44799806 .31976319C.44799806 .40283204 .44299317 .48390199 .40699769 .55996707 .3659973 .64302065 .2939911 .66503909 .24499512 .66503909 .18699646 .66503909 .115997318 .63601687 .07899475 .552948 .050994874 .48989869 .040985109 .42785646 .040985109 .31976319 .040985109 .22268677 .04798889 .14962769 .083999637 .078567508 .12298584 .0025177003 .19198609-.021484375 .24398804-.021484375 .33099366-.021484375 .3809967 .030532837 .4099884 .08857727 .44599916 .16363526 .44799806 .26171876 .44799806 .31976319M.24398804-.0014953613C.21199036-.0014953613 .14698792 .016525269 .12799073 .12561035 .116989139 .18565369 .116989139 .26171876 .116989139 .33177186 .116989139 .41384889 .116989139 .48789979 .1329956 .5469513 .1499939 .6139984 .20098877 .6450348 .24398804 .6450348 .28199769 .6450348 .33999635 .6220093 .35899354 .53593447 .37199403 .4788971 .37199403 .39982606 .37199403 .33177186 .37199403 .26472474 .37199403 .18865967 .36099244 .12760926 .34199525 .01751709 .2789917-.0014953613 .24398804-.0014953613Z"/>
<path id="font_2_1" d="M.19499207-.0040130617C.19499207 .053985597 .17599488 .09700012 .1349945 .09700012 .102996829 .09700012 .08699036 .070999149 .08699036 .04899597 .08699036 .026992798 .101989749 0 .13598633 0 .14898682 0 .1599884 .0039978029 .16899109 .0129852299 .17098999 .01499939 .17199707 .01499939 .17298889 .01499939 .1749878 .01499939 .1749878 .0009918213 .1749878-.0040130617 .1749878-.037078859 .16899109-.10221863 .11099243-.1673584 .099990848-.17936707 .099990848-.18136597 .099990848-.18336487 .099990848-.18836975 .10499573-.19335938 .10998535-.19335938 .117996219-.19335938 .19499207-.119262699 .19499207-.0040130617Z"/>
<path id="font_1_2" d="M.28199769 .24900818C.28199769 .32499696 .27198792 .44898988 .21598816 .5649872 .15699768 .68499758 .07499695 .75 .06399536 .75 .05999756 .75 .054992677 .74798586 .054992677 .74198916 .054992677 .7389984 .054992677 .7369995 .07199097 .71998599 .17199707 .61898806 .22799683 .45399476 .22799683 .25 .22799683 .056015016 .18099976-.11099243 .06498718-.22898865 .054992677-.23799134 .054992677-.23999024 .054992677-.24298096 .054992677-.24897766 .05999756-.25097657 .06399536-.25097657 .07699585-.25097657 .15899658-.1789856 .20799256-.08099365 .25898744 .021011353 .28199769 .12901306 .28199769 .24900818Z"/>
<path id="font_3_1" d="M.49499513 .37831117C.5019989 .3933258 .5059967 .4013214 .56900027 .4013214V.44433595C.5329895 .44232179 .5309906 .44232179 .48999024 .44232179 .46299745 .44232179 .46099855 .44232179 .4039917 .44433595V.4013214C.43099977 .4013214 .45298768 .3963318 .45298768 .389328 .45298768 .38832093 .45298768 .38731385 .44799806 .37731935L.33099366 .120162967 .20199585 .4013214H.25698854V.44433595C.23399353 .44232179 .1639862 .44232179 .13699341 .44232179 .10798645 .44232179 .049987794 .44232179 .023986817 .44433595V.4013214H.08699036L.2630005 .019104004C.27198792 .00010681152 .27398683-.0048828127 .29699708-.0048828127 .31298829-.0048828127 .32099916-.0028839112 .32998658 .017105103L.49499513 .37831117Z"/>
<path id="font_4_1" d="M.3789978 .62413027C.3789978 .6582031 .37298585 .6582031 .33299256 .6582031 .27198792 .61006167 .19198609 .5939789 .11399841 .5939789H.09199524V.5419922H.11399841C.13999939 .5419922 .19400025 .5449829 .2519989 .5619812V.051986696H.101989749V0C.13798523 .0029907227 .269989 .0029907227 .31498719 .0029907227 .3600006 .0029907227 .48999024 .0029907227 .5269928 0V.051986696H.3789978V.62413027Z"/>
<path id="font_4_2" d="M.5509949 .2280426H.49499513C.4869995 .16200257 .47399903 .14199829 .46798707 .13899231 .45700074 .1329956 .37998963 .1329956 .36299134 .1329956H.22499085C.35899354 .23805237 .41299439 .2680664 .45599366 .30108644 .526001 .35612489 .5509949 .40615846 .5509949 .46316529 .5509949 .58117678 .44198609 .6582031 .2899933 .6582031 .1619873 .6582031 .06098938 .6011963 .06098938 .50717166 .06098938 .4481659 .10899353 .4291687 .13699341 .4291687 .17199707 .4291687 .21398926 .4541626 .21398926 .50616458 .21398926 .5531616 .17999268 .5721588 .16699219 .5771637 .19499207 .5981903 .23498535 .6062012 .2659912 .6062012 .35598756 .6062012 .4059906 .5391693 .4059906 .4621582 .4059906 .38113404 .35299684 .31410218 .2939911 .25906373L.07299805 .052993776C.06199646 .041992189 .06098938 .040985109 .06098938 .020996094V0H.5179901L.5509949 .2280426Z"/>
<path id="font_1_4" d="M.43998719 .16790772H.41799928C.4149933 .15092469 .40699769 .09597778 .39698792 .07998657 .3899994 .070999149 .33299256 .070999149 .30299378 .070999149H.117996219C.14498902 .09397888 .20599365 .15792847 .23199463 .18190003 .38398744 .3217926 .43998719 .37374879 .43998719 .47270204 .43998719 .5878906 .34899903 .66503909 .23298645 .66503909 .116989139 .66503909 .04899597 .5658264 .04899597 .4797058 .04899597 .42871095 .09298706 .42871095 .09599304 .42871095 .116989139 .42871095 .14299011 .44371034 .14299011 .475708 .14299011 .5037079 .12399292 .5227051 .09599304 .5227051 .08699036 .5227051 .084991458 .5227051 .08198547 .521698 .100997928 .5899048 .15499878 .6360321 .21998596 .6360321 .30499269 .6360321 .35699464 .56481936 .35699464 .47270204 .35699464 .3877411 .30799867 .313797 .25099183 .24984741L.04899597 .023986817V0H.4139862L.43998719 .16790772Z"/>
<path id="font_5_1" d="M.6589966 .23046875C.6759949 .23046875 .69400027 .23046875 .69400027 .25045777 .69400027 .27046205 .6759949 .27046205 .6589966 .27046205H.117996219C.100997928 .27046205 .08299255 .27046205 .08299255 .25045777 .08299255 .23046875 .100997928 .23046875 .117996219 .23046875H.6589966Z"/>
</defs>
<path transform="matrix(1.00002,0,0,-1.00003,183.21268,92.5103)" stroke-width=".3985" stroke-linecap="butt" stroke-miterlimit="10" stroke-linejoin="miter" fill="none" stroke="#9999ff" d="M-181.42028-45.35506-45.35506 90.71013"/>
<path transform="matrix(1.00002,0,0,-1.00003,183.21268,92.5103)" stroke-width=".3985" stroke-linecap="butt" stroke-miterlimit="10" stroke-linejoin="miter" fill="none" stroke="#9999ff" d="M-158.74274-45.35506-22.67752 90.71013"/>
<path transform="matrix(1.00002,0,0,-1.00003,183.21268,92.5103)" stroke-width=".3985" stroke-linecap="butt" stroke-miterlimit="10" stroke-linejoin="miter" fill="none" stroke="#9999ff" d="M-136.0652-45.35506 0 90.71013"/>
<path transform="matrix(1.00002,0,0,-1.00003,183.21268,92.5103)" stroke-width=".3985" stroke-linecap="butt" stroke-miterlimit="10" stroke-linejoin="miter" fill="none" stroke="#9999ff" d="M-113.38766-45.35506 22.67752 90.71013"/>
<path transform="matrix(1.00002,0,0,-1.00003,183.21268,92.5103)" stroke-width=".3985" stroke-linecap="butt" stroke-miterlimit="10" stroke-linejoin="miter" fill="none" stroke="#9999ff" d="M-90.71013-45.35506 45.35506 90.71013"/>
<path transform="matrix(1.00002,0,0,-1.00003,183.21268,92.5103)" stroke-width=".3985" stroke-linecap="butt" stroke-miterlimit="10" stroke-linejoin="miter" fill="none" stroke="#9999ff" d="M-68.0326-45.35506 68.0326 90.71013"/>
<path transform="matrix(1.00002,0,0,-1.00003,183.21268,92.5103)" stroke-width=".3985" stroke-linecap="butt" stroke-miterlimit="10" stroke-linejoin="miter" fill="none" stroke="#9999ff" d="M-45.35506-45.35506 90.71013 90.71013"/>
<path transform="matrix(1.00002,0,0,-1.00003,183.21268,92.5103)" stroke-width=".3985" stroke-linecap="butt" stroke-miterlimit="10" stroke-linejoin="miter" fill="none" stroke="#9999ff" d="M-22.67752-45.35506 113.38766 90.71013"/>
<path transform="matrix(1.00002,0,0,-1.00003,183.21268,92.5103)" stroke-width=".3985" stroke-linecap="butt" stroke-miterlimit="10" stroke-linejoin="miter" fill="none" stroke="#9999ff" d="M0-45.35506 136.0652 90.71013"/>
<path transform="matrix(1.00002,0,0,-1.00003,183.21268,92.5103)" stroke-width=".3985" stroke-linecap="butt" stroke-miterlimit="10" stroke-linejoin="miter" fill="none" stroke="#9999ff" d="M22.67752-45.35506 158.74274 90.71013"/>
<path transform="matrix(1.00002,0,0,-1.00003,183.21268,92.5103)" stroke-width=".3985" stroke-linecap="butt" stroke-miterlimit="10" stroke-linejoin="miter" fill="none" stroke="#9999ff" d="M45.35506-45.35506 181.42028 90.71013"/>
<path transform="matrix(1.00002,0,0,-1.00003,183.21268,92.5103)" stroke-width=".3985" stroke-linecap="butt" stroke-miterlimit="10" stroke-linejoin="miter" fill="none" stroke="#9999ff" d="M-181.42028-45.35506H45.35506"/>
<path transform="matrix(1.00002,0,0,-1.00003,183.21268,92.5103)" stroke-width=".3985" stroke-linecap="butt" stroke-miterlimit="10" stroke-linejoin="miter" fill="none" stroke="#9999ff" d="M-158.74274-22.67752H68.0326"/>
<path transform="matrix(1.00002,0,0,-1.00003,183.21268,92.5103)" stroke-width=".3985" stroke-linecap="butt" stroke-miterlimit="10" stroke-linejoin="miter" fill="none" stroke="#9999ff" d="M-136.0652 0H90.71013"/>
<path transform="matrix(1.00002,0,0,-1.00003,183.21268,92.5103)" stroke-width=".3985" stroke-linecap="butt" stroke-miterlimit="10" stroke-linejoin="miter" fill="none" stroke="#9999ff" d="M-113.38766 22.67752H113.38766"/>
<path transform="matrix(1.00002,0,0,-1.00003,183.21268,92.5103)" stroke-width=".3985" stroke-linecap="butt" stroke-miterlimit="10" stroke-linejoin="miter" fill="none" stroke="#9999ff" d="M-90.71013 45.35506H136.0652"/>
<path transform="matrix(1.00002,0,0,-1.00003,183.21268,92.5103)" stroke-width=".3985" stroke-linecap="butt" stroke-miterlimit="10" stroke-linejoin="miter" fill="none" stroke="#9999ff" d="M-68.0326 68.0326H158.74274"/>
<path transform="matrix(1.00002,0,0,-1.00003,183.21268,92.5103)" stroke-width=".3985" stroke-linecap="butt" stroke-miterlimit="10" stroke-linejoin="miter" fill="none" stroke="#9999ff" d="M-45.35506 90.71013H181.42028"/>
<path transform="matrix(1.00002,0,0,-1.00003,183.21268,92.5103)" stroke-width=".79701" stroke-linecap="butt" stroke-miterlimit="10" stroke-linejoin="miter" fill="none" stroke="#000000" d="M0 0 18.85172 18.85172"/>
<path transform="matrix(.70711418,-.7071212,-.70711418,-.7071212,199.87845,75.84436)" d="M7.36906 0 1.28693 2.29385 3.2911 0 1.28693-2.29385Z"/>
<path transform="matrix(.70711418,-.7071212,-.70711418,-.7071212,199.87845,75.84436)" stroke-width=".79701" stroke-linecap="butt" stroke-miterlimit="10" stroke-linejoin="miter" fill="none" stroke="#000000" d="M7.36906 0 1.28693 2.29385 3.2911 0 1.28693-2.29385Z"/>
<path transform="matrix(1.00002,0,0,-1.00003,183.21268,92.5103)" stroke-width=".79701" stroke-linecap="butt" stroke-miterlimit="10" stroke-linejoin="miter" fill="none" stroke="#000000" d="M0 0H17.26654"/>
<path transform="matrix(1.00002,0,0,-1.00003,197.38764,92.5103)" d="M7.36906 0 1.28693 2.29385 3.2911 0 1.28693-2.29385Z"/>
<path transform="matrix(1.00002,0,0,-1.00003,197.38764,92.5103)" stroke-width=".79701" stroke-linecap="butt" stroke-miterlimit="10" stroke-linejoin="miter" fill="none" stroke="#000000" d="M7.36906 0 1.28693 2.29385 3.2911 0 1.28693-2.29385Z"/>
<path transform="matrix(1.00002,0,0,-1.00003,183.21268,92.5103)" d="M1.59404 0C1.59404 .88037 .88037 1.59404 0 1.59404-.88037 1.59404-1.59404 .88037-1.59404 0-1.59404-.88037-.88037-1.59404 0-1.59404 .88037-1.59404 1.59404-.88037 1.59404 0ZM0 0"/>
<path transform="matrix(1.00002,0,0,-1.00003,183.21268,92.5103)" d="M24.27275 45.35742C24.27275 46.2378 23.55908 46.95148 22.6787 46.95148 21.79832 46.95148 21.08466 46.2378 21.08466 45.35742 21.08466 44.47705 21.79832 43.76337 22.6787 43.76337 23.55908 43.76337 24.27275 44.47705 24.27275 45.35742ZM22.6787 45.35742"/>
<use data-text="(" xlink:href="#font_1_1" transform="matrix(11.95544,0,0,-11.95556,152.97307,105.66069)"/>
<use data-text="0" xlink:href="#font_1_3" transform="matrix(11.95544,0,0,-11.95556,157.51615,105.66069)"/>
<use data-text="," xlink:href="#font_2_1" transform="matrix(11.95544,0,0,-11.95556,163.37929,105.66069)"/>
<use data-text="0" xlink:href="#font_1_3" transform="matrix(11.95544,0,0,-11.95556,168.6234,105.66069)"/>
<use data-text=")" xlink:href="#font_1_2" transform="matrix(11.95544,0,0,-11.95556,174.46962,105.66069)"/>
<use data-text="v" xlink:href="#font_3_1" transform="matrix(11.95544,0,0,-11.95556,189.22879,63.85344)"/>
<use data-text="1" xlink:href="#font_4_1" transform="matrix(7.9702599,0,0,-7.9703395,196.32794,65.64749)"/>
<use data-text="v" xlink:href="#font_3_1" transform="matrix(11.95544,0,0,-11.95556,210.07622,102.00758)"/>
<use data-text="2" xlink:href="#font_4_2" transform="matrix(7.9702599,0,0,-7.9703395,217.17537,103.801639)"/>
<use data-text="2" xlink:href="#font_1_4" transform="matrix(11.95544,0,0,-11.95556,210.07622,41.17376)"/>
<use data-text="v" xlink:href="#font_3_1" transform="matrix(11.95544,0,0,-11.95556,215.92934,41.17376)"/>
<use data-text="1" xlink:href="#font_4_1" transform="matrix(7.9702599,0,0,-7.9703395,223.02848,42.96781)"/>
<use data-text="&#x2212;" xlink:href="#font_5_1" transform="matrix(11.95544,0,0,-11.95556,231.06464,41.17376)"/>
<use data-text="v" xlink:href="#font_3_1" transform="matrix(11.95544,0,0,-11.95556,243.02086,41.17376)"/>
<use data-text="2" xlink:href="#font_4_2" transform="matrix(7.9702599,0,0,-7.9703395,250.119,42.96781)"/>
</svg>
