<svg xmlns="http://www.w3.org/2000/svg" xmlns:xlink="http://www.w3.org/1999/xlink" xmlns:inkscape="http://www.inkscape.org/namespaces/inkscape" version="1.1" width="130" height="62" viewBox="0 0 130 62">
<defs>
<path id="font_1_1" d="M.9079895 .6096344C.9169922 .6436157 .9189911 .6536102 .98999026 .6536102 1.0089874 .6536102 1.0179901 .6536102 1.0179901 .6726074 1.0179901 .6826172 1.0110016 .6826172 .99198916 .6826172H.871994C.8470001 .6826172 .84599307 .6816101 .83499148 .66560366L.46998597 .08895874 .394989 .660614C.3919983 .6826172 .3909912 .6826172 .36499024 .6826172H.24099732C.22200012 .6826172 .21299744 .6826172 .21299744 .66360476 .21299744 .6536102 .22200012 .6536102 .23699951 .6536102 .2979889 .6536102 .2979889 .6456146 .2979889 .6346283 .2979889 .6326294 .2979889 .6266327 .2939911 .6116333L.1659851 .10194397C.1539917 .053970338 .1309967 .03199768 .06399536 .0289917 .06098938 .0289917 .04899597 .027999878 .04899597 .010986328 .04899597 0 .057998659 0 .06199646 0 .08198547 0 .1329956 .0019989014 .15299988 .0019989014H.20098877C.21499634 .0019989014 .23199463 0 .24598694 0 .25299073 0 .2639923 0 .2639923 .018997193 .2639923 .027999878 .2539978 .0289917 .25 .0289917 .21699524 .02999878 .18499756 .035995485 .18499756 .07196045 .18499756 .081954959 .18499756 .082962039 .18899536 .096954349L.32699586 .6476135H.32798768L.41099549 .026992798C.4139862 .0029907227 .4149933 0 .42399598 0 .43499757 0 .43998719 .0079956059 .44499208 .016998291L.8470001 .6526184H.84799197L.7029877 .07395935C.69400027 .038986207 .69200137 .0289917 .621994 .0289917 .6029968 .0289917 .59298709 .0289917 .59298709 .010986328 .59298709 0 .60198977 0 .60798647 0 .625 0 .644989 .0019989014 .6619873 .0019989014H.7799988C.7969971 .0019989014 .81799319 0 .83499148 0 .84298709 0 .85398867 0 .85398867 .018997193 .85398867 .0289917 .8450012 .0289917 .8299866 .0289917 .7689972 .0289917 .7689972 .036987306 .7689972 .04698181 .7689972 .047973634 .7689972 .054977418 .7709961 .06297302L.9079895 .6096344Z"/>
<path id="font_2_3" d="M.49499513 .37831117C.5019989 .3933258 .5059967 .4013214 .56900027 .4013214V.44433595C.5329895 .44232179 .5309906 .44232179 .48999024 .44232179 .46299745 .44232179 .46099855 .44232179 .4039917 .44433595V.4013214C.43099977 .4013214 .45298768 .3963318 .45298768 .389328 .45298768 .38832093 .45298768 .38731385 .44799806 .37731935L.33099366 .120162967 .20199585 .4013214H.25698854V.44433595C.23399353 .44232179 .1639862 .44232179 .13699341 .44232179 .10798645 .44232179 .049987794 .44232179 .023986817 .44433595V.4013214H.08699036L.2630005 .019104004C.27198792 .00010681152 .27398683-.0048828127 .29699708-.0048828127 .31298829-.0048828127 .32099916-.0028839112 .32998658 .017105103L.49499513 .37831117Z"/>
<path id="font_2_4" d="M.7200012 .37731935C.72698977 .39431764 .7299957 .4013214 .7879944 .4013214V.44433595C.7589874 .44232179 .74598696 .44232179 .70999148 .44232179 .6689911 .44232179 .6559906 .44232179 .6199951 .44433595V.4013214C.6289978 .4013214 .6779938 .4013214 .6779938 .38832093 .6779938 .38731385 .6779938 .38632203 .673996 .37631227L.56900027 .11616516 .45399476 .4013214H.5109863V.44433595C.4869995 .44232179 .42799378 .44232179 .40098573 .44232179 .34999085 .44232179 .34799195 .44232179 .2979889 .44433595V.4013214H.35699464C.3600006 .3933258 .36499024 .38031007 .36898805 .37130738 .37199403 .36531068 .38198854 .34129334 .38198854 .33628846 .38198854 .33428956 .3789978 .32728578 .37799073 .3242798L.3019867 .13517761 .19400025 .4013214H.25099183V.44433595C.22799683 .44232179 .1599884 .44232179 .1329956 .44232179 .100997928 .44232179 .052993776 .44232179 .022994996 .44433595V.4013214H.08198547L.23498535 .020111084C.24198914 .002105713 .24598694-.0048828127 .2679901-.0048828127 .2789917-.0048828127 .29100038-.0048828127 .29899598 .015106201L.40499879 .28025819 .5109863 .017105103C.519989-.0048828127 .5309906-.0048828127 .54299929-.0048828127 .5649872-.0048828127 .56799319 .0011138916 .57499697 .019104004L.7200012 .37731935Z"/>
<path id="font_2_2" d="M.35299684 .44218446V.39918519C.4149933 .39918519 .42199708 .39918519 .42199708 .36018373V.16415406C.42199708 .088134769 .3769989 .027130127 .29899598 .027130127 .22399903 .027130127 .21998596 .052139284 .21998596 .10714722V.4501953L.041992189 .44218446V.39918519C.10398865 .39918519 .11099243 .39918519 .11099243 .36018373V.12315369C.11099243 .023132325 .17799378-.005859375 .2849884-.005859375 .30899049-.005859375 .3829956-.005859375 .42599488 .07513428H.4269867V-.005859375L.59999087 .0001373291V.043136598C.5379944 .043136598 .5309906 .043136598 .5309906 .08213806V.4501953L.35299684 .44218446Z"/>
<path id="font_2_1" d="M.5169983 .31925965C.5169983 .4152527 .5169983 .65625 .2809906 .65625 .04399109 .65625 .04399109 .4162445 .04399109 .31925965 .04399109 .2232666 .04399109-.01171875 .27999879-.01171875 .5159912-.01171875 .5169983 .22026062 .5169983 .31925965M.2809906 .021270752C.24899292 .021270752 .22499085 .03427124 .20498657 .055267335 .17999268 .08027649 .1639862 .0962677 .1639862 .33125306 .1639862 .40124513 .1639862 .46525575 .17199707 .51724246 .18598938 .61624148 .2579956 .62324526 .27999879 .62324526 .31199647 .62324526 .37399293 .60824587 .3880005 .5242462 .39698792 .47325135 .39698792 .3922577 .39698792 .33125306 .39698792 .09527588 .38198854 .08126831 .35198976 .05126953 .33198548 .031280519 .30499269 .021270752 .2809906 .021270752Z"/>
<path id="font_3_1" d="M.5479889 .23046875C.5649872 .23046875 .58299258 .23046875 .58299258 .25045777 .58299258 .27046205 .5649872 .27046205 .5479889 .27046205H.12399292C.13598633 .40419007 .25099183 .5 .3919983 .5H.5479889C.5649872 .5 .58299258 .5 .58299258 .519989 .58299258 .5399933 .5649872 .5399933 .5479889 .5399933H.3899994C.21899414 .5399933 .08299255 .4101715 .08299255 .25045777 .08299255 .09017944 .21899414-.040008546 .3899994-.040008546H.5479889C.5649872-.040008546 .58299258-.040008546 .58299258-.020004273 .58299258 0 .5649872 0 .5479889 0H.3919983C.25099183 0 .13598633 .096191409 .12399292 .23046875H.5479889Z"/>
</defs>
<path transform="matrix(1.0001,0,0,-1.00005,61.52425,38.41132)" d="M-59.52846-21.2601H49.6069L66.61517 22.67752H-42.5202Z" fill="#e0e0ff"/>
<path transform="matrix(1.0001,0,0,-1.00005,61.52425,38.41132)" stroke-width=".79701" stroke-linecap="round" stroke-linejoin="round" fill="none" stroke="#000099" d="M-59.52846-21.2601H49.6069L66.61517 22.67752H-42.5202Z"/>
<use data-text="M" xlink:href="#font_1_1" transform="matrix(11.956396,0,0,-11.955797,99.179019,30.58993)" fill="#000099"/>
<path transform="matrix(1.0001,0,0,-1.00005,61.52425,38.41132)" stroke-width="1.19553" stroke-linecap="round" stroke-linejoin="round" fill="none" stroke="#000000" d="M0 0 36.17796-11.22757"/>
<path transform="matrix(.95511558,.2964048,.29641966,-.9550677,94.63808,48.687425)" d="M6.66628 0 1.93044 1.79556 3.5108 0 1.93044-1.79556Z"/>
<path transform="matrix(.95511558,.2964048,.29641966,-.9550677,94.63808,48.687425)" stroke-width="1.19553" stroke-linecap="round" stroke-miterlimit="10" stroke-linejoin="miter" fill="none" stroke="#000000" d="M6.66628 0 1.93044 1.79556 3.5108 0 1.93044-1.79556Z"/>
<use data-text="v" xlink:href="#font_2_3" transform="matrix(11.956396,0,0,-11.955797,107.21382,61.064455)"/>
<path transform="matrix(1.0001,0,0,-1.00005,61.52425,38.41132)" stroke-width="1.19553" stroke-linecap="round" stroke-linejoin="round" fill="none" stroke="#000000" d="M0 0-15.51353 22.67363"/>
<path transform="matrix(-.56469646,-.82531127,-.82535257,.5646682,47.82291,18.38739)" d="M6.66628 0 1.93044 1.79556 3.5108 0 1.93044-1.79556Z"/>
<path transform="matrix(-.56469646,-.82531127,-.82535257,.5646682,47.82291,18.38739)" stroke-width="1.19553" stroke-linecap="round" stroke-miterlimit="10" stroke-linejoin="miter" fill="none" stroke="#000000" d="M6.66628 0 1.93044 1.79556 3.5108 0 1.93044-1.79556Z"/>
<use data-text="w" xlink:href="#font_2_4" transform="matrix(11.956396,0,0,-11.955797,28.61296,6.897747)"/>
<path transform="matrix(1.0001,0,0,-1.00005,61.52425,38.41132)" stroke-width="1.19553" stroke-linecap="round" stroke-linejoin="round" fill="none" stroke="#b30000" d="M0 0 22.09073 8.13892"/>
<path transform="matrix(.93840387,-.34570728,-.34572459,-.9383569,80.6031,31.382369)" d="M6.66628 0 1.93044 1.79556 3.5108 0 1.93044-1.79556Z" fill="#b30000"/>
<path transform="matrix(.93840387,-.34570728,-.34572459,-.9383569,80.6031,31.382369)" stroke-width="1.19553" stroke-linecap="round" stroke-miterlimit="10" stroke-linejoin="miter" fill="none" stroke="#b30000" d="M6.66628 0 1.93044 1.79556 3.5108 0 1.93044-1.79556Z"/>
<use data-text="u" xlink:href="#font_2_2" transform="matrix(11.956396,0,0,-11.955797,93.0394,23.906596)" fill="#b30000"/>
<path transform="matrix(1.0001,0,0,-1.00005,61.52425,38.41132)" d="M2.11343 0C2.11343 1.16722 1.16722 2.11343 0 2.11343-1.16722 2.11343-2.11343 1.16722-2.11343 0-2.11343-1.16722-1.16722-2.11343 0-2.11343 1.16722-2.11343 2.11343-1.16722 2.11343 0ZM0 0"/>
<use data-text="0" xlink:href="#font_2_1" transform="matrix(11.956396,0,0,-11.955797,48.91299,51.150957)"/>
<use data-text="u" xlink:href="#font_2_2" transform="matrix(11.956396,0,0,-11.955797,10.741173,55.869195)" fill="#b30000"/>
<use data-text="&#x2208;" xlink:href="#font_3_1" transform="matrix(11.956396,0,0,-11.955797,21.535256,55.868196)" fill="#b30000"/>
<use data-text="M" xlink:href="#font_1_1" transform="matrix(11.956396,0,0,-11.955797,32.82737,55.869195)" fill="#b30000"/>
</svg>
