<svg xmlns="http://www.w3.org/2000/svg" xmlns:xlink="http://www.w3.org/1999/xlink" xmlns:inkscape="http://www.inkscape.org/namespaces/inkscape" version="1.1" width="212" height="174" viewBox="0 0 212 174">
<defs>
<path id="font_1_2" d="M.47399903 .40820313C.44198609 .40219117 .42999269 .3781891 .42999269 .3591919 .42999269 .33518983 .44898988 .3271942 .46299745 .3271942 .49299623 .3271942 .5139923 .3531952 .5139923 .380188 .5139923 .4223938 .46598817 .44140626 .42399598 .44140626 .36299134 .44140626 .32899476 .38119508 .31999208 .36219789 .29699708 .4373932 .23498535 .44140626 .21699524 .44140626 .114990238 .44140626 .06098938 .31021119 .06098938 .28822328 .06098938 .28422547 .06498718 .27923585 .07199097 .27923585 .07998657 .27923585 .08198547 .28523255 .083999637 .2892151 .117996219 .40019227 .18499756 .42140199 .21398926 .42140199 .25898744 .42140199 .2679901 .37919618 .2679901 .3551941 .2679901 .33319093 .2619934 .31021119 .25 .26223756L.21598816 .12535095C.20098877 .06535339 .17199707 .010223389 .11898804 .010223389 .11399841 .010223389 .08898926 .010223389 .067993167 .023330689 .10398865 .03036499 .11199951 .06036377 .11199951 .07235718 .11199951 .09236145 .09700012 .10435486 .07798767 .10435486 .053985597 .10435486 .027999878 .083358768 .027999878 .051361085 .027999878 .009231567 .07499695-.009765625 .117996219-.009765625 .1659851-.009765625 .19999695 .028366089 .22099304 .069366458 .23699951 .010223389 .2869873-.009765625 .32398988-.009765625 .42599488-.009765625 .47999574 .12135315 .47999574 .1433258 .47999574 .14833069 .47599793 .15232849 .46998597 .15232849 .46099855 .15232849 .45999146 .14732361 .45700074 .139328 .42999269 .051361085 .37199403 .010223389 .32699586 .010223389 .2919922 .010223389 .272995 .036361696 .272995 .07736206 .272995 .099365238 .2769928 .115356449 .29299928 .18130493L.32798768 .3171997C.34298707 .37719728 .3769989 .42140199 .4229889 .42140199 .4249878 .42140199 .45298768 .42140199 .47399903 .40820313Z"/>
<path id="font_1_3" d="M.2630005-.11172485C.23599243-.14982605 .19699097-.18411255 .147995-.18411255 .13598633-.18411255 .08799744-.18209839 .07299805-.13572693 .07598877-.13671875 .08099365-.13671875 .08299255-.13671875 .11299133-.13671875 .1329956-.11073303 .1329956-.08772278 .1329956-.06472778 .11399841-.056732179 .09899902-.056732179 .08299255-.056732179 .04798889-.068725589 .04798889-.11772156 .04798889-.16899109 .09098816-.20410156 .147995-.20410156 .24798584-.20410156 .34899903-.11172485 .3769989-.00077819827L.47499085 .38868714C.47599793 .39367677 .47799684 .39967347 .47799684 .4056549 .47799684 .4206543 .46598817 .43066407 .45098878 .43066407 .44198609 .43066407 .42099 .426651 .41299439 .39666749L.33898927 .10308838C.33399964 .085113529 .33399964 .08312988 .32598878 .072143558 .30599977 .04423523 .272995 .010223389 .22499085 .010223389 .16899109 .010223389 .1639862 .06524658 .1639862 .09225464 .1639862 .14929199 .19099427 .22631836 .21798706 .2983551 .22898865 .32736207 .23498535 .34136964 .23498535 .3613739 .23498535 .4033966 .20498657 .44140626 .1559906 .44140626 .06399536 .44140626 .026992798 .29634095 .026992798 .28834535 .026992798 .28434754 .0309906 .27934266 .037994386 .27934266 .04699707 .27934266 .04798889 .28334046 .051986696 .29734803 .07598877 .38137818 .11399841 .42140199 .15299988 .42140199 .1619873 .42140199 .1789856 .42140199 .1789856 .38838197 .1789856 .36238099 .16799927 .33335877 .15299988 .29534913 .10398865 .16429138 .10398865 .13127136 .10398865 .10726929 .10398865 .01222229 .17199707-.009765625 .22200012-.009765625 .25099183-.009765625 .2869873-.00077819827 .32199098 .036239625L.32299806 .035232545C.30799867-.023757935 .2979889-.06272888 .2630005-.11172485Z"/>
<path id="font_2_1" d="M.32499696-.24298096C.32499696-.23999024 .32499696-.23799134 .30799867-.22097779 .20799256-.11997986 .1519928 .045013429 .1519928 .24900818 .1519928 .44299317 .19898987 .60998538 .31498719 .7279968 .32499696 .7369995 .32499696 .7389984 .32499696 .74198916 .32499696 .74798586 .31999208 .75 .31599427 .75 .30299378 .75 .22099304 .6779938 .17199707 .5799866 .12098694 .47898866 .09799194 .37199403 .09799194 .24900818 .09799194 .16000366 .11199951 .041015626 .1639862-.06599426 .22299195-.18598938 .30499269-.25097657 .31599427-.25097657 .31999208-.25097657 .32499696-.24897766 .32499696-.24298096Z"/>
<path id="font_2_4" d="M.28799439 .64105227C.28799439 .664032 .28799439 .66503909 .2679901 .66503909 .24398804 .6380615 .19400025 .6012573 .09098816 .6012573V.5722656C.11399841 .5722656 .1639862 .5722656 .21899414 .59825137V.07701111C.21899414 .041000368 .21598816 .0289917 .12799073 .0289917H.09700012V0C.12399292 .0019989014 .22099304 .0019989014 .2539978 .0019989014 .2869873 .0019989014 .3829956 .0019989014 .4099884 0V.0289917H.3789978C.29100038 .0289917 .28799439 .041000368 .28799439 .07701111V.64105227Z"/>
<path id="font_1_1" d="M.19499207-.0040130617C.19499207 .053985597 .17599488 .09700012 .1349945 .09700012 .102996829 .09700012 .08699036 .070999149 .08699036 .04899597 .08699036 .026992798 .101989749 0 .13598633 0 .14898682 0 .1599884 .0039978029 .16899109 .0129852299 .17098999 .01499939 .17199707 .01499939 .17298889 .01499939 .1749878 .01499939 .1749878 .0009918213 .1749878-.0040130617 .1749878-.037078859 .16899109-.10221863 .11099243-.1673584 .099990848-.17936707 .099990848-.18136597 .099990848-.18336487 .099990848-.18836975 .10499573-.19335938 .10998535-.19335938 .117996219-.19335938 .19499207-.119262699 .19499207-.0040130617Z"/>
<path id="font_2_5" d="M.43998719 .16790772H.41799928C.4149933 .15092469 .40699769 .09597778 .39698792 .07998657 .3899994 .070999149 .33299256 .070999149 .30299378 .070999149H.117996219C.14498902 .09397888 .20599365 .15792847 .23199463 .18190003 .38398744 .3217926 .43998719 .37374879 .43998719 .47270204 .43998719 .5878906 .34899903 .66503909 .23298645 .66503909 .116989139 .66503909 .04899597 .5658264 .04899597 .4797058 .04899597 .42871095 .09298706 .42871095 .09599304 .42871095 .116989139 .42871095 .14299011 .44371034 .14299011 .475708 .14299011 .5037079 .12399292 .5227051 .09599304 .5227051 .08699036 .5227051 .084991458 .5227051 .08198547 .521698 .100997928 .5899048 .15499878 .6360321 .21998596 .6360321 .30499269 .6360321 .35699464 .56481936 .35699464 .47270204 .35699464 .3877411 .30799867 .313797 .25099183 .24984741L.04899597 .023986817V0H.4139862L.43998719 .16790772Z"/>
<path id="font_2_2" d="M.28199769 .24900818C.28199769 .32499696 .27198792 .44898988 .21598816 .5649872 .15699768 .68499758 .07499695 .75 .06399536 .75 .05999756 .75 .054992677 .74798586 .054992677 .74198916 .054992677 .7389984 .054992677 .7369995 .07199097 .71998599 .17199707 .61898806 .22799683 .45399476 .22799683 .25 .22799683 .056015016 .18099976-.11099243 .06498718-.22898865 .054992677-.23799134 .054992677-.23999024 .054992677-.24298096 .054992677-.24897766 .05999756-.25097657 .06399536-.25097657 .07699585-.25097657 .15899658-.1789856 .20799256-.08099365 .25898744 .021011353 .28199769 .12901306 .28199769 .24900818Z"/>
<path id="font_3_1" d="M.41299439-1.1491852C.41299439-1.1451874 .41099549-1.1431885 .40899659-1.1401825 .36299134-1.0911713 .29499818-1.0101624 .25299073-.84713748 .22999573-.7561188 .22099304-.65309146 .22099304-.56007388 .22099304-.2970276 .28399659-.11299133 .4039917 .017044068 .41299439 .026031495 .41299439 .028030396 .41299439 .030029297 .41299439 .040039064 .40499879 .040039064 .40098573 .040039064 .38598634 .040039064 .33198548-.019973755 .31900025-.034973146 .21699524-.1559906 .1519928-.33602906 .1519928-.5590668 .1519928-.7010956 .1769867-.9021454 .30799867-1.071167 .31799317-1.0831757 .3829956-1.1591797 .40098573-1.1591797 .40499879-1.1591797 .41299439-1.1591797 .41299439-1.1491852Z"/>
<path id="font_4_2" d="M.3889923-.8549652 .21299744-.4659729C.20599365-.44996644 .20098877-.44996644 .19799805-.44996644 .19699097-.44996644 .19198609-.44996644 .18099976-.45796205L.085998538-.52996829C.07299805-.53996279 .07299805-.54296877 .07299805-.54597476 .07299805-.55096438 .07598877-.55696108 .08299255-.55696108 .08898926-.55696108 .10598755-.54296877 .116989139-.53497317 .12298584-.52996829 .13798523-.5189667 .14898682-.51097109L.34599305-.9439697C.35299684-.95996096 .35798646-.95996096 .36698915-.95996096 .38198854-.95996096 .3849945-.95396426 .3919983-.9399719L.84599307 .000030517579C.8529968 .014038086 .8529968 .018035889 .8529968 .02003479 .8529968 .030029297 .8450012 .040039064 .83299258 .040039064 .82499697 .040039064 .81799319 .03503418 .80999758 .01902771L.3889923-.8549652Z"/>
<path id="font_2_6" d="M.18399048 .35888673C.16699219 .35787965 .16299439 .35688783 .16299439 .34788514 .16299439 .33789063 .16799927 .33789063 .18598938 .33789063H.23199463C.31698609 .33789063 .35499574 .267807 .35499574 .17172241 .35499574 .04058838 .2869873 .005508423 .23799134 .005508423 .18998719 .005508423 .10798645 .028564454 .07899475 .09472656 .11099243 .08970642 .13999939 .10771179 .13999939 .14372254 .13999939 .17271424 .11898804 .1927185 .09098816 .1927185 .066986087 .1927185 .040985109 .1787262 .040985109 .14071656 .040985109 .051620485 .12998963-.021484375 .24099732-.021484375 .3600006-.021484375 .44799806 .06965637 .44799806 .17071533 .44799806 .26280213 .37399293 .33488465 .27799989 .35188294 .36499024 .3769226 .42099 .45011903 .42099 .5282135 .42099 .6071167 .33898927 .66503909 .24198914 .66503909 .14199829 .66503909 .067993167 .604126 .067993167 .5312042 .067993167 .49121095 .09899902 .48321534 .11399841 .48321534 .1349945 .48321534 .15899658 .49821473 .15899658 .5282135 .15899658 .5602112 .1349945 .57421877 .11299133 .57421877 .10699463 .57421877 .10499573 .57421877 .101989749 .57321169 .13999939 .641037 .23399353 .641037 .23899842 .641037 .27198792 .641037 .33699037 .6260681 .33699037 .5282135 .33699037 .5092163 .33399964 .453125 .30499269 .41001893 .2749939 .3658905 .24099732 .36288453 .21398926 .36187745L.18399048 .35888673Z"/>
<path id="font_2_3" d="M.39898683 .23057556H.6749878C.68899539 .23057556 .70700076 .23057556 .70700076 .24856568 .70700076 .26757813 .6899872 .26757813 .6749878 .26757813H.39898683V.5441437C.39898683 .5581665 .39898683 .5761719 .3809967 .5761719 .3619995 .5761719 .3619995 .5591583 .3619995 .5441437V.26757813H.085998538C.07199097 .26757813 .053985597 .26757813 .053985597 .24957276 .053985597 .23057556 .070999149 .23057556 .085998538 .23057556H.3619995V-.045166017C.3619995-.059158327 .3619995-.07714844 .37998963-.07714844 .39898683-.07714844 .39898683-.060150148 .39898683-.045166017V.23057556Z"/>
<path id="font_4_1" d="M.6589966 .23046875C.6759949 .23046875 .69400027 .23046875 .69400027 .25045777 .69400027 .27046205 .6759949 .27046205 .6589966 .27046205H.117996219C.100997928 .27046205 .08299255 .27046205 .08299255 .25045777 .08299255 .23046875 .100997928 .23046875 .117996219 .23046875H.6589966Z"/>
<path id="font_3_2" d="M.30499269-.56007388C.30499269-.41804505 .27999879-.2170105 .14898682-.047973634 .13899231-.035964967 .07398987 .040039064 .055999757 .040039064 .050994874 .040039064 .04399109 .038024904 .04399109 .030029297 .04399109 .026031495 .04598999 .023025513 .049987794 .02003479 .09799194-.031967164 .16299439-.11299133 .20399475-.27201844 .22698975-.3630371 .23599243-.4660492 .23599243-.5590668 .23599243-.6600952 .22698975-.7621155 .20098877-.86013796 .16299439-1.0001679 .10398865-1.0801697 .052993776-1.1361847 .04399109-1.1451874 .04399109-1.1471863 .04399109-1.1491852 .04399109-1.1571808 .050994874-1.1591797 .055999757-1.1591797 .070999149-1.1591797 .12599182-1.098175 .13798523-1.0841827 .23999024-.96315 .30499269-.7831116 .30499269-.56007388Z"/>
<path id="font_5_121" d="M.44799806 .31976319C.44799806 .40283204 .44299317 .48388673 .40699769 .5599518 .3659973 .64302065 .2939911 .66503909 .24499512 .66503909 .18699646 .66503909 .115997318 .6360016 .07899475 .552948 .050994874 .48989869 .040985109 .42785646 .040985109 .31976319 .040985109 .22268677 .04798889 .14964295 .083999637 .07858276 .12298584 .002532959 .19198609-.021484375 .24398804-.021484375 .33099366-.021484375 .3809967 .030548096 .4099884 .08859253 .44599916 .16365052 .44799806 .26171876 .44799806 .31976319M.37199403 .33177186C.37199403 .26472474 .37199403 .18867493 .36099244 .12762451 .34199525 .017532349 .2789917-.0014801025 .24398804-.0014801025 .21199036-.0014801025 .14698792 .016540528 .12799073 .12562561 .116989139 .18566895 .116989139 .26171876 .116989139 .33177186 .116989139 .41383363 .116989139 .48789979 .1329956 .54693606 .1499939 .6139984 .20098877 .64501956 .24398804 .64501956 .28199769 .64501956 .33999635 .621994 .35899354 .53593447 .37199403 .47888185 .37199403 .39982606 .37199403 .33177186Z"/>
</defs>
<path transform="matrix(1.00003,0,0,-1.00005,24.669274,149.50988)" stroke-width=".79701" stroke-linecap="butt" stroke-miterlimit="10" stroke-linejoin="miter" fill="none" stroke="#000000" d="M-22.67752 0H157.94573"/>
<path transform="matrix(1.00003,0,0,-1.00005,183.01825,149.50988)" stroke-width=".79701" stroke-linecap="round" stroke-linejoin="round" fill="none" stroke="#000000" d="M-2.55046 3.11095C-2.0845 1.24435-1.04614 .36295 0 0-1.04614-.36295-2.0845-1.24435-2.55046-3.11095"/>
<use data-text="x" xlink:href="#font_1_2" transform="matrix(11.95556,0,0,-11.955797,187.80017,152.084)"/>
<path transform="matrix(1.00003,0,0,-1.00005,24.669274,149.50988)" stroke-width=".79701" stroke-linecap="butt" stroke-miterlimit="10" stroke-linejoin="miter" fill="none" stroke="#000000" d="M0-22.67752V135.26819"/>
<path transform="matrix(0,-1.00005,-1.00003,-0,24.669274,13.8364109)" stroke-width=".79701" stroke-linecap="round" stroke-linejoin="round" fill="none" stroke="#000000" d="M-2.55046 3.11095C-2.0845 1.24435-1.04614 .36295 0 0-1.04614-.36295-2.0845-1.24435-2.55046-3.11095"/>
<use data-text="y" xlink:href="#font_1_3" transform="matrix(11.95556,0,0,-11.955797,21.601181,6.7297518)"/>
<path transform="matrix(1.00003,0,0,-1.00005,24.669274,149.50988)" stroke-width=".79701" stroke-linecap="butt" stroke-miterlimit="10" stroke-linejoin="miter" fill="none" stroke="#0000ff" d="M0 0 22.32112 44.64224"/>
<path transform="matrix(.44718344,-.89440467,-.8943869,-.4471923,47.16926,104.50899)" stroke-width=".79701" stroke-linecap="round" stroke-linejoin="round" fill="none" stroke="#0000ff" d="M-2.55046 3.11095C-2.0845 1.24435-1.04614 .36295 0 0-1.04614-.36295-2.0845-1.24435-2.55046-3.11095"/>
<use data-text="(" xlink:href="#font_2_1" transform="matrix(11.95556,0,0,-11.955797,34.319566,96.78024)" fill="#0000ff"/>
<use data-text="1" xlink:href="#font_2_4" transform="matrix(11.95556,0,0,-11.955797,38.86268,96.78024)" fill="#0000ff"/>
<use data-text="," xlink:href="#font_1_1" transform="matrix(11.95556,0,0,-11.955797,44.724878,96.78024)" fill="#0000ff"/>
<use data-text="2" xlink:href="#font_2_5" transform="matrix(11.95556,0,0,-11.955797,49.96904,96.78024)" fill="#0000ff"/>
<use data-text=")" xlink:href="#font_2_2" transform="matrix(11.95556,0,0,-11.955797,55.815309,96.78024)" fill="#0000ff"/>
<path transform="matrix(1.00003,0,0,-1.00005,24.669274,149.50988)" stroke-width=".79701" stroke-linecap="butt" stroke-miterlimit="10" stroke-linejoin="miter" fill="none" stroke="#ff0000" d="M0 0 83.96875 55.44083"/>
<path transform="matrix(.8344851,-.5509775,-.55096659,-.8345017,108.973079,93.846698)" stroke-width=".79701" stroke-linecap="round" stroke-linejoin="round" fill="none" stroke="#ff0000" d="M-2.55046 3.11095C-2.0845 1.24435-1.04614 .36295 0 0-1.04614-.36295-2.0845-1.24435-2.55046-3.11095"/>
<use data-text="(" xlink:href="#font_3_1" transform="matrix(11.95556,0,0,-11.955797,113.68895,99.17236)" fill="#ff0000"/>
<use data-text="&#x221a;" xlink:href="#font_4_2" transform="matrix(11.95556,0,0,-11.955797,119.16812,98.967357)" fill="#ff0000"/>
<path transform="matrix(1.00003,0,0,-1.00005,38.018678,-28.661026)" stroke-width=".4782" stroke-linecap="butt" stroke-miterlimit="10" stroke-linejoin="miter" fill="none" stroke="#ff0000" d="M91.11-127.382H96.963"/>
<use data-text="3" xlink:href="#font_2_6" transform="matrix(11.95556,0,0,-11.955797,129.13141,108.85684)" fill="#ff0000"/>
<use data-text="+" xlink:href="#font_2_3" transform="matrix(11.95556,0,0,-11.955797,137.6318,108.85684)" fill="#ff0000"/>
<use data-text="2" xlink:href="#font_2_5" transform="matrix(11.95556,0,0,-11.955797,149.38413,108.85684)" fill="#ff0000"/>
<use data-text="," xlink:href="#font_1_1" transform="matrix(11.95556,0,0,-11.955797,155.2562,108.85684)" fill="#ff0000"/>
<use data-text="2" xlink:href="#font_2_5" transform="matrix(11.95556,0,0,-11.955797,164.39847,108.85684)" fill="#ff0000"/>
<use data-text="&#x221a;" xlink:href="#font_4_2" transform="matrix(11.95556,0,0,-11.955797,170.25165,98.967357)" fill="#ff0000"/>
<path transform="matrix(1.00003,0,0,-1.00005,38.018678,-28.661026)" stroke-width=".4782" stroke-linecap="butt" stroke-miterlimit="10" stroke-linejoin="miter" fill="none" stroke="#ff0000" d="M142.191-127.382H148.044"/>
<use data-text="3" xlink:href="#font_2_6" transform="matrix(11.95556,0,0,-11.955797,180.21395,108.85684)" fill="#ff0000"/>
<use data-text="&#x2212;" xlink:href="#font_4_1" transform="matrix(11.95556,0,0,-11.955797,188.7242,108.85684)" fill="#ff0000"/>
<use data-text="1" xlink:href="#font_2_4" transform="matrix(11.95556,0,0,-11.955797,200.67955,108.85684)" fill="#ff0000"/>
<use data-text=")" xlink:href="#font_3_2" transform="matrix(11.95556,0,0,-11.955797,206.53273,99.17236)" fill="#ff0000"/>
<path transform="matrix(1.00003,0,0,-1.00005,24.669274,149.50988)" d="M1.59404 0C1.59404 .88037 .88037 1.59404 0 1.59404-.88037 1.59404-1.59404 .88037-1.59404 0-1.59404-.88037-.88037-1.59404 0-1.59404 .88037-1.59404 1.59404-.88037 1.59404 0ZM0 0"/>
<use data-text="0" xlink:href="#font_5_121" transform="matrix(11.95556,0,0,-11.955797,14.626972,161.64447)"/>
<path transform="matrix(1.00003,0,0,-1.00005,24.669274,149.50988)" stroke-width=".19925" stroke-linecap="butt" stroke-dasharray="2.98883,2.98883" stroke-miterlimit="10" stroke-linejoin="miter" fill="none" stroke="#bfbfbf" d="M0 0H158.74274M0 22.67752H158.74274M0 45.35506H158.74274M0 68.0326H158.74274M0 90.71013H158.74274M0 113.38766H158.74274M0 136.05722H158.74274M0 0V136.0652M22.67752 0V136.0652M45.35506 0V136.0652M68.0326 0V136.0652M90.71013 0V136.0652M113.38766 0V136.0652M136.0652 0V136.0652M158.73476 0V136.0652M158.74274 136.0652"/>
</svg>
