<svg xmlns="http://www.w3.org/2000/svg" xmlns:xlink="http://www.w3.org/1999/xlink" xmlns:inkscape="http://www.inkscape.org/namespaces/inkscape" version="1.1" width="205" height="106" viewBox="0 0 205 106">
<defs>
<path id="font_1_3" d="M.47399903 .40820313C.44198609 .40219117 .42999269 .3781891 .42999269 .3591919 .42999269 .33518983 .44898988 .3271942 .46299745 .3271942 .49299623 .3271942 .5139923 .3531952 .5139923 .380188 .5139923 .4223938 .46598817 .44140626 .42399598 .44140626 .36299134 .44140626 .32899476 .38119508 .31999208 .36219789 .29699708 .4373932 .23498535 .44140626 .21699524 .44140626 .114990238 .44140626 .06098938 .31021119 .06098938 .28822328 .06098938 .28422547 .06498718 .27923585 .07199097 .27923585 .07998657 .27923585 .08198547 .28523255 .083999637 .2892151 .117996219 .40019227 .18499756 .42140199 .21398926 .42140199 .25898744 .42140199 .2679901 .37919618 .2679901 .3551941 .2679901 .33319093 .2619934 .31021119 .25 .26223756L.21598816 .12535095C.20098877 .06535339 .17199707 .010223389 .11898804 .010223389 .11399841 .010223389 .08898926 .010223389 .067993167 .023330689 .10398865 .03036499 .11199951 .06036377 .11199951 .07235718 .11199951 .09236145 .09700012 .10435486 .07798767 .10435486 .053985597 .10435486 .027999878 .083358768 .027999878 .051361085 .027999878 .009231567 .07499695-.009765625 .117996219-.009765625 .1659851-.009765625 .19999695 .028366089 .22099304 .069366458 .23699951 .010223389 .2869873-.009765625 .32398988-.009765625 .42599488-.009765625 .47999574 .12135315 .47999574 .1433258 .47999574 .14833069 .47599793 .15232849 .46998597 .15232849 .46099855 .15232849 .45999146 .14732361 .45700074 .139328 .42999269 .051361085 .37199403 .010223389 .32699586 .010223389 .2919922 .010223389 .272995 .036361696 .272995 .07736206 .272995 .099365238 .2769928 .115356449 .29299928 .18130493L.32798768 .3171997C.34298707 .37719728 .3769989 .42140199 .4229889 .42140199 .4249878 .42140199 .45298768 .42140199 .47399903 .40820313Z"/>
<path id="font_1_4" d="M.2630005-.11172485C.23599243-.14982605 .19699097-.18411255 .147995-.18411255 .13598633-.18411255 .08799744-.18209839 .07299805-.13572693 .07598877-.13671875 .08099365-.13671875 .08299255-.13671875 .11299133-.13671875 .1329956-.11073303 .1329956-.08772278 .1329956-.06472778 .11399841-.056732179 .09899902-.056732179 .08299255-.056732179 .04798889-.068725589 .04798889-.11772156 .04798889-.16899109 .09098816-.20410156 .147995-.20410156 .24798584-.20410156 .34899903-.11172485 .3769989-.00077819827L.47499085 .38868714C.47599793 .39367677 .47799684 .39967347 .47799684 .4056549 .47799684 .4206543 .46598817 .43066407 .45098878 .43066407 .44198609 .43066407 .42099 .426651 .41299439 .39666749L.33898927 .10308838C.33399964 .085113529 .33399964 .08312988 .32598878 .072143558 .30599977 .04423523 .272995 .010223389 .22499085 .010223389 .16899109 .010223389 .1639862 .06524658 .1639862 .09225464 .1639862 .14929199 .19099427 .22631836 .21798706 .2983551 .22898865 .32736207 .23498535 .34136964 .23498535 .3613739 .23498535 .4033966 .20498657 .44140626 .1559906 .44140626 .06399536 .44140626 .026992798 .29634095 .026992798 .28834535 .026992798 .28434754 .0309906 .27934266 .037994386 .27934266 .04699707 .27934266 .04798889 .28334046 .051986696 .29734803 .07598877 .38137818 .11399841 .42140199 .15299988 .42140199 .1619873 .42140199 .1789856 .42140199 .1789856 .38838197 .1789856 .36238099 .16799927 .33335877 .15299988 .29534913 .10398865 .16429138 .10398865 .13127136 .10398865 .10726929 .10398865 .01222229 .17199707-.009765625 .22200012-.009765625 .25099183-.009765625 .2869873-.00077819827 .32199098 .036239625L.32299806 .035232545C.30799867-.023757935 .2979889-.06272888 .2630005-.11172485Z"/>
<path id="font_1_5" d="M.1269989 .0814209C.16999817 .13038635 .20498657 .1613617 .25498963 .20631409 .31498719 .25828553 .34098817 .28326417 .35499574 .2982483 .4249878 .36721803 .45999146 .42539979 .45999146 .4333954 .45999146 .44140626 .45199586 .44140626 .44999696 .44140626 .44299317 .44140626 .44099427 .4373932 .43598939 .43040467 .41099549 .3874054 .3869934 .36621095 .36099244 .36621095 .33999635 .36621095 .32899476 .3753357 .30999757 .3993988 .2889862 .4243927 .27198792 .44140626 .24299622 .44140626 .16999817 .44140626 .12599182 .35020448 .12599182 .32922364 .12599182 .32621766 .1269989 .32022096 .13598633 .32022096 .14399719 .32022096 .14498902 .32421876 .147995 .33122254 .16499329 .37127687 .21299744 .37838746 .23199463 .37838746 .25299073 .37838746 .272995 .37127687 .2939911 .36219789 .33198548 .34620667 .34799195 .34620667 .35798646 .34620667 .36499024 .34620667 .36898805 .34620667 .37399293 .3471985 .34098817 .3082428 .2869873 .26026917 .24198914 .21931458L.14099121 .12638855C.07998657 .06440735 .042999269 .0052337648 .042999269-.0017700195 .042999269-.0077667238 .04798889-.009765625 .053985597-.009765625 .05999756-.009765625 .06098938-.008773804 .067993167 .0032196046 .083999637 .02822876 .115997318 .06542969 .15299988 .06542969 .17399597 .06542969 .18399048 .05831909 .20399475 .033233644 .22299195 .011230469 .23999024-.009765625 .27198792-.009765625 .36999513-.009765625 .42599488 .11740112 .42599488 .14038086 .42599488 .14437866 .4249878 .15037537 .4149933 .15037537 .40699769 .15037537 .4059906 .14637757 .40299989 .13638306 .3809967 .077423099 .32199098 .053237916 .2829895 .053237916 .2619934 .053237916 .24198914 .06034851 .22099304 .06942749 .18099976 .0854187 .16999817 .0854187 .15699768 .0854187 .14698792 .0854187 .13598633 .0854187 .1269989 .0814209Z"/>
<path id="font_2_3" d="M.6749878 .32421876C.68899539 .32421876 .70700076 .32421876 .70700076 .34220887 .70700076 .36120606 .6899872 .36120606 .6749878 .36120606H.085998538C.07199097 .36120606 .053985597 .36120606 .053985597 .34321595 .053985597 .32421876 .070999149 .32421876 .085998538 .32421876H.6749878M.6749878 .13780213C.68899539 .13780213 .70700076 .13780213 .70700076 .15579224 .70700076 .17480469 .6899872 .17480469 .6749878 .17480469H.085998538C.07199097 .17480469 .053985597 .17480469 .053985597 .15679932 .053985597 .13780213 .070999149 .13780213 .085998538 .13780213H.6749878Z"/>
<path id="font_1_2" d="M.44599916 .4016571C.46598817 .4016571 .47399903 .4016571 .47399903 .4206543 .47399903 .43066407 .46598817 .43066407 .44799806 .43066407H.36698915C.38598634 .5338745 .3999939 .60498049 .4079895 .63697817 .4139862 .6609802 .43499757 .6840973 .46099855 .6840973 .48199464 .6840973 .5029907 .67503359 .5130005 .6659851 .47399903 .66197207 .46199037 .63298037 .46199037 .61598208 .46199037 .5959778 .47698976 .5839844 .49598695 .5839844 .5159912 .5839844 .54599 .60098269 .54599 .63897708 .54599 .68107607 .5039978 .70410159 .45999146 .70410159 .4169922 .70410159 .375 .6720276 .35499574 .63298037 .33699037 .5979767 .32699586 .5619354 .3039856 .43066407H.23699951C.21798706 .43066407 .20799256 .43066407 .20799256 .4126587 .20799256 .4016571 .21398926 .4016571 .23399353 .4016571H.2979889C.27999879 .30871583 .23899842 .082839969 .21598816-.024108887 .19898987-.111068729 .18399048-.18411255 .13398743-.18411255 .1309967-.18411255 .101989749-.18411255 .083999637-.16506958 .1349945-.16107178 .1349945-.11706543 .1349945-.11607361 .1349945-.096069339 .11999512-.08407593 .100997928-.08407593 .08099365-.08407593 .050994874-.10107422 .050994874-.1390686 .050994874-.18209839 .09498596-.20410156 .13398743-.20410156 .23599243-.20410156 .27799989-.021102906 .2889862 .028869629 .30699159 .1058197 .35598756 .37167359 .36099244 .4016571H.44599916Z"/>
<path id="font_2_1" d="M.32499696-.24298096C.32499696-.23999024 .32499696-.23799134 .30799867-.22097779 .20799256-.11997986 .1519928 .045013429 .1519928 .24900818 .1519928 .44299317 .19898987 .60998538 .31498719 .7279968 .32499696 .7369995 .32499696 .7389984 .32499696 .74198916 .32499696 .74798586 .31999208 .75 .31599427 .75 .30299378 .75 .22099304 .6779938 .17199707 .5799866 .12098694 .47898866 .09799194 .37199403 .09799194 .24900818 .09799194 .16000366 .11199951 .041015626 .1639862-.06599426 .22299195-.18598938 .30499269-.25097657 .31599427-.25097657 .31999208-.25097657 .32499696-.24897766 .32499696-.24298096Z"/>
<path id="font_1_1" d="M.19499207-.0040130617C.19499207 .053985597 .17599488 .09700012 .1349945 .09700012 .102996829 .09700012 .08699036 .070999149 .08699036 .04899597 .08699036 .026992798 .101989749 0 .13598633 0 .14898682 0 .1599884 .0039978029 .16899109 .0129852299 .17098999 .01499939 .17199707 .01499939 .17298889 .01499939 .1749878 .01499939 .1749878 .0009918213 .1749878-.0040130617 .1749878-.037078859 .16899109-.10221863 .11099243-.1673584 .099990848-.17936707 .099990848-.18136597 .099990848-.18336487 .099990848-.18836975 .10499573-.19335938 .10998535-.19335938 .117996219-.19335938 .19499207-.119262699 .19499207-.0040130617Z"/>
<path id="font_2_2" d="M.28199769 .24900818C.28199769 .32499696 .27198792 .44898988 .21598816 .5649872 .15699768 .68499758 .07499695 .75 .06399536 .75 .05999756 .75 .054992677 .74798586 .054992677 .74198916 .054992677 .7389984 .054992677 .7369995 .07199097 .71998599 .17199707 .61898806 .22799683 .45399476 .22799683 .25 .22799683 .056015016 .18099976-.11099243 .06498718-.22898865 .054992677-.23799134 .054992677-.23999024 .054992677-.24298096 .054992677-.24897766 .05999756-.25097657 .06399536-.25097657 .07699585-.25097657 .15899658-.1789856 .20799256-.08099365 .25898744 .021011353 .28199769 .12901306 .28199769 .24900818Z"/>
</defs>
<path transform="matrix(1.00002,0,0,-1.00006,102.873088,64.90617)" stroke-width=".44832" stroke-linecap="round" stroke-linejoin="round" fill="none" stroke="#b30000" stroke-opacity=".75" d="M-29.33856 37.10472C-29.33856 37.10472-27.97327 36.79463-27.44888 36.67496-26.9245 36.5553-26.08357 36.36223-25.5592 36.2422-25.03482 36.1222-24.1939 35.93051-23.66953 35.80994-23.14514 35.68939-22.30421 35.49495-21.77983 35.37321-21.25545 35.2515-20.41452 35.05501-19.89014 34.93251-19.36577 34.81001-18.52484 34.6134-18.00046 34.4903-17.47607 34.3672-16.63515 34.1692-16.11078 34.0451-15.5864 33.92104-14.74547 33.7208-14.2211 33.59595-13.69672 33.47112-12.85579 33.27069-12.3314 33.1453-11.80704 33.0199-10.9661 32.81831-10.44173 32.69215-9.91737 32.56601-9.07643 32.36278-8.55206 32.23602-8.0277 32.10924-7.18675 31.90558-6.66238 31.7784-6.138 31.65121-5.29707 31.44675-4.77269 31.31927-4.2483 31.19182-3.40738 30.98692-2.883 30.85968-2.35863 30.73242-1.51768 30.52882-.99332 30.40205-.46896 30.27527 .37195 30.07234 .89632 29.9459 1.42068 29.81947 2.26163 29.61644 2.786 29.49078 3.31038 29.36513 4.1513 29.16434 4.67567 29.04013 5.20006 28.91592 6.04099 28.71806 6.56537 28.59543 7.08974 28.4728 7.93066 28.27676 8.45505 28.15622 8.97942 28.03564 9.82034 27.84473 10.34474 27.72644 10.86913 27.60817 11.71005 27.41965 12.23442 27.30365 12.7588 27.18762 13.59973 27.00368 14.1241 26.89029 14.64848 26.77692 15.48941 26.59702 16.0138 26.48639 16.53816 26.37576 17.37909 26.20038 17.90347 26.09293 18.42784 25.98547 19.26877 25.81653 19.79315 25.7119 20.31752 25.60728 21.15846 25.44052 21.68283 25.33885 22.20721 25.2372 23.04814 25.0779 23.57253 24.97922 24.09691 24.88052 24.93784 24.72392 25.46222 24.62753 25.98659 24.53114 26.82751 24.37805 27.3519 24.28433 27.87627 24.19061 28.7172 24.0439 29.24158 23.95204 29.76595 23.8602 30.60689 23.71266 31.13126 23.62225 31.65564 23.53186 32.49657 23.38945 33.02094 23.30043 33.54532 23.21141 34.38625 23.06947 34.91061 22.98059 35.435 22.89171 36.27592 22.74864 36.80032 22.65976 37.32469 22.57089 38.16562 22.42921 38.69 22.33992 39.21437 22.25063 40.0553 22.10649 40.57968 22.0161 41.10406 21.9257 41.94499 21.77988 42.46936 21.68831 42.99374 21.59674 43.83467 21.44977 44.35904 21.35605 44.88342 21.26231 45.72435 21.10944 46.24873 21.01282 46.7731 20.91621 47.61403 20.75854 48.13841 20.65967 48.66278 20.56076 49.50371 20.40146 50.02809 20.30002 50.55249 20.19858 51.39342 20.03285 51.91779 19.92845 52.44217 19.82404 53.2831 19.65488 53.80746 19.54742 54.33185 19.43997 55.17278 19.26466 55.69716 19.15396 56.22153 19.04327 57.06247 18.86296 57.58684 18.74959 58.11119 18.63618 58.95213 18.45265 59.4765 18.33672 60.00087 18.22076 60.84181 18.03221 61.36618 17.91393 61.89056 17.79564 62.73149 17.6047 63.25586 17.48413 63.78024 17.36359 64.62117 17.16765 65.14555 17.04494 65.66994 16.92223 66.51086 16.72395 67.03525 16.59973 67.55962 16.47552 68.40054 16.275 68.92493 16.14958 69.44931 16.02419 70.29024 15.82237 70.8146 15.69594 71.33899 15.5695 72.17992 15.3655 72.70428 15.23831 73.22867 15.11113 74.0696 14.90645 74.59398 14.77919 75.11835 14.65195 75.95927 14.44812 76.48366 14.32108 77.00803 14.19403 77.84895 13.99065 78.37334 13.86346 78.89774 13.73627 79.73866 13.53133 80.26303 13.40434 80.78741 13.27737 81.62834 13.07422 82.15271 12.94821 82.6771 12.8222 83.51802 12.62144 84.0424 12.49605 84.56677 12.37067 85.4077 12.16939 85.93208 12.0444 86.45645 11.91942 87.29738 11.71931 87.82176 11.59525 88.34613 11.47115 89.18707 11.27316 89.71144 11.15005 90.23582 11.02695 91.07675 10.83043 91.60112 10.70786 92.1255 10.58528 92.96643 10.38837 93.49081 10.26665 94.0152 10.14491 94.85612 9.95088 95.38051 9.83041 95.90488 9.70992 96.7458 9.51817 97.27019 9.39816 97.79456 9.27814 98.63548 9.08528 99.15987 8.96541 99.68425 8.84554 101.04955 8.53413 101.04955 8.53413"/>
<path transform="matrix(1.00002,0,0,-1.00006,102.873088,64.90617)" stroke-width=".44832" stroke-linecap="round" stroke-linejoin="round" fill="none" stroke="#b30000" stroke-opacity=".75" d="M-38.30351 31.10738C-38.30351 31.10738-36.9382 30.7552-36.4138 30.61642-35.88943 30.47765-35.04851 30.25014-34.52412 30.10709-33.99976 29.96402-33.15883 29.73203-32.63445 29.5853-32.11006 29.43857-31.26913 29.20023-30.74477 29.04958-30.22038 28.89891-29.37946 28.6549-28.85509 28.49942-28.3307 28.34393-27.48978 28.08934-26.9654 27.92888-26.44102 27.76845-25.6001 27.50705-25.07571 27.34294-24.55135 27.17883-23.71042 26.91493-23.18602 26.74605-22.66164 26.57716-21.82071 26.30035-21.29634 26.12576-20.77196 25.95117-19.93103 25.66493-19.40666 25.48756-18.88228 25.31023-18.04135 25.02814-17.51697 24.8474-16.9926 24.66664-16.15167 24.36786-15.62729 24.18483-15.10292 24.00182-14.262 23.71196-13.73761 23.52826-13.21323 23.34456-12.3723 23.04504-11.84793 22.86072-11.32355 22.67639-10.48262 22.38191-9.95824 22.19965-9.43385 22.01738-8.59293 21.726-8.06854 21.54703-7.54417 21.36809-6.70323 21.08417-6.17886 20.90984-5.65451 20.73553-4.81357 20.45766-4.2892 20.29057-3.76483 20.1235-2.92389 19.86226-2.39952 19.7056-1.87514 19.54895-1.0342 19.30795-.50984 19.16144 .0145 19.01492 .85544 18.7841 1.3798 18.6496 1.90416 18.51509 2.7451 18.31143 3.26949 18.19197 3.79385 18.07253 4.63478 17.89272 5.15916 17.78857 5.68355 17.68443 6.52448 17.52942 7.04884 17.44136 7.57324 17.3533 8.41417 17.2244 8.93854 17.15387 9.46292 17.08336 10.30385 16.986 10.82823 16.93301 11.3526 16.88002 12.19353 16.80772 12.71791 16.77185 13.24228 16.73598 14.0832 16.69402 14.60759 16.67435 15.13197 16.6547 15.9729 16.63455 16.49727 16.6301 17.02165 16.62561 17.86258 16.63278 18.38695 16.64203 18.91133 16.65126 19.75226 16.67632 20.27664 16.69675 20.80103 16.71716 21.64195 16.75981 22.16634 16.78926 22.6907 16.81871 23.53163 16.87373 24.05602 16.90913 24.58038 16.94455 25.42133 17.0062 25.9457 17.04443 26.47008 17.08267 27.311 17.14642 27.83537 17.18471 28.35976 17.22299 29.20068 17.28516 29.72505 17.3205 30.24944 17.35582 31.09036 17.41022 31.61475 17.43938 32.13911 17.46857 32.98004 17.51064 33.50443 17.53091 34.02881 17.5512 34.86974 17.57639 35.39412 17.58563 35.9185 17.59486 36.75943 17.60184 37.2838 17.59758 37.80818 17.5933 38.64911 17.57423 39.17348 17.55478 39.69786 17.53534 40.53879 17.49316 41.06317 17.45729 41.58754 17.42142 42.42847 17.3491 42.95285 17.29611 43.47722 17.24313 44.31815 17.14578 44.84253 17.07527 45.36691 17.00475 46.20784 16.8759 46.73221 16.78778 47.2566 16.69966 48.09753 16.544 48.6219 16.44006 49.14629 16.33615 49.98721 16.15784 50.5116 16.03865 51.03596 15.9195 51.87689 15.71457 52.40128 15.58104 52.92564 15.4475 53.76657 15.22267 54.29095 15.07616 54.81534 14.92964 55.65627 14.68272 56.18063 14.52502 56.70502 14.36734 57.54594 14.10664 58.07031 13.93956 58.5947 13.77248 59.43562 13.49522 59.96 13.32077 60.48438 13.14633 61.3253 12.86105 61.8497 12.68211 62.37407 12.50314 63.21501 12.21324 63.73938 12.03098 64.26375 11.84871 65.10469 11.55136 65.62904 11.36842 66.15341 11.18547 66.99435 10.89584 67.51872 10.71233 68.0431 10.52882 68.88403 10.23041 69.40842 10.04579 69.93279 9.86118 70.77371 9.5625 71.2981 9.38174 71.82246 9.20099 72.66339 8.92027 73.18777 8.74304 73.71216 8.56584 74.55309 8.27898 75.07745 8.10439 75.60184 7.92978 76.44276 7.65305 76.96715 7.48459 77.49153 7.31615 78.33246 7.05429 78.85684 6.89018 79.38121 6.72607 80.22214 6.46211 80.74652 6.30173 81.27089 6.14134 82.11182 5.88976 82.6362 5.73419 83.16057 5.57863 84.00151 5.33163 84.52588 5.18057 85.05026 5.02951 85.89119 4.79199 86.41556 4.64536 86.93994 4.49872 87.78087 4.26622 88.30524 4.12357 88.82962 3.98091 89.67055 3.75618 90.19495 3.61719 90.71931 3.47821 92.08463 3.12177 92.08463 3.12177"/>
<path transform="matrix(1.00002,0,0,-1.00006,102.873088,64.90617)" stroke-width=".44832" stroke-linecap="round" stroke-linejoin="round" fill="none" stroke="#b30000" stroke-opacity=".75" d="M-47.26793 24.52507C-47.26793 24.52507-45.90262 24.03552-45.37825 23.84015-44.85385 23.64476-44.01292 23.32709-43.48856 23.11688-42.96417 22.90668-42.12325 22.55042-41.59886 22.32501-41.0745 22.09961-40.23357 21.73154-39.70918 21.49234-39.18481 21.25313-38.34387 20.85788-37.8195 20.60095-37.29514 20.34402-36.4542 19.91277-35.92984 19.64044-35.40547 19.36813-34.56453 18.92648-34.04016 18.63817-33.51578 18.34982-32.67485 17.86737-32.15047 17.56226-31.6261 17.25714-30.78517 16.75902-30.26079 16.43907-29.73642 16.11914-28.8955 15.59052-28.3711 15.25623-27.84673 14.92194-27.00578 14.37376-26.48141 14.02959-25.95703 13.68542-25.1161 13.12698-24.59174 12.77562-24.06735 12.42426-23.22643 11.8528-22.70204 11.49725-22.17767 11.1417-21.33675 10.56627-20.81236 10.21292-20.288 9.85957-19.44707 9.29851-18.92268 8.95047-18.39832 8.60245-17.55737 8.04228-17.033 7.70445-16.50862 7.36662-15.6677 6.83434-15.14331 6.51564-14.61893 6.19693-13.778 5.70088-13.25363 5.40738-12.72925 5.11388-11.88832 4.66243-11.36394 4.40012-10.83957 4.13779-9.99864 3.74106-9.47426 3.5167-8.94989 3.29233-8.10896 2.96336-7.58458 2.78302-7.0602 2.60269-6.21927 2.34799-5.6949 2.21696-5.17052 2.0859-4.32959 1.9149-3.80522 1.83842-3.28084 1.76196-2.43991 1.68451-1.91551 1.66583-1.39114 1.64714-.5502 1.66216-.02583 1.70361 .49849 1.74509 1.33943 1.86256 1.8638 1.96477 2.38817 2.06697 3.22911 2.27814 3.75348 2.4403 4.27786 2.60248 5.11879 2.91411 5.64316 3.1337 6.16754 3.35329 7.00847 3.75082 7.53285 4.02307 8.05722 4.29533 8.89815 4.77661 9.42253 5.096 9.9469 5.4154 10.78783 5.96652 11.31221 6.32512 11.8366 6.68373 12.67752 7.29099 13.20189 7.68057 13.72629 8.07016 14.56721 8.72198 15.09158 9.13303 15.61597 9.54407 16.4569 10.22171 16.98128 10.64319 17.50565 11.06467 18.34657 11.74927 18.87096 12.17075 19.39532 12.59224 20.23625 13.26994 20.76064 13.68091 21.28502 14.09187 22.12595 14.74309 22.65031 15.13286 23.1747 15.52264 24.01563 16.13124 24.54 16.49031 25.06438 16.8494 25.9053 17.40152 26.42969 17.72092 26.95407 18.04031 27.795 18.51996 28.31938 18.79236 28.84375 19.06474 29.6847 19.46463 30.20906 19.68423 30.73343 19.90382 31.57437 20.21255 32.09872 20.37514 32.6231 20.53772 33.46404 20.7538 33.9884 20.85614 34.51279 20.9585 35.35371 21.07112 35.8781 21.11281 36.40247 21.15448 37.2434 21.17459 37.76778 21.15657 38.29214 21.13857 39.13307 21.05923 39.65746 20.98299 40.18182 20.90671 41.02277 20.73772 41.54713 20.60693 42.07153 20.47615 42.91246 20.22069 43.43683 20.04036 43.96121 19.86005 44.80214 19.53113 45.3265 19.30719 45.85089 19.08324 46.69182 18.6881 47.2162 18.42627 47.74057 18.16443 48.5815 17.71466 49.10588 17.41998 49.63025 17.1253 50.47119 16.62093 50.99556 16.30229 51.51994 15.98367 52.36087 15.45944 52.88524 15.12343 53.40962 14.7874 54.25055 14.22958 54.77492 13.88037 55.2993 13.53116 56.14023 12.96143 56.66463 12.60649 57.189 12.25156 58.02992 11.67766 58.5543 11.32217 59.07867 10.96669 59.9196 10.39565 60.44398 10.04431 60.96837 9.69295 61.8093 9.13405 62.33366 8.78983 62.85805 8.44557 63.69897 7.89734 64.22334 7.56317 64.74773 7.229 65.58865 6.70126 66.11304 6.38133 66.6374 6.06139 67.47833 5.56221 68.00272 5.25717 68.52708 4.95213 69.36801 4.4709 69.89241 4.18275 70.4168 3.89462 71.25772 3.45277 71.78209 3.18045 72.30647 2.90813 73.1474 2.47694 73.67177 2.21994 74.19615 1.96294 75.03708 1.56726 75.56146 1.32806 76.08583 1.08888 76.92676 .72124 77.45114 .4959 77.97551 .27057 78.81644-.08606 79.34082-.29594 79.8652-.50581 80.70613-.82112 81.2305-1.0167 81.75488-1.21228 83.1202-1.70563 83.1202-1.70563"/>
<path transform="matrix(1.00002,0,0,-1.00006,102.873088,64.90617)" stroke-width=".44832" stroke-linecap="round" stroke-linejoin="round" fill="none" stroke="#b30000" stroke-opacity=".75" d="M-56.23285 17.45778C-56.23285 17.45778-54.86755 16.7477-54.34317 16.45996-53.8188 16.17226-52.97787 15.69966-52.45349 15.38406-51.92911 15.06845-51.08818 14.53236-50.56381 14.18529-50.03943 13.83821-49.1985 13.2626-48.67413 12.88255-48.14975 12.50249-47.30882 11.86087-46.78442 11.44601-46.26006 11.03119-45.41913 10.34056-44.89474 9.8926-44.37038 9.44463-43.52945 8.69969-43.00507 8.21729-42.48068 7.7349-41.63976 6.9314-41.11539 6.41565-40.591 5.89992-39.75008 5.0473-39.22571 4.50009-38.70132 3.95288-37.8604 3.04881-37.33601 2.47163-36.81165 1.89447-35.97072 .93979-35.44633 .34021-34.92197-.25935-34.08101-1.23419-33.55664-1.84985-33.03229-2.46553-32.19133-3.47379-31.66698-4.0972-31.14262-4.72061-30.30167-5.72197-29.7773-6.34303-29.25291-6.96408-28.41199-7.96355-27.8876-8.57344-27.36324-9.18332-26.52231-10.15414-25.99792-10.7387-25.47356-11.32324-24.63263-12.24066-24.10825-12.78656-23.58388-13.33246-22.74294-14.17995-22.21857-14.67325-21.69418-15.16656-20.85326-15.91599-20.32889-16.34209-19.8045-16.76817-18.96358-17.39832-18.43921-17.7443-17.91481-18.09027-17.07388-18.58208-16.5495-18.83563-16.02513-19.08919-15.1842-19.42323-14.65982-19.57181-14.13545-19.7204-13.29453-19.874-12.77014-19.90656-12.24576-19.93913-11.40483-19.89642-10.88046-19.80658-10.35608-19.71675-9.51515-19.4759-8.99078-19.25894-8.4664-19.04196-7.62547-18.58841-7.10109-18.24272-6.57672-17.89702-5.7358-17.2397-5.21141-16.76738-4.68703-16.29504-3.8461-15.4317-3.32172-14.83838-2.79733-14.24509-1.95639-13.19637-1.43204-12.49109-.90767-11.78583-.06673-10.5605 .4576-9.7553 .98196-8.95012 1.8229-7.57623 2.34729-6.68774 2.87166-5.79924 3.71259-4.30542 4.23697-3.35156 4.76134-2.39769 5.60226-.81187 6.12665 .18701 6.65103 1.18593 7.49196 2.8265 8.01633 3.84799 8.54071 4.86948 9.38164 6.52779 9.906 7.54927 10.4304 8.57074 11.27133 10.21141 11.79572 11.21024 12.32008 12.20908 13.16101 13.79408 13.6854 14.74835 14.20976 15.70262 15.05069 17.1991 15.57507 18.08801 16.09946 18.97693 16.94038 20.34969 17.46475 21.15508 17.98914 21.9605 18.83006 23.18735 19.35443 23.89287 19.87881 24.59839 20.71974 25.6465 21.24413 26.24016 21.7685 26.83383 22.60942 27.69833 23.1338 28.17163 23.65817 28.64493 24.4991 29.3056 25.0235 29.65146 25.54788 29.99728 26.38881 30.44722 26.91318 30.66418 27.43756 30.88115 28.27849 31.12527 28.80286 31.2153 29.32724 31.30536 30.16817 31.34575 30.69255 31.31331 31.21692 31.28088 32.05785 31.12874 32.58223 30.98155 33.1066 30.83435 33.94753 30.50458 34.47191 30.25232 34.99628 30.00008 35.83723 29.51 36.36159 29.16348 36.88596 28.81697 37.7269 28.18164 38.25125 27.7548 38.77562 27.32796 39.61656 26.57988 40.14096 26.08696 40.66533 25.59406 41.50626 24.74774 42.03064 24.20224 42.55501 23.65675 43.39594 22.73979 43.92032 22.15538 44.44469 21.57098 45.28563 20.5998 45.81 19.99013 46.33438 19.38045 47.17531 18.38208 47.69968 17.76123 48.22406 17.14037 49.06499 16.13858 49.58936 15.51538 50.11374 14.89217 50.95467 13.88652 51.47905 13.26955 52.00342 12.65256 52.84435 11.66753 53.36874 11.06848 53.89311 10.46942 54.73404 9.52693 55.25842 8.95198 55.7828 8.37703 56.62373 7.47365 57.1481 6.92451 57.67249 6.37535 58.51341 5.51186 59.03778 4.99403 59.56216 4.47621 60.40309 3.67459 60.92747 3.1924 61.45184 2.7102 62.29277 1.96655 62.81715 1.5186 63.34152 1.07062 64.18245 .37859 64.70683-.0363 65.23122-.4512 66.07214-1.09198 66.59651-1.47183 67.12091-1.85168 67.96184-2.42705 68.4862-2.77406 69.01059-3.12106 69.85152-3.65703 70.3759-3.97285 70.90027-4.28867 71.7412-4.76231 72.26558-5.05025 72.78995-5.33815 74.15526-6.04805 74.15526-6.04805"/>
<path transform="matrix(1.00002,0,0,-1.00006,102.873088,64.90617)" stroke-width=".44832" stroke-linecap="round" stroke-linejoin="round" fill="none" stroke="#b30000" stroke-opacity=".75" d="M-65.1973 11.00381C-65.1973 11.00381-63.83199 10.18944-63.30762 9.85278-62.78323 9.51613-61.9423 8.95065-61.41794 8.57742-60.89355 8.2042-60.05263 7.57436-59.52824 7.16277-59.00388 6.75116-58.16295 6.06369-57.63857 5.61081-57.1142 5.15794-56.27327 4.39728-55.74889 3.89873-55.2245 3.40016-54.38358 2.56113-53.8592 2.01749-53.33482 1.47388-52.4939 .5688-51.96951-.01938-51.44513-.60759-50.6042-1.59114-50.07982-2.22192-49.55545-2.85274-48.71452-3.89465-48.19014-4.56575-47.66577-5.23686-46.82484-6.35085-46.30046-7.0588-45.77608-7.76675-44.93515-8.93193-44.41078-9.66824-43.8864-10.40456-43.04547-11.60818-42.5211-12.36574-41.99672-13.1233-41.15579-14.36128-40.63141-15.12837-40.10704-15.8955-39.26611-17.12915-38.74171-17.89452-38.21735-18.65988-37.37642-19.89496-36.85204-20.64473-36.32765-21.39452-35.48672-22.58188-34.96236-23.29845-34.43797-24.01503-33.59705-25.14113-33.07268-25.8094-32.5483-26.47768-31.70737-27.51456-31.18298-28.11491-30.65862-28.71527-29.81769-29.62108-29.2933-30.13643-28.76894-30.65176-27.92801-31.41696-27.40363-31.82913-26.87924-32.24129-26.03831-32.81534-25.51393-33.10698-24.98955-33.39865-24.14862-33.77365-23.62425-33.9312-23.09987-34.08876-22.25894-34.23322-21.73456-34.2426-21.21019-34.25197-20.36926-34.14696-19.84488-33.99887-19.32051-33.85077-18.47958-33.48659-17.9552-33.17514-17.43082-32.86368-16.58989-32.2303-16.06552-31.75403-15.54114-31.27776-14.70021-30.38135-14.17584-29.74248-13.65146-29.1036-12.81053-27.94429-12.28615-27.14944-11.76176-26.3546-10.92084-24.95226-10.39645-24.01373-9.87209-23.07521-9.03116-21.45157-8.50677-20.38509-7.9824-19.3186-7.14146-17.5011-6.6171-16.32716-6.09271-15.1532-5.25179-13.1819-4.72742-11.92404-4.20303-10.66617-3.3621-8.57669-2.83774-7.26126-2.31335-5.94583-1.47241-3.78741-.94804-2.44327-.42369-1.09914 .41722 1.08197 .94159 2.42636 1.46594 3.77078 2.30693 5.93091 2.83127 7.24634 3.35564 8.56177 4.1966 10.64911 4.72093 11.9071 5.2453 13.16512 6.08626 15.13908 6.61063 16.31323 7.13501 17.4874 7.97594 19.30298 8.50032 20.36967 9.02469 21.43636 9.86562 23.06212 10.39 24.00128 10.91437 24.94044 11.7553 26.3433 12.27968 27.1385 12.80406 27.9337 13.64499 29.0927 14.16936 29.73253 14.69374 30.37236 15.53467 31.27328 16.05904 31.75005 16.58342 32.2268 17.42435 32.8566 17.94873 33.16867 18.47311 33.48074 19.31404 33.8502 19.83842 33.99936 20.3628 34.14848 21.20372 34.2525 21.7281 34.24359 22.25249 34.2347 23.09341 34.09184 23.61778 33.93518 24.14217 33.77853 24.9831 33.40646 25.50746 33.11446 26.03185 32.82245 26.87277 32.2425 27.39716 31.83061 27.92152 31.41875 28.76245 30.66086 29.28683 30.14587 29.8112 29.63089 30.65213 28.71864 31.17651 28.11891 31.7009 27.51917 32.54182 26.49002 33.06621 25.82333 33.59059 25.15665 34.43152 24.03122 34.95589 23.31387 35.48027 22.59653 36.3212 21.40392 36.84558 20.65318 37.36995 19.90245 38.21088 18.66835 38.73526 17.90298 39.25963 17.1376 40.10056 15.9038 40.62494 15.13684 41.14932 14.36989 41.99025 13.13408 42.51462 12.37518 43.039 11.6163 43.87993 10.40503 44.4043 9.66727 44.92868 8.9295 45.7696 7.76375 46.294 7.0578 46.81837 6.35185 47.6593 5.25008 48.18369 4.57918 48.70805 3.90828 49.54898 2.85527 50.07336 2.22243 50.59775 1.58957 51.43867 .60616 51.96304 .01788 52.48743-.57036 53.32835-1.47664 53.85272-2.01749 54.3771-2.55836 55.21803-3.38382 55.74242-3.88031 56.26678-4.37682 57.10771-5.14049 57.6321-5.5959 58.15646-6.05133 58.99739-6.7493 59.52179-7.16277 60.04616-7.57623 60.8871-8.20291 61.41147-8.57591 61.93585-8.94894 62.77678-9.51443 63.30115-9.8513 63.82553-10.18816 65.19083-11.00381 65.19083-11.00381"/>
<path transform="matrix(1.00002,0,0,-1.00006,102.873088,64.90617)" stroke-width=".44832" stroke-linecap="round" stroke-linejoin="round" fill="none" stroke="#b30000" stroke-opacity=".75" d="M-74.16173 6.04805C-74.16173 6.04805-72.79642 5.33795-72.27203 5.05025-71.74767 4.76251-70.90674 4.28995-70.38235 3.97433-69.85797 3.65872-69.01704 3.12263-68.49268 2.77556-67.96829 2.4285-67.12737 1.85289-66.603 1.47282-66.07861 1.09276-65.23769 .45113-64.7133 .0363-64.18893-.37851-63.348-1.06914-62.82362-1.51709-62.29926-1.96504-61.45833-2.70999-60.93394-3.1924-60.40956-3.67479-59.56863-4.4783-59.04425-4.99403-58.51987-5.50977-57.67894-6.36238-57.15457-6.90959-56.63019-7.4568-55.78926-8.36087-55.26488-8.93803-54.74051-9.51521-53.89958-10.46986-53.3752-11.06947-52.85083-11.66908-52.0099-12.6439-51.48552-13.25958-50.96115-13.87527-50.12021-14.8835-49.59584-15.50693-49.07146-16.13034-48.23053-17.1317-47.70616-17.75276-47.18178-18.37383-46.34085-19.37329-45.81647-19.98317-45.29208-20.59305-44.45116-21.56387-43.92677-22.14842-43.4024-22.73297-42.56148-23.65039-42.0371-24.19629-41.51273-24.74219-40.67178-25.58966-40.14742-26.08298-39.62303-26.5763-38.7821-27.32571-38.25774-27.75182-37.73335-28.1779-36.89243-28.80804-36.36806-29.15402-35.84367-29.5-35.00275-29.9918-34.47836-30.24536-33.954-30.49893-33.11307-30.83296-32.58867-30.98155-32.0643-31.13011-31.22337-31.28372-30.69899-31.3163-30.1746-31.34886-29.33366-31.30615-28.80931-31.21631-28.28494-31.12646-27.444-30.88564-26.91965-30.66866-26.39528-30.4517-25.55434-29.99814-25.02995-29.65244-24.50558-29.30675-23.66466-28.64943-23.14027-28.17711-22.6159-27.70476-21.77498-26.84143-21.2506-26.24812-20.72621-25.6548-19.88528-24.60608-19.36092-23.90082-18.83653-23.19556-17.9956-21.97023-17.47124-21.16504-16.94684-20.35983-16.10591-18.98598-15.58153-18.09747-15.05716-17.20897-14.21623-15.71516-13.69185-14.76129-13.16748-13.80743-12.32655-12.22159-11.80217-11.22267-11.27779-10.22377-10.43686-8.58318-9.91249-7.5617-9.3881-6.5402-8.54718-4.8819-8.02281-3.86041-7.49843-2.83893-6.6575-1.19829-6.13312-.19945-5.60875 .79938-4.76782 2.38437-4.24344 3.33862-3.71906 4.2929-2.87813 5.78937-2.35374 6.67828-1.82936 7.5672-.98842 8.93996-.46407 9.74536 .06027 10.55075 .90121 11.7776 1.42557 12.48314 1.94994 13.18866 2.79088 14.23679 3.31526 14.83043 3.83963 15.4241 4.68056 16.2886 5.20494 16.7619 5.72931 17.23518 6.57024 17.89589 7.09462 18.24171 7.619 18.58754 8.45993 19.03749 8.9843 19.25446 9.50868 19.47144 10.34961 19.71553 10.87398 19.80559 11.39838 19.89565 12.2393 19.93602 12.76369 19.9036 13.28806 19.87117 14.12898 19.71901 14.65337 19.57181 15.17773 19.4246 16.01866 19.09485 16.54305 18.8426 17.06741 18.59035 17.90836 18.10028 18.43272 17.75375 18.9571 17.40724 19.79803 16.77193 20.3224 16.34506 20.84679 15.91823 21.68771 15.17015 22.21208 14.67725 22.73647 14.18434 23.5774 13.33801 24.10178 12.79251 24.62616 12.24702 25.46709 11.33006 25.99147 10.74565 26.51584 10.16124 27.35678 9.19008 27.88115 8.5804 28.40553 7.97072 29.24646 6.97235 29.77083 6.35149 30.29521 5.73062 31.13614 4.72884 31.6605 4.10564 32.18489 3.48244 33.02582 2.47679 33.5502 1.8598 34.07457 1.24283 34.9155 .25781 35.43988-.3412 35.96425-.94025 36.80518-1.88275 37.32956-2.45772 37.85394-3.03267 38.6949-3.93604 39.21925-4.48518 39.7436-5.03433 40.58456-5.89783 41.10892-6.41565 41.63327-6.93347 42.47423-7.73509 42.99861-8.21729 43.52298-8.6995 44.3639-9.44313 44.88829-9.89108 45.41266-10.33905 46.25359-11.03113 46.77797-11.44601 47.30235-11.86093 48.14328-12.50171 48.66765-12.88156 49.19203-13.26141 50.03296-13.83679 50.55733-14.18379 51.08171-14.53079 51.92264-15.06676 52.44702-15.38257 52.97139-15.6984 53.81232-16.17206 54.33672-16.45996 54.86108-16.74788 56.2264-17.45778 56.2264-17.45778"/>
<path transform="matrix(1.00002,0,0,-1.00006,102.873088,64.90617)" stroke-width=".44832" stroke-linecap="round" stroke-linejoin="round" fill="none" stroke="#b30000" stroke-opacity=".75" d="M-83.12666 1.70563C-83.12666 1.70563-81.76135 1.21606-81.23698 1.02069-80.7126 .8253-79.87167 .50763-79.34729 .29742-78.82292 .08722-77.982-.26903-77.45761-.49442-76.93324-.7198-76.09232-1.08788-75.56792-1.32707-75.04353-1.56627-74.2026-1.96152-73.67824-2.21846-73.15385-2.47539-72.31293-2.90665-71.78856-3.17897-71.26418-3.45128-70.42325-3.89291-69.89886-4.18124-69.3745-4.46959-68.53357-4.95206-68.00919-5.25717-67.48482-5.56229-66.64389-6.0604-66.1195-6.38034-65.59512-6.70029-64.7542-7.22888-64.22983-7.56317-63.70544-7.89746-62.86452-8.44565-62.34013-8.78983-61.81575-9.13399-60.97482-9.69244-60.45044-10.04381-59.92607-10.39516-59.08514-10.96661-58.56076-11.32217-58.03639-11.6777-57.19547-12.25314-56.67108-12.60649-56.14671-12.95984-55.30577-13.52089-54.7814-13.86894-54.25702-14.21698-53.41609-14.77713-52.89172-15.11496-52.36734-15.45279-51.52641-15.98509-51.00203-16.30379-50.47766-16.62247-49.63673-17.11852-49.11235-17.41203-48.58797-17.70554-47.74704-18.15698-47.22266-18.4193-46.69829-18.68161-45.85735-19.07834-45.33298-19.3027-44.8086-19.52707-43.96767-19.85606-43.4433-20.03638-42.91891-20.2167-42.07799-20.47142-41.55362-20.60246-41.02924-20.7335-40.18831-20.90453-39.66393-20.98099-39.13956-21.05745-38.29863-21.13489-37.77425-21.15358-37.24988-21.17227-36.40895-21.15726-35.88457-21.11578-35.36017-21.07431-34.51924-20.95683-33.99487-20.85464-33.47049-20.75244-32.62956-20.54129-32.1052-20.3791-31.58081-20.21692-30.73988-19.90529-30.2155-19.6857-29.69113-19.46611-28.8502-19.06859-28.32582-18.79634-27.80145-18.5241-26.96053-18.04282-26.43614-17.7234-25.91176-17.404-25.07082-16.85287-24.54646-16.4943-24.0221-16.1357-23.18115-15.52843-22.6568-15.13884-22.13243-14.74924-21.29149-14.09743-20.7671-13.68639-20.24272-13.27534-19.4018-12.5977-18.87741-12.17621-18.35304-11.75475-17.51212-11.07013-16.98773-10.64867-16.46335-10.22719-15.62242-9.54947-15.09805-9.13849-14.57367-8.72752-13.73274-8.07634-13.20837-7.68655-12.68399-7.29677-11.84306-6.68817-11.31868-6.32909-10.79431-5.97-9.95338-5.4179-9.429-5.0985-8.90463-4.77908-8.0637-4.29945-7.53932-4.02705-7.01494-3.75467-6.174-3.35478-5.64963-3.1352-5.12524-2.91559-4.28432-2.60686-3.75995-2.44427-3.23557-2.2817-2.39462-2.06561-1.87025-1.96327-1.3459-1.86093-.50496-1.74829 .01938-1.70662 .54373-1.66493 1.38467-1.64484 1.90906-1.66283 2.43344-1.68085 3.27437-1.76018 3.79874-1.83644 4.32312-1.91269 5.16405-2.0817 5.68842-2.21248 6.2128-2.34326 7.05373-2.59871 7.57811-2.77904 8.10248-2.95937 8.9434-3.28827 9.4678-3.51222 9.99217-3.73616 10.8331-4.13133 11.35748-4.39316 11.88185-4.65498 12.7228-5.10474 13.24716-5.39943 13.77155-5.6941 14.61247-6.19847 15.13684-6.5171 15.66122-6.83574 16.50215-7.35997 17.02652-7.696 17.5509-8.03201 18.39183-8.58984 18.91621-8.93904 19.44058-9.28825 20.28151-9.85797 20.8059-10.21292 21.33026-10.56786 22.1712-11.14177 22.69559-11.49725 23.21997-11.85274 24.0609-12.42375 24.58527-12.77512 25.10965-13.12646 25.95058-13.68535 26.47495-14.02959 26.99933-14.37383 27.84026-14.92206 28.36464-15.25623 28.889-15.5904 29.72993-16.11813 30.25432-16.43808 30.77869-16.75801 31.61961-17.2572 32.144-17.56226 32.66838-17.86731 33.50931-18.34854 34.03368-18.63666 34.55806-18.92479 35.39899-19.36664 35.92337-19.63896 36.44775-19.91129 37.28868-20.34245 37.81306-20.59946 38.33743-20.85648 39.17836-21.25215 39.70274-21.49133 40.22711-21.73053 41.06804-22.09818 41.59242-22.3235 42.1168-22.54883 42.95773-22.90553 43.4821-23.11539 44.00648-23.32527 44.84743-23.64058 45.37178-23.83615 45.89615-24.03172 47.26146-24.52507 47.26146-24.52507"/>
<path transform="matrix(1.00002,0,0,-1.00006,102.873088,64.90617)" stroke-width=".44832" stroke-linecap="round" stroke-linejoin="round" fill="none" stroke="#b30000" stroke-opacity=".75" d="M-92.09108-3.12177C-92.09108-3.12177-90.72578-3.47394-90.2014-3.61272-89.67703-3.7515-88.83609-3.979-88.31172-4.12206-87.78734-4.26512-86.94641-4.49712-86.42204-4.64384-85.89766-4.79057-85.05673-5.02892-84.53236-5.17957-84.00798-5.33023-83.16705-5.57423-82.64265-5.72972-82.11829-5.88521-81.27736-6.1398-80.75298-6.30025-80.2286-6.4607-79.38768-6.72209-78.8633-6.8862-78.33891-7.05031-77.49799-7.31422-76.97362-7.48311-76.44923-7.65198-75.6083-7.92879-75.08394-8.10338-74.55956-8.27797-73.71863-8.56421-73.19424-8.74158-72.66988-8.91891-71.82895-9.20099-71.30457-9.38174-70.7802-9.5625-69.93927-9.86128-69.41487-10.04431-68.89049-10.22733-68.04956-10.51718-67.52519-10.70088-67.00081-10.88458-66.15988-11.18408-65.63551-11.36842-65.11113-11.55275-64.2702-11.84723-63.74582-12.02948-63.22145-12.21176-62.38052-12.50314-61.85614-12.68211-61.33177-12.86105-60.49084-13.14497-59.96646-13.31929-59.44208-13.4936-58.60114-13.77148-58.07678-13.93857-57.55241-14.10564-56.71147-14.36688-56.18712-14.52354-55.66275-14.68019-54.82181-14.92119-54.29741-15.0677-53.77304-15.21422-52.93211-15.44504-52.40773-15.57954-51.88336-15.71405-51.04243-15.91771-50.51805-16.03717-49.99367-16.15662-49.15274-16.33644-48.62837-16.44058-48.10399-16.54472-47.26306-16.69972-46.7387-16.78778-46.21431-16.87582-45.37338-17.00475-44.849-17.07527-44.32463-17.14578-43.4837-17.24313-42.95932-17.29611-42.43495-17.3491-41.59402-17.42142-41.06964-17.45729-40.54524-17.49316-39.70432-17.53513-39.17995-17.55478-38.65556-17.57445-37.81464-17.59457-37.29027-17.59904-36.76588-17.60353-35.92496-17.59636-35.40057-17.58711-34.8762-17.57785-34.03528-17.55283-33.5109-17.5324-32.98653-17.51198-32.1456-17.46933-31.62122-17.43988-31.09685-17.41042-30.2559-17.35541-29.73154-17.32-29.20715-17.28459-28.36623-17.22293-27.84186-17.18471-27.31746-17.14647-26.47653-17.08272-25.95216-17.04443-25.42778-17.00613-24.58685-16.94398-24.06247-16.90865-23.5381-16.87332-22.69717-16.81892-22.17279-16.78975-21.64842-16.76057-20.80748-16.7185-20.28311-16.69823-19.75873-16.67795-18.9178-16.65276-18.39343-16.64351-17.86905-16.63428-17.02812-16.6273-16.50375-16.63156-15.97937-16.63583-15.13844-16.6549-14.61406-16.67435-14.08968-16.6938-13.24875-16.73598-12.72437-16.77185-12.2-16.80772-11.35907-16.88002-10.83469-16.93301-10.3103-16.986-9.46938-17.08336-8.945-17.15387-8.42062-17.2244-7.5797-17.35323-7.05533-17.44136-6.53094-17.52948-5.69002-17.68513-5.16563-17.78908-4.64127-17.89299-3.80034-18.0713-3.27596-18.19048-2.75159-18.30965-1.91063-18.51457-1.38628-18.6481-.86191-18.78165-.02095-19.00647 .50336-19.15298 1.02773-19.2995 1.86867-19.54642 2.39305-19.70412 2.91743-19.8618 3.75836-20.1225 4.28275-20.28957 4.80711-20.45665 5.64804-20.73392 6.17242-20.90837 6.6968-21.08281 7.53772-21.36809 8.0621-21.54703 8.58649-21.726 9.42741-22.0159 9.95178-22.19817 10.47617-22.38043 11.31711-22.67776 11.84146-22.86072 12.36583-23.04367 13.20677-23.3333 13.73114-23.5168 14.2555-23.70032 15.09644-23.99873 15.62082-24.18335 16.14519-24.36795 16.98611-24.66664 17.51051-24.8474 18.0349-25.02814 18.87582-25.30887 19.40019-25.4861 19.92458-25.6633 20.7655-25.95016 21.28987-26.12476 21.81425-26.29935 22.65518-26.5761 23.17957-26.74454 23.70393-26.913 24.54486-27.17485 25.06924-27.33896 25.59361-27.50307 26.43454-27.76703 26.95892-27.92741 27.4833-28.08778 28.32423-28.33939 28.8486-28.49495 29.37299-28.65051 30.21391-28.8975 30.7383-29.04857 31.26268-29.19963 32.1036-29.43715 32.62799-29.58379 33.15236-29.73042 33.99329-29.96292 34.51767-30.10558 35.04204-30.24823 35.88297-30.47296 36.40735-30.61195 36.93172-30.75093 38.29703-31.10738 38.29703-31.10738"/>
<path transform="matrix(1.00002,0,0,-1.00006,102.873088,64.90617)" stroke-width=".44832" stroke-linecap="round" stroke-linejoin="round" fill="none" stroke="#b30000" stroke-opacity=".75" d="M-101.05603-8.53413C-101.05603-8.53413-99.69072-8.84424-99.16632-8.9639-98.64195-9.08357-97.80103-9.27666-97.27664-9.39665-96.75227-9.51668-95.91135-9.70837-95.38696-9.82892-94.8626-9.94948-94.02165-10.14392-93.49728-10.26564-92.9729-10.38737-92.13197-10.58385-91.6076-10.70634-91.08322-10.82884-90.2423-11.02545-89.71793-11.14856-89.19354-11.27168-88.35262-11.46965-87.82823-11.59375-87.30386-11.71785-86.46294-11.91809-85.93854-12.04292-85.41417-12.16776-84.57324-12.36816-84.04886-12.49358-83.52448-12.61897-82.68355-12.82059-82.15918-12.94673-81.6348-13.07289-80.79387-13.2761-80.2695-13.40286-79.74512-13.52962-78.90419-13.73329-78.3798-13.86047-77.85544-13.98766-77.01451-14.19212-76.49013-14.31958-75.96576-14.44705-75.12483-14.65195-74.60045-14.77919-74.07607-14.90645-73.23514-15.11005-72.71077-15.23683-72.18637-15.36362-71.34544-15.56653-70.82108-15.69295-70.29669-15.81938-69.45576-16.02242-68.93138-16.14809-68.40701-16.27374-67.56609-16.47455-67.0417-16.59875-66.51733-16.72298-65.6764-16.92079-65.15202-17.04343-64.62764-17.16606-63.78671-17.36209-63.26234-17.48267-62.73796-17.60321-61.89703-17.79414-61.37267-17.91243-60.84828-18.03072-60.00735-18.21921-59.48297-18.33522-58.95859-18.45125-58.11766-18.6352-57.59328-18.74858-57.06891-18.86197-56.22798-19.04185-55.7036-19.15248-55.17921-19.26312-54.33829-19.43849-53.81392-19.54593-53.28954-19.65338-52.4486-19.82236-51.92424-19.92696-51.39987-20.03159-50.55893-20.19836-50.03456-20.30002-49.51021-20.40167-48.66927-20.56097-48.14488-20.65967-47.62051-20.75835-46.77959-20.91493-46.2552-21.01134-45.73082-21.10773-44.8899-21.26082-44.36552-21.35455-43.84113-21.44827-43.0002-21.59499-42.47583-21.68683-41.95145-21.77869-41.11052-21.92621-40.58614-22.0166-40.06177-22.10701-39.22084-22.24942-38.69646-22.33844-38.17209-22.42746-37.33116-22.5694-36.80678-22.65826-36.28241-22.74715-35.44147-22.89023-34.9171-22.97911-34.39272-23.068-33.55179-23.20964-33.02742-23.29893-32.50304-23.38823-31.66211-23.53236-31.13773-23.62277-30.61336-23.71317-29.77243-23.85898-29.24803-23.95056-28.72366-24.04213-27.88274-24.18912-27.35835-24.28284-26.83398-24.37656-25.99304-24.52945-25.46867-24.62605-24.94429-24.72266-24.10336-24.88031-23.579-24.97922-23.05461-25.07811-22.21368-25.23741-21.68932-25.33885-21.16493-25.4403-20.324-25.60602-19.79962-25.71042-19.27525-25.81482-18.43433-25.98401-17.90994-26.09143-17.38557-26.19888-16.54465-26.37419-16.02025-26.4849-15.49586-26.5956-14.65494-26.77591-14.13057-26.8893-13.60619-27.00269-12.76526-27.1862-12.24089-27.30215-11.7165-27.41809-10.87558-27.60667-10.3512-27.72496-9.82683-27.84325-8.9859-28.03418-8.46152-28.15472-7.93715-28.27528-7.09622-28.47122-6.57184-28.59393-6.04745-28.71663-5.20653-28.91492-4.68216-29.03912-4.15778-29.16335-3.31685-29.36388-2.79247-29.48927-2.26808-29.61469-1.42714-29.8165-.90277-29.94292-.37842-30.06935 .4625-30.27338 .98686-30.40056 1.51122-30.52774 2.35216-30.73242 2.87654-30.85968 3.40092-30.98692 4.24185-31.19077 4.76622-31.3178 5.2906-31.44484 6.13153-31.64822 6.6559-31.7754 7.18028-31.90259 8.02121-32.10754 8.5456-32.23453 9.06996-32.3615 9.91089-32.56464 10.43527-32.69064 10.95964-32.81667 11.80057-33.01741 12.32495-33.1428 12.84935-33.26822 13.69028-33.46948 14.21465-33.59447 14.73903-33.71944 15.57997-33.91954 16.10432-34.04364 16.6287-34.16771 17.46964-34.3657 17.994-34.48882 18.51836-34.61194 19.3593-34.80844 19.88368-34.931 20.40805-35.05357 21.24898-35.25049 21.77336-35.37222 22.29774-35.49396 23.13867-35.68797 23.66304-35.80847 24.18742-35.92894 25.02835-36.12068 25.55272-36.2407 26.0771-36.36072 26.91803-36.55359 27.44241-36.67346 27.9668-36.79333 29.3321-37.10472 29.3321-37.10472"/>
<path transform="matrix(1.00002,0,0,-1.00006,102.873088,64.90617)" stroke-width=".3487" stroke-linecap="round" stroke-linejoin="round" fill="none" stroke="#730000" stroke-opacity=".55" d="M-29.33856 37.10472C-29.33856 37.10472-30.08975 36.61485-30.37817 36.42624-30.66656 36.23763-31.12888 35.93466-31.41727 35.7453-31.70566 35.55592-32.16846 35.25182-32.45686 35.06134-32.74527 34.87086-33.20757 34.5644-33.49597 34.37242-33.78436 34.18042-34.24716 33.87112-34.53555 33.67754-34.82397 33.48396-35.28625 33.17227-35.57468 32.97717-35.86307 32.78207-36.32587 32.46837-36.61426 32.27135-36.90268 32.07431-37.36496 31.75607-37.65338 31.55704-37.94177 31.35802-38.40459 31.0381-38.69298 30.83679-38.98138 30.63548-39.44366 30.31009-39.73207 30.10608-40.02048 29.90208-40.48329 29.57278-40.77168 29.36642-41.06009 29.1601-41.52237 28.82777-41.81078 28.6188-42.09918 28.40985-42.562 28.0724-42.85039 27.86024-43.13878 27.6481-43.60114 27.30466-43.88947 27.08975-44.17781 26.87485-44.64018 26.5284-44.92859 26.31131-45.21698 26.0942-45.67978 25.74467-45.96817 25.52487-46.25659 25.30508-46.71887 24.94966-47.00728 24.72704-47.29568 24.5044-47.75848 24.14511-48.04688 23.92021-48.33528 23.6953-48.79758 23.33272-49.08598 23.10594-49.37439 22.87917-49.83717 22.5129-50.12558 22.2857-50.41399 22.05853-50.87628 21.69641-51.16469 21.46846-51.4531 21.2405-51.91588 20.87186-52.20428 20.64273-52.49268 20.41362-52.95499 20.04623-53.2434 19.81703-53.5318 19.58784-53.99458 19.21994-54.28299 18.99081-54.57138 18.76172-55.03368 18.3924-55.32208 18.16562-55.61049 17.93884-56.07327 17.58047-56.36168 17.35632-56.65009 17.13216-57.11246 16.7714-57.40079 16.55-57.68913 16.3286-58.1515 15.97966-58.4399 15.76062-58.7283 15.54155-59.19109 15.18764-59.47949 14.9712-59.7679 14.75478-60.2302 14.40974-60.5186 14.20071-60.80699 13.99168-61.26979 13.66847-61.5582 13.46454-61.8466 13.2606-62.30888 12.92946-62.5973 12.73085-62.8857 12.53223-63.3485 12.22655-63.63689 12.03296-63.9253 11.83939-64.38766 11.52406-64.67601 11.33559-64.96434 11.14711-65.42677 10.85297-65.7151 10.67451-66.00343 10.49606-66.4658 10.22269-66.75421 10.04926-67.04262 9.87585-67.50542 9.59299-67.79381 9.42451-68.0822 9.25607-68.54451 8.99823-68.83292 8.83508-69.12132 8.67194-69.5841 8.4066-69.87251 8.24861-70.1609 8.09065-70.62328 7.84715-70.9116 7.6965-71.19995 7.54585-71.66231 7.31079-71.9507 7.16277-72.2391 7.01476-72.70192 6.77515-72.99031 6.62955-73.27873 6.48395-73.741 6.25613-74.0294 6.11322-74.31781 5.9703-74.78061 5.73969-75.06902 5.59938-75.35742 5.4591-75.8197 5.23985-76.10811 5.10197-76.39651 4.9641-76.85931 4.74342-77.14772 4.60555-77.43611 4.46765-77.8984 4.2461-78.18681 4.10814-78.4752 3.97018-78.93802 3.75026-79.22643 3.6112-79.51482 3.47215-79.9771 3.24573-80.26552 3.10583-80.55391 2.96594-81.01672 2.74326-81.30513 2.60297-81.59352 2.46266-82.0558 2.23677-82.34421 2.0946-82.63261 1.95242-83.09541 1.72313-83.38382 1.57828-83.67223 1.43341-84.13458 1.19772-84.42291 1.05052-84.71124 .90332-85.17361 .66682-85.46202 .51729-85.75041 .36774-86.21323 .1248-86.50163-.02733-86.79004-.1795-87.2523-.4242-87.54073-.57947-87.82912-.73476-88.29193-.9884-88.58034-1.14653-88.86873-1.30463-89.33101-1.55873-89.61943-1.71904-89.90782-1.87935-90.37064-2.1386-90.65903-2.30203-90.94743-2.46545-91.40971-2.73116-91.69814-2.89693-91.98653-3.06268-92.44934-3.32916-92.73773-3.49681-93.02614-3.66444-93.48842-3.93518-93.77681-4.10515-94.06523-4.27512-94.52803-4.54997-94.81644-4.72194-95.10484-4.8939-95.56712-5.17122-95.85551-5.34471-96.14394-5.5182-96.60674-5.79745-96.89514-5.97246-97.18353-6.14748-97.64589-6.42955-97.93422-6.60616-98.22256-6.78275-98.68492-7.06764-98.97334-7.24533-99.26173-7.42305-99.72453-7.70856-100.01292-7.88701-100.30135-8.06546-101.05203-8.53166-101.05203-8.53166"/>
<path transform="matrix(1.00002,0,0,-1.00006,102.873088,64.90617)" stroke-width=".3487" stroke-linecap="round" stroke-linejoin="round" fill="none" stroke="#730000" stroke-opacity=".55" d="M-13.03925 33.31393C-13.03925 33.31393-13.79044 32.79013-14.07883 32.58571-14.36725 32.38129-14.82954 32.04968-15.11795 31.84058-15.40634 31.63148-15.86914 31.29242-16.15753 31.07854-16.44595 30.86465-16.90823 30.51852-17.19666 30.29907-17.48505 30.07962-17.94785 29.72304-18.23624 29.49673-18.52466 29.27046-18.98694 28.9016-19.27536 28.66805-19.56375 28.43451-20.02655 28.05435-20.31494 27.81349-20.60335 27.57265-21.06564 27.18231-21.35405 26.93208-21.64246 26.68184-22.10526 26.27127-22.39365 26.00984-22.68204 25.74841-23.14435 25.31866-23.43275 25.04787-23.72116 24.77705-24.18394 24.34047-24.47235 24.058-24.76074 23.77553-25.22305 23.3058-25.51144 23.01195-25.79987 22.7181-26.26263 22.24525-26.55106 21.94-26.83945 21.63475-27.30182 21.13034-27.59015 20.81186-27.8785 20.49336-28.34085 19.97404-28.62926 19.64442-28.91766 19.31482-29.38045 18.77734-29.66885 18.4362-29.95726 18.09508-30.41956 17.53856-30.70796 17.18571-30.99637 16.83284-31.45915 16.25502-31.74756 15.89291-32.03596 15.5308-32.49826 14.9436-32.78667 14.57576-33.07507 14.20792-33.53786 13.61713-33.82626 13.24168-34.11465 12.86626-34.57697 12.25063-34.86537 11.8698-35.15376 11.489-35.61656 10.87811-35.90497 10.49696-36.19336 10.11578-36.65565 9.50383-36.94406 9.12259-37.23247 8.74136-37.69525 8.12833-37.98366 7.74924-38.27206 7.37012-38.73436 6.76198-39.02277 6.39027-39.31117 6.01857-39.77396 5.43266-40.06236 5.07013-40.35077 4.70761-40.81314 4.128-41.10147 3.77736-41.3898 3.4267-41.85214 2.87819-42.14056 2.54277-42.42896 2.20735-42.89177 1.67668-43.18018 1.3599-43.46858 1.04312-43.93085 .55522-44.21927 .25963-44.50766-.03593-44.97047-.496-45.25887-.77048-45.54727-1.04495-46.00957-1.46852-46.29799-1.71857-46.58638-1.96858-47.04918-2.34908-47.33757-2.5726-47.62598-2.79614-48.08835-3.1329-48.37668-3.32968-48.66501-3.52644-49.12744-3.82056-49.41577-3.99075-49.7041-4.16093-50.16647-4.41284-50.45488-4.55632-50.74329-4.69978-51.20607-4.90784-51.49448-5.02487-51.78287-5.1419-52.24518-5.30731-52.53357-5.39992-52.82198-5.49251-53.28476-5.621-53.57318-5.6924-53.86157-5.76382-54.32394-5.86446-54.61227-5.91475-54.90062-5.96506-55.36298-6.02335-55.65138-6.05504-55.93979-6.0867-56.40257-6.12672-56.69098-6.14307-56.97939-6.15941-57.44168-6.16837-57.73009-6.17291-58.0185-6.17746-58.48128-6.18051-58.76968-6.1759-59.05807-6.17128-59.52039-6.15166-59.80879-6.13959-60.09718-6.12753-60.55998-6.103-60.84839-6.08885-61.13678-6.07472-61.59908-6.05168-61.8875-6.03761-62.17589-6.02353-62.63869-5.99944-62.92708-5.98737-63.21548-5.97531-63.67778-5.95891-63.96619-5.95056-64.2546-5.94223-64.71738-5.92966-65.00578-5.92719-65.29419-5.92468-65.75648-5.92769-66.04489-5.93266-66.3333-5.9376-66.79608-5.94879-67.08449-5.963-67.3729-5.97722-67.83527-6.00926-68.12358-6.03513-68.41193-6.061-68.87428-6.11208-69.1627-6.14954-69.4511-6.187-69.9139-6.25493-70.20229-6.3052-70.49069-6.35551-70.95299-6.4504-71.24141-6.51216-71.5298-6.57391-71.9926-6.67894-72.28099-6.75041-72.5694-6.8219-73.0317-6.94287-73.32011-7.02747-73.6085-7.11208-74.0713-7.26404-74.3597-7.36024-74.6481-7.45645-75.1104-7.6152-75.39879-7.72087-75.68721-7.82654-76.15-8.00461-76.4384-8.12178-76.72679-8.23897-77.1891-8.43935-77.4775-8.56549-77.76591-8.69164-78.22868-8.89775-78.5171-9.03108-78.8055-9.16438-79.2678-9.3857-79.5562-9.52647-79.84462-9.66727-80.30739-9.89838-80.59581-10.04579-80.8842-10.19319-81.34657-10.43578-81.6349-10.58897-81.92325-10.7422-82.3856-10.99187-82.67401-11.15005-82.96242-11.30823-83.4252-11.56639-83.71361-11.72905-84.002-11.8917-84.75272-12.32246-84.75272-12.32246"/>
<path transform="matrix(1.00002,0,0,-1.00006,102.873088,64.90617)" stroke-width=".3487" stroke-linecap="round" stroke-linejoin="round" fill="none" stroke="#730000" stroke-opacity=".55" d="M3.26004 29.37738C3.26004 29.37738 2.50885 28.78946 2.22046 28.55812 1.93204 28.3268 1.46976 27.95233 1.18134 27.71004 .89294 27.46773 .43015 27.06615 .14175 26.81169-.14664 26.55724-.6089 26.14322-.89731 25.87605-1.18571 25.60892-1.6485 25.16985-1.9369 24.88622-2.2253 24.60255-2.6876 24.13174-2.97601 23.83168-3.26442 23.53162-3.7272 23.0424-4.01561 22.72342-4.304 22.40445-4.76631 21.87326-5.05472 21.53261-5.34312 21.19196-5.80592 20.6316-6.09433 20.26819-6.38272 19.90477-6.84502 19.30197-7.1334 18.91322-7.42181 18.52448-7.88461 17.88033-8.17303 17.46625-8.46143 17.05215-8.9237 16.36925-9.21211 15.92873-9.50052 15.48822-9.96332 14.75978-10.25174 14.29123-10.54013 13.8227-11.00249 13.04703-11.29082 12.55177-11.57916 12.05652-12.04152 11.24484-12.32993 10.72177-12.61833 10.19872-13.08112 9.33273-13.36952 8.78186-13.65793 8.231-14.12022 7.3263-14.40863 6.7514-14.69702 6.17653-15.15982 5.23486-15.44823 4.63838-15.73662 4.04189-16.19891 3.0678-16.48734 2.45224-16.77573 1.8367-17.23853 .83266-17.52692 .20192-17.81532-.42876-18.27762-1.45288-18.56602-2.0936-18.85443-2.73433-19.31721-3.77013-19.60562-4.41603-19.89403-5.06195-20.35632-6.10423-20.64473-6.74892-20.93314-7.39359-21.39592-8.42554-21.68433-9.0624-21.97273-9.69925-22.43503-10.71732-22.72342-11.33907-23.01184-11.96082-23.47462-12.9432-23.76303-13.54362-24.05142-14.14404-24.5138-15.09543-24.80212-15.6666-25.09047-16.23776-25.55283-17.12468-25.84125-17.66023-26.12964-18.19579-26.59244-19.0326-26.88083-19.52654-27.16924-20.02048-27.63153-20.77449-27.91995-21.22023-28.20834-21.666-28.67114-22.34563-28.95953-22.73935-29.24794-23.13309-29.71024-23.7212-29.99863-24.058-30.28705-24.39479-30.74983-24.89063-31.03824-25.16675-31.32663-25.44286-31.789-25.83414-32.07733-26.04816-32.36568-26.26218-32.82813-26.5563-33.11646-26.70923-33.40477-26.86217-33.86716-27.05956-34.15555-27.15044-34.44395-27.24133-34.90674-27.33405-35.19516-27.36432-35.48355-27.39459-35.94585-27.39403-36.23425-27.3688-36.52266-27.34355-36.98544-27.26102-37.27385-27.18228-37.56226-27.10355-38.02463-26.9281-38.31296-26.80125-38.6013-26.67441-39.06363-26.43648-39.35205-26.268-39.64044-26.09955-40.10326-25.7912-40.39166-25.58707-40.68005-25.38292-41.14233-25.02998-41.43076-24.79666-41.71915-24.56332-42.18196-24.15996-42.47035-23.9053-42.75876-23.65063-43.22104-23.22987-43.50946-22.96121-43.79785-22.69254-44.26067-22.24641-44.54906-21.96884-44.83746-21.69128-45.29974-21.23941-45.58815-20.9606-45.87656-20.6818-46.33936-20.2332-46.62776-19.95929-46.91617-19.68538-47.37845-19.24985-47.66684-18.98636-47.95526-18.72285-48.41806-18.30849-48.70647-18.06015-48.99487-17.81184-49.45715-17.42735-49.74554-17.19666-50.03397-16.96593-50.49677-16.6053-50.78517-16.3973-51.07356-16.1893-51.53592-15.87988-51.82425-15.69743-52.1126-15.51497-52.57495-15.2392-52.86336-15.08212-53.15176-14.92505-53.61458-14.69485-53.90297-14.5653-54.19138-14.43579-54.65366-14.25-54.94206-14.14847-55.23047-14.04695-55.69328-13.90704-55.98167-13.83362-56.27008-13.7602-56.73236-13.66621-57.02075-13.61923-57.30917-13.57224-57.77196-13.5166-58.06038-13.49486-58.34877-13.47314-58.81107-13.45888-59.09946-13.46254-59.38788-13.46619-59.85066-13.49481-60.13908-13.52122-60.42747-13.54765-60.88977-13.60501-61.17816-13.65305-61.46657-13.70107-61.92937-13.80045-62.21779-13.86745-62.50618-13.93446-62.96846-14.05261-63.25687-14.13603-63.54527-14.21947-64.00807-14.36896-64.2965-14.46881-64.58488-14.56866-65.04724-14.74318-65.33557-14.8558-65.6239-14.96843-66.08627-15.15562-66.37468-15.2806-66.66309-15.40558-67.12587-15.62088-67.41428-15.75664-67.70267-15.89236-68.45337-16.259-68.45337-16.259"/>
<path transform="matrix(1.00002,0,0,-1.00006,102.873088,64.90617)" stroke-width=".3487" stroke-linecap="round" stroke-linejoin="round" fill="none" stroke="#730000" stroke-opacity=".55" d="M19.55936 25.75768C19.55936 25.75768 18.80817 25.16278 18.51978 24.92798 18.23135 24.6932 17.76907 24.31108 17.48065 24.06548 17.19226 23.81984 16.72946 23.41592 16.44107 23.15767 16.15268 22.89941 15.69037 22.47696 15.40196 22.20413 15.11356 21.93132 14.65077 21.48091 14.36237 21.19139 14.07397 20.90189 13.61166 20.42464 13.32326 20.11746 13.03485 19.81029 12.57207 19.30446 12.28366 18.9774 11.99527 18.65034 11.53296 18.10956 11.24457 17.76022 10.95615 17.41087 10.49338 16.83313 10.20496 16.45947 9.91656 16.08583 9.45425 15.46736 9.16586 15.06721 8.87746 14.66705 8.41467 14.00293 8.12625 13.57547 7.83786 13.14798 7.37556 12.44217 7.08716 11.9862 6.79875 11.53024 6.33597 10.77397 6.04756 10.28903 5.75916 9.80406 5.29678 9.0051 5.00845 8.49088 4.72011 7.97665 4.25775 7.12668 3.96935 6.58278 3.68094 6.03888 3.21815 5.14246 2.92975 4.57074 2.64136 3.99901 2.17905 3.05986 1.89064 2.46219 1.60225 1.86453 1.13945 .88431 .85106 .2631 .56265-.35806 .10037-1.37408-.188-2.01501-.47641-2.65594-.9392-3.69975-1.2276-4.35635-1.516-5.01295-1.9783-6.07951-2.26671-6.74742-2.55511-7.41534-3.0179-8.49709-3.3063-9.17033-3.59471-9.84358-4.057-10.92834-4.3454-11.59972-4.63382-12.27107-5.0966-13.34633-5.38501-14.0092-5.6734-14.6721-6.13571-15.73032-6.4241-16.3774-6.71252-17.02449-7.1753-18.04858-7.46371-18.67296-7.7521-19.29733-8.21448-20.28358-8.5028-20.87752-8.79114-21.47147-9.2535-22.39728-9.5419-22.95374-9.8303-23.51021-10.29312-24.3759-10.58151-24.8882-10.86992-25.4005-11.3322-26.18503-11.62059-26.64607-11.90901-27.10709-12.3718-27.8052-12.66022-28.21092-12.94861-28.61665-13.41092-29.22467-13.69931-29.57036-13.98773-29.91606-14.4505-30.42085-14.73892-30.70248-15.02731-30.98413-15.48969-31.38403-15.77802-31.60033-16.06636-31.8166-16.52876-32.11075-16.81711-32.26138-17.10544-32.41203-17.56781-32.60081-17.85622-32.68617-18.14462-32.77153-18.6074-32.85475-18.89581-32.87671-19.18422-32.89864-19.64651-32.88245-19.93492-32.84436-20.22333-32.80626-20.68611-32.69589-20.97452-32.60213-21.26292-32.50835-21.7253-32.31358-22.01361-32.16837-22.30194-32.02316-22.76431-31.74506-23.05273-31.55554-23.34113-31.36604-23.80392-31.02861-24.09232-30.80247-24.38072-30.57632-24.84302-30.18279-25.13144-29.9255-25.41983-29.66823-25.88263-29.22885-26.17102-28.9481-26.45943-28.66736-26.92172-28.19797-27.21013-27.90204-27.49854-27.6061-27.96132-27.11938-28.24973-26.81517-28.53812-26.51097-29.00043-26.01494-29.28882-25.70943-29.57724-25.4039-30.04001-24.91347-30.32843-24.61311-30.61682-24.31277-31.07913-23.83481-31.36752-23.54468-31.65594-23.25453-32.11871-22.79623-32.40714-22.52199-32.69553-22.24773-33.15784-21.82204-33.44623-21.56792-33.73463-21.31381-34.19742-20.92128-34.48584-20.69049-34.77423-20.45972-35.2366-20.10927-35.52493-19.90457-35.81326-19.69987-36.27563-19.39197-36.56404-19.21515-36.85245-19.03835-37.31523-18.77734-37.60364-18.6302-37.89203-18.48308-38.35434-18.2726-38.64273-18.15466-38.93115-18.03674-39.39392-17.86955-39.68234-17.78012-39.97073-17.69067-40.43304-17.57033-40.72144-17.51001-41.00986-17.4497-41.47263-17.37772-41.76105-17.34537-42.04944-17.313-42.51175-17.28389-42.80014-17.27673-43.08855-17.26956-43.55133-17.27666-43.83974-17.29364-44.12814-17.31062-44.59044-17.35915-44.87885-17.3991-45.16725-17.43903-45.63004-17.52174-45.91844-17.58165-46.20685-17.64154-46.66914-17.7533-46.95755-17.83086-47.24594-17.90843-47.70874-18.04655-47.99713-18.14075-48.28555-18.23494-48.74792-18.401-49.03625-18.50981-49.32457-18.61865-49.78694-18.8037-50.07535-18.92517-50.36375-19.04663-50.82654-19.25299-51.11494-19.38528-51.40335-19.51756-52.15405-19.87871-52.15405-19.87871"/>
<path transform="matrix(1.00002,0,0,-1.00006,102.873088,64.90617)" stroke-width=".3487" stroke-linecap="round" stroke-linejoin="round" fill="none" stroke="#730000" stroke-opacity=".55" d="M35.8587 22.81944C35.8587 22.81944 35.10751 22.34145 34.8191 22.15787 34.53072 21.97429 34.0684 21.67989 33.78 21.4963 33.4916 21.31273 33.02881 21.01825 32.7404 20.83475 32.45201 20.65123 31.9897 20.35718 31.7013 20.17368 31.41289 19.99017 30.9501 19.6957 30.6617 19.51212 30.3733 19.32854 29.91101 19.03406 29.6226 18.85056 29.3342 18.66704 28.87141 18.37299 28.58301 18.18948 28.2946 18.00598 27.8323 17.7115 27.5439 17.52792 27.2555 17.34435 26.7927 17.04987 26.50427 16.86636 26.21588 16.68285 25.7536 16.3888 25.4652 16.20529 25.17679 16.02179 24.71399 15.72731 24.42558 15.54373 24.13718 15.36015 23.6749 15.06567 23.38649 14.88217 23.0981 14.69865 22.63528 14.4046 22.34688 14.2211 22.05847 14.03758 21.59612 13.74312 21.3078 13.55954 21.01947 13.37596 20.5571 13.08148 20.26868 12.89798 19.98029 12.71446 19.51749 12.42041 19.2291 12.23691 18.94069 12.05338 18.4784 11.75893 18.18999 11.57535 17.90158 11.39177 17.4388 11.09729 17.15039 10.91379 16.86198 10.73027 16.39969 10.43622 16.11128 10.2527 15.82288 10.06918 15.36009 9.77473 15.07169 9.59116 14.78328 9.40756 14.32098 9.1131 14.0326 8.9296 13.74417 8.74606 13.2814 8.45201 12.99298 8.26851 12.70459 8.08499 12.24228 7.79054 11.95389 7.60695 11.66547 7.42337 11.2027 7.1289 10.91428 6.94539 10.62589 6.76187 10.16357 6.46782 9.87518 6.28432 9.58678 6.1008 9.124 5.80634 8.83559 5.62276 8.54718 5.43918 8.08481 5.1447 7.79648 4.9612 7.50815 4.77768 7.04578 4.48363 6.75739 4.30013 6.46896 4.11661 6.0062 3.82214 5.71777 3.63857 5.42938 3.45499 4.96707 3.1605 4.67868 2.977 4.39026 2.79349 3.92749 2.49944 3.63907 2.31593 3.35068 2.13242 2.88837 1.83795 2.59998 1.65437 2.31155 1.4708 1.84879 1.17632 1.56036 .99281 1.27197 .8093 .8096 .51517 .52127 .33174 .23293 .14832-.22945-.14577-.51779-.32927-.80612-.51276-1.2685-.80731-1.5569-.99083-1.8453-1.17433-2.30809-1.46838-2.5965-1.6519-2.88489-1.8354-3.3472-2.12988-3.63559-2.31346-3.924-2.49704-4.38678-2.7915-4.67519-2.97502-4.9636-3.15852-5.42596-3.45258-5.7143-3.6361-6.00262-3.8196-6.46498-4.11407-6.75339-4.29765-7.0418-4.48123-7.50461-4.7757-7.793-4.95921-8.0814-5.14272-8.54369-5.43677-8.83208-5.62029-9.1205-5.80379-9.5833-6.09827-9.8717-6.28185-10.1601-6.46542-10.62239-6.75989-10.91078-6.9434-11.1992-7.1269-11.66199-7.42096-11.95041-7.60448-12.2388-7.78798-12.7011-8.08246-12.98949-8.26604-13.27791-8.44962-13.74069-8.74408-14.02911-8.9276-14.3175-9.1111-14.77979-9.40515-15.06819-9.58867-15.35658-9.77217-15.8194-10.06665-16.10782-10.25023-16.39621-10.4338-16.85849-10.72821-17.1469-10.91179-17.43529-11.09537-17.8981-11.38983-18.18651-11.57335-18.47491-11.75685-18.93727-12.0509-19.2256-12.23442-19.51393-12.41792-19.9763-12.7124-20.2647-12.89598-20.5531-13.07956-21.0159-13.37402-21.30432-13.55754-21.59271-13.74104-22.055-14.0351-22.3434-14.21861-22.6318-14.40211-23.0946-14.6966-23.38303-14.88017-23.67142-15.06375-24.1337-15.35822-24.4221-15.54173-24.71051-15.72523-25.17331-16.01929-25.46172-16.2028-25.75012-16.3863-26.2124-16.68079-26.50081-16.86436-26.78922-17.04794-27.25201-17.3424-27.54042-17.52592-27.82883-17.70943-28.2911-18.00348-28.57951-18.187-28.8679-18.3705-29.33072-18.66498-29.61911-18.84856-29.90753-19.03214-30.36981-19.3266-30.6582-19.51012-30.94661-19.69362-31.40942-19.98767-31.69781-20.17119-31.98624-20.35469-32.44856-20.64917-32.73691-20.83275-33.02524-21.01633-33.48761-21.31079-33.77602-21.49431-34.06442-21.67781-34.5272-21.97186-34.81561-22.15538-35.10402-22.33888-35.8547-22.81694-35.8547-22.81694"/>
<path transform="matrix(1.00002,0,0,-1.00006,102.873088,64.90617)" stroke-width=".3487" stroke-linecap="round" stroke-linejoin="round" fill="none" stroke="#730000" stroke-opacity=".55" d="M52.15802 19.8812C52.15802 19.8812 51.40683 19.52013 51.11842 19.38776 50.83003 19.2554 50.36772 19.04868 50.07932 18.92715 49.79092 18.80565 49.32813 18.62057 49.03972 18.51183 48.75133 18.40305 48.28903 18.23741 48.00063 18.14322 47.71222 18.04903 47.24944 17.91048 46.96103 17.83284 46.67262 17.7552 46.21033 17.64345 45.92192 17.58363 45.63351 17.52382 45.17073 17.44153 44.88232 17.40158 44.59392 17.36162 44.13162 17.31343 43.84322 17.29564 43.55481 17.27783 43.09203 17.26663 42.80362 17.27324 42.51521 17.27985 42.05292 17.31024 41.76451 17.34338 41.47612 17.37651 41.01332 17.45169 40.72491 17.51201 40.43651 17.57233 39.97421 17.68916 39.68582 17.77812 39.39742 17.86708 38.93463 18.03523 38.64622 18.15317 38.35782 18.2711 37.89545 18.48114 37.60712 18.6282 37.31879 18.77527 36.85641 19.03627 36.56801 19.21317 36.2796 19.39006 35.81682 19.69838 35.52841 19.90308 35.24 20.10779 34.77771 20.45801 34.48932 20.6885 34.2009 20.919 33.73811 21.31027 33.4497 21.56445 33.16132 21.81862 32.699 22.24657 32.41061 22.52048 32.1222 22.79439 31.65942 23.24925 31.371 23.5387 31.08261 23.82814 30.6203 24.30574 30.33191 24.60664 30.04349 24.90755 29.58072 25.4012 29.2923 25.70743 29.0039 26.01364 28.5416 26.50948 28.2532 26.81369 27.9648 27.11789 27.50201 27.60417 27.21361 27.90004 26.9252 28.1959 26.46289 28.66605 26.1745 28.9461 25.88611 29.22618 25.42331 29.66133 25.1349 29.91855 24.8465 30.17577 24.38414 30.57306 24.0958 30.79997 23.80746 31.0269 23.34511 31.36462 23.05672 31.55408 22.76831 31.7435 22.30551 32.02023 22.01709 32.16539 21.7287 32.31052 21.26642 32.50613 20.97801 32.60013 20.6896 32.6941 20.2268 32.80415 19.93839 32.84286 19.65 32.88156 19.1877 32.90063 18.89929 32.87918 18.61089 32.85773 18.1481 32.77354 17.8597 32.68817 17.57129 32.60281 17.10892 32.41447 16.82059 32.26389 16.53226 32.1133 16.06984 31.81917 15.7815 31.60281 15.49316 31.38646 15.03079 30.98611 14.7424 30.70447 14.454 30.42284 13.99121 29.91791 13.7028 29.57285 13.4144 29.22778 12.95209 28.62265 12.6637 28.2174 12.37529 27.81215 11.9125 27.11284 11.6241 26.65202 11.3357 26.19121 10.87332 25.40839 10.58499 24.89615 10.29666 24.38393 9.83429 23.51688 9.5459 22.9602 9.25748 22.40355 8.7947 21.47717 8.50629 20.88399 8.2179 20.2908 7.75558 19.3092 7.4672 18.6849 7.17877 18.0606 6.716 17.03226 6.42758 16.38435 6.13919 15.73643 5.67688 14.67813 5.38849 14.01517 5.10007 13.3522 4.6373 12.27742 4.34888 11.60617 4.06049 10.93494 3.59818 9.84999 3.30978 9.1773 3.02138 8.50464 2.5586 7.42523 2.27019 6.75786 1.98178 6.0905 1.51949 5.02444 1.23108 4.3673 .94269 3.71014 .47989 2.66289 .1915 2.02145-.0969 1.38005-.55917 .36559-.84758-.25565-1.13597-.8769-1.59877-1.8584-1.88716-2.4562-2.17558-3.05403-2.63794-3.99255-2.92628-4.56427-3.2146-5.13599-3.67697-6.03284-3.96538-6.57683-4.25378-7.1208-4.71657-7.97073-5.00497-8.48488-5.29338-8.99905-5.75568-9.79759-6.04408-10.28256-6.33249-10.76753-6.79527-11.52364-7.08368-11.98024-7.37209-12.43684-7.83438-13.14613-8.12279-13.57346-8.41118-14.00081-8.87398-14.66086-9.16238-15.06024-9.45079-15.45961-9.91309-16.07768-10.20148-16.45201-10.48988-16.82635-10.95268-17.40819-11.24107-17.75822-11.52948-18.10828-11.99179-18.64784-12.28018-18.9749-12.56859-19.30196-13.03137-19.80823-13.31978-20.11548-13.60818-20.42273-14.07048-20.89998-14.35889-21.1894-14.6473-21.47884-15.11008-21.92883-15.39848-22.20164-15.68689-22.47444-16.14925-22.89738-16.43759-23.15569-16.72592-23.41402-17.1883-23.81792-17.47668-24.06348-17.7651-24.30904-18.22789-24.69077-18.5163-24.92549-18.80469-25.1602-19.55539-25.75519-19.55539-25.75519"/>
<path transform="matrix(1.00002,0,0,-1.00006,102.873088,64.90617)" stroke-width=".3487" stroke-linecap="round" stroke-linejoin="round" fill="none" stroke="#730000" stroke-opacity=".55" d="M68.45735 16.2615C68.45735 16.2615 67.70616 15.89343 67.41777 15.75761 67.12936 15.62181 66.66707 15.40744 66.37866 15.2826 66.09026 15.15775 65.62747 14.97034 65.33907 14.8578 65.05066 14.74524 64.58836 14.57115 64.29996 14.4713 64.01155 14.37144 63.54877 14.22153 63.26036 14.13803 62.97195 14.05453 62.50966 13.93636 62.22127 13.86943 61.93285 13.80247 61.47006 13.70357 61.18166 13.65555 60.89326 13.60753 60.43095 13.54971 60.14256 13.52322 59.85416 13.49673 59.39134 13.46812 59.10294 13.46454 58.81454 13.46095 58.35225 13.47563 58.06386 13.49738 57.77545 13.5191 57.31265 13.5743 57.02425 13.62122 56.73584 13.66814 56.27354 13.76212 55.98515 13.83562 55.69675 13.9091 55.23395 14.04945 54.94554 14.15097 54.65714 14.25249 54.1948 14.43921 53.90645 14.5673 53.61812 14.69539 53.15575 14.91815 52.86736 15.07417 52.57893 15.2302 52.11617 15.5081 51.82774 15.69196 51.53935 15.8758 51.07704 16.19156 50.78865 16.39928 50.50023 16.60701 50.03746 16.95972 49.74904 17.1892 49.46065 17.41864 48.99834 17.80467 48.70995 18.05319 48.42152 18.3017 47.95876 18.71681 47.67033 18.98038 47.38194 19.24393 46.91965 19.67912 46.63124 19.95282 46.34285 20.22652 45.88005 20.67426 45.59166 20.95314 45.30324 21.23201 44.84094 21.68538 44.55254 21.96289 44.26414 22.24039 43.80135 22.6834 43.51295 22.95323 43.22453 23.22307 42.76225 23.65305 42.47383 23.90778 42.18544 24.16252 41.72264 24.55592 41.43425 24.78918 41.14583 25.02246 40.68347 25.38489 40.39513 25.58904 40.10681 25.79317 39.64444 26.09203 39.35603 26.26056 39.06763 26.4291 38.60484 26.67697 38.31644 26.80374 38.02803 26.9305 37.56573 27.09557 37.27733 27.1743 36.98892 27.25305 36.52614 27.34459 36.23773 27.37129 35.94933 27.39798 35.48703 27.39719 35.19862 27.36682 34.91023 27.33644 34.44743 27.2433 34.15904 27.15242 33.87062 27.06154 33.40825 26.86458 33.11992 26.7117 32.8316 26.55885 32.36916 26.26472 32.08083 26.05064 31.79248 25.8366 31.33011 25.44487 31.04172 25.16873 30.75331 24.89261 30.29053 24.3972 30.00212 24.06049 29.71371 23.72375 29.2514 23.13425 28.96301 22.74184 28.6746 22.34944 28.21182 21.67793 27.92342 21.23218 27.63501 20.78642 27.17265 20.0229 26.88431 19.52904 26.59598 19.03517 26.13362 18.20828 25.84523 17.67267 25.55681 17.13704 25.09402 16.23975 24.8056 15.66858 24.51721 15.09743 24.05492 14.1564 23.76653 13.55605 23.47812 12.95569 23.01532 11.9634 22.7269 11.34157 22.4385 10.71974 21.97623 9.71002 21.68782 9.07434 21.39943 8.43866 20.93661 7.40446 20.64821 6.75986 20.3598 6.11525 19.89752 5.07443 19.60912 4.42847 19.32072 3.7825 18.85791 2.74498 18.56952 2.10405 18.2811 1.46312 17.81882 .4395 17.53041-.19098 17.24202-.82149 16.7792-1.82483 16.49081-2.4403 16.2024-3.05579 15.74013-4.02907 15.45172-4.62694 15.16331-5.22482 14.7005-6.1744 14.41211-6.7494 14.12369-7.32445 13.66135-8.22191 13.37302-8.77141 13.08469-9.3209 12.62231-10.18561 12.33391-10.70985 12.0455-11.23409 11.5827-12.05322 11.2943-12.54977 11.00589-13.04634 10.54361-13.8202 10.2552-14.28874 9.96681-14.75728 9.504-15.48616 9.21559-15.92674 8.92719-16.36732 8.4649-17.05023 8.17651-17.46425 7.8881-17.87827 7.4253-18.52199 7.1369-18.91074 6.84848-19.2995 6.3862-19.90271 6.09781-20.2662 5.8094-20.6297 5.34659-21.19005 5.0582-21.53064 4.76979-21.87123 4.30751-22.40196 4.0191-22.72095 3.7307-23.03993 3.2679-23.52956 2.97949-23.82968 2.69109-24.12982 2.2288-24.60065 1.9404-24.88422 1.652-25.1678 1.1892-25.60641 .90079-25.87357 .6124-26.1407 .15005-26.55518-.13826-26.8097-.42659-27.06422-.88896-27.46602-1.17735-27.70802-1.46577-27.95006-1.92854-28.32289-2.21696-28.55414-2.50536-28.7854-3.25606-29.37488-3.25606-29.37488"/>
<path transform="matrix(1.00002,0,0,-1.00006,102.873088,64.90617)" stroke-width=".3487" stroke-linecap="round" stroke-linejoin="round" fill="none" stroke="#730000" stroke-opacity=".55" d="M84.75668 12.32495C84.75668 12.32495 84.0055 11.89276 83.71709 11.73004 83.42868 11.56732 82.96638 11.31009 82.67798 11.15204 82.38957 10.994 81.92679 10.7441 81.63838 10.59096 81.34998 10.4378 80.88768 10.19582 80.59929 10.04828 80.31087 9.90073 79.84808 9.66833 79.55968 9.52748 79.27129 9.38663 78.80898 9.16652 78.52058 9.03304 78.23218 8.89958 77.7694 8.69164 77.48097 8.56549 77.19258 8.43935 76.73027 8.24068 76.44188 8.12378 76.15347 8.00688 75.69069 7.82845 75.40228 7.72285 75.11388 7.61726 74.65157 7.45894 74.36317 7.36272 74.07477 7.26653 73.61198 7.11414 73.32358 7.02946 73.03517 6.94481 72.57289 6.82553 72.28447 6.7524 71.99608 6.67924 71.53328 6.56396 71.24489 6.5022 70.95647 6.44043 70.49411 6.35587 70.20576 6.3072 69.91743 6.25856 69.45506 6.18892 69.16667 6.15154 68.87825 6.11414 68.41548 6.06348 68.12706 6.03761 67.83867 6.01173 67.37636 5.97928 67.08797 5.965 66.79956 5.95071 66.33678 5.93954 66.04836 5.93465 65.75996 5.92975 65.29767 5.92885 65.00926 5.92967 64.72087 5.9305 64.25807 5.93236 63.96968 5.94063 63.68126 5.9489 63.21896 5.97557 62.93056 5.98936 62.64217 6.00316 62.17937 6.02596 61.89098 6.0401 61.60255 6.05424 61.14027 6.07726 60.85185 6.09134 60.56346 6.10541 60.10066 6.12952 59.81227 6.14157 59.52385 6.15364 59.06157 6.17369 58.77315 6.17838 58.48476 6.18306 58.02196 6.18001 57.73357 6.17538 57.44516 6.17078 56.98279 6.16139 56.69446 6.14507 56.40613 6.12872 55.94377 6.08911 55.65536 6.05751 55.36696 6.02591 54.90416 5.9676 54.61575 5.91722 54.32735 5.86687 53.86507 5.76581 53.57668 5.69441 53.28827 5.62299 52.82545 5.49496 52.53706 5.4024 52.24864 5.30986 51.78635 5.14447 51.49796 5.02734 51.20955 4.91025 50.74675 4.70177 50.45836 4.55829 50.16995 4.41481 49.70758 4.16335 49.41925 3.99324 49.13092 3.8231 48.66849 3.52898 48.38016 3.33215 48.09183 3.13535 47.62946 2.79813 47.34105 2.5746 47.05266 2.35107 46.58986 1.971 46.30147 1.72104 46.01305 1.47107 45.55077 1.0475 45.26234 .77295 44.97395 .49841 44.51115 .03792 44.22276-.25763 43.93434-.55322 43.47198-1.04073 43.18364-1.35742 42.89532-1.67412 42.43294-2.2048 42.14455-2.54028 41.85614-2.87576 41.39336-3.42471 41.10493-3.77538 40.81654-4.12602 40.35425-4.70518 40.06584-5.06764 39.77745-5.43011 39.31465-6.01602 39.02626-6.3878 38.73784-6.75958 38.27554-7.36813 37.98714-7.74722 37.69875-8.12633 37.23595-8.73894 36.94756-9.1201 36.65913-9.50128 36.19684-10.11322 35.90843-10.49445 35.62004-10.87569 35.15724-11.48874 34.86885-11.86783 34.58043-12.24693 34.11815-12.8514 33.82974-13.22676 33.54134-13.60211 33.07854-14.20363 32.79015-14.57327 32.50174-14.94292 32.03944-15.52873 31.75104-15.89093 31.46263-16.2531 30.99985-16.8309 30.71144-17.18372 30.42305-17.53653 29.96068-18.09259 29.67233-18.43373 29.384-18.77484 28.92163-19.31277 28.63322-19.64244 28.34483-19.97212 27.88203-20.49315 27.59363-20.80986 27.30522-21.12657 26.84293-21.61984 26.55453-21.9251 26.26613-22.23035 25.80333-22.7143 25.51494-23.00995 25.22653-23.3056 24.76422-23.7736 24.47583-24.05602 24.18742-24.33842 23.72464-24.77457 23.43623-25.04538 23.14783-25.3162 22.68553-25.74638 22.39713-26.00787 22.10872-26.26938 21.64594-26.68025 21.35753-26.93008 21.06912-27.1799 20.60683-27.56767 20.31842-27.80853 20.03003-28.04938 19.56723-28.43225 19.27882-28.66606 18.99043-28.89987 18.52814-29.26755 18.23972-29.49376 17.95132-29.71999 17.48853-30.077 17.20013-30.2966 16.91173-30.51619 16.44936-30.8626 16.16101-31.07654 15.87268-31.29048 15.41031-31.62976 15.12192-31.8386 14.83351-32.04742 14.37073-32.37737 14.08232-32.58173 13.79391-32.78607 13.04321-33.31143 13.04321-33.31143"/>
<path transform="matrix(1.00002,0,0,-1.00006,102.873088,64.90617)" stroke-width=".3487" stroke-linecap="round" stroke-linejoin="round" fill="none" stroke="#730000" stroke-opacity=".55" d="M101.05603 8.53413C101.05603 8.53413 100.30484 8.06802 100.01642 7.88948 99.72803 7.71095 99.26572 7.42511 98.97733 7.24733 98.6889 7.06955 98.22614 6.78468 97.93771 6.60814 97.64932 6.43161 97.18701 6.14995 96.89862 5.97495 96.61021 5.79993 96.14743 5.52026 95.85901 5.3467 95.57062 5.17314 95.1083 4.89583 94.81992 4.72394 94.53152 4.55203 94.06873 4.27762 93.78032 4.10762 93.49191 3.93765 93.02962 3.6669 92.74121 3.49881 92.45282 3.33069 91.99 3.06163 91.7016 2.89592 91.4132 2.73022 90.95093 2.4675 90.6625 2.3045 90.37411 2.1415 89.9113 1.88184 89.62291 1.72104 89.33449 1.56023 88.87222 1.30356 88.5838 1.14552 88.29541 .98749 87.8326 .7368 87.5442 .58195 87.2558 .4271 86.79344 .18155 86.5051 .02931 86.21678-.12288 85.75441-.36542 85.466-.5153 85.1776-.6652 84.71481-.90381 84.4264-1.05101 84.138-1.19821 83.6757-1.43178 83.3873-1.57628 83.0989-1.7208 82.63611-1.95052 82.34772-2.0926 82.0593-2.2347 81.597-2.46024 81.3086-2.60046 81.0202-2.74068 80.5574-2.9634 80.26901-3.10335 79.98059-3.24332 79.51831-3.47018 79.2299-3.60924 78.9415-3.74828 78.4787-3.96776 78.1903-4.10564 77.9019-4.24352 77.4396-4.4651 77.1512-4.60306 76.8628-4.74101 76.40001-4.96208 76.1116-5.09996 75.8232-5.23785 75.3609-5.45668 75.0725-5.59691 74.78409-5.73712 74.3213-5.96774 74.0329-6.11073 73.7445-6.25371 73.28214-6.48193 72.99379-6.62755 72.70546-6.77316 72.24309-7.01231 71.9547-7.1603 71.66629-7.30826 71.20349-7.5433 70.9151-7.69402 70.6267-7.84473 70.16438-8.08867 69.87599-8.24664 69.58759-8.40462 69.1248-8.66953 68.8364-8.8326 68.54799-8.99567 68.0857-9.2535 67.79729-9.42203 67.50888-9.59056 67.0461-9.87384 66.75769-10.04727 66.46928-10.22069 66.00693-10.49362 65.71858-10.67204 65.43025-10.85043 64.9678-11.14456 64.67949-11.33311 64.39114-11.52165 63.92879-11.83739 63.64037-12.03098 63.35197-12.22456 62.88918-12.52982 62.60078-12.72836 62.31236-12.92691 61.85008-13.25804 61.56166-13.46205 61.27327-13.66606 60.81047-13.98969 60.52208-14.19872 60.23367-14.40775 59.7713-14.75235 59.48297-14.9687 59.19464-15.18507 58.73228-15.53899 58.44388-15.7581 58.15549-15.97722 57.69267-16.32661 57.40428-16.548 57.11586-16.7694 56.65358-17.12975 56.36517-17.35382 56.07678-17.57791 55.61397-17.93626 55.32558-18.16312 55.03716-18.38997 54.57487-18.75972 54.28648-18.98883 53.99808-19.21796 53.53526-19.58543 53.24687-19.81456 52.95845-20.04369 52.49619-20.41107 52.20778-20.64024 51.91937-20.86945 51.45656-21.23851 51.16817-21.46646 50.87976-21.69441 50.41748-22.0561 50.12907-22.28323 49.84067-22.51035 49.37787-22.87662 49.08946-23.10345 48.80107-23.3303 48.33878-23.69325 48.05037-23.91824 47.76198-24.14322 47.29916-24.50288 47.01076-24.72504 46.72237-24.94719 46.26001-25.2996 45.97166-25.5194 45.68333-25.73921 45.22096-26.0917 44.93257-26.30931 44.64417-26.52692 44.18137-26.87292 43.89296-27.08777 43.60455-27.30261 43.14226-27.64603 42.85387-27.85776 42.56546-28.06949 42.10266-28.40482 41.81425-28.61385 41.52585-28.82288 41.06357-29.15775 40.77516-29.36444 40.48677-29.57112 40.02396-29.90002 39.73555-30.1036 39.44714-30.30719 38.98488-30.63043 38.69646-30.8318 38.40807-31.03319 37.94525-31.35568 37.65685-31.55505 37.36845-31.75444 36.90617-32.07182 36.61775-32.26883 36.32936-32.46587 35.86655-32.78 35.57816-32.97517 35.28975-33.17035 34.82747-33.48203 34.53905-33.67555 34.25066-33.86906 33.78784-34.17795 33.49945-34.36993 33.21104-34.56194 32.74869-34.86882 32.46037-35.05934 32.17203-35.24988 31.70966-35.554 31.42125-35.74332 31.13286-35.9326 30.67006-36.23521 30.38167-36.42377 30.09325-36.6123 29.34254-37.10225 29.34254-37.10225"/>
<path transform="matrix(1.00002,0,0,-1.00006,102.873088,64.90617)" stroke-width=".79701" stroke-linecap="round" stroke-linejoin="round" fill="none" stroke="#000000" d="M0 0 79.11215-17.37363"/>
<path transform="matrix(.97669956,.21447286,.21446429,-.9767386,179.57917,81.752147)" d="M5.44046 0 1.28699 1.5706 2.66432 0 1.28699-1.5706Z"/>
<path transform="matrix(.97669956,.21447286,.21446429,-.9767386,179.57917,81.752147)" stroke-width=".79701" stroke-linecap="round" stroke-miterlimit="10" stroke-linejoin="miter" fill="none" stroke="#000000" d="M5.44046 0 1.28699 1.5706 2.66432 0 1.28699-1.5706Z"/>
<use data-text="x" xlink:href="#font_1_3" transform="matrix(11.95544,0,0,-11.955917,190.38484,92.69384)"/>
<path transform="matrix(1.00002,0,0,-1.00006,102.873088,64.90617)" stroke-width=".79701" stroke-linecap="round" stroke-linejoin="round" fill="none" stroke="#000000" d="M0 0-40.54189-25.82657"/>
<path transform="matrix(-.84336689,.53728219,.5372608,.84340056,64.40936,89.409877)" d="M5.44046 0 1.28699 1.5706 2.66432 0 1.28699-1.5706Z"/>
<path transform="matrix(-.84336689,.53728219,.5372608,.84340056,64.40936,89.409877)" stroke-width=".79701" stroke-linecap="round" stroke-miterlimit="10" stroke-linejoin="miter" fill="none" stroke="#000000" d="M5.44046 0 1.28699 1.5706 2.66432 0 1.28699-1.5706Z"/>
<use data-text="y" xlink:href="#font_1_4" transform="matrix(11.95544,0,0,-11.955917,48.343996,102.47342)"/>
<path transform="matrix(1.00002,0,0,-1.00006,102.873088,64.90617)" stroke-width=".79701" stroke-linecap="round" stroke-linejoin="round" fill="none" stroke="#000000" d="M0 0V49.6772"/>
<path transform="matrix(0,-1.00006,-1.00002,-0,102.873088,17.691212)" d="M5.44046 0 1.28699 1.5706 2.66432 0 1.28699-1.5706Z"/>
<path transform="matrix(0,-1.00006,-1.00002,-0,102.873088,17.691212)" stroke-width=".79701" stroke-linecap="round" stroke-miterlimit="10" stroke-linejoin="miter" fill="none" stroke="#000000" d="M5.44046 0 1.28699 1.5706 2.66432 0 1.28699-1.5706Z"/>
<use data-text="z" xlink:href="#font_1_5" transform="matrix(11.95544,0,0,-11.955917,99.88802,6.7316858)"/>
<use data-text="z" xlink:href="#font_1_5" transform="matrix(11.95544,0,0,-11.955917,125.45054,22.906655)" fill="#b30000"/>
<use data-text="=" xlink:href="#font_2_3" transform="matrix(11.95544,0,0,-11.955917,134.7427,22.906655)" fill="#b30000"/>
<use data-text="f" xlink:href="#font_1_2" transform="matrix(11.95544,0,0,-11.955917,147.16796,22.906655)" fill="#b30000"/>
<use data-text="(" xlink:href="#font_2_1" transform="matrix(11.95544,0,0,-11.955917,154.2151,22.906655)" fill="#b30000"/>
<use data-text="x" xlink:href="#font_1_3" transform="matrix(11.95544,0,0,-11.955917,158.7672,22.906655)" fill="#b30000"/>
<use data-text="," xlink:href="#font_1_1" transform="matrix(11.95544,0,0,-11.955917,165.41442,22.906655)" fill="#b30000"/>
<use data-text="y" xlink:href="#font_1_4" transform="matrix(11.95544,0,0,-11.955917,170.63893,22.906655)" fill="#b30000"/>
<use data-text=")" xlink:href="#font_2_2" transform="matrix(11.95544,0,0,-11.955917,176.80055,22.906655)" fill="#b30000"/>
</svg>
