<svg xmlns="http://www.w3.org/2000/svg" xmlns:xlink="http://www.w3.org/1999/xlink" xmlns:inkscape="http://www.inkscape.org/namespaces/inkscape" version="1.1" width="147" height="79" viewBox="0 0 147 79">
<defs>
<path id="font_1_1" d="M.49499513 .37831117C.5019989 .3933258 .5059967 .4013214 .56900027 .4013214V.44433595C.5329895 .44232179 .5309906 .44232179 .48999024 .44232179 .46299745 .44232179 .46099855 .44232179 .4039917 .44433595V.4013214C.43099977 .4013214 .45298768 .3963318 .45298768 .389328 .45298768 .38832093 .45298768 .38731385 .44799806 .37731935L.33099366 .120162967 .20199585 .4013214H.25698854V.44433595C.23399353 .44232179 .1639862 .44232179 .13699341 .44232179 .10798645 .44232179 .049987794 .44232179 .023986817 .44433595V.4013214H.08699036L.2630005 .019104004C.27198792 .00010681152 .27398683-.0048828127 .29699708-.0048828127 .31298829-.0048828127 .32099916-.0028839112 .32998658 .017105103L.49499513 .37831117Z"/>
<path id="font_1_2" d="M.7200012 .37731935C.72698977 .39431764 .7299957 .4013214 .7879944 .4013214V.44433595C.7589874 .44232179 .74598696 .44232179 .70999148 .44232179 .6689911 .44232179 .6559906 .44232179 .6199951 .44433595V.4013214C.6289978 .4013214 .6779938 .4013214 .6779938 .38832093 .6779938 .38731385 .6779938 .38632203 .673996 .37631227L.56900027 .11616516 .45399476 .4013214H.5109863V.44433595C.4869995 .44232179 .42799378 .44232179 .40098573 .44232179 .34999085 .44232179 .34799195 .44232179 .2979889 .44433595V.4013214H.35699464C.3600006 .3933258 .36499024 .38031007 .36898805 .37130738 .37199403 .36531068 .38198854 .34129334 .38198854 .33628846 .38198854 .33428956 .3789978 .32728578 .37799073 .3242798L.3019867 .13517761 .19400025 .4013214H.25099183V.44433595C.22799683 .44232179 .1599884 .44232179 .1329956 .44232179 .100997928 .44232179 .052993776 .44232179 .022994996 .44433595V.4013214H.08198547L.23498535 .020111084C.24198914 .002105713 .24598694-.0048828127 .2679901-.0048828127 .2789917-.0048828127 .29100038-.0048828127 .29899598 .015106201L.40499879 .28025819 .5109863 .017105103C.519989-.0048828127 .5309906-.0048828127 .54299929-.0048828127 .5649872-.0048828127 .56799319 .0011138916 .57499697 .019104004L.7200012 .37731935Z"/>
<path id="font_2_1" d="M.39898683 .23057556H.6749878C.68899539 .23057556 .70700076 .23057556 .70700076 .24856568 .70700076 .26757813 .6899872 .26757813 .6749878 .26757813H.39898683V.5441437C.39898683 .5581665 .39898683 .5761719 .3809967 .5761719 .3619995 .5761719 .3619995 .5591583 .3619995 .5441437V.26757813H.085998538C.07199097 .26757813 .053985597 .26757813 .053985597 .24957276 .053985597 .23057556 .070999149 .23057556 .085998538 .23057556H.3619995V-.045166017C.3619995-.059158327 .3619995-.07714844 .37998963-.07714844 .39898683-.07714844 .39898683-.060150148 .39898683-.045166017V.23057556Z"/>
</defs>
<path transform="matrix(1.00006,0,0,-1.00008,1.6874008,75.63777)" stroke-width=".79701" stroke-linecap="butt" stroke-miterlimit="10" stroke-linejoin="miter" fill="none" stroke="#0000ff" d="M0 0 112.59639 14.07454"/>
<path transform="matrix(.99231949,-.12402992,-.12402744,-.9923394,114.685977,61.51268)" stroke-width=".79701" stroke-linecap="round" stroke-linejoin="round" fill="none" stroke="#0000ff" d="M-2.55046 3.11095C-2.0845 1.24435-1.04614 .36295 0 0-1.04614-.36295-2.0845-1.24435-2.55046-3.11095"/>
<use data-text="v" xlink:href="#font_1_1" transform="matrix(11.955917,0,0,-11.956157,62.768064,78.24798)" fill="#0000ff"/>
<path transform="matrix(1.00006,0,0,-1.00008,1.6874008,75.63777)" stroke-width=".79701" stroke-linecap="butt" stroke-miterlimit="10" stroke-linejoin="miter" fill="none" stroke="#ff0000" d="M0 0 27.9904 55.9808"/>
<path transform="matrix(.4471968,-.89443156,-.89441367,-.44720576,29.8577,19.296067)" stroke-width=".79701" stroke-linecap="round" stroke-linejoin="round" fill="none" stroke="#ff0000" d="M-2.55046 3.11095C-2.0845 1.24435-1.04614 .36295 0 0-1.04614-.36295-2.0845-1.24435-2.55046-3.11095"/>
<use data-text="w" xlink:href="#font_1_2" transform="matrix(11.955917,0,0,-11.956157,1.5773926,42.905157)" fill="#ff0000"/>
<path transform="matrix(1.00006,0,0,-1.00008,1.6874008,75.63777)" stroke-width=".79701" stroke-linecap="butt" stroke-dasharray="2.98883,2.98883" stroke-miterlimit="10" stroke-linejoin="miter" fill="none" stroke="#ff0000" d="M113.38724 14.17339 141.37764 70.1542"/>
<path transform="matrix(.4471968,-.89443156,-.89441367,-.44720576,143.25174,5.1215364)" stroke-width=".79701" stroke-linecap="round" stroke-linejoin="round" fill="none" stroke="#ff0000" d="M-2.55046 3.11095C-2.0845 1.24435-1.04614 .36295 0 0-1.04614-.36295-2.0845-1.24435-2.55046-3.11095"/>
<path transform="matrix(1.00006,0,0,-1.00008,1.6874008,75.63777)" stroke-width=".79701" stroke-linecap="butt" stroke-dasharray="2.98883,2.98883" stroke-miterlimit="10" stroke-linejoin="miter" fill="none" stroke="#0000ff" d="M28.3468 56.69362 140.9432 70.76817"/>
<path transform="matrix(.99231949,-.12402992,-.12402744,-.9923394,143.03449,4.8145296)" stroke-width=".79701" stroke-linecap="round" stroke-linejoin="round" fill="none" stroke="#0000ff" d="M-2.55046 3.11095C-2.0845 1.24435-1.04614 .36295 0 0-1.04614-.36295-2.0845-1.24435-2.55046-3.11095"/>
<path transform="matrix(1.00006,0,0,-1.00008,1.6874008,75.63777)" stroke-width=".79701" stroke-linecap="butt" stroke-miterlimit="10" stroke-linejoin="miter" fill="none" stroke="#008000" d="M0 0 141.02124 70.51062"/>
<path transform="matrix(.89441367,-.44720576,-.4471968,-.89443156,143.07352,4.943306)" stroke-width=".79701" stroke-linecap="round" stroke-linejoin="round" fill="none" stroke="#008000" d="M-2.55046 3.11095C-2.0845 1.24435-1.04614 .36295 0 0-1.04614-.36295-2.0845-1.24435-2.55046-3.11095"/>
<use data-text="v" xlink:href="#font_1_1" transform="matrix(11.955917,0,0,-11.956157,76.94191,51.476839)" fill="#008000"/>
<use data-text="+" xlink:href="#font_2_1" transform="matrix(11.955917,0,0,-11.956157,86.88451,51.476839)" fill="#008000"/>
<use data-text="w" xlink:href="#font_1_2" transform="matrix(11.955917,0,0,-11.956157,98.64621,51.476839)" fill="#008000"/>
<path transform="matrix(1.00006,0,0,-1.00008,1.6874008,75.63777)" d="M142.73032 70.867C142.73032 71.41725 142.28427 71.86328 141.73404 71.86328 141.1838 71.86328 140.73777 71.41725 140.73777 70.867 140.73777 70.31677 141.1838 69.87073 141.73404 69.87073 142.28427 69.87073 142.73032 70.31677 142.73032 70.867ZM141.73404 70.867"/>
<path transform="matrix(1.00006,0,0,-1.00008,1.6874008,75.63777)" stroke-width=".3985" stroke-linecap="butt" stroke-miterlimit="10" stroke-linejoin="miter" fill="none" stroke="#000000" d="M142.73032 70.867C142.73032 71.41725 142.28427 71.86328 141.73404 71.86328 141.1838 71.86328 140.73777 71.41725 140.73777 70.867 140.73777 70.31677 141.1838 69.87073 141.73404 69.87073 142.28427 69.87073 142.73032 70.31677 142.73032 70.867ZM141.73404 70.867"/>
</svg>
