<svg xmlns="http://www.w3.org/2000/svg" xmlns:xlink="http://www.w3.org/1999/xlink" xmlns:inkscape="http://www.inkscape.org/namespaces/inkscape" version="1.1" width="205" height="111" viewBox="0 0 205 111">
<defs>
<path id="font_1_1" d="M.44799806 .31976319C.44799806 .40283204 .44299317 .48390199 .40699769 .55996707 .3659973 .64302065 .2939911 .66503909 .24499512 .66503909 .18699646 .66503909 .115997318 .63601687 .07899475 .552948 .050994874 .48989869 .040985109 .42785646 .040985109 .31976319 .040985109 .22268677 .04798889 .14962769 .083999637 .078567508 .12298584 .0025177003 .19198609-.021484375 .24398804-.021484375 .33099366-.021484375 .3809967 .030532837 .4099884 .08857727 .44599916 .16363526 .44799806 .26171876 .44799806 .31976319M.24398804-.0014953613C.21199036-.0014953613 .14698792 .016525269 .12799073 .12561035 .116989139 .18565369 .116989139 .26171876 .116989139 .33177186 .116989139 .41384889 .116989139 .48789979 .1329956 .5469513 .1499939 .6139984 .20098877 .6450348 .24398804 .6450348 .28199769 .6450348 .33999635 .6220093 .35899354 .53593447 .37199403 .4788971 .37199403 .39982606 .37199403 .33177186 .37199403 .26472474 .37199403 .18865967 .36099244 .12760926 .34199525 .01751709 .2789917-.0014953613 .24398804-.0014953613Z"/>
<path id="font_1_2" d="M.28799439 .64105227C.28799439 .664032 .28799439 .66503909 .2679901 .66503909 .24398804 .6380615 .19400025 .6012573 .09098816 .6012573V.5722656C.11399841 .5722656 .1639862 .5722656 .21899414 .59825137V.07701111C.21899414 .041000368 .21598816 .0289917 .12799073 .0289917H.09700012V0C.12399292 .0019989014 .22099304 .0019989014 .2539978 .0019989014 .2869873 .0019989014 .3829956 .0019989014 .4099884 0V.0289917H.3789978C.29100038 .0289917 .28799439 .041000368 .28799439 .07701111V.64105227Z"/>
<path id="font_2_1" d="M.2749939 .42684938C.27598573 .44084168 .27598573 .46484376 .25 .46484376 .23399353 .46484376 .22099304 .45184327 .22399903 .43884278V.42585755L.23799134 .27098084 .10998535 .36390687C.100997928 .36889649 .09899902 .3708954 .09199524 .3708954 .07798767 .3708954 .06498718 .35691834 .06498718 .34292604 .06498718 .3269348 .07499695 .322937 .084991458 .3179474L.22698975 .25 .08898926 .18305969C.07299805 .17506409 .06498718 .17106629 .06498718 .15608216 .06498718 .14109802 .07798767 .1281128 .09199524 .1281128 .09899902 .1281128 .100997928 .1281128 .12599182 .14709473L.23799134 .22802735 .22299195 .060165407C.22299195 .03916931 .24099732 .034179689 .24899292 .034179689 .26098634 .034179689 .27598573 .041168214 .27598573 .060165407L.26098634 .22802735 .3889923 .13510132C.397995 .1301117 .3999939 .1281128 .40699769 .1281128 .42099 .1281128 .43399049 .14208985 .43399049 .15608216 .43399049 .17106629 .4249878 .17607117 .41299439 .18206787 .35299684 .21203614 .35099793 .21203614 .27198792 .24900818L.4099884 .3159485C.42599488 .3239441 .43399049 .3279419 .43399049 .34292604 .43399049 .35791017 .42099 .3708954 .40699769 .3708954 .3999939 .3708954 .397995 .3708954 .37298585 .35191346L.26098634 .27098084 .2749939 .42684938Z"/>
<path id="font_3_1" d="M.32598878-1.7597656H.394989V-.029937745H.6589966V.0390625H.32598878V-1.7597656Z"/>
<path id="font_3_5" d="M.32598878-.60058596H.394989V.0014343262H.32598878V-.60058596Z"/>
<path id="font_3_3" d="M.32598878-1.7587891H.6589966V-1.6898041H.394989V.040039064H.32598878V-1.7587891Z"/>
<path id="font_3_2" d="M.2709961-1.7597656H.33999635V.0390625H.0069885256V-.029937745H.2709961V-1.7597656Z"/>
<path id="font_3_6" d="M.2709961-.60058596H.33999635V.0014343262H.2709961V-.60058596Z"/>
<path id="font_3_4" d="M.2709961-1.6898041H.0069885256V-1.7587891H.33999635V.040039064H.2709961V-1.6898041Z"/>
</defs>
<use data-text="0" xlink:href="#font_1_1" transform="matrix(11.955797,0,0,-11.955797,14.926498,15.473072)"/>
<use data-text="1" xlink:href="#font_1_2" transform="matrix(11.955797,0,0,-11.955797,43.0959,15.473072)"/>
<use data-text="&#x2217;" xlink:href="#font_2_1" transform="matrix(11.955797,0,0,-11.955797,71.2663,15.473072)"/>
<use data-text="&#x2217;" xlink:href="#font_2_1" transform="matrix(11.955797,0,0,-11.955797,99.560718,15.473072)"/>
<use data-text="&#x2217;" xlink:href="#font_2_1" transform="matrix(11.955797,0,0,-11.955797,127.85513,15.473072)"/>
<use data-text="&#x2217;" xlink:href="#font_2_1" transform="matrix(11.955797,0,0,-11.955797,156.14957,15.473072)"/>
<use data-text="&#x2217;" xlink:href="#font_2_1" transform="matrix(11.955797,0,0,-11.955797,184.44397,15.473072)"/>
<use data-text="0" xlink:href="#font_1_1" transform="matrix(11.955797,0,0,-11.955797,14.926498,37.126153)"/>
<use data-text="0" xlink:href="#font_1_1" transform="matrix(11.955797,0,0,-11.955797,43.0959,37.126153)"/>
<use data-text="0" xlink:href="#font_1_1" transform="matrix(11.955797,0,0,-11.955797,71.32831,37.126153)"/>
<use data-text="1" xlink:href="#font_1_2" transform="matrix(11.955797,0,0,-11.955797,99.62273,37.126153)"/>
<use data-text="&#x2217;" xlink:href="#font_2_1" transform="matrix(11.955797,0,0,-11.955797,127.85513,37.126153)"/>
<use data-text="&#x2217;" xlink:href="#font_2_1" transform="matrix(11.955797,0,0,-11.955797,156.14957,37.126153)"/>
<use data-text="&#x2217;" xlink:href="#font_2_1" transform="matrix(11.955797,0,0,-11.955797,184.44397,37.126153)"/>
<use data-text="0" xlink:href="#font_1_1" transform="matrix(11.955797,0,0,-11.955797,14.926498,58.778234)"/>
<use data-text="0" xlink:href="#font_1_1" transform="matrix(11.955797,0,0,-11.955797,43.0959,58.778234)"/>
<use data-text="0" xlink:href="#font_1_1" transform="matrix(11.955797,0,0,-11.955797,71.32831,58.778234)"/>
<use data-text="0" xlink:href="#font_1_1" transform="matrix(11.955797,0,0,-11.955797,99.62273,58.778234)"/>
<use data-text="1" xlink:href="#font_1_2" transform="matrix(11.955797,0,0,-11.955797,127.917148,58.778234)"/>
<use data-text="&#x2217;" xlink:href="#font_2_1" transform="matrix(11.955797,0,0,-11.955797,156.14957,58.778234)"/>
<use data-text="&#x2217;" xlink:href="#font_2_1" transform="matrix(11.955797,0,0,-11.955797,184.44397,58.778234)"/>
<use data-text="0" xlink:href="#font_1_1" transform="matrix(11.955797,0,0,-11.955797,14.926498,80.43031)"/>
<use data-text="0" xlink:href="#font_1_1" transform="matrix(11.955797,0,0,-11.955797,43.0959,80.43031)"/>
<use data-text="0" xlink:href="#font_1_1" transform="matrix(11.955797,0,0,-11.955797,71.32831,80.43031)"/>
<use data-text="0" xlink:href="#font_1_1" transform="matrix(11.955797,0,0,-11.955797,99.62273,80.43031)"/>
<use data-text="0" xlink:href="#font_1_1" transform="matrix(11.955797,0,0,-11.955797,127.917148,80.43031)"/>
<use data-text="0" xlink:href="#font_1_1" transform="matrix(11.955797,0,0,-11.955797,156.21158,80.43031)"/>
<use data-text="1" xlink:href="#font_1_2" transform="matrix(11.955797,0,0,-11.955797,184.50598,80.43031)"/>
<use data-text="0" xlink:href="#font_1_1" transform="matrix(11.955797,0,0,-11.955797,14.926498,102.0824)"/>
<use data-text="0" xlink:href="#font_1_1" transform="matrix(11.955797,0,0,-11.955797,43.0959,102.0824)"/>
<use data-text="0" xlink:href="#font_1_1" transform="matrix(11.955797,0,0,-11.955797,71.32831,102.0824)"/>
<use data-text="0" xlink:href="#font_1_1" transform="matrix(11.955797,0,0,-11.955797,99.62273,102.0824)"/>
<use data-text="0" xlink:href="#font_1_1" transform="matrix(11.955797,0,0,-11.955797,127.917148,102.0824)"/>
<use data-text="0" xlink:href="#font_1_1" transform="matrix(11.955797,0,0,-11.955797,156.21158,102.0824)"/>
<use data-text="0" xlink:href="#font_1_1" transform="matrix(11.955797,0,0,-11.955797,184.50598,102.0824)"/>
<use data-text="&#xf8ee;" xlink:href="#font_3_1" transform="matrix(11.955797,0,0,-11.955797,-2.408371,1.6023798)"/>
<use data-text="&#xf8ef;" xlink:href="#font_3_5" transform="matrix(11.955797,0,0,-11.955797,-2.408371,22.644433)"/>
<use data-text="&#xf8ef;" xlink:href="#font_3_5" transform="matrix(11.955797,0,0,-11.955797,-2.408371,29.81779)"/>
<use data-text="&#xf8ef;" xlink:href="#font_3_5" transform="matrix(11.955797,0,0,-11.955797,-2.408371,36.99215)"/>
<use data-text="&#xf8ef;" xlink:href="#font_3_5" transform="matrix(11.955797,0,0,-11.955797,-2.408371,44.165506)"/>
<use data-text="&#xf8ef;" xlink:href="#font_3_5" transform="matrix(11.955797,0,0,-11.955797,-2.408371,51.338869)"/>
<use data-text="&#xf8ef;" xlink:href="#font_3_5" transform="matrix(11.955797,0,0,-11.955797,-2.408371,58.512224)"/>
<use data-text="&#xf8ef;" xlink:href="#font_3_5" transform="matrix(11.955797,0,0,-11.955797,-2.408371,65.685588)"/>
<use data-text="&#xf8ef;" xlink:href="#font_3_5" transform="matrix(11.955797,0,0,-11.955797,-2.408371,72.85894)"/>
<use data-text="&#xf8ef;" xlink:href="#font_3_5" transform="matrix(11.955797,0,0,-11.955797,-2.408371,80.0333)"/>
<use data-text="&#xf8f0;" xlink:href="#font_3_3" transform="matrix(11.955797,0,0,-11.955797,-2.408371,87.68468)"/>
<use data-text="&#xf8f9;" xlink:href="#font_3_2" transform="matrix(11.955797,0,0,-11.955797,199.78873,1.6023798)"/>
<use data-text="&#xf8fa;" xlink:href="#font_3_6" transform="matrix(11.955797,0,0,-11.955797,199.78873,22.644433)"/>
<use data-text="&#xf8fa;" xlink:href="#font_3_6" transform="matrix(11.955797,0,0,-11.955797,199.78873,29.81779)"/>
<use data-text="&#xf8fa;" xlink:href="#font_3_6" transform="matrix(11.955797,0,0,-11.955797,199.78873,36.99215)"/>
<use data-text="&#xf8fa;" xlink:href="#font_3_6" transform="matrix(11.955797,0,0,-11.955797,199.78873,44.165506)"/>
<use data-text="&#xf8fa;" xlink:href="#font_3_6" transform="matrix(11.955797,0,0,-11.955797,199.78873,51.338869)"/>
<use data-text="&#xf8fa;" xlink:href="#font_3_6" transform="matrix(11.955797,0,0,-11.955797,199.78873,58.512224)"/>
<use data-text="&#xf8fa;" xlink:href="#font_3_6" transform="matrix(11.955797,0,0,-11.955797,199.78873,65.685588)"/>
<use data-text="&#xf8fa;" xlink:href="#font_3_6" transform="matrix(11.955797,0,0,-11.955797,199.78873,72.85894)"/>
<use data-text="&#xf8fa;" xlink:href="#font_3_6" transform="matrix(11.955797,0,0,-11.955797,199.78873,80.0333)"/>
<use data-text="&#xf8fb;" xlink:href="#font_3_4" transform="matrix(11.955797,0,0,-11.955797,199.78873,87.68468)"/>
<path transform="matrix(1.00005,0,0,-1.00005,102.67587,54.925046)" stroke-width=".79701" stroke-linecap="butt" stroke-miterlimit="10" stroke-linejoin="miter" fill="none" stroke="#000000" d="M-70.73341 51.33926-70.7334 32.4773H-14.27124V10.82576H14.00648L14.02205-10.82576H70.60881V-32.4773H91.86597"/>
</svg>
